<svg width="47" height="24" viewBox="0 0 47 24" fill="none" xmlns="http://www.w3.org/2000/svg">
<rect width="47" height="24" rx="12" fill="#0F0F0F" fill-opacity="0.63"/>
<path fill-rule="evenodd" clip-rule="evenodd" d="M9.5 8.84375C9.41371 8.84375 9.34375 8.91371 9.34375 9V15.875C9.34375 15.9613 9.41371 16.0312 9.5 16.0312H19.5C19.5863 16.0312 19.6562 15.9613 19.6562 15.875V9C19.6562 8.91371 19.5863 8.84375 19.5 8.84375H9.5ZM8.40625 9C8.40625 8.39594 8.89594 7.90625 9.5 7.90625H19.5C20.1041 7.90625 20.5938 8.39594 20.5938 9V15.875C20.5938 16.4791 20.1041 16.9688 19.5 16.9688H9.5C8.89594 16.9688 8.40625 16.4791 8.40625 15.875V9Z" fill="white"/>
<path fill-rule="evenodd" clip-rule="evenodd" d="M10.3612 6.34079C10.4283 6.15504 10.6046 6.03125 10.8021 6.03125H13.1979C13.3954 6.03125 13.5717 6.15504 13.6388 6.34079L14.3159 8.21579C14.3678 8.35944 14.3464 8.51935 14.2586 8.64435C14.1709 8.76934 14.0277 8.84375 13.875 8.84375H10.125C9.97228 8.84375 9.82912 8.76934 9.74136 8.64435C9.65361 8.51935 9.63225 8.35944 9.68412 8.21579L10.3612 6.34079ZM11.1312 6.96875L10.7927 7.90625H13.2074L12.8688 6.96875H11.1312Z" fill="white"/>
<path fill-rule="evenodd" clip-rule="evenodd" d="M16.0625 10.7188C15.1133 10.7188 14.3438 11.4883 14.3438 12.4375C14.3438 13.3867 15.1133 14.1562 16.0625 14.1562C17.0117 14.1562 17.7812 13.3867 17.7812 12.4375C17.7812 11.4883 17.0117 10.7188 16.0625 10.7188ZM13.4062 12.4375C13.4062 10.9705 14.5955 9.78125 16.0625 9.78125C17.5295 9.78125 18.7188 10.9705 18.7188 12.4375C18.7188 13.9045 17.5295 15.0938 16.0625 15.0938C14.5955 15.0938 13.4062 13.9045 13.4062 12.4375Z" fill="white"/>
<path fill-rule="evenodd" clip-rule="evenodd" d="M18.25 6.65625C18.5089 6.65625 18.7188 6.86612 18.7188 7.125V8.375C18.7188 8.63388 18.5089 8.84375 18.25 8.84375C17.9911 8.84375 17.7812 8.63388 17.7812 8.375V7.125C17.7812 6.86612 17.9911 6.65625 18.25 6.65625Z" fill="white"/>
<path d="M31.9414 15.9746H31.2812C31.1247 15.9746 31.002 15.9725 30.9131 15.9683C30.7734 15.964 30.6888 15.9619 30.6592 15.9619L30.2275 15.981L30.1133 15.9683C30.0117 15.9556 29.8869 15.9492 29.7388 15.9492C29.5991 15.9492 29.36 15.9556 29.0215 15.9683C28.8607 15.9725 28.7633 15.9746 28.7295 15.9746L28.0884 15.9619L27.0601 15.9746H26.6538V15.543C27.2547 14.7812 27.7054 14.2502 28.0059 13.9497C28.3105 13.645 28.7422 13.1414 29.3008 12.439C29.6901 11.9565 29.9567 11.5249 30.1006 11.144C30.2487 10.7632 30.3228 10.4331 30.3228 10.1538C30.3228 9.84066 30.2762 9.55924 30.1831 9.30957C30.0942 9.0599 29.9334 8.86312 29.7007 8.71924C29.4722 8.57536 29.2225 8.50342 28.9517 8.50342C28.6766 8.50342 28.429 8.57113 28.209 8.70654C27.9889 8.84196 27.8281 9.01335 27.7266 9.2207C27.57 9.52116 27.4748 9.83431 27.4409 10.1602H26.9775C26.9648 9.97819 26.9585 9.82585 26.9585 9.70312C26.9585 9.29264 27.1172 8.89909 27.4346 8.52246C27.9255 7.93848 28.6174 7.64648 29.5103 7.64648C30.255 7.64648 30.8411 7.85807 31.2686 8.28125C31.696 8.7002 31.9097 9.22917 31.9097 9.86816C31.9097 10.1221 31.8695 10.3612 31.7891 10.5854C31.6748 10.8901 31.5352 11.1546 31.3701 11.3789C31.2093 11.6032 30.7629 12.0814 30.0308 12.8135C29.5018 13.3424 28.8395 13.9688 28.0439 14.6924L28.7485 14.7051L29.9038 14.6797L30.5767 14.6924C30.9321 14.6924 31.167 14.6543 31.2812 14.5781C31.3997 14.502 31.5076 14.3221 31.605 14.0386C31.6261 13.9709 31.6642 13.8693 31.7192 13.7339L32.1382 13.7085L32.2207 13.7339C32.2419 13.7677 32.2524 13.7995 32.2524 13.8291C32.2524 13.8968 32.2419 13.9814 32.2207 14.083C32.1995 14.1846 32.1742 14.3517 32.1445 14.5845C32.1191 14.8172 32.0514 15.2806 31.9414 15.9746ZM32.8618 11.8804C32.8618 11.4149 32.8893 11.0509 32.9443 10.7886C33.0713 10.158 33.194 9.70101 33.3125 9.41748C33.4987 8.97738 33.7166 8.62191 33.9663 8.35107C34.2202 8.07601 34.5122 7.86865 34.8423 7.729C35.0369 7.64437 35.2951 7.60205 35.6167 7.60205C36.0103 7.60205 36.3932 7.73958 36.7656 8.01465C37.138 8.28971 37.4702 8.74463 37.7622 9.37939C38.0542 10.0099 38.2002 10.8034 38.2002 11.7598C38.2002 12.4665 38.1198 13.1309 37.959 13.7529C37.8574 14.1296 37.7114 14.4787 37.521 14.8003C37.3348 15.1177 37.1803 15.3377 37.0576 15.4604C36.846 15.6678 36.6133 15.8328 36.3594 15.9556C36.1055 16.0783 35.9002 16.1396 35.7437 16.1396C35.2824 16.1396 34.9312 16.0931 34.6899 16C34.4487 15.9111 34.216 15.7482 33.9917 15.5112C33.7716 15.2743 33.5728 14.9717 33.395 14.6035C33.2215 14.2354 33.0967 13.8799 33.0205 13.5371C32.9147 13.0589 32.8618 12.5067 32.8618 11.8804ZM34.5059 12.7183C34.5059 13.6493 34.5355 14.2798 34.5947 14.6099C34.654 14.9357 34.7661 15.1812 34.9312 15.3462C35.1004 15.507 35.2782 15.5874 35.4644 15.5874C35.6548 15.5874 35.8177 15.5366 35.9531 15.4351C36.0885 15.3335 36.2028 15.1748 36.2959 14.959C36.3932 14.7389 36.4609 14.394 36.499 13.9243C36.5625 13.1584 36.5942 12.6104 36.5942 12.2803L36.5752 11.4424V10.5474C36.5752 10.1242 36.5456 9.73063 36.4863 9.3667C36.4271 9.00277 36.3467 8.74251 36.2451 8.58594C36.1478 8.42513 36.0293 8.3151 35.8896 8.25586C35.7542 8.19238 35.623 8.16064 35.4961 8.16064C35.3395 8.16064 35.1702 8.23893 34.9883 8.39551C34.8063 8.54785 34.6751 8.82926 34.5947 9.23975C34.5143 9.65023 34.4741 10.3506 34.4741 11.3408L34.4868 11.7915C34.4995 12.2274 34.5059 12.5363 34.5059 12.7183Z" fill="white"/>
</svg>
