<svg width="47" height="24" viewBox="0 0 47 24" fill="none" xmlns="http://www.w3.org/2000/svg">
<rect width="47" height="24" rx="12" fill="#0F0F0F" fill-opacity="0.63"/>
<path fill-rule="evenodd" clip-rule="evenodd" d="M9.5 8.84375C9.41371 8.84375 9.34375 8.91371 9.34375 9V15.875C9.34375 15.9613 9.41371 16.0312 9.5 16.0312H19.5C19.5863 16.0312 19.6562 15.9613 19.6562 15.875V9C19.6562 8.91371 19.5863 8.84375 19.5 8.84375H9.5ZM8.40625 9C8.40625 8.39594 8.89594 7.90625 9.5 7.90625H19.5C20.1041 7.90625 20.5938 8.39594 20.5938 9V15.875C20.5938 16.4791 20.1041 16.9688 19.5 16.9688H9.5C8.89594 16.9688 8.40625 16.4791 8.40625 15.875V9Z" fill="white"/>
<path fill-rule="evenodd" clip-rule="evenodd" d="M10.3612 6.34079C10.4283 6.15504 10.6046 6.03125 10.8021 6.03125H13.1979C13.3954 6.03125 13.5717 6.15504 13.6388 6.34079L14.3159 8.21579C14.3678 8.35944 14.3464 8.51935 14.2586 8.64435C14.1709 8.76934 14.0277 8.84375 13.875 8.84375H10.125C9.97228 8.84375 9.82912 8.76934 9.74136 8.64435C9.65361 8.51935 9.63225 8.35944 9.68412 8.21579L10.3612 6.34079ZM11.1312 6.96875L10.7927 7.90625H13.2074L12.8688 6.96875H11.1312Z" fill="white"/>
<path fill-rule="evenodd" clip-rule="evenodd" d="M16.0625 10.7188C15.1133 10.7188 14.3438 11.4883 14.3438 12.4375C14.3438 13.3867 15.1133 14.1562 16.0625 14.1562C17.0117 14.1562 17.7812 13.3867 17.7812 12.4375C17.7812 11.4883 17.0117 10.7188 16.0625 10.7188ZM13.4062 12.4375C13.4062 10.9705 14.5955 9.78125 16.0625 9.78125C17.5295 9.78125 18.7188 10.9705 18.7188 12.4375C18.7188 13.9045 17.5295 15.0938 16.0625 15.0938C14.5955 15.0938 13.4062 13.9045 13.4062 12.4375Z" fill="white"/>
<path fill-rule="evenodd" clip-rule="evenodd" d="M18.25 6.65625C18.5089 6.65625 18.7188 6.86612 18.7188 7.125V8.375C18.7188 8.63388 18.5089 8.84375 18.25 8.84375C17.9911 8.84375 17.7812 8.63388 17.7812 8.375V7.125C17.7812 6.86612 17.9911 6.65625 18.25 6.65625Z" fill="white"/>
<path d="M28.9849 7.63379C29.006 7.63379 29.1499 7.62956 29.4165 7.62109L29.6196 7.62744L30.0195 7.63379C30.0365 7.76921 30.0449 7.86865 30.0449 7.93213C30.0449 7.95329 30.0428 8.01888 30.0386 8.12891C30.0343 8.18815 30.0301 8.41455 30.0259 8.80811L30.0132 9.7666L30.0195 10.3696L29.9751 14.6543V15.0161C29.9751 15.1431 30.0047 15.234 30.064 15.2891C30.1232 15.3441 30.2819 15.3906 30.54 15.4287C30.6416 15.4414 30.8447 15.4753 31.1494 15.5303C31.1579 15.5726 31.1621 15.6128 31.1621 15.6509C31.1621 15.6974 31.1579 15.799 31.1494 15.9556H30.8765C30.6903 15.9556 30.4194 15.9471 30.064 15.9302C29.8481 15.9175 29.7 15.9111 29.6196 15.9111C29.5181 15.9111 29.1436 15.9217 28.4961 15.9429C28.4242 15.9471 28.3649 15.9492 28.3184 15.9492H28.2041L28.02 15.9365L27.8486 15.9492L27.5312 15.9365C27.4889 15.9365 27.4022 15.9429 27.271 15.9556C27.2625 15.8625 27.2583 15.7905 27.2583 15.7397C27.2583 15.6932 27.2625 15.6234 27.271 15.5303C27.4403 15.4837 27.637 15.4372 27.8613 15.3906C28.1702 15.3271 28.3586 15.2658 28.4263 15.2065C28.4982 15.1431 28.5342 15.0605 28.5342 14.959L28.5278 14.5273L28.5532 14.0576L28.5469 13.0928L28.5405 12.8452C28.5405 12.8114 28.5448 12.6844 28.5532 12.4644C28.5617 12.3501 28.5659 12.2485 28.5659 12.1597C28.5659 12.1047 28.5596 11.9333 28.5469 11.6455L28.5723 11.2837C28.5553 11.0086 28.5469 10.8457 28.5469 10.7949C28.5469 10.7314 28.549 10.668 28.5532 10.6045L28.5659 10.4458L28.5469 10.0142L28.5659 9.81738C28.5701 9.72852 28.5723 9.61003 28.5723 9.46191C28.5723 9.31803 28.5701 9.14242 28.5659 8.93506C28.2655 9.15934 27.9227 9.38363 27.5376 9.60791C27.4953 9.6333 27.3049 9.72005 26.9663 9.86816C26.8309 9.66504 26.7441 9.5127 26.7061 9.41113C27.1546 9.17839 27.4593 9.007 27.6201 8.89697C27.8867 8.71077 28.1745 8.47803 28.4834 8.19873C28.6146 8.07601 28.7817 7.8877 28.9849 7.63379ZM32.1904 7.84961C32.3597 7.84961 32.6242 7.84326 32.9839 7.83057L34.5391 7.8623L35.853 7.84326L36.6084 7.84961L36.8687 7.83691C36.9237 7.83691 37.0041 7.84115 37.1099 7.84961C37.1226 8.00618 37.1289 8.13525 37.1289 8.23682C37.1289 8.35954 37.0422 8.65576 36.8687 9.12549C36.7459 9.45557 36.6338 9.77507 36.5322 10.084C36.4349 10.3929 36.3608 10.6151 36.3101 10.7505C36.1916 11.0552 36.0985 11.3197 36.0308 11.5439C35.9588 11.7174 35.8784 11.929 35.7896 12.1787L35.4785 13.0483C35.4277 13.2007 35.3283 13.4715 35.1802 13.8608L34.6724 15.27C34.63 15.3631 34.6089 15.4351 34.6089 15.4858C34.6089 15.5535 34.6533 15.6213 34.7422 15.689C34.8353 15.7524 34.8818 15.8159 34.8818 15.8794C34.8818 15.9598 34.8459 16.0444 34.7739 16.1333H34.6089L34.1328 16.127C34.1074 16.1227 34.0334 16.1227 33.9106 16.127C33.7879 16.1354 33.6906 16.1396 33.6187 16.1396C33.5636 16.1396 33.479 16.1375 33.3647 16.1333C33.3774 16.0063 33.4642 15.7757 33.625 15.4414C33.7181 15.2425 33.9233 14.7241 34.2407 13.8862L35.377 10.9282L35.6626 10.1729C35.7176 10.0586 35.779 9.8999 35.8467 9.69678C35.8678 9.6333 35.908 9.52327 35.9673 9.3667C35.5526 9.34554 35.2161 9.33496 34.958 9.33496L34.0122 9.34766L33.2568 9.33496C33.0199 9.33496 32.859 9.36882 32.7744 9.43652C32.6898 9.5 32.6305 9.61637 32.5967 9.78564C32.5628 9.95492 32.5184 10.0628 32.4634 10.1094C32.4126 10.1517 32.3237 10.1729 32.1968 10.1729C32.1248 10.1729 32.0698 10.1517 32.0317 10.1094C31.9937 10.0671 31.9746 10.0057 31.9746 9.92529C31.9746 9.72217 32 9.41113 32.0508 8.99219C32.0804 8.7806 32.1037 8.57536 32.1206 8.37646C32.1418 8.17334 32.165 7.99772 32.1904 7.84961Z" fill="white"/>
</svg>
