<svg width="47" height="50" viewBox="0 0 47 50" fill="none" xmlns="http://www.w3.org/2000/svg">
<path fill-rule="evenodd" clip-rule="evenodd" d="M10.0938 13.0625C10.0938 12.493 10.5555 12.0312 11.125 12.0312H35.875C36.4446 12.0312 36.9063 12.493 36.9063 13.0625C36.9063 13.632 36.4446 14.0938 35.875 14.0938H11.125C10.5555 14.0938 10.0938 13.632 10.0938 13.0625Z" fill="#D6CB89"/>
<path fill-rule="evenodd" clip-rule="evenodd" d="M26.8958 4.0833C27.2985 3.68057 27.9515 3.68057 28.3542 4.0833L36.6042 12.3333C37.0069 12.736 37.0069 13.389 36.6042 13.7917C36.2015 14.1944 35.5485 14.1944 35.1458 13.7917L26.8958 5.5417C26.4931 5.13898 26.4931 4.48602 26.8958 4.0833Z" fill="#D6CB89"/>
<path fill-rule="evenodd" clip-rule="evenodd" d="M10.6426 19.9375C10.6426 19.368 11.1043 18.9062 11.6738 18.9062H36.4238C36.9934 18.9062 37.4551 19.368 37.4551 19.9375C37.4551 20.507 36.9934 20.9688 36.4238 20.9688H11.6738C11.1043 20.9688 10.6426 20.507 10.6426 19.9375Z" fill="#D6CB89"/>
<path fill-rule="evenodd" clip-rule="evenodd" d="M10.9446 19.2083C11.3474 18.8056 12.0003 18.8056 12.403 19.2083L20.6531 27.4583C21.0558 27.861 21.0558 28.514 20.6531 28.9167C20.2503 29.3194 19.5974 29.3194 19.1947 28.9167L10.9446 20.6667C10.5419 20.264 10.5419 19.611 10.9446 19.2083Z" fill="#D6CB89"/>
<path d="M7.52197 38.2305C7.57275 38.5563 7.59814 38.8906 7.59814 39.2334C7.59814 39.3011 7.59603 39.3921 7.5918 39.5063C7.53255 39.519 7.48812 39.5254 7.4585 39.5254C7.43311 39.5254 7.39714 39.5212 7.35059 39.5127C7.17285 39.0176 6.88298 38.6367 6.48096 38.3701C6.07894 38.1035 5.58171 37.9702 4.98926 37.9702C4.67611 37.9702 4.41162 38.0062 4.1958 38.0781C3.81494 38.2093 3.48063 38.3913 3.19287 38.624C2.90511 38.8525 2.66178 39.1276 2.46289 39.4492C2.264 39.7666 2.10531 40.1538 1.98682 40.6108C1.87256 41.0636 1.81543 41.527 1.81543 42.001C1.81543 42.9066 1.95296 43.6556 2.22803 44.248C2.50309 44.8363 2.87972 45.2573 3.35791 45.5112C3.8361 45.7609 4.31852 45.8857 4.80518 45.8857L5.10352 45.8794C5.44206 45.8371 5.67269 45.7969 5.79541 45.7588C6.10433 45.6699 6.35824 45.5662 6.55713 45.4478C6.76025 45.325 6.95703 45.1536 7.14746 44.9336C7.34212 44.7135 7.50716 44.4575 7.64258 44.1655L7.71875 44.1401C7.73991 44.1401 7.77165 44.1528 7.81396 44.1782C7.80973 44.2798 7.8055 44.3454 7.80127 44.375C7.62354 45.0902 7.49447 45.5789 7.41406 45.8413C7.34635 45.8582 7.26172 45.8836 7.16016 45.9175C6.66504 46.0868 6.00277 46.1714 5.17334 46.1714C4.50472 46.1714 4.00326 46.1248 3.66895 46.0317C3.33887 45.9429 2.97705 45.8032 2.5835 45.6128C2.19417 45.4181 1.8514 45.1621 1.55518 44.8447C1.25895 44.5273 1.01986 44.1274 0.837891 43.645C0.655924 43.1584 0.564941 42.6294 0.564941 42.0581C0.564941 41.5164 0.636882 41.0446 0.780762 40.6426C0.924642 40.2363 1.14681 39.8258 1.44727 39.4111C1.74772 38.9964 2.10107 38.6515 2.50732 38.3765C2.91781 38.1014 3.37272 37.9067 3.87207 37.7925C4.22331 37.7163 4.72054 37.6782 5.36377 37.6782C5.8335 37.6782 6.27572 37.7417 6.69043 37.8687C7.10514 37.9914 7.38232 38.112 7.52197 38.2305ZM8.72803 43.4482C8.72803 43.1605 8.78727 42.8537 8.90576 42.5278C9.02848 42.1978 9.21257 41.9036 9.45801 41.6455C9.70345 41.3831 9.9637 41.1885 10.2388 41.0615C10.6239 40.8838 11.0936 40.7949 11.6479 40.7949C12.4393 40.7949 13.0994 41.0658 13.6284 41.6074C14.1616 42.1491 14.4282 42.8008 14.4282 43.5625C14.4282 44.2396 14.1489 44.8447 13.5903 45.3779C13.036 45.9069 12.3335 46.1714 11.4829 46.1714C10.9582 46.1714 10.4631 46.0339 9.99756 45.7588C9.65055 45.5514 9.35221 45.2446 9.10254 44.8384C8.85286 44.4321 8.72803 43.9688 8.72803 43.4482ZM11.5337 45.9238C11.8553 45.9238 12.1642 45.8371 12.4604 45.6636C12.7609 45.4901 13 45.2129 13.1777 44.832C13.3555 44.4469 13.4443 44.0026 13.4443 43.499C13.4443 43.1689 13.3745 42.786 13.2349 42.3501C13.0994 41.9142 12.8879 41.5884 12.6001 41.3726C12.3166 41.1525 11.9823 41.0425 11.5972 41.0425C11.3179 41.0425 11.0322 41.1081 10.7402 41.2393C10.4525 41.3704 10.207 41.6222 10.0039 41.9946C9.80501 42.367 9.70557 42.896 9.70557 43.5815C9.70557 44.3517 9.87907 44.9357 10.2261 45.3335C10.5773 45.7271 11.0132 45.9238 11.5337 45.9238ZM15.1582 45.7778C15.2259 45.7313 15.319 45.6995 15.4375 45.6826C15.6068 45.6615 15.738 45.6276 15.8311 45.5811C15.9072 45.5176 15.958 45.4266 15.9834 45.3081C16.013 45.1558 16.0278 44.6204 16.0278 43.7021C16.0278 42.8008 16.0003 42.2189 15.9453 41.9565C15.8522 41.8973 15.7316 41.8507 15.5835 41.8169C15.5369 41.8084 15.4396 41.7852 15.2915 41.7471V41.5376C15.5412 41.4657 15.7422 41.3726 15.8945 41.2583C16.0511 41.144 16.2669 40.9155 16.542 40.5728H16.5801C16.6055 40.5728 16.6457 40.5706 16.7007 40.5664C16.7345 40.5706 16.762 40.5812 16.7832 40.5981L16.7769 41.3218C16.7769 41.4699 16.7811 41.6286 16.7896 41.7979C17.2424 41.3874 17.6486 41.0996 18.0083 40.9346C18.2537 40.8245 18.5309 40.7695 18.8398 40.7695C19.208 40.7695 19.5 40.8394 19.7158 40.979C19.9316 41.1187 20.1369 41.3704 20.3315 41.7344C20.7082 41.362 21.0488 41.1017 21.3535 40.9536C21.6624 40.8055 21.9735 40.7314 22.2866 40.7314C22.7606 40.7314 23.1499 40.8859 23.4546 41.1948C23.755 41.508 23.9095 41.9671 23.918 42.5723V43.0991L23.9243 43.6768L23.918 45.1621C23.9137 45.3356 23.9518 45.4668 24.0322 45.5557C24.0661 45.5684 24.1951 45.6064 24.4194 45.6699C24.5591 45.708 24.6416 45.7376 24.667 45.7588C24.6924 45.7799 24.7051 45.8096 24.7051 45.8477C24.7051 45.8942 24.6924 45.9492 24.667 46.0127H24.6226L23.9814 45.9746C23.9053 45.9704 23.7847 45.9683 23.6196 45.9683C23.4165 45.9683 23.133 45.9767 22.769 45.9937H22.4453C22.3988 45.9937 22.3078 45.9958 22.1724 46C22.1681 45.9619 22.166 45.9281 22.166 45.8984C22.166 45.8646 22.1808 45.8223 22.2104 45.7715C22.3247 45.7207 22.4813 45.6805 22.6802 45.6509C22.8791 45.617 23.0018 45.5599 23.0483 45.4795C23.0991 45.3949 23.1245 45.0648 23.1245 44.4893C23.1245 43.2409 23.1097 42.5173 23.0801 42.3184C23.0293 42.001 22.8939 41.7534 22.6738 41.5757C22.458 41.3937 22.1851 41.3027 21.855 41.3027C21.6011 41.3027 21.3535 41.3704 21.1123 41.5059C20.8711 41.637 20.6341 41.8359 20.4014 42.1025L20.395 42.2549V43.2261L20.3696 43.9814C20.3696 44.7516 20.376 45.1896 20.3887 45.2954C20.4056 45.4012 20.4416 45.4795 20.4966 45.5303C20.5558 45.5768 20.723 45.6191 20.998 45.6572C21.1208 45.6742 21.216 45.6911 21.2837 45.708C21.3345 45.7503 21.3599 45.8053 21.3599 45.873C21.3599 45.9281 21.3408 45.9661 21.3027 45.9873H21.1948L20.8774 45.981H19.0303L18.5225 45.9873C18.514 45.9238 18.5098 45.8773 18.5098 45.8477L18.5161 45.7715C18.6092 45.7207 18.7827 45.672 19.0366 45.6255C19.1678 45.6043 19.3032 45.5684 19.4429 45.5176C19.4683 45.4964 19.4873 45.4689 19.5 45.4351C19.5212 45.3758 19.536 45.2065 19.5444 44.9272L19.5762 44.1909L19.5635 43.3594L19.5698 42.896C19.5698 42.3755 19.464 41.9967 19.2524 41.7598C19.0409 41.5186 18.7743 41.3979 18.4526 41.3979C18.1522 41.3979 17.8496 41.472 17.5449 41.6201C17.2445 41.7682 16.9948 41.9671 16.7959 42.2168C16.7917 42.3353 16.7896 42.4432 16.7896 42.5405L16.8149 44.6733C16.8192 45.1388 16.8446 45.4054 16.8911 45.4731C16.9419 45.5366 17.0519 45.5811 17.2212 45.6064C17.492 45.6445 17.6676 45.6911 17.748 45.7461C17.7861 45.7715 17.8052 45.8096 17.8052 45.8604C17.8052 45.8942 17.8031 45.9344 17.7988 45.981C17.3164 45.9471 16.9927 45.9302 16.8276 45.9302C16.6584 45.9302 16.506 45.9323 16.3706 45.9365L16.0532 45.9556H15.8564L15.1455 45.981C15.137 45.9513 15.1328 45.9259 15.1328 45.9048C15.1328 45.8836 15.1413 45.8413 15.1582 45.7778ZM25.0923 49.3135C25.0881 49.2669 25.0859 49.2246 25.0859 49.1865C25.0859 49.1569 25.0902 49.1209 25.0986 49.0786L25.7334 48.9517C25.835 48.9009 25.9175 48.8395 25.981 48.7676C26.0021 48.6914 26.0127 48.6152 26.0127 48.5391C26.0127 47.8874 25.9958 46.6453 25.9619 44.813L25.9429 42.4897C25.9344 42.1216 25.9111 41.8888 25.873 41.7915C25.8519 41.7407 25.8201 41.7005 25.7778 41.6709C25.672 41.5905 25.4604 41.5228 25.1431 41.4678L25.1812 41.2773C25.6382 41.0827 25.9429 40.9325 26.0952 40.8267C26.2518 40.7166 26.3999 40.5643 26.5396 40.3696L26.6157 40.3506C26.6453 40.3506 26.6877 40.3633 26.7427 40.3887C26.7384 40.6553 26.7363 40.8309 26.7363 40.9155L26.7427 41.6138C27.0558 41.3768 27.3817 41.2012 27.7202 41.0869C28.0588 40.9684 28.41 40.9092 28.7739 40.9092C29.4256 40.9092 29.9757 41.1398 30.4243 41.6011C30.8729 42.0581 31.0972 42.6484 31.0972 43.3721C31.0972 43.9095 30.9702 44.3919 30.7163 44.8193C30.4666 45.2467 30.1196 45.5662 29.6753 45.7778C29.2352 45.9894 28.7909 46.0952 28.3423 46.0952C27.9614 46.0952 27.5256 45.9915 27.0347 45.7842C26.9543 45.7503 26.8823 45.7207 26.8188 45.6953C26.8104 46.0339 26.8062 46.3343 26.8062 46.5967C26.8062 47.9043 26.8421 48.6364 26.9141 48.793C26.9521 48.8776 27.0706 48.9284 27.2695 48.9453C27.6081 48.9707 27.8324 49.0194 27.9424 49.0913C28.0059 49.1294 28.0482 49.2056 28.0693 49.3198L27.4409 49.3325L26.8696 49.3198L25.9175 49.3262L25.0923 49.3135ZM26.749 42.0518C26.7406 42.111 26.7363 42.166 26.7363 42.2168C26.7363 43.7275 26.7511 44.5739 26.7808 44.7559C26.84 45.0902 26.9585 45.325 27.1362 45.4604C27.4113 45.6763 27.8049 45.7842 28.3169 45.7842C28.8459 45.7842 29.2923 45.6022 29.6562 45.2383C30.0202 44.8701 30.2021 44.394 30.2021 43.8101C30.2021 43.1076 30.0096 42.5511 29.6245 42.1406C29.2394 41.7301 28.7316 41.5249 28.1011 41.5249C27.8345 41.5249 27.589 41.5693 27.3647 41.6582C27.1405 41.7428 26.9352 41.874 26.749 42.0518ZM36.7339 45.1367C36.7593 45.1917 36.772 45.2319 36.772 45.2573C36.772 45.3208 36.7212 45.4329 36.6196 45.5938C36.4884 45.8053 36.3424 45.9598 36.1816 46.0571C36.0801 46.1206 35.9404 46.1523 35.7627 46.1523C35.458 46.1523 35.2295 46.0592 35.0771 45.873C34.984 45.763 34.9185 45.5662 34.8804 45.2827L34.1694 45.7778C33.9198 45.9217 33.7293 46.0127 33.5981 46.0508C33.3866 46.1058 33.1326 46.1333 32.8364 46.1333C32.6206 46.1333 32.4492 46.0698 32.3223 45.9429C32.1995 45.8117 32.1382 45.6445 32.1382 45.4414C32.1382 45.1494 32.3159 44.8003 32.6714 44.394C33.0311 43.9878 33.5177 43.6556 34.1313 43.3975C34.563 43.2155 34.8275 43.0991 34.9248 43.0483C34.9333 42.9087 34.9375 42.7563 34.9375 42.5913C34.9375 42.0539 34.8613 41.6899 34.709 41.4995C34.5609 41.3091 34.3472 41.2139 34.0679 41.2139C33.7759 41.2139 33.5029 41.3281 33.249 41.5566C33.0924 41.7005 32.974 41.9714 32.8936 42.3691C32.8682 42.4792 32.8195 42.5977 32.7476 42.7246C32.5656 42.8431 32.4196 42.9023 32.3096 42.9023C32.2165 42.9023 32.1318 42.8748 32.0557 42.8198C32.0133 42.7902 31.9922 42.7563 31.9922 42.7183C31.9922 42.6082 32.1086 42.3607 32.3413 41.9756C32.5783 41.5863 32.8745 41.2964 33.23 41.106C33.5897 40.9113 33.9028 40.814 34.1694 40.814C34.5334 40.814 34.8042 40.8478 34.9819 40.9155C35.1597 40.979 35.3162 41.0933 35.4517 41.2583C35.5871 41.4233 35.6696 41.6032 35.6992 41.7979C35.7161 41.891 35.7246 42.2231 35.7246 42.7944L35.7056 43.8037L35.7119 44.54C35.7119 44.6374 35.7098 44.7199 35.7056 44.7876C35.7013 44.9103 35.6992 45.0013 35.6992 45.0605C35.6992 45.2002 35.7394 45.3123 35.8198 45.397C35.9002 45.4816 35.9954 45.5239 36.1055 45.5239C36.2663 45.5239 36.4038 45.4435 36.5181 45.2827L36.5942 45.1812C36.6154 45.1685 36.6619 45.1536 36.7339 45.1367ZM34.8677 44.9526C34.8973 44.4152 34.9121 44.0365 34.9121 43.8164C34.9121 43.7021 34.9058 43.5477 34.8931 43.353C34.6095 43.4546 34.3091 43.609 33.9917 43.8164C33.6743 44.0238 33.4225 44.2629 33.2363 44.5337C33.1009 44.7284 33.0332 44.9124 33.0332 45.0859C33.0332 45.251 33.0882 45.3885 33.1982 45.4985C33.3125 45.6086 33.4543 45.6636 33.6235 45.6636C33.7547 45.6636 33.9134 45.617 34.0996 45.5239C34.3451 45.4012 34.6011 45.2108 34.8677 44.9526ZM37.1147 46.019L37.0894 45.9365C37.0894 45.9069 37.1084 45.8625 37.1465 45.8032L37.521 45.7271L38.0479 45.6318C38.0902 45.6107 38.1198 45.5811 38.1367 45.543C38.1621 45.488 38.1748 45.325 38.1748 45.0542C38.1748 43.6154 38.1663 42.786 38.1494 42.5659C38.1325 42.3416 38.0944 42.1999 38.0352 42.1406C37.9759 42.0814 37.8236 42.0348 37.5781 42.001C37.4342 41.9798 37.32 41.9523 37.2354 41.9185L37.2607 41.728C37.7051 41.5461 38.0034 41.3895 38.1558 41.2583C38.3674 41.0679 38.5472 40.8182 38.6953 40.5093L38.9111 40.5156C38.9365 40.7272 38.9492 41.1969 38.9492 41.9248L38.9429 42.0327C38.9429 42.0581 38.9471 42.0983 38.9556 42.1533C39.1164 41.8613 39.3174 41.5926 39.5586 41.3472L39.7046 41.2012C39.7638 41.1335 39.821 41.0806 39.876 41.0425C40.1722 40.8647 40.3923 40.7759 40.5361 40.7759C40.7223 40.7759 40.8747 40.8394 40.9932 40.9663C41.1117 41.089 41.1709 41.2414 41.1709 41.4233C41.1709 41.5672 41.1286 41.6794 41.0439 41.7598C40.9297 41.8656 40.7985 41.9185 40.6504 41.9185C40.5827 41.9185 40.4494 41.8825 40.2505 41.8105C40.0516 41.7386 39.9204 41.7026 39.8569 41.7026C39.7384 41.7026 39.6559 41.7217 39.6094 41.7598C39.4909 41.8529 39.347 42.0433 39.1777 42.3311C39.0465 42.5469 38.981 42.7458 38.981 42.9277L39.0127 43.9751L39.0254 45.2319C39.0381 45.3758 39.055 45.4689 39.0762 45.5112C39.0931 45.5409 39.1354 45.5768 39.2031 45.6191C39.6602 45.6572 39.931 45.6847 40.0156 45.7017C40.0749 45.7059 40.1193 45.7101 40.1489 45.7144C40.3309 45.7186 40.4578 45.744 40.5298 45.7905C40.5679 45.8117 40.5869 45.8434 40.5869 45.8857C40.5869 45.9111 40.57 45.945 40.5361 45.9873L39.8315 45.981L39.5649 45.9746L39.1777 45.981H38.5303L38.1812 46L37.1147 46.019ZM46.2236 42.6484L43.6782 42.6675H43.1958C43.0011 42.6675 42.8022 42.6759 42.5991 42.6929C42.561 42.8198 42.542 42.9066 42.542 42.9531L42.5483 43.0166V43.0801L42.542 43.3911C42.542 43.6493 42.6224 43.9666 42.7832 44.3433C42.9482 44.7157 43.181 45.0013 43.4814 45.2002C43.7861 45.3949 44.1649 45.4985 44.6177 45.5112C44.8589 45.4985 45.0514 45.4689 45.1953 45.4224C45.3392 45.3758 45.5423 45.2679 45.8047 45.0986L46.2617 44.7241L46.2998 44.978C46.2998 45.0076 46.2977 45.0394 46.2935 45.0732C46.103 45.3145 45.8618 45.526 45.5698 45.708C45.2778 45.89 44.9816 46.0233 44.6812 46.1079C44.5373 46.146 44.3003 46.165 43.9702 46.165C43.6698 46.165 43.3735 46.1037 43.0815 45.981C42.6499 45.7948 42.3092 45.4964 42.0596 45.0859C41.8141 44.6712 41.6914 44.1698 41.6914 43.5815C41.6914 43.3953 41.7253 43.1562 41.793 42.8643C41.8649 42.5723 41.9919 42.2612 42.1738 41.9312C42.2965 41.7069 42.4468 41.5228 42.6245 41.3789C42.8784 41.1758 43.1006 41.034 43.291 40.9536C43.5661 40.8394 43.8856 40.7822 44.2495 40.7822C44.6431 40.7822 44.9647 40.8542 45.2144 40.998C45.5529 41.1885 45.8047 41.4339 45.9697 41.7344C46.139 42.0348 46.2236 42.3099 46.2236 42.5596V42.6484ZM42.6816 42.4199H42.98C43.1958 42.4199 43.839 42.3861 44.9097 42.3184C45.0789 42.3099 45.1826 42.293 45.2207 42.2676C45.2969 42.1872 45.335 42.1152 45.335 42.0518C45.335 41.9206 45.2926 41.7725 45.208 41.6074C45.1234 41.4382 44.9922 41.3091 44.8145 41.2202C44.641 41.1271 44.4378 41.0806 44.2051 41.0806C43.7142 41.0806 43.3206 41.2646 43.0244 41.6328C42.7959 41.9121 42.6816 42.1745 42.6816 42.4199Z" fill="#D6CB89"/>
</svg>
