<svg width="13" height="12" viewBox="0 0 13 12" fill="none" xmlns="http://www.w3.org/2000/svg">
<path fill-rule="evenodd" clip-rule="evenodd" d="M0.661032 0.558262C0.853854 0.3686 1.16573 0.3686 1.35855 0.558262L11.8953 11.095C12.0891 11.2847 12.0891 11.6007 11.8953 11.7904C11.7025 11.98 11.3906 11.98 11.1978 11.7904L0.661032 1.2536C0.467156 1.06393 0.467156 0.747924 0.661032 0.558262Z" fill="white"/>
<path fill-rule="evenodd" clip-rule="evenodd" d="M11.8953 0.558262C12.0891 0.747924 12.0891 1.06393 11.8953 1.2536L6.62691 6.52198L1.35855 11.7904C1.16573 11.98 0.853854 11.98 0.661032 11.7904C0.467156 11.6007 0.467156 11.2847 0.661032 11.095L11.1978 0.558262C11.3906 0.3686 11.7025 0.3686 11.8953 0.558262Z" fill="white"/>
</svg>
