<svg width="37" height="37" viewBox="0 0 37 37" fill="none" xmlns="http://www.w3.org/2000/svg">
<path fill-rule="evenodd" clip-rule="evenodd" d="M20.8887 5.01074L20.8392 5.01099C18.1286 5.0384 15.9533 7.25799 15.9807 9.96864C15.9807 9.96866 15.9807 9.96861 15.9807 9.96864L15.991 10.9778L15.9909 11.0046L15.9188 16.5631C15.9106 17.1958 15.3953 17.7044 14.7626 17.7044H10.4063V21.2478H14.8348C15.4733 21.2478 15.991 21.7655 15.991 22.4041V31.9899H20.4427V22.4041C20.4427 21.7655 20.9604 21.2478 21.599 21.2478H25.8572L26.4023 17.7044H21.599C20.9604 17.7044 20.4427 17.1867 20.4427 16.5481V11.2287C20.4427 9.75285 21.6392 8.55634 23.1151 8.55634H26.5938V5.01074H20.8887ZM20.8158 2.69861L20.8887 2.69824H27.75C28.3886 2.69824 28.9063 3.21591 28.9063 3.85449V9.71259C28.9063 10.3512 28.3886 10.8688 27.75 10.8688H23.1151C22.9164 10.8688 22.7552 11.0299 22.7552 11.2287V15.3919H27.75C28.0874 15.3919 28.4079 15.5392 28.6276 15.7952C28.8472 16.0513 28.9441 16.3905 28.8928 16.7239L27.9919 22.5799C27.9052 23.1439 27.4198 23.5603 26.8491 23.5603H22.7552V33.1462C22.7552 33.7847 22.2376 34.3024 21.599 34.3024H14.8348C14.1962 34.3024 13.6785 33.7847 13.6785 33.1462V23.5603H9.25C8.61142 23.5603 8.09375 23.0426 8.09375 22.4041V16.5481C8.09375 15.9095 8.61142 15.3919 9.25 15.3919H13.6213L13.6784 10.9879L13.6683 9.99213C13.628 6.00441 16.8281 2.73898 20.8158 2.69861Z" fill="#D6CB89"/>
</svg>
