<svg width="33" height="58" viewBox="0 0 33 58" fill="none" xmlns="http://www.w3.org/2000/svg">
<path fill-rule="evenodd" clip-rule="evenodd" d="M3.09375 5.5C3.09375 4.17106 4.17106 3.09375 5.5 3.09375H12.375C13.704 3.09375 14.7812 4.17107 14.7812 5.5V12.375C14.7812 13.704 13.704 14.7812 12.375 14.7812H5.5C4.17107 14.7812 3.09375 13.704 3.09375 12.375V5.5ZM5.5 5.15625C5.31015 5.15625 5.15625 5.31015 5.15625 5.5V12.375C5.15625 12.5649 5.31014 12.7188 5.5 12.7188H12.375C12.5649 12.7188 12.7188 12.5649 12.7188 12.375V5.5C12.7188 5.31014 12.5649 5.15625 12.375 5.15625H5.5Z" fill="#D6CB89"/>
<path fill-rule="evenodd" clip-rule="evenodd" d="M3.09375 20.625C3.09375 19.296 4.17107 18.2188 5.5 18.2188H12.375C13.704 18.2188 14.7812 19.296 14.7812 20.625V27.5C14.7812 28.829 13.704 29.9062 12.375 29.9062H5.5C4.17107 29.9062 3.09375 28.829 3.09375 27.5V20.625ZM5.5 20.2812C5.31014 20.2812 5.15625 20.4351 5.15625 20.625V27.5C5.15625 27.6899 5.31014 27.8438 5.5 27.8438H12.375C12.5649 27.8438 12.7188 27.6899 12.7188 27.5V20.625C12.7188 20.4351 12.5649 20.2812 12.375 20.2812H5.5Z" fill="#D6CB89"/>
<path fill-rule="evenodd" clip-rule="evenodd" d="M18.2188 5.5C18.2188 4.17107 19.296 3.09375 20.625 3.09375H27.5C28.829 3.09375 29.9062 4.17107 29.9062 5.5V12.375C29.9062 13.704 28.829 14.7812 27.5 14.7812H20.625C19.296 14.7812 18.2188 13.704 18.2188 12.375V5.5ZM20.625 5.15625C20.4351 5.15625 20.2812 5.31014 20.2812 5.5V12.375C20.2812 12.5649 20.4351 12.7188 20.625 12.7188H27.5C27.6899 12.7188 27.8438 12.5649 27.8438 12.375V5.5C27.8438 5.31014 27.6899 5.15625 27.5 5.15625H20.625Z" fill="#D6CB89"/>
<path fill-rule="evenodd" clip-rule="evenodd" d="M18.2188 20.625C18.2188 19.296 19.296 18.2188 20.625 18.2188H27.5C28.829 18.2188 29.9062 19.296 29.9062 20.625V27.5C29.9062 28.829 28.829 29.9062 27.5 29.9062H20.625C19.296 29.9062 18.2188 28.829 18.2188 27.5V20.625ZM20.625 20.2812C20.4351 20.2812 20.2812 20.4351 20.2812 20.625V27.5C20.2812 27.6899 20.4351 27.8438 20.625 27.8438H27.5C27.6899 27.8438 27.8438 27.6899 27.8438 27.5V20.625C27.8438 20.4351 27.6899 20.2812 27.5 20.2812H20.625Z" fill="#D6CB89"/>
<path d="M11.4741 38.2939L11.5439 39.2588C11.5693 39.5508 11.582 39.7497 11.582 39.8555L11.4043 39.8872C11.1208 39.244 10.7674 38.7616 10.3442 38.4399C9.92529 38.1183 9.41113 37.9575 8.80176 37.9575C8.05697 37.9575 7.47721 38.0485 7.0625 38.2305C6.46159 38.4886 5.94743 38.9372 5.52002 39.5762C5.09261 40.2152 4.87891 40.9854 4.87891 41.8867C4.87891 42.4072 4.95719 42.8748 5.11377 43.2896C5.27035 43.7043 5.4904 44.0915 5.77393 44.4512C6.06169 44.8066 6.40023 45.1156 6.78955 45.3779C7.04346 45.5514 7.34603 45.6826 7.69727 45.7715C7.89616 45.818 8.19238 45.8413 8.58594 45.8413C8.83984 45.8413 9.12126 45.8053 9.43018 45.7334C9.7391 45.6615 9.97184 45.5662 10.1284 45.4478C10.285 45.325 10.3908 45.1875 10.4458 45.0352C10.505 44.8828 10.5347 44.5866 10.5347 44.1465C10.5347 43.4144 10.486 42.9891 10.3887 42.8706C10.2913 42.7479 9.98454 42.6675 9.46826 42.6294L9.21436 42.6104L9.04297 42.6167C9.01758 42.6125 8.98372 42.6061 8.94141 42.5977L8.84619 42.439C8.84619 42.4178 8.861 42.3903 8.89062 42.3564C9.11068 42.3226 9.58887 42.3057 10.3252 42.3057C10.4902 42.3057 10.759 42.3099 11.1313 42.3184L11.7852 42.3438L12.3755 42.3374C12.4897 42.3374 12.6273 42.3416 12.7881 42.3501C12.8177 42.3543 12.8368 42.3628 12.8452 42.3755C12.8537 42.384 12.8579 42.4009 12.8579 42.4263C12.8579 42.4728 12.8473 42.5321 12.8262 42.604C12.6484 42.6421 12.5109 42.6611 12.4136 42.6611L12.001 42.6548C11.8613 42.6548 11.7492 42.7035 11.6646 42.8008C11.6222 42.8473 11.6011 43.006 11.6011 43.2769L11.6074 44.1084C11.6074 44.6797 11.5841 45.0436 11.5376 45.2002C11.5122 45.2933 11.4593 45.3779 11.3789 45.4541C11.2985 45.526 11.1292 45.6128 10.8711 45.7144C10.5029 45.8625 10.1686 45.9619 9.86816 46.0127C9.30957 46.11 8.77002 46.1587 8.24951 46.1587C7.41162 46.1587 6.72396 46.0529 6.18652 45.8413C5.65332 45.6255 5.19206 45.3271 4.80273 44.9463C4.41764 44.5654 4.14258 44.1803 3.97754 43.791C3.72786 43.2197 3.60303 42.6379 3.60303 42.0454C3.60303 41.3049 3.79769 40.5812 4.18701 39.8745C4.58057 39.1636 5.21322 38.5859 6.08496 38.1416C6.69857 37.8285 7.53223 37.6719 8.58594 37.6719C9.3138 37.6719 9.90837 37.7354 10.3696 37.8623C10.8351 37.9893 11.2033 38.1331 11.4741 38.2939ZM13.2896 46.019L13.2642 45.9365C13.2642 45.9069 13.2832 45.8625 13.3213 45.8032L13.6958 45.7271L14.2227 45.6318C14.265 45.6107 14.2946 45.5811 14.3115 45.543C14.3369 45.488 14.3496 45.325 14.3496 45.0542C14.3496 43.6154 14.3411 42.786 14.3242 42.5659C14.3073 42.3416 14.2692 42.1999 14.21 42.1406C14.1507 42.0814 13.9984 42.0348 13.7529 42.001C13.609 41.9798 13.4948 41.9523 13.4102 41.9185L13.4355 41.728C13.8799 41.5461 14.1782 41.3895 14.3306 41.2583C14.5422 41.0679 14.722 40.8182 14.8701 40.5093L15.0859 40.5156C15.1113 40.7272 15.124 41.1969 15.124 41.9248L15.1177 42.0327C15.1177 42.0581 15.1219 42.0983 15.1304 42.1533C15.2912 41.8613 15.4922 41.5926 15.7334 41.3472L15.8794 41.2012C15.9386 41.1335 15.9958 41.0806 16.0508 41.0425C16.347 40.8647 16.5671 40.7759 16.7109 40.7759C16.8971 40.7759 17.0495 40.8394 17.168 40.9663C17.2865 41.089 17.3457 41.2414 17.3457 41.4233C17.3457 41.5672 17.3034 41.6794 17.2188 41.7598C17.1045 41.8656 16.9733 41.9185 16.8252 41.9185C16.7575 41.9185 16.6242 41.8825 16.4253 41.8105C16.2264 41.7386 16.0952 41.7026 16.0317 41.7026C15.9132 41.7026 15.8307 41.7217 15.7842 41.7598C15.6657 41.8529 15.5218 42.0433 15.3525 42.3311C15.2214 42.5469 15.1558 42.7458 15.1558 42.9277L15.1875 43.9751L15.2002 45.2319C15.2129 45.3758 15.2298 45.4689 15.251 45.5112C15.2679 45.5409 15.3102 45.5768 15.3779 45.6191C15.835 45.6572 16.1058 45.6847 16.1904 45.7017C16.2497 45.7059 16.2941 45.7101 16.3237 45.7144C16.5057 45.7186 16.6326 45.744 16.7046 45.7905C16.7427 45.8117 16.7617 45.8434 16.7617 45.8857C16.7617 45.9111 16.7448 45.945 16.7109 45.9873L16.0063 45.981L15.7397 45.9746L15.3525 45.981H14.7051L14.356 46L13.2896 46.019ZM18.2725 38.1987C18.2725 38.0591 18.3254 37.9385 18.4312 37.8369C18.5412 37.7354 18.6724 37.6846 18.8247 37.6846C18.9813 37.6846 19.1188 37.7417 19.2373 37.856C19.3558 37.9702 19.415 38.0929 19.415 38.2241C19.415 38.3553 19.3558 38.4801 19.2373 38.5986C19.1188 38.7129 18.9813 38.77 18.8247 38.77C18.6681 38.77 18.5369 38.7171 18.4312 38.6113C18.3254 38.5055 18.2725 38.368 18.2725 38.1987ZM17.7393 41.4868L17.7456 41.3027C18.0207 41.2223 18.1688 41.1758 18.1899 41.1631C18.3423 41.0954 18.501 40.9917 18.666 40.8521C18.8353 40.7124 18.9771 40.5558 19.0913 40.3823C19.1421 40.3739 19.1823 40.3696 19.2119 40.3696L19.2881 40.376C19.305 40.5791 19.3135 40.7272 19.3135 40.8203C19.3135 40.8415 19.3092 40.9367 19.3008 41.106V41.4424L19.3071 43.2705L19.2881 45.2065C19.2839 45.3631 19.3092 45.4731 19.3643 45.5366C19.4193 45.5959 19.5822 45.6636 19.853 45.7397C20.0223 45.7863 20.1493 45.8265 20.2339 45.8604C20.2466 45.89 20.2529 45.9154 20.2529 45.9365C20.2529 45.9619 20.2424 45.9937 20.2212 46.0317C20.0562 46.0275 19.8446 46.0169 19.5864 46C19.2352 45.9704 19.0024 45.9556 18.8882 45.9556C18.8332 45.9556 18.4946 45.9661 17.8726 45.9873C17.7456 45.9915 17.6229 46.0021 17.5044 46.019C17.4832 46.019 17.4494 46.0127 17.4028 46C17.3817 45.9704 17.3711 45.945 17.3711 45.9238C17.3711 45.8646 17.4113 45.818 17.4917 45.7842C17.5086 45.7757 17.7244 45.7271 18.1392 45.6382C18.2746 45.6128 18.3634 45.5705 18.4058 45.5112C18.4777 45.4224 18.5137 45.2806 18.5137 45.0859C18.5221 44.7601 18.5264 43.8672 18.5264 42.4072C18.5264 42.1152 18.5137 41.9333 18.4883 41.8613C18.4671 41.8105 18.41 41.7534 18.3169 41.6899C18.228 41.6222 18.0355 41.5545 17.7393 41.4868ZM24.9883 41.3916L24.9946 41.2075L24.9883 40.4648L24.9946 39.062C24.9946 38.6727 24.9523 38.4251 24.8677 38.3193C24.783 38.2135 24.5355 38.1056 24.125 37.9956C24.0954 37.9871 24.0488 37.9744 23.9854 37.9575V37.8877C23.9854 37.8454 23.9896 37.7988 23.998 37.748C24.5736 37.6888 25.0687 37.5894 25.4834 37.4497L25.8071 37.4434C25.8241 37.7311 25.8325 38.0527 25.8325 38.4082L25.8071 40.8521L25.8516 43.6069L25.8325 45.0732C25.8325 45.3737 25.8537 45.543 25.896 45.5811C25.9806 45.6657 26.1668 45.7101 26.4546 45.7144C26.5138 45.7144 26.5942 45.7186 26.6958 45.7271V45.8413C26.6958 45.8709 26.6937 45.9027 26.6895 45.9365C26.5583 45.9661 26.4229 45.9937 26.2832 46.019L25.3628 46.1968C25.2274 46.2222 25.1195 46.2349 25.0391 46.2349V45.6255C24.9671 45.6466 24.855 45.689 24.7026 45.7524C24.0425 46.0317 23.4352 46.1714 22.8809 46.1714C22.5465 46.1714 22.2059 46.0635 21.8589 45.8477C21.5119 45.6276 21.2453 45.3229 21.0591 44.9336C20.8729 44.5443 20.7798 44.1465 20.7798 43.7402C20.7798 43.3763 20.8411 43.0293 20.9639 42.6992C21.0866 42.3649 21.2474 42.0877 21.4463 41.8677C21.5732 41.7238 21.7531 41.582 21.9858 41.4424C22.2186 41.2985 22.4111 41.2075 22.5635 41.1694C22.9401 41.0721 23.1919 41.0234 23.3188 41.0234C23.8901 41.0234 24.3599 41.1081 24.728 41.2773C24.8423 41.3324 24.929 41.3704 24.9883 41.3916ZM24.9946 45.3145C25.0116 45.0309 25.02 44.4469 25.02 43.5625C25.02 42.8135 24.984 42.3416 24.9121 42.147C24.8444 41.9481 24.6709 41.7619 24.3916 41.5884C24.1123 41.4106 23.7992 41.3218 23.4521 41.3218C22.9655 41.3218 22.5529 41.5101 22.2144 41.8867C21.8758 42.2633 21.7065 42.8198 21.7065 43.5562C21.7065 44.2036 21.8885 44.7199 22.2524 45.105C22.6206 45.4901 23.0776 45.6826 23.6235 45.6826C23.9367 45.6826 24.2223 45.6403 24.4805 45.5557C24.7386 45.471 24.91 45.3906 24.9946 45.3145Z" fill="#D6CB89"/>
</svg>
