<svg width="51" height="48" viewBox="0 0 51 48" fill="none" xmlns="http://www.w3.org/2000/svg">
<path fill-rule="evenodd" clip-rule="evenodd" d="M14.414 6.41494C17.2498 3.57916 21.1706 1.82324 25.4994 1.82324C29.8281 1.82324 33.7489 3.57916 36.5847 6.41495L35.8113 7.18835L36.5847 6.41496C39.4205 9.25078 41.1764 13.1716 41.1764 17.5003C41.1764 21.8291 39.4205 25.7499 36.5847 28.5857C33.7489 31.4215 29.8281 33.1774 25.4994 33.1774C21.1706 33.1774 17.2498 31.4215 14.414 28.5857L15.1874 27.8123L14.414 28.5857C11.5782 25.7499 9.82227 21.8291 9.82227 17.5003C9.82227 13.1716 11.5782 9.25079 14.414 6.41496L14.414 6.41494ZM25.4994 4.01074C21.774 4.01074 18.4031 5.51942 15.9608 7.96175C13.5184 10.4041 12.0098 13.775 12.0098 17.5003C12.0098 21.2256 13.5184 24.5965 15.9608 27.0389C18.4031 29.4812 21.774 30.9899 25.4994 30.9899C29.2247 30.9899 32.5956 29.4812 35.0379 27.0389C37.4802 24.5965 38.9889 21.2256 38.9889 17.5003C38.9889 13.775 37.4802 10.4041 35.0379 7.96175C32.5956 5.51942 29.2247 4.01074 25.4994 4.01074Z" fill="#D6CB89"/>
<path fill-rule="evenodd" clip-rule="evenodd" d="M25.5007 8.02051C26.5074 8.02051 27.3236 8.83666 27.3236 9.84342C27.3236 10.8502 26.5074 11.6663 25.5007 11.6663C24.4939 11.6663 23.6777 10.8502 23.6777 9.84342C23.6777 8.83666 24.4939 8.02051 25.5007 8.02051Z" fill="#D6CB89"/>
<path fill-rule="evenodd" clip-rule="evenodd" d="M23.3125 14.583C23.3125 13.9789 23.8022 13.4893 24.4063 13.4893H25.8646C26.4686 13.4893 26.9583 13.9789 26.9583 14.583V24.7913C26.9583 25.3954 26.4686 25.8851 25.8646 25.8851C25.2605 25.8851 24.7708 25.3954 24.7708 24.7913V15.6768H24.4063C23.8022 15.6768 23.3125 15.1871 23.3125 14.583Z" fill="#D6CB89"/>
<path fill-rule="evenodd" clip-rule="evenodd" d="M22.2188 24.792C22.2188 24.1879 22.7084 23.6982 23.3125 23.6982H28.4167C29.0207 23.6982 29.5104 24.1879 29.5104 24.792C29.5104 25.3961 29.0207 25.8857 28.4167 25.8857H23.3125C22.7084 25.8857 22.2188 25.3961 22.2188 24.792Z" fill="#D6CB89"/>
<path d="M0.930176 46.7969C0.989421 46.763 1.04232 46.7461 1.08887 46.7461H1.23486C1.26449 46.7461 1.31527 46.744 1.38721 46.7397C1.71305 46.7101 1.9056 46.6805 1.96484 46.6509C2.11296 46.5705 2.23991 46.4308 2.3457 46.2319C2.56576 45.8003 2.81331 45.1888 3.08838 44.3975C3.21956 44.0208 3.30208 43.7923 3.33594 43.7119C3.44173 43.458 3.54329 43.1914 3.64062 42.9121L4.2373 41.2427C4.3304 40.9803 4.55469 40.3794 4.91016 39.4399C4.99902 39.203 5.10693 38.8856 5.23389 38.4878L5.41797 38.4751L5.64014 38.4814C5.8221 38.8411 5.98291 39.2284 6.12256 39.6431C6.19873 39.8631 6.32357 40.1911 6.49707 40.627L7.46191 43.2358L7.97607 44.6514C8.24691 45.4554 8.42464 45.9505 8.50928 46.1367C8.59391 46.3187 8.6722 46.4393 8.74414 46.4985C8.7653 46.5155 8.84359 46.5409 8.979 46.5747C9.11865 46.6086 9.21598 46.634 9.271 46.6509C9.46566 46.7059 9.60107 46.7524 9.67725 46.7905C9.69417 46.8371 9.70264 46.873 9.70264 46.8984C9.70264 46.9196 9.69629 46.9513 9.68359 46.9937C9.54818 46.9979 9.45296 47 9.39795 47C9.18213 47 8.80127 46.9937 8.25537 46.981L7.62061 46.9619L6.85254 46.9746C6.80176 46.9746 6.74886 46.9725 6.69385 46.9683C6.64307 46.9598 6.59863 46.9556 6.56055 46.9556H6.4209C6.37435 46.9513 6.33203 46.9386 6.29395 46.9175C6.29395 46.8582 6.30452 46.8011 6.32568 46.7461C6.37646 46.7207 6.42301 46.7059 6.46533 46.7017L7.13184 46.6572C7.30534 46.6488 7.43652 46.6255 7.52539 46.5874C7.55078 46.5112 7.56348 46.4541 7.56348 46.416C7.56348 46.3398 7.50846 46.1431 7.39844 45.8257C7.32227 45.6141 7.25456 45.4131 7.19531 45.2227C7.1403 45.0322 6.91602 44.4059 6.52246 43.3438C6.34896 43.3141 6.19661 43.2993 6.06543 43.2993L4.70703 43.312L4.30713 43.3057C4.16325 43.3057 4.00456 43.3162 3.83105 43.3374C3.77604 43.4644 3.74007 43.5553 3.72314 43.6104L3.16455 45.356C2.92757 46.0203 2.80908 46.3864 2.80908 46.4541C2.80908 46.4922 2.82812 46.5557 2.86621 46.6445C2.95508 46.6699 3.07357 46.6932 3.22168 46.7144L4.08496 46.7905C4.13151 46.8286 4.15479 46.8625 4.15479 46.8921C4.15479 46.9132 4.14844 46.945 4.13574 46.9873C3.94531 46.9915 3.79932 46.9937 3.69775 46.9937C3.35921 46.9937 2.96566 46.9831 2.51709 46.9619C2.30973 46.9535 2.16162 46.9492 2.07275 46.9492C1.98389 46.9492 1.82943 46.9535 1.60938 46.9619C1.46549 46.9704 1.36182 46.9746 1.29834 46.9746C1.19678 46.9746 1.06559 46.9683 0.904785 46.9556V46.9175C0.904785 46.8879 0.913249 46.8477 0.930176 46.7969ZM3.95801 42.9883C4.41081 43.0137 4.92708 43.0264 5.50684 43.0264C5.83691 43.0264 6.12679 43.0158 6.37646 42.9946C6.33415 42.8296 6.28548 42.6751 6.23047 42.5312C5.9554 41.7949 5.80306 41.3887 5.77344 41.3125L5.1958 39.8462L5.13232 39.7319C5.10693 39.7827 5.01383 40.0007 4.85303 40.3857C4.58219 41.0459 4.38753 41.5601 4.26904 41.9282C4.21403 42.0933 4.1569 42.2583 4.09766 42.4233C4.03841 42.5841 4.00033 42.6984 3.9834 42.7661C3.9707 42.8296 3.94954 42.8952 3.91992 42.9629L3.95801 42.9883ZM10.0264 39.021V38.9893C10.0264 38.9469 10.0433 38.8877 10.0771 38.8115C10.5384 38.7311 11.0293 38.6084 11.5498 38.4434C11.5794 38.4391 11.626 38.437 11.6895 38.437C11.7106 38.5047 11.7212 38.5492 11.7212 38.5703V40.4619L11.7148 41.0649L11.7212 41.7378L11.7085 42.2837C11.7085 42.3049 11.7127 42.3768 11.7212 42.4995L12.2417 42.3027C12.2967 42.2858 12.4787 42.2308 12.7876 42.1377C13.1812 42.0742 13.4097 42.0425 13.4731 42.0425C13.8963 42.0425 14.2772 42.1102 14.6157 42.2456C14.8231 42.3302 15.0283 42.472 15.2314 42.6709C15.4346 42.8656 15.5848 43.0729 15.6821 43.293C15.8514 43.695 15.936 44.042 15.936 44.334C15.936 44.7952 15.9064 45.1147 15.8472 45.2925C15.7033 45.7157 15.5277 46.05 15.3203 46.2954C15.113 46.5409 14.8231 46.7503 14.4507 46.9238C14.0783 47.0973 13.6826 47.1841 13.2637 47.1841C12.8786 47.1841 12.5146 47.1121 12.1719 46.9683C11.8291 46.8244 11.6366 46.7524 11.5942 46.7524C11.4631 46.7524 11.2959 46.9259 11.0928 47.2729L10.9087 47.2666C10.8918 46.9831 10.8833 46.634 10.8833 46.2192L10.896 45.2734L10.8896 44.791L10.9023 43.4072L10.8896 43.1406L10.915 42.4868V41.9282L10.9214 41.6997C10.9214 41.6532 10.9193 41.4691 10.915 41.1475V40.7666C10.9277 40.0303 10.896 39.605 10.8198 39.4907C10.6971 39.3088 10.4326 39.1522 10.0264 39.021ZM13.0415 46.835C13.6847 46.835 14.1735 46.6551 14.5078 46.2954C14.8464 45.9315 15.0156 45.3919 15.0156 44.6768C15.0156 44.0208 14.8252 43.4897 14.4443 43.0835C14.0635 42.6772 13.5938 42.4741 13.0352 42.4741C12.6289 42.4741 12.2882 42.5397 12.0132 42.6709C11.8481 42.7513 11.755 42.8254 11.7339 42.8931C11.717 42.9608 11.7085 43.4136 11.7085 44.2515C11.7085 45.2459 11.7297 45.8278 11.772 45.9971C11.8439 46.2594 11.9751 46.4478 12.1655 46.562C12.466 46.744 12.758 46.835 13.0415 46.835ZM16.9136 44.4482C16.9136 44.1605 16.9728 43.8537 17.0913 43.5278C17.214 43.1978 17.3981 42.9036 17.6436 42.6455C17.889 42.3831 18.1493 42.1885 18.4243 42.0615C18.8094 41.8838 19.2791 41.7949 19.8335 41.7949C20.6248 41.7949 21.285 42.0658 21.814 42.6074C22.3472 43.1491 22.6138 43.8008 22.6138 44.5625C22.6138 45.2396 22.3345 45.8447 21.7759 46.3779C21.2215 46.9069 20.519 47.1714 19.6685 47.1714C19.1437 47.1714 18.6486 47.0339 18.1831 46.7588C17.8361 46.5514 17.5378 46.2446 17.2881 45.8384C17.0384 45.4321 16.9136 44.9688 16.9136 44.4482ZM19.7192 46.9238C20.0409 46.9238 20.3498 46.8371 20.646 46.6636C20.9465 46.4901 21.1855 46.2129 21.3633 45.832C21.541 45.4469 21.6299 45.0026 21.6299 44.499C21.6299 44.1689 21.5601 43.786 21.4204 43.3501C21.285 42.9142 21.0734 42.5884 20.7856 42.3726C20.5021 42.1525 20.1678 42.0425 19.7827 42.0425C19.5034 42.0425 19.2178 42.1081 18.9258 42.2393C18.638 42.3704 18.3926 42.6222 18.1895 42.9946C17.9906 43.367 17.8911 43.896 17.8911 44.5815C17.8911 45.3517 18.0646 45.9357 18.4116 46.3335C18.7629 46.7271 19.1987 46.9238 19.7192 46.9238ZM23.2993 42.0171H23.7754L23.9849 42.0298L24.1499 42.0171C24.5858 42.0171 24.8566 42.0213 24.9624 42.0298L24.9688 42.1504C24.9688 42.7471 24.9603 43.3247 24.9434 43.8833C24.9307 44.2134 24.9243 44.4017 24.9243 44.4482C24.9243 45.193 24.9476 45.6585 24.9941 45.8447C25.0449 46.0309 25.1592 46.1812 25.3369 46.2954C25.5189 46.4054 25.7368 46.4604 25.9907 46.4604C26.2996 46.4604 26.5938 46.397 26.873 46.27C27.1566 46.1388 27.3978 45.9801 27.5967 45.7939C27.6178 45.6331 27.6284 45.4554 27.6284 45.2607C27.6284 44.6302 27.6348 44.2049 27.6475 43.9849C27.6517 43.8537 27.6538 43.7394 27.6538 43.6421C27.6538 42.9565 27.62 42.5693 27.5522 42.4805C27.4845 42.3916 27.2264 42.3239 26.7778 42.2773C26.6297 42.2604 26.5218 42.2456 26.4541 42.2329C26.4202 42.1779 26.4033 42.1356 26.4033 42.106L26.4224 42.0361C26.5324 42.0234 26.6403 42.0171 26.7461 42.0171L27.7554 42.0298C28.1151 42.0213 28.3055 42.0171 28.3267 42.0171C28.3732 42.0171 28.4176 42.0192 28.46 42.0234L28.4727 42.4868C28.443 43.13 28.4261 43.9256 28.4219 44.8735L28.4092 45.3877L28.4346 46.251C28.4727 46.3187 28.5065 46.3589 28.5361 46.3716C28.5869 46.3927 28.6906 46.4033 28.8472 46.4033H28.9043C28.9593 46.4033 29.1159 46.416 29.374 46.4414C29.3783 46.4964 29.3804 46.5366 29.3804 46.562V46.6318C28.8133 46.7546 28.3542 46.8773 28.0029 47C27.8633 47.0465 27.7448 47.0804 27.6475 47.1016C27.6263 46.9535 27.6157 46.8625 27.6157 46.8286V46.3145C27.6157 46.2933 27.6136 46.2362 27.6094 46.1431C27.5544 46.1812 27.4909 46.2277 27.4189 46.2827C27.0846 46.5409 26.7313 46.7588 26.3589 46.9365C26.1092 47.0592 25.868 47.1206 25.6353 47.1206C25.1909 47.1206 24.8291 46.9556 24.5498 46.6255C24.2663 46.2954 24.1245 45.7326 24.1245 44.937C24.1245 44.8947 24.1266 44.8185 24.1309 44.7085C24.1478 44.5054 24.1562 44.3636 24.1562 44.2832C24.1562 44.2536 24.1541 44.1605 24.1499 44.0039C24.1457 43.9362 24.1436 43.877 24.1436 43.8262C24.1436 43.7881 24.1457 43.7035 24.1499 43.5723C24.1541 43.4368 24.1562 43.3416 24.1562 43.2866C24.1562 43.2147 24.1541 43.1512 24.1499 43.0962L24.1372 42.7598L24.1436 42.582C24.1436 42.5143 24.1097 42.453 24.042 42.3979C23.7754 42.326 23.5998 42.2858 23.5151 42.2773C23.4347 42.2646 23.3628 42.2456 23.2993 42.2202V42.0171ZM31.2783 40.7285L31.4751 40.7349L31.5005 41.3379L31.4878 42.1187C31.5682 42.1229 31.619 42.125 31.6401 42.125C31.7502 42.125 31.9596 42.1165 32.2686 42.0996C32.4674 42.0869 32.6579 42.0806 32.8398 42.0806C32.9245 42.0806 33.0514 42.0827 33.2207 42.0869C33.2292 42.1715 33.2334 42.2393 33.2334 42.29C33.2334 42.3451 33.2207 42.4318 33.1953 42.5503H33.0874L32.1035 42.582L31.6147 42.5947L31.5005 42.6074C31.4666 42.7132 31.4497 42.8359 31.4497 42.9756L31.4688 43.9277L31.4561 45.6035C31.4561 46.0436 31.5132 46.3356 31.6274 46.4795C31.7375 46.6276 31.9025 46.7017 32.1226 46.7017C32.2326 46.7017 32.4399 46.6678 32.7446 46.6001C32.8377 46.5789 32.9626 46.5091 33.1191 46.3906H33.1763C33.2144 46.3906 33.244 46.4033 33.2651 46.4287C33.2905 46.4499 33.3032 46.4795 33.3032 46.5176L33.2969 46.562C33.1149 46.7609 32.9054 46.9069 32.6685 47C32.4357 47.0889 32.1247 47.1333 31.7354 47.1333C31.4603 47.1333 31.2318 47.0698 31.0498 46.9429C30.8721 46.8159 30.7578 46.6657 30.707 46.4922C30.6562 46.3187 30.6309 45.9399 30.6309 45.356L30.6562 43.9277L30.6499 43.2422V42.9883C30.6499 42.8698 30.6457 42.7513 30.6372 42.6328L30.5293 42.6265L30.0088 42.6455L29.958 42.6519C29.9115 42.6519 29.8755 42.6413 29.8501 42.6201C29.8289 42.599 29.8184 42.5736 29.8184 42.5439C29.8184 42.4932 29.8332 42.453 29.8628 42.4233C29.8966 42.3895 29.994 42.3387 30.1548 42.271C30.2648 42.2244 30.3918 42.1377 30.5356 42.0107C30.6838 41.8796 30.8086 41.7357 30.9102 41.5791C30.9609 41.4945 31.0329 41.3337 31.126 41.0967C31.1937 40.9232 31.2445 40.8005 31.2783 40.7285ZM40.2158 38.8496C40.237 38.9215 40.2476 38.9766 40.2476 39.0146C40.2476 39.04 40.2412 39.0781 40.2285 39.1289C40.1185 39.1585 40.0296 39.1733 39.9619 39.1733C39.9323 39.1733 39.8815 39.1712 39.8096 39.167C39.7419 39.1585 39.6868 39.1543 39.6445 39.1543C39.4499 39.1543 39.2954 39.1924 39.1812 39.2686C39.105 39.3151 39.0584 39.3765 39.0415 39.4526L38.978 40.1763L38.9971 43.3184C39.0013 44.4694 39.0394 45.1867 39.1113 45.4702C39.1833 45.7495 39.3039 45.9801 39.4731 46.1621C39.6424 46.3441 39.8963 46.4943 40.2349 46.6128C40.5776 46.7313 40.9098 46.7905 41.2314 46.7905C41.9508 46.7905 42.501 46.6868 42.8818 46.4795C43.2669 46.2721 43.542 45.9865 43.707 45.6226C43.8763 45.2544 43.9609 44.6979 43.9609 43.9531C43.9609 43.932 43.9546 43.7627 43.9419 43.4453V43.2612C43.9419 43.1935 43.9461 43.0623 43.9546 42.8677C43.9631 42.6688 43.9673 42.5524 43.9673 42.5186L43.8721 40.6968C43.8424 40.0832 43.8065 39.7214 43.7642 39.6113C43.7261 39.5013 43.6689 39.4188 43.5928 39.3638C43.4277 39.2453 43.1146 39.1395 42.6533 39.0464C42.6322 38.9871 42.6195 38.9258 42.6152 38.8623C42.7803 38.8454 42.9432 38.8369 43.104 38.8369C43.2733 38.8369 43.451 38.8433 43.6372 38.856C43.9165 38.8771 44.0688 38.8877 44.0942 38.8877L45.0972 38.856L45.2939 38.8623L45.2876 39.0908C44.7671 39.1585 44.4561 39.2389 44.3545 39.332C44.2529 39.4209 44.2021 39.5881 44.2021 39.8335C44.2021 39.9647 44.2106 40.2503 44.2275 40.6904L44.272 42.0044L44.2656 42.5249L44.2847 43.1851C44.2847 44.0145 44.2614 44.5794 44.2148 44.8799C44.1471 45.2988 44.0498 45.631 43.9229 45.8765C43.8001 46.1219 43.6203 46.3441 43.3833 46.543C43.1463 46.7376 42.8289 46.8984 42.4312 47.0254C42.0376 47.1523 41.6483 47.2158 41.2632 47.2158C40.658 47.2158 40.2222 47.1735 39.9556 47.0889C39.4689 46.9408 39.0817 46.7482 38.7939 46.5112C38.5062 46.2743 38.3073 46.0373 38.1973 45.8003C38.0492 45.4871 37.9751 45.0301 37.9751 44.4292V43.9912L37.9561 42.2139L37.9751 40.7793V39.8145C37.9751 39.569 37.9412 39.3976 37.8735 39.3003C37.827 39.2326 37.7593 39.1987 37.6704 39.1987L37.2959 39.2051C37.0166 39.2051 36.8389 39.1755 36.7627 39.1162C36.75 39.0781 36.7437 39.0443 36.7437 39.0146C36.7437 38.9766 36.7563 38.9469 36.7817 38.9258C36.8283 38.8919 36.8854 38.875 36.9531 38.875H37.1182L37.5435 38.8687H38.5464L40.2158 38.8496ZM46.646 45.3877C46.8026 45.7897 46.9211 46.05 47.0015 46.1685C47.1623 46.4097 47.3548 46.598 47.5791 46.7334C47.8034 46.8646 48.0467 46.9302 48.3091 46.9302C48.5503 46.9302 48.7894 46.8265 49.0264 46.6191C49.1956 46.4626 49.2803 46.2806 49.2803 46.0732C49.2803 45.7982 49.1808 45.5443 48.9819 45.3115C48.783 45.083 48.4043 44.8651 47.8457 44.6577C47.2913 44.4461 46.9189 44.2218 46.7285 43.9849C46.5381 43.7479 46.4429 43.4771 46.4429 43.1724C46.4429 42.8846 46.5212 42.6307 46.6777 42.4106C46.8343 42.1906 47.0501 42.0256 47.3252 41.9155C47.6003 41.8013 47.8542 41.7441 48.0869 41.7441C48.3874 41.7441 48.6561 41.7674 48.8931 41.814C49.1343 41.8605 49.3416 41.9325 49.5151 42.0298C49.549 42.2456 49.5765 42.563 49.5977 42.9819L49.6104 43.1851C49.5553 43.1893 49.5088 43.1914 49.4707 43.1914H49.3818C49.2549 42.8402 49.0602 42.563 48.7979 42.3599C48.5397 42.1525 48.2837 42.0488 48.0298 42.0488C47.7759 42.0488 47.5706 42.1271 47.4141 42.2837C47.2575 42.436 47.1792 42.637 47.1792 42.8867C47.1792 43.0771 47.2427 43.2464 47.3696 43.3945C47.4966 43.5426 47.7928 43.7119 48.2583 43.9023C48.728 44.0928 49.0687 44.2705 49.2803 44.4355C49.4961 44.5964 49.6548 44.7931 49.7563 45.0259C49.8579 45.2586 49.9087 45.4808 49.9087 45.6924C49.9087 45.9844 49.8114 46.2573 49.6167 46.5112C49.4263 46.7651 49.1851 46.9429 48.8931 47.0444C48.6053 47.1502 48.3472 47.2031 48.1187 47.2031C47.5812 47.2031 47.0861 47.1037 46.6333 46.9048C46.591 46.8709 46.5677 46.8075 46.5635 46.7144C46.5635 46.6763 46.5592 46.6149 46.5508 46.5303C46.4831 45.959 46.4492 45.6204 46.4492 45.5146C46.4492 45.4639 46.4598 45.43 46.481 45.4131C46.5021 45.3962 46.5571 45.3877 46.646 45.3877Z" fill="#D6CB89"/>
</svg>
