<svg width="50" height="56" viewBox="0 0 50 56" fill="none" xmlns="http://www.w3.org/2000/svg">
<path d="M18.3639 40.3128C20.0956 40.3128 21.4993 38.9091 21.4993 37.1774C21.4993 35.4458 20.0956 34.042 18.3639 34.042C16.6323 34.042 15.2285 35.4458 15.2285 37.1774C15.2285 38.9091 16.6323 40.3128 18.3639 40.3128Z" fill="#3D3D3D"/>
<path d="M33.5944 40.3128C35.326 40.3128 36.7298 38.9091 36.7298 37.1774C36.7298 35.4458 35.326 34.042 33.5944 34.042C31.8628 34.042 30.459 35.4458 30.459 37.1774C30.459 38.9091 31.8628 40.3128 33.5944 40.3128Z" fill="#3D3D3D"/>
<path fill-rule="evenodd" clip-rule="evenodd" d="M3.36059 4.62976C3.77225 4.01227 4.60655 3.84541 5.22404 4.25708L13.2865 9.63208C13.573 9.82303 13.7752 10.1166 13.8515 10.4523L18.0929 29.1147H33.9315L37.6203 16.5731H22.3953C21.6532 16.5731 21.0516 15.9714 21.0516 15.2293C21.0516 14.4872 21.6532 13.8856 22.3953 13.8856H39.4162C39.8396 13.8856 40.2384 14.0852 40.4921 14.4243C40.7458 14.7634 40.8248 15.2022 40.7053 15.6085L36.2261 30.8376C36.0579 31.4095 35.5331 31.8022 34.937 31.8022H17.0203C16.3929 31.8022 15.849 31.3681 15.71 30.7563L11.3497 11.5708L3.73328 6.49321C3.11579 6.08155 2.94893 5.24726 3.36059 4.62976Z" fill="#3D3D3D"/>
<path fill-rule="evenodd" clip-rule="evenodd" d="M21.0527 23.292C21.0527 22.5499 21.6544 21.9482 22.3965 21.9482H36.7298C37.472 21.9482 38.0736 22.5499 38.0736 23.292C38.0736 24.0341 37.472 24.6357 36.7298 24.6357H22.3965C21.6544 24.6357 21.0527 24.0341 21.0527 23.292Z" fill="#3D3D3D"/>
<path d="M0.272949 51.7969C0.366048 51.7588 0.461263 51.7355 0.558594 51.7271C1.20605 51.6847 1.57633 51.6086 1.66943 51.4985C1.76253 51.3843 1.80908 50.8405 1.80908 49.8672L1.80273 49.2007V48.5024L1.77734 47.7344L1.79004 47.2837L1.78369 46.7886V46.2046L1.771 45.9443L1.78369 45.6143C1.78792 45.5381 1.79004 45.4492 1.79004 45.3477C1.79004 45.0811 1.77734 44.7996 1.75195 44.5034C1.73503 44.4442 1.71175 44.387 1.68213 44.332C1.52555 44.2516 1.27165 44.1987 0.92041 44.1733C0.573405 44.1437 0.376628 44.112 0.330078 44.0781C0.296224 44.0527 0.277181 43.9871 0.272949 43.8813H0.806152L2.48828 43.9194C2.91992 43.9194 3.49544 43.9067 4.21484 43.8813C4.21484 43.9491 4.21061 44.0125 4.20215 44.0718C4.11751 44.0929 3.97575 44.1162 3.77686 44.1416C3.37484 44.1882 3.12939 44.2326 3.04053 44.2749C2.98551 44.2961 2.94531 44.332 2.91992 44.3828C2.8776 44.459 2.85221 44.6007 2.84375 44.8081L2.81201 45.627L2.8374 48.4517V49.5688C2.82894 49.9201 2.82471 50.1592 2.82471 50.2861C2.82471 50.7601 2.83529 51.0627 2.85645 51.1938C2.88184 51.325 2.92204 51.4202 2.97705 51.4795C3.0363 51.5345 3.13151 51.5789 3.2627 51.6128C3.45736 51.6593 3.6097 51.6847 3.71973 51.689C3.95671 51.6974 4.10693 51.7313 4.17041 51.7905C4.18311 51.8455 4.18945 51.8921 4.18945 51.9302V51.981C3.80436 51.9937 3.52083 52 3.33887 52C3.23307 52 3.04476 51.9937 2.77393 51.981L1.89795 51.9937L0.40625 51.9873H0.285645L0.272949 51.7969ZM4.84961 51.7969C4.9554 51.7673 5.07812 51.7419 5.21777 51.7207C5.48438 51.6826 5.64307 51.6382 5.69385 51.5874C5.74886 51.5366 5.77637 51.4202 5.77637 51.2383L5.78906 51.0098C5.79329 50.9251 5.79541 50.8172 5.79541 50.686L5.78271 48.7373C5.78271 48.4749 5.74886 48.3057 5.68115 48.2295C5.56689 48.111 5.35531 48.0285 5.04639 47.9819V47.7534C5.35531 47.6688 5.59229 47.5588 5.75732 47.4233C5.99854 47.2329 6.20166 46.9748 6.3667 46.6489L6.58252 46.6553C6.59521 46.8542 6.60156 46.9959 6.60156 47.0806V47.4995L6.60791 47.6138C6.65869 47.5799 6.71794 47.5376 6.78564 47.4868C7.03955 47.2964 7.2998 47.1419 7.56641 47.0234C7.83301 46.9007 8.06999 46.8161 8.27734 46.7695C8.40853 46.7357 8.55664 46.7188 8.72168 46.7188C9.06868 46.7188 9.36702 46.8118 9.6167 46.998C9.86637 47.1842 10.0272 47.4043 10.0991 47.6582C10.1753 47.9079 10.2134 48.4072 10.2134 49.1562V50.1147C10.2134 50.1401 10.2091 50.2248 10.2007 50.3687C10.1965 50.5125 10.1943 50.6776 10.1943 50.8638C10.1943 51.16 10.207 51.3483 10.2324 51.4287C10.2536 51.4837 10.3086 51.5387 10.3975 51.5938C10.8037 51.6488 11.0407 51.7144 11.1084 51.7905V51.8413C11.1084 51.8836 11.0957 51.9365 11.0703 52H10.9497L10.1118 51.9937L9.28662 52.0063C8.98193 52.0148 8.70052 52.0127 8.44238 52L8.4043 51.8667C8.4043 51.8413 8.41911 51.8075 8.44873 51.7651C8.56299 51.7144 8.7238 51.6805 8.93115 51.6636C9.05387 51.6551 9.13851 51.6424 9.18506 51.6255C9.23161 51.6086 9.28874 51.5747 9.35645 51.5239C9.40723 51.4224 9.43262 51.3377 9.43262 51.27C9.43262 51.2404 9.42839 51.1812 9.41992 51.0923C9.40723 50.8976 9.39876 50.4131 9.39453 49.6387V49.3086L9.40723 48.8008C9.40723 48.2549 9.2972 47.8783 9.07715 47.6709C8.8571 47.4635 8.56299 47.3599 8.19482 47.3599C7.9113 47.3599 7.63411 47.4233 7.36328 47.5503C7.09245 47.673 6.83008 47.8592 6.57617 48.1089C6.56771 48.312 6.56348 48.4855 6.56348 48.6294L6.58252 50.0322C6.58252 50.7643 6.5931 51.2129 6.61426 51.3779C6.62272 51.4456 6.63753 51.4922 6.65869 51.5176C6.69255 51.5514 6.76025 51.5789 6.86182 51.6001C6.96338 51.6213 7.07975 51.6509 7.21094 51.689C7.34635 51.7271 7.43522 51.7503 7.47754 51.7588C7.56217 51.7799 7.6193 51.8223 7.64893 51.8857L7.64258 52.0127H6.97607L5.60498 51.9937C5.2876 52.0021 5.08659 52.0063 5.00195 52.0063H4.84326L4.83057 51.9238C4.83057 51.8942 4.83691 51.8519 4.84961 51.7969ZM11.0005 46.96C11.4702 46.9642 11.8807 46.979 12.2319 47.0044C12.4816 47.0044 12.6636 47.0002 12.7778 46.9917C12.8582 46.9875 12.909 46.9854 12.9302 46.9854L13.6411 46.9917C13.7384 47.0086 13.8167 47.0192 13.876 47.0234C13.9014 47.0319 13.9246 47.0552 13.9458 47.0933C13.9458 47.1356 13.9331 47.18 13.9077 47.2266C13.8358 47.2477 13.7617 47.2604 13.6855 47.2646C13.3682 47.2985 13.1016 47.3472 12.8857 47.4106C12.8561 47.4318 12.8413 47.453 12.8413 47.4741C12.8413 47.5164 12.8625 47.582 12.9048 47.6709C12.9132 47.6921 12.9323 47.7428 12.9619 47.8232L13.5967 49.3467C13.8802 50.0449 14.1426 50.6331 14.3838 51.1113C14.5488 50.7982 14.7012 50.4744 14.8408 50.1401C14.9805 49.8058 15.1857 49.279 15.4565 48.5596C15.5327 48.3564 15.6047 48.1047 15.6724 47.8042C15.6851 47.745 15.6914 47.6942 15.6914 47.6519C15.6914 47.6011 15.6618 47.5461 15.6025 47.4868C15.5475 47.4233 15.4523 47.3726 15.3169 47.3345C15.2873 47.3302 15.0947 47.2985 14.7393 47.2393C14.7096 47.2223 14.6821 47.1991 14.6567 47.1694V47.1187C14.6567 47.0975 14.6589 47.07 14.6631 47.0361C14.7646 47.0234 14.8387 47.0171 14.8853 47.0171L15.6343 47.0234C15.6851 47.0234 15.8057 47.0171 15.9961 47.0044C16.6689 47.0044 17.0731 47.0107 17.2085 47.0234C17.2339 47.0319 17.2572 47.0573 17.2783 47.0996C17.2783 47.1377 17.2656 47.18 17.2402 47.2266L17.0435 47.2773C16.9927 47.2816 16.9525 47.2858 16.9229 47.29C16.5589 47.3239 16.3346 47.3747 16.25 47.4424C16.1865 47.4889 16.0871 47.7069 15.9517 48.0962C15.8882 48.2866 15.7951 48.5278 15.6724 48.8198L15.3423 49.6196C15.2957 49.7339 15.245 49.8587 15.1899 49.9941L14.2061 52.2666H14.0156C13.9775 52.165 13.931 52.0592 13.876 51.9492L13.3936 50.9272L12.2573 48.2676C12.0288 47.7513 11.8913 47.472 11.8447 47.4297C11.7982 47.3874 11.5273 47.2985 11.0322 47.1631C11.0068 47.0954 10.9941 47.0467 10.9941 47.0171L11.0005 46.96ZM21.9375 48.6484L19.3921 48.6675H18.9097C18.715 48.6675 18.5161 48.6759 18.313 48.6929C18.2749 48.8198 18.2559 48.9066 18.2559 48.9531L18.2622 49.0166V49.0801L18.2559 49.3911C18.2559 49.6493 18.3363 49.9666 18.4971 50.3433C18.6621 50.7157 18.8949 51.0013 19.1953 51.2002C19.5 51.3949 19.8787 51.4985 20.3315 51.5112C20.5728 51.4985 20.7653 51.4689 20.9092 51.4224C21.0531 51.3758 21.2562 51.2679 21.5186 51.0986L21.9756 50.7241L22.0137 50.978C22.0137 51.0076 22.0116 51.0394 22.0073 51.0732C21.8169 51.3145 21.5757 51.526 21.2837 51.708C20.9917 51.89 20.6955 52.0233 20.395 52.1079C20.2511 52.146 20.0142 52.165 19.6841 52.165C19.3836 52.165 19.0874 52.1037 18.7954 51.981C18.3638 51.7948 18.0231 51.4964 17.7734 51.0859C17.528 50.6712 17.4053 50.1698 17.4053 49.5815C17.4053 49.3953 17.4391 49.1562 17.5068 48.8643C17.5788 48.5723 17.7057 48.2612 17.8877 47.9312C18.0104 47.7069 18.1606 47.5228 18.3384 47.3789C18.5923 47.1758 18.8145 47.034 19.0049 46.9536C19.2799 46.8394 19.5994 46.7822 19.9634 46.7822C20.3569 46.7822 20.6785 46.8542 20.9282 46.998C21.2668 47.1885 21.5186 47.4339 21.6836 47.7344C21.8529 48.0348 21.9375 48.3099 21.9375 48.5596V48.6484ZM18.3955 48.4199H18.6938C18.9097 48.4199 19.5529 48.3861 20.6235 48.3184C20.7928 48.3099 20.8965 48.293 20.9346 48.2676C21.0107 48.1872 21.0488 48.1152 21.0488 48.0518C21.0488 47.9206 21.0065 47.7725 20.9219 47.6074C20.8372 47.4382 20.7061 47.3091 20.5283 47.2202C20.3548 47.1271 20.1517 47.0806 19.9189 47.0806C19.4281 47.0806 19.0345 47.2646 18.7383 47.6328C18.5098 47.9121 18.3955 48.1745 18.3955 48.4199ZM22.5723 51.7969C22.6781 51.7673 22.8008 51.7419 22.9404 51.7207C23.207 51.6826 23.3657 51.6382 23.4165 51.5874C23.4715 51.5366 23.499 51.4202 23.499 51.2383L23.5117 51.0098C23.516 50.9251 23.5181 50.8172 23.5181 50.686L23.5054 48.7373C23.5054 48.4749 23.4715 48.3057 23.4038 48.2295C23.2896 48.111 23.078 48.0285 22.769 47.9819V47.7534C23.078 47.6688 23.3149 47.5588 23.48 47.4233C23.7212 47.2329 23.9243 46.9748 24.0894 46.6489L24.3052 46.6553C24.3179 46.8542 24.3242 46.9959 24.3242 47.0806V47.4995L24.3306 47.6138C24.3813 47.5799 24.4406 47.5376 24.5083 47.4868C24.7622 47.2964 25.0225 47.1419 25.2891 47.0234C25.5557 46.9007 25.7926 46.8161 26 46.7695C26.1312 46.7357 26.2793 46.7188 26.4443 46.7188C26.7913 46.7188 27.0897 46.8118 27.3394 46.998C27.589 47.1842 27.7498 47.4043 27.8218 47.6582C27.8979 47.9079 27.936 48.4072 27.936 49.1562V50.1147C27.936 50.1401 27.9318 50.2248 27.9233 50.3687C27.9191 50.5125 27.917 50.6776 27.917 50.8638C27.917 51.16 27.9297 51.3483 27.9551 51.4287C27.9762 51.4837 28.0312 51.5387 28.1201 51.5938C28.5264 51.6488 28.7633 51.7144 28.8311 51.7905V51.8413C28.8311 51.8836 28.8184 51.9365 28.793 52H28.6724L27.8345 51.9937L27.0093 52.0063C26.7046 52.0148 26.4232 52.0127 26.165 52L26.127 51.8667C26.127 51.8413 26.1418 51.8075 26.1714 51.7651C26.2856 51.7144 26.4465 51.6805 26.6538 51.6636C26.7765 51.6551 26.8612 51.6424 26.9077 51.6255C26.9543 51.6086 27.0114 51.5747 27.0791 51.5239C27.1299 51.4224 27.1553 51.3377 27.1553 51.27C27.1553 51.2404 27.151 51.1812 27.1426 51.0923C27.1299 50.8976 27.1214 50.4131 27.1172 49.6387V49.3086L27.1299 48.8008C27.1299 48.2549 27.0199 47.8783 26.7998 47.6709C26.5798 47.4635 26.2856 47.3599 25.9175 47.3599C25.634 47.3599 25.3568 47.4233 25.0859 47.5503C24.8151 47.673 24.5527 47.8592 24.2988 48.1089C24.2904 48.312 24.2861 48.4855 24.2861 48.6294L24.3052 50.0322C24.3052 50.7643 24.3158 51.2129 24.3369 51.3779C24.3454 51.4456 24.3602 51.4922 24.3813 51.5176C24.4152 51.5514 24.4829 51.5789 24.5845 51.6001C24.686 51.6213 24.8024 51.6509 24.9336 51.689C25.069 51.7271 25.1579 51.7503 25.2002 51.7588C25.2848 51.7799 25.342 51.8223 25.3716 51.8857L25.3652 52.0127H24.6987L23.3276 51.9937C23.0103 52.0021 22.8092 52.0063 22.7246 52.0063H22.5659L22.5532 51.9238C22.5532 51.8942 22.5596 51.8519 22.5723 51.7969ZM30.7861 45.7285L30.9829 45.7349L31.0083 46.3379L30.9956 47.1187C31.076 47.1229 31.1268 47.125 31.1479 47.125C31.258 47.125 31.4674 47.1165 31.7764 47.0996C31.9753 47.0869 32.1657 47.0806 32.3477 47.0806C32.4323 47.0806 32.5592 47.0827 32.7285 47.0869C32.737 47.1715 32.7412 47.2393 32.7412 47.29C32.7412 47.3451 32.7285 47.4318 32.7031 47.5503H32.5952L31.6113 47.582L31.1226 47.5947L31.0083 47.6074C30.9744 47.7132 30.9575 47.8359 30.9575 47.9756L30.9766 48.9277L30.9639 50.6035C30.9639 51.0436 31.021 51.3356 31.1353 51.4795C31.2453 51.6276 31.4103 51.7017 31.6304 51.7017C31.7404 51.7017 31.9478 51.6678 32.2524 51.6001C32.3455 51.5789 32.4704 51.5091 32.627 51.3906H32.6841C32.7222 51.3906 32.7518 51.4033 32.7729 51.4287C32.7983 51.4499 32.811 51.4795 32.811 51.5176L32.8047 51.562C32.6227 51.7609 32.4132 51.9069 32.1763 52C31.9435 52.0889 31.6325 52.1333 31.2432 52.1333C30.9681 52.1333 30.7396 52.0698 30.5576 51.9429C30.3799 51.8159 30.2656 51.6657 30.2148 51.4922C30.1641 51.3187 30.1387 50.9399 30.1387 50.356L30.1641 48.9277L30.1577 48.2422V47.9883C30.1577 47.8698 30.1535 47.7513 30.145 47.6328L30.0371 47.6265L29.5166 47.6455L29.4658 47.6519C29.4193 47.6519 29.3833 47.6413 29.3579 47.6201C29.3368 47.599 29.3262 47.5736 29.3262 47.5439C29.3262 47.4932 29.341 47.453 29.3706 47.4233C29.4045 47.3895 29.5018 47.3387 29.6626 47.271C29.7726 47.2244 29.8996 47.1377 30.0435 47.0107C30.1916 46.8796 30.3164 46.7357 30.418 46.5791C30.4688 46.4945 30.5407 46.3337 30.6338 46.0967C30.7015 45.9232 30.7523 45.8005 30.7861 45.7285ZM33.23 49.4482C33.23 49.1605 33.2892 48.8537 33.4077 48.5278C33.5304 48.1978 33.7145 47.9036 33.96 47.6455C34.2054 47.3831 34.4657 47.1885 34.7407 47.0615C35.1258 46.8838 35.5955 46.7949 36.1499 46.7949C36.9412 46.7949 37.6014 47.0658 38.1304 47.6074C38.6636 48.1491 38.9302 48.8008 38.9302 49.5625C38.9302 50.2396 38.6509 50.8447 38.0923 51.3779C37.5379 51.9069 36.8354 52.1714 35.9849 52.1714C35.4601 52.1714 34.965 52.0339 34.4995 51.7588C34.1525 51.5514 33.8542 51.2446 33.6045 50.8384C33.3548 50.4321 33.23 49.9688 33.23 49.4482ZM36.0356 51.9238C36.3573 51.9238 36.6662 51.8371 36.9624 51.6636C37.2629 51.4901 37.502 51.2129 37.6797 50.832C37.8574 50.4469 37.9463 50.0026 37.9463 49.499C37.9463 49.1689 37.8765 48.786 37.7368 48.3501C37.6014 47.9142 37.3898 47.5884 37.1021 47.3726C36.8185 47.1525 36.4842 47.0425 36.0991 47.0425C35.8198 47.0425 35.5342 47.1081 35.2422 47.2393C34.9544 47.3704 34.709 47.6222 34.5059 47.9946C34.307 48.367 34.2075 48.896 34.2075 49.5815C34.2075 50.3517 34.381 50.9357 34.728 51.3335C35.0793 51.7271 35.5151 51.9238 36.0356 51.9238ZM39.6665 52.019L39.6411 51.9365C39.6411 51.9069 39.6602 51.8625 39.6982 51.8032L40.0728 51.7271L40.5996 51.6318C40.6419 51.6107 40.6715 51.5811 40.6885 51.543C40.7139 51.488 40.7266 51.325 40.7266 51.0542C40.7266 49.6154 40.7181 48.786 40.7012 48.5659C40.6842 48.3416 40.6462 48.1999 40.5869 48.1406C40.5277 48.0814 40.3753 48.0348 40.1299 48.001C39.986 47.9798 39.8717 47.9523 39.7871 47.9185L39.8125 47.728C40.2568 47.5461 40.5552 47.3895 40.7075 47.2583C40.9191 47.0679 41.099 46.8182 41.2471 46.5093L41.4629 46.5156C41.4883 46.7272 41.501 47.1969 41.501 47.9248L41.4946 48.0327C41.4946 48.0581 41.4989 48.0983 41.5073 48.1533C41.6681 47.8613 41.8691 47.5926 42.1104 47.3472L42.2563 47.2012C42.3156 47.1335 42.3727 47.0806 42.4277 47.0425C42.724 46.8647 42.944 46.7759 43.0879 46.7759C43.2741 46.7759 43.4264 46.8394 43.5449 46.9663C43.6634 47.089 43.7227 47.2414 43.7227 47.4233C43.7227 47.5672 43.6803 47.6794 43.5957 47.7598C43.4814 47.8656 43.3503 47.9185 43.2021 47.9185C43.1344 47.9185 43.0011 47.8825 42.8022 47.8105C42.6034 47.7386 42.4722 47.7026 42.4087 47.7026C42.2902 47.7026 42.2077 47.7217 42.1611 47.7598C42.0426 47.8529 41.8988 48.0433 41.7295 48.3311C41.5983 48.5469 41.5327 48.7458 41.5327 48.9277L41.5645 49.9751L41.5771 51.2319C41.5898 51.3758 41.6068 51.4689 41.6279 51.5112C41.6449 51.5409 41.6872 51.5768 41.7549 51.6191C42.2119 51.6572 42.4827 51.6847 42.5674 51.7017C42.6266 51.7059 42.6711 51.7101 42.7007 51.7144C42.8826 51.7186 43.0096 51.744 43.0815 51.7905C43.1196 51.8117 43.1387 51.8434 43.1387 51.8857C43.1387 51.9111 43.1217 51.945 43.0879 51.9873L42.3833 51.981L42.1167 51.9746L41.7295 51.981H41.082L40.7329 52L39.6665 52.019ZM44.2051 46.998C44.2982 46.9896 44.3765 46.9854 44.4399 46.9854H44.7446L45.1572 46.9727L45.6968 46.9917L46.1348 46.979C46.3675 46.979 46.577 46.9938 46.7632 47.0234C46.7801 47.0658 46.7886 47.0996 46.7886 47.125L46.7822 47.1758C46.6934 47.2181 46.5558 47.2477 46.3696 47.2646C46.1073 47.2858 45.9189 47.3324 45.8047 47.4043L45.792 47.4741C45.792 47.5164 45.8089 47.5799 45.8428 47.6646C45.8639 47.7153 45.8914 47.7915 45.9253 47.8931C46.0184 48.2062 46.2194 48.8114 46.5283 49.7085C46.7526 50.356 46.96 50.9124 47.1504 51.3779C47.2689 51.124 47.4043 50.8024 47.5566 50.4131L48.0962 48.9087C48.2147 48.5786 48.3057 48.2485 48.3691 47.9185C48.3945 47.7873 48.4072 47.6836 48.4072 47.6074C48.4072 47.5439 48.3797 47.4847 48.3247 47.4297C48.2697 47.3747 48.1597 47.3281 47.9946 47.29C47.6942 47.2139 47.5312 47.1673 47.5059 47.1504C47.4805 47.1292 47.4657 47.0869 47.4614 47.0234C47.4868 47.0023 47.5164 46.9854 47.5503 46.9727H47.9438L48.3691 46.979L49.0039 46.9727L49.4102 46.979L49.5117 46.9727C49.5413 46.9727 49.59 46.9769 49.6577 46.9854C49.7 47.0065 49.7212 47.0404 49.7212 47.0869C49.7212 47.1292 49.7021 47.1673 49.6641 47.2012L49.5371 47.2202C49.2917 47.2541 49.1034 47.3175 48.9722 47.4106C48.9002 47.4614 48.8389 47.5672 48.7881 47.728C48.7712 47.7873 48.7437 47.8634 48.7056 47.9565C48.6844 48.0073 48.6527 48.092 48.6104 48.2104C48.5723 48.3289 48.5215 48.4686 48.458 48.6294L48.3818 48.8071L48.3755 48.8389L47.2964 51.6826L46.5093 53.8218C46.4585 53.9276 46.3993 54.0588 46.3315 54.2153C46.1707 54.5158 46.0755 54.6808 46.0459 54.7104C45.9189 54.867 45.8089 54.9771 45.7158 55.0405L45.3921 55.1802C45.3286 55.1971 45.2609 55.2056 45.189 55.2056C44.9985 55.2056 44.8589 55.1632 44.77 55.0786C44.6812 54.9982 44.6367 54.8861 44.6367 54.7422C44.6367 54.6068 44.7023 54.484 44.8335 54.374C44.8758 54.3613 44.9181 54.3444 44.9604 54.3232L45.043 54.3042C45.4196 54.3719 45.6545 54.4058 45.7476 54.4058C45.8364 54.3592 45.902 54.3042 45.9443 54.2407C46.1517 53.9318 46.3294 53.5869 46.4775 53.2061C46.6257 52.8252 46.6997 52.5692 46.6997 52.438C46.6997 52.2941 46.6447 52.0846 46.5347 51.8096L45.8301 49.9434C45.7327 49.7021 45.4429 48.915 44.9604 47.582C44.9308 47.4974 44.8927 47.4339 44.8462 47.3916L44.4146 47.2329L44.2812 47.2075C44.2093 47.1779 44.1733 47.1356 44.1733 47.0806L44.2051 46.998Z" fill="#D6CB89"/>
</svg>
