<svg width="27" height="48" viewBox="0 0 27 48" fill="none" xmlns="http://www.w3.org/2000/svg">
<path fill-rule="evenodd" clip-rule="evenodd" d="M2.53125 3.22949C2.53125 2.69447 2.90901 2.26074 3.375 2.26074H23.625C24.091 2.26074 24.4688 2.69447 24.4688 3.22949V8.39616C24.4688 8.93119 24.091 9.36491 23.625 9.36491H3.375C2.90901 9.36491 2.53125 8.93119 2.53125 8.39616V3.22949ZM4.21875 4.19824V7.42741H22.7812V4.19824H4.21875Z" fill="#D6CB89"/>
<path fill-rule="evenodd" clip-rule="evenodd" d="M2.53125 12.917C2.53125 12.382 2.90901 11.9482 3.375 11.9482H23.625C24.091 11.9482 24.4688 12.382 24.4688 12.917V18.0837C24.4688 18.6187 24.091 19.0524 23.625 19.0524H3.375C2.90901 19.0524 2.53125 18.6187 2.53125 18.0837V12.917ZM4.21875 13.8857V17.1149H22.7812V13.8857H4.21875Z" fill="#D6CB89"/>
<path fill-rule="evenodd" clip-rule="evenodd" d="M2.53125 22.6045C2.53125 22.0695 2.90901 21.6357 3.375 21.6357H23.625C24.091 21.6357 24.4688 22.0695 24.4688 22.6045V27.7712C24.4688 28.3062 24.091 28.7399 23.625 28.7399H3.375C2.90901 28.7399 2.53125 28.3062 2.53125 27.7712V22.6045ZM4.21875 23.5732V26.8024H22.7812V23.5732H4.21875Z" fill="#D6CB89"/>
<path d="M3.06982 45.0381C3.07406 44.9746 3.09098 44.9175 3.12061 44.8667C3.45068 44.7778 3.7723 44.7186 4.08545 44.689C4.29281 44.672 4.42611 44.6255 4.48535 44.5493C4.52767 44.4943 4.55306 44.2912 4.56152 43.9399L4.60596 42.2642L4.59961 41.1279L4.60596 39.6426V39.249C4.61019 38.3561 4.60596 37.7996 4.59326 37.5796C4.58903 37.5373 4.5721 37.478 4.54248 37.4019C4.43245 37.3511 4.33936 37.3172 4.26318 37.3003C4.19124 37.2834 3.86117 37.222 3.27295 37.1162C3.26872 37.0697 3.2666 37.0358 3.2666 37.0146C3.2666 36.9893 3.26872 36.9554 3.27295 36.9131C3.35335 36.9131 3.48454 36.9173 3.6665 36.9258L4.63135 36.9575L5.18994 36.9702L5.35498 36.9639C5.37614 36.9639 5.4375 36.9681 5.53906 36.9766C5.78874 36.9766 5.93262 36.9744 5.9707 36.9702L6.47852 36.9321C6.82129 36.9321 7.0625 36.9385 7.20215 36.9512C7.19792 37.0273 7.18311 37.1099 7.15771 37.1987C7.11117 37.2072 6.89111 37.2199 6.49756 37.2368C6.104 37.2495 5.8776 37.2728 5.81836 37.3066C5.72103 37.3617 5.67236 37.5309 5.67236 37.8145C5.67236 37.8822 5.66813 38.0197 5.65967 38.2271V38.6079L5.66602 39.7822V40.1821L5.67871 42.2832L5.65967 44.0732L5.66602 44.4668C5.66602 44.5938 5.68717 44.672 5.72949 44.7017C5.83529 44.7059 6.14632 44.7101 6.6626 44.7144H7.09424L8.19238 44.6763C8.48014 44.6678 8.68538 44.6403 8.80811 44.5938C8.93083 44.543 9.13607 44.3991 9.42383 44.1621C9.59733 44.0098 9.73275 43.8532 9.83008 43.6924C9.85124 43.6585 9.88721 43.6077 9.93799 43.54C10.0184 43.43 10.1263 43.21 10.2617 42.8799H10.4712C10.4458 43.0322 10.4183 43.1761 10.3887 43.3115C10.266 43.9082 10.1813 44.4054 10.1348 44.8032C10.1263 44.8879 10.1178 44.9661 10.1094 45.0381L7.73535 44.9683C5.69564 44.9683 4.48535 44.9873 4.10449 45.0254C3.986 45.0339 3.86117 45.0381 3.72998 45.0381H3.06982ZM11.3535 37.1987C11.3535 37.0591 11.4064 36.9385 11.5122 36.8369C11.6222 36.7354 11.7534 36.6846 11.9058 36.6846C12.0623 36.6846 12.1999 36.7417 12.3184 36.856C12.4368 36.9702 12.4961 37.0929 12.4961 37.2241C12.4961 37.3553 12.4368 37.4801 12.3184 37.5986C12.1999 37.7129 12.0623 37.77 11.9058 37.77C11.7492 37.77 11.618 37.7171 11.5122 37.6113C11.4064 37.5055 11.3535 37.368 11.3535 37.1987ZM10.8203 40.4868L10.8267 40.3027C11.1017 40.2223 11.2498 40.1758 11.271 40.1631C11.4233 40.0954 11.582 39.9917 11.7471 39.8521C11.9163 39.7124 12.0581 39.5558 12.1724 39.3823C12.2231 39.3739 12.2633 39.3696 12.293 39.3696L12.3691 39.376C12.3861 39.5791 12.3945 39.7272 12.3945 39.8203C12.3945 39.8415 12.3903 39.9367 12.3818 40.106V40.4424L12.3882 42.2705L12.3691 44.2065C12.3649 44.3631 12.3903 44.4731 12.4453 44.5366C12.5003 44.5959 12.6632 44.6636 12.9341 44.7397C13.1034 44.7863 13.2303 44.8265 13.3149 44.8604C13.3276 44.89 13.334 44.9154 13.334 44.9365C13.334 44.9619 13.3234 44.9937 13.3022 45.0317C13.1372 45.0275 12.9256 45.0169 12.6675 45C12.3162 44.9704 12.0835 44.9556 11.9692 44.9556C11.9142 44.9556 11.5757 44.9661 10.9536 44.9873C10.8267 44.9915 10.7039 45.0021 10.5854 45.019C10.5643 45.019 10.5304 45.0127 10.4839 45C10.4627 44.9704 10.4521 44.945 10.4521 44.9238C10.4521 44.8646 10.4924 44.818 10.5728 44.7842C10.5897 44.7757 10.8055 44.7271 11.2202 44.6382C11.3556 44.6128 11.4445 44.5705 11.4868 44.5112C11.5588 44.4224 11.5947 44.2806 11.5947 44.0859C11.6032 43.7601 11.6074 42.8672 11.6074 41.4072C11.6074 41.1152 11.5947 40.9333 11.5693 40.8613C11.5482 40.8105 11.491 40.7534 11.3979 40.6899C11.3091 40.6222 11.1165 40.5545 10.8203 40.4868ZM14.356 43.3877C14.5125 43.7897 14.631 44.05 14.7114 44.1685C14.8722 44.4097 15.0648 44.598 15.2891 44.7334C15.5133 44.8646 15.7567 44.9302 16.019 44.9302C16.2603 44.9302 16.4993 44.8265 16.7363 44.6191C16.9056 44.4626 16.9902 44.2806 16.9902 44.0732C16.9902 43.7982 16.8908 43.5443 16.6919 43.3115C16.493 43.083 16.1143 42.8651 15.5557 42.6577C15.0013 42.4461 14.6289 42.2218 14.4385 41.9849C14.248 41.7479 14.1528 41.4771 14.1528 41.1724C14.1528 40.8846 14.2311 40.6307 14.3877 40.4106C14.5443 40.1906 14.7601 40.0256 15.0352 39.9155C15.3102 39.8013 15.5641 39.7441 15.7969 39.7441C16.0973 39.7441 16.366 39.7674 16.603 39.814C16.8442 39.8605 17.0516 39.9325 17.2251 40.0298C17.259 40.2456 17.2865 40.563 17.3076 40.9819L17.3203 41.1851C17.2653 41.1893 17.2188 41.1914 17.1807 41.1914H17.0918C16.9648 40.8402 16.7702 40.563 16.5078 40.3599C16.2497 40.1525 15.9937 40.0488 15.7397 40.0488C15.4858 40.0488 15.2806 40.1271 15.124 40.2837C14.9674 40.436 14.8892 40.637 14.8892 40.8867C14.8892 41.0771 14.9526 41.2464 15.0796 41.3945C15.2065 41.5426 15.5028 41.7119 15.9683 41.9023C16.438 42.0928 16.7786 42.2705 16.9902 42.4355C17.2061 42.5964 17.3647 42.7931 17.4663 43.0259C17.5679 43.2586 17.6187 43.4808 17.6187 43.6924C17.6187 43.9844 17.5213 44.2573 17.3267 44.5112C17.1362 44.7651 16.895 44.9429 16.603 45.0444C16.3153 45.1502 16.0571 45.2031 15.8286 45.2031C15.2912 45.2031 14.7961 45.1037 14.3433 44.9048C14.3009 44.8709 14.2777 44.8075 14.2734 44.7144C14.2734 44.6763 14.2692 44.6149 14.2607 44.5303C14.193 43.959 14.1592 43.6204 14.1592 43.5146C14.1592 43.4639 14.1698 43.43 14.1909 43.4131C14.2121 43.3962 14.2671 43.3877 14.356 43.3877ZM19.999 38.7285L20.1958 38.7349L20.2212 39.3379L20.2085 40.1187C20.2889 40.1229 20.3397 40.125 20.3608 40.125C20.4709 40.125 20.6803 40.1165 20.9893 40.0996C21.1882 40.0869 21.3786 40.0806 21.5605 40.0806C21.6452 40.0806 21.7721 40.0827 21.9414 40.0869C21.9499 40.1715 21.9541 40.2393 21.9541 40.29C21.9541 40.3451 21.9414 40.4318 21.916 40.5503H21.8081L20.8242 40.582L20.3354 40.5947L20.2212 40.6074C20.1873 40.7132 20.1704 40.8359 20.1704 40.9756L20.1895 41.9277L20.1768 43.6035C20.1768 44.0436 20.2339 44.3356 20.3481 44.4795C20.4582 44.6276 20.6232 44.7017 20.8433 44.7017C20.9533 44.7017 21.1606 44.6678 21.4653 44.6001C21.5584 44.5789 21.6833 44.5091 21.8398 44.3906H21.897C21.9351 44.3906 21.9647 44.4033 21.9858 44.4287C22.0112 44.4499 22.0239 44.4795 22.0239 44.5176L22.0176 44.562C21.8356 44.7609 21.6261 44.9069 21.3892 45C21.1564 45.0889 20.8454 45.1333 20.4561 45.1333C20.181 45.1333 19.9525 45.0698 19.7705 44.9429C19.5928 44.8159 19.4785 44.6657 19.4277 44.4922C19.377 44.3187 19.3516 43.9399 19.3516 43.356L19.377 41.9277L19.3706 41.2422V40.9883C19.3706 40.8698 19.3664 40.7513 19.3579 40.6328L19.25 40.6265L18.7295 40.6455L18.6787 40.6519C18.6322 40.6519 18.5962 40.6413 18.5708 40.6201C18.5496 40.599 18.5391 40.5736 18.5391 40.5439C18.5391 40.4932 18.5539 40.453 18.5835 40.4233C18.6174 40.3895 18.7147 40.3387 18.8755 40.271C18.9855 40.2244 19.1125 40.1377 19.2563 40.0107C19.4045 39.8796 19.5293 39.7357 19.6309 39.5791C19.6816 39.4945 19.7536 39.3337 19.8467 39.0967C19.9144 38.9232 19.9652 38.8005 19.999 38.7285Z" fill="#D6CB89"/>
</svg>
