<svg width="199" height="74" viewBox="0 0 199 74" fill="none" xmlns="http://www.w3.org/2000/svg">
<path d="M7.30273 7.83203C7.36133 7.83203 7.75977 7.82031 8.49805 7.79688L9.06055 7.81445L10.168 7.83203C10.2148 8.20703 10.2383 8.48242 10.2383 8.6582C10.2383 8.7168 10.2324 8.89844 10.2207 9.20312C10.209 9.36719 10.1973 9.99414 10.1855 11.084L10.1504 13.7383L10.168 15.4082L10.0449 27.2734V28.2754C10.0449 28.627 10.127 28.8789 10.291 29.0312C10.4551 29.1836 10.8945 29.3125 11.6094 29.418C11.8906 29.4531 12.4531 29.5469 13.2969 29.6992C13.3203 29.8164 13.332 29.9277 13.332 30.0332C13.332 30.1621 13.3203 30.4434 13.2969 30.877H12.541C12.0254 30.877 11.2754 30.8535 10.291 30.8066C9.69336 30.7715 9.2832 30.7539 9.06055 30.7539C8.7793 30.7539 7.74219 30.7832 5.94922 30.8418C5.75 30.8535 5.58594 30.8594 5.45703 30.8594H5.14062L4.63086 30.8242L4.15625 30.8594L3.27734 30.8242C3.16016 30.8242 2.91992 30.8418 2.55664 30.877C2.5332 30.6191 2.52148 30.4199 2.52148 30.2793C2.52148 30.1504 2.5332 29.957 2.55664 29.6992C3.02539 29.5703 3.57031 29.4414 4.19141 29.3125C5.04688 29.1367 5.56836 28.9668 5.75586 28.8027C5.95508 28.627 6.05469 28.3984 6.05469 28.1172L6.03711 26.9219L6.10742 25.6211L6.08984 22.9492L6.07227 22.2637C6.07227 22.1699 6.08398 21.8184 6.10742 21.209C6.13086 20.8926 6.14258 20.6113 6.14258 20.3652C6.14258 20.2129 6.125 19.7383 6.08984 18.9414L6.16016 17.9395C6.11328 17.1777 6.08984 16.7266 6.08984 16.5859C6.08984 16.4102 6.0957 16.2344 6.10742 16.0586L6.14258 15.6191L6.08984 14.4238L6.14258 13.8789C6.1543 13.6328 6.16016 13.3047 6.16016 12.8945C6.16016 12.4961 6.1543 12.0098 6.14258 11.4355C5.31055 12.0566 4.36133 12.6777 3.29492 13.2988C3.17773 13.3691 2.65039 13.6094 1.71289 14.0195C1.33789 13.457 1.09766 13.0352 0.992188 12.7539C2.23438 12.1094 3.07812 11.6348 3.52344 11.3301C4.26172 10.8145 5.05859 10.1699 5.91406 9.39648C6.27734 9.05664 6.74023 8.53516 7.30273 7.83203ZM21.5762 7.83203C21.6348 7.83203 22.0332 7.82031 22.7715 7.79688L23.334 7.81445L24.4414 7.83203C24.4883 8.20703 24.5117 8.48242 24.5117 8.6582C24.5117 8.7168 24.5059 8.89844 24.4941 9.20312C24.4824 9.36719 24.4707 9.99414 24.459 11.084L24.4238 13.7383L24.4414 15.4082L24.3184 27.2734V28.2754C24.3184 28.627 24.4004 28.8789 24.5645 29.0312C24.7285 29.1836 25.168 29.3125 25.8828 29.418C26.1641 29.4531 26.7266 29.5469 27.5703 29.6992C27.5938 29.8164 27.6055 29.9277 27.6055 30.0332C27.6055 30.1621 27.5938 30.4434 27.5703 30.877H26.8145C26.2988 30.877 25.5488 30.8535 24.5645 30.8066C23.9668 30.7715 23.5566 30.7539 23.334 30.7539C23.0527 30.7539 22.0156 30.7832 20.2227 30.8418C20.0234 30.8535 19.8594 30.8594 19.7305 30.8594H19.4141L18.9043 30.8242L18.4297 30.8594L17.5508 30.8242C17.4336 30.8242 17.1934 30.8418 16.8301 30.877C16.8066 30.6191 16.7949 30.4199 16.7949 30.2793C16.7949 30.1504 16.8066 29.957 16.8301 29.6992C17.2988 29.5703 17.8438 29.4414 18.4648 29.3125C19.3203 29.1367 19.8418 28.9668 20.0293 28.8027C20.2285 28.627 20.3281 28.3984 20.3281 28.1172L20.3105 26.9219L20.3809 25.6211L20.3633 22.9492L20.3457 22.2637C20.3457 22.1699 20.3574 21.8184 20.3809 21.209C20.4043 20.8926 20.416 20.6113 20.416 20.3652C20.416 20.2129 20.3984 19.7383 20.3633 18.9414L20.4336 17.9395C20.3867 17.1777 20.3633 16.7266 20.3633 16.5859C20.3633 16.4102 20.3691 16.2344 20.3809 16.0586L20.416 15.6191L20.3633 14.4238L20.416 13.8789C20.4277 13.6328 20.4336 13.3047 20.4336 12.8945C20.4336 12.4961 20.4277 12.0098 20.416 11.4355C19.584 12.0566 18.6348 12.6777 17.5684 13.2988C17.4512 13.3691 16.9238 13.6094 15.9863 14.0195C15.6113 13.457 15.3711 13.0352 15.2656 12.7539C16.5078 12.1094 17.3516 11.6348 17.7969 11.3301C18.5352 10.8145 19.332 10.1699 20.1875 9.39648C20.5508 9.05664 21.0137 8.53516 21.5762 7.83203ZM29.627 19.5918C29.627 18.3027 29.7031 17.2949 29.8555 16.5684C30.207 14.8223 30.5469 13.5566 30.875 12.7715C31.3906 11.5527 31.9941 10.5684 32.6855 9.81836C33.3887 9.05664 34.1973 8.48242 35.1113 8.0957C35.6504 7.86133 36.3652 7.74414 37.2559 7.74414C38.3457 7.74414 39.4062 8.125 40.4375 8.88672C41.4688 9.64844 42.3887 10.9082 43.1973 12.666C44.0059 14.4121 44.4102 16.6094 44.4102 19.2578C44.4102 21.2148 44.1875 23.0547 43.7422 24.7773C43.4609 25.8203 43.0566 26.7871 42.5293 27.6777C42.0137 28.5566 41.5859 29.166 41.2461 29.5059C40.6602 30.0801 40.0156 30.5371 39.3125 30.877C38.6094 31.2168 38.041 31.3867 37.6074 31.3867C36.3301 31.3867 35.3574 31.2578 34.6895 31C34.0215 30.7539 33.377 30.3027 32.7559 29.6465C32.1465 28.9902 31.5957 28.1523 31.1035 27.1328C30.623 26.1133 30.2773 25.1289 30.0664 24.1797C29.7734 22.8555 29.627 21.3262 29.627 19.5918ZM34.1797 21.9121C34.1797 24.4902 34.2617 26.2363 34.4258 27.1504C34.5898 28.0527 34.9004 28.7324 35.3574 29.1895C35.8262 29.6348 36.3184 29.8574 36.834 29.8574C37.3613 29.8574 37.8125 29.7168 38.1875 29.4355C38.5625 29.1543 38.8789 28.7148 39.1367 28.1172C39.4062 27.5078 39.5938 26.5527 39.6992 25.252C39.875 23.1309 39.9629 21.6133 39.9629 20.6992L39.9102 18.3789V15.9004C39.9102 14.7285 39.8281 13.6387 39.6641 12.6309C39.5 11.623 39.2773 10.9023 38.9961 10.4688C38.7266 10.0234 38.3984 9.71875 38.0117 9.55469C37.6367 9.37891 37.2734 9.29102 36.9219 9.29102C36.4883 9.29102 36.0195 9.50781 35.5156 9.94141C35.0117 10.3633 34.6484 11.1426 34.4258 12.2793C34.2031 13.416 34.0918 15.3555 34.0918 18.0977L34.127 19.3457C34.1621 20.5527 34.1797 21.4082 34.1797 21.9121ZM47.1875 36.1855C47.2109 36.0918 47.252 36.0215 47.3105 35.9746C47.3691 35.9277 47.5684 35.8164 47.9082 35.6406C48.5762 35.3125 49.1387 34.8438 49.5957 34.2344C50.0527 33.625 50.2812 33.0332 50.2812 32.459C50.2812 32.1309 50.2109 31.873 50.0703 31.6855C49.918 31.498 49.502 31.2168 48.8223 30.8418C48.1426 30.4668 47.6914 30.127 47.4688 29.8223C47.2461 29.5059 47.1348 29.084 47.1348 28.5566C47.1348 27.8887 47.375 27.3262 47.8555 26.8691C48.3477 26.4004 48.998 26.166 49.8066 26.166C50.7441 26.166 51.5879 26.5879 52.3379 27.4316C53.0996 28.2637 53.4805 29.3066 53.4805 30.5605C53.4805 31.2754 53.3574 32.0137 53.1113 32.7754C52.877 33.5371 52.5781 34.1582 52.2148 34.6387C51.8633 35.1191 51.3008 35.6699 50.5273 36.291C50.375 36.4082 49.748 36.7598 48.6465 37.3457C48.4941 37.416 48.3418 37.4512 48.1895 37.4512C48.0137 37.4512 47.8555 37.3867 47.7148 37.2578C47.5859 37.1289 47.4102 36.7715 47.1875 36.1855ZM70.9355 22.4922V25.4453C70.3027 25.4805 69.8047 25.498 69.4414 25.498C69.1016 25.498 68.668 25.4805 68.1406 25.4453C68.1055 25.7266 68.0879 25.8965 68.0879 25.9551L68.123 27.0098L68.1055 28.1348L68.1406 28.9082C68.1406 29.0488 68.123 29.4004 68.0879 29.9629C68.0645 30.2793 68.0469 30.7539 68.0352 31.3867L66.5234 31.3691H65.5918C65.3457 31.3691 65.1582 31.3633 65.0293 31.3516L64.7305 31.3164C64.6484 31.3164 64.5195 31.3398 64.3438 31.3867L64.3789 27.9766L64.3086 25.7793C64.3086 25.7207 64.3203 25.6094 64.3438 25.4453C63.7812 25.457 62.9434 25.4688 61.8301 25.4805H60.6699C59.6738 25.4805 58.5664 25.4629 57.3477 25.4277C56.9609 25.416 56.709 25.4102 56.5918 25.4102C56.416 25.4102 56.1465 25.4219 55.7832 25.4453L55.748 25.2168L55.8008 24.0039L55.7656 23.6172L55.8184 22.8965L55.7832 22.7559C56.334 21.7129 56.6855 21.0801 56.8379 20.8574L60.8633 14.6699C61.7656 13.334 62.4805 12.3203 63.0078 11.6289C63.5469 10.9258 63.9219 10.4043 64.1328 10.0645C64.4609 9.53711 64.748 9.12109 64.9941 8.81641C65.3574 8.35938 65.5918 8.03711 65.6973 7.84961C66.3887 7.81445 66.8223 7.79688 66.998 7.79688C67.2207 7.79688 67.6367 7.81445 68.2461 7.84961L68.2812 8.06055L68.2109 9.36133L68.2461 9.81836L68.1934 10.5391L68.2285 11.2598L68.1934 13L68.1758 13.7559L68.1934 14.7402L68.1758 15.6543L68.1934 16.9023L68.1758 18.0977L68.1934 19.4863L68.1406 22.4922C68.5508 22.4922 69.0605 22.5039 69.6699 22.5273H70.0918C70.2793 22.5273 70.5605 22.5156 70.9355 22.4922ZM64.3438 22.457C64.4141 21.8711 64.4492 21.4316 64.4492 21.1387C64.4492 21.0215 64.4375 20.8047 64.4141 20.4883C64.4023 20.1602 64.3965 19.9492 64.3965 19.8555L64.4492 18.4844L64.4141 17.3066L64.4668 14.2656L64.4492 12.877C64.4492 12.7598 64.4609 12.4844 64.4844 12.0508C64.3906 12.1914 64.2266 12.4023 63.9922 12.6836C63.8281 12.9531 63.6934 13.1523 63.5879 13.2812C63.1309 13.8438 62.6211 14.541 62.0586 15.373L60.4766 17.9043C60.3242 18.1387 60.1543 18.4141 59.9668 18.7305C59.6504 19.2461 59.2695 19.8379 58.8242 20.5059C58.3906 21.1738 58.0273 21.8242 57.7344 22.457C58.0859 22.4219 58.3262 22.4043 58.4551 22.4043L59.2988 22.4219H60.9863L63.3418 22.457H64.3438ZM72.7637 19.5918C72.7637 18.3027 72.8398 17.2949 72.9922 16.5684C73.3438 14.8223 73.6836 13.5566 74.0117 12.7715C74.5273 11.5527 75.1309 10.5684 75.8223 9.81836C76.5254 9.05664 77.334 8.48242 78.248 8.0957C78.7871 7.86133 79.502 7.74414 80.3926 7.74414C81.4824 7.74414 82.543 8.125 83.5742 8.88672C84.6055 9.64844 85.5254 10.9082 86.334 12.666C87.1426 14.4121 87.5469 16.6094 87.5469 19.2578C87.5469 21.2148 87.3242 23.0547 86.8789 24.7773C86.5977 25.8203 86.1934 26.7871 85.666 27.6777C85.1504 28.5566 84.7227 29.166 84.3828 29.5059C83.7969 30.0801 83.1523 30.5371 82.4492 30.877C81.7461 31.2168 81.1777 31.3867 80.7441 31.3867C79.4668 31.3867 78.4941 31.2578 77.8262 31C77.1582 30.7539 76.5137 30.3027 75.8926 29.6465C75.2832 28.9902 74.7324 28.1523 74.2402 27.1328C73.7598 26.1133 73.4141 25.1289 73.2031 24.1797C72.9102 22.8555 72.7637 21.3262 72.7637 19.5918ZM77.3164 21.9121C77.3164 24.4902 77.3984 26.2363 77.5625 27.1504C77.7266 28.0527 78.0371 28.7324 78.4941 29.1895C78.9629 29.6348 79.4551 29.8574 79.9707 29.8574C80.498 29.8574 80.9492 29.7168 81.3242 29.4355C81.6992 29.1543 82.0156 28.7148 82.2734 28.1172C82.543 27.5078 82.7305 26.5527 82.8359 25.252C83.0117 23.1309 83.0996 21.6133 83.0996 20.6992L83.0469 18.3789V15.9004C83.0469 14.7285 82.9648 13.6387 82.8008 12.6309C82.6367 11.623 82.4141 10.9023 82.1328 10.4688C81.8633 10.0234 81.5352 9.71875 81.1484 9.55469C80.7734 9.37891 80.4102 9.29102 80.0586 9.29102C79.625 9.29102 79.1562 9.50781 78.6523 9.94141C78.1484 10.3633 77.7852 11.1426 77.5625 12.2793C77.3398 13.416 77.2285 15.3555 77.2285 18.0977L77.2637 19.3457C77.2988 20.5527 77.3164 21.4082 77.3164 21.9121ZM91.8184 31.4922C91.6309 31.2695 91.5371 31.0527 91.5371 30.8418C91.5371 30.6426 91.5957 30.4844 91.7129 30.3672C91.7715 30.2852 92.1113 30.127 92.7324 29.8926C93.9512 29.4238 95 28.8613 95.8789 28.2051C96.7578 27.5371 97.4961 26.7344 98.0938 25.7969C98.6914 24.8477 99.1133 23.8281 99.3594 22.7383C99.6172 21.6367 99.7578 20.7695 99.7812 20.1367C99.793 19.9258 99.8457 19.416 99.9395 18.6074C100.01 18.0098 100.045 17.2891 100.045 16.4453C100.045 13.457 99.6816 11.4062 98.9551 10.293C98.4043 9.46094 97.7246 9.04492 96.916 9.04492C96.166 9.04492 95.5273 9.40234 95 10.1172C94.2852 11.0898 93.9277 12.4785 93.9277 14.2832C93.9277 15.3965 93.998 16.4395 94.1387 17.4121C94.2324 18.0566 94.4434 18.6484 94.7715 19.1875C94.9824 19.5391 95.1816 19.7676 95.3691 19.873C95.8262 20.0957 96.2832 20.207 96.7402 20.207C97.0332 20.207 97.3379 20.1602 97.6543 20.0664L97.918 20.0137C98.0586 20.0137 98.1875 20.084 98.3047 20.2246C98.4219 20.3535 98.4805 20.5469 98.4805 20.8047C98.4805 21.25 98.3047 21.5371 97.9531 21.666C97.2031 21.9473 96.3887 22.0879 95.5098 22.0879C94.959 22.0879 94.6133 22.0645 94.4727 22.0176C93.3711 21.6191 92.6855 21.3203 92.416 21.1211C91.7363 20.6289 91.2148 20.1309 90.8516 19.627C90.5 19.1113 90.2363 18.5254 90.0605 17.8691C89.8379 17.002 89.7266 16.1289 89.7266 15.25C89.7266 13.8555 90.0371 12.5664 90.6582 11.3828C91.291 10.1875 92.1523 9.29102 93.2422 8.69336C94.3438 8.0957 95.5215 7.79688 96.7754 7.79688C99.002 7.79688 100.854 8.64648 102.33 10.3457C103.818 12.0449 104.562 14.5 104.562 17.7109C104.562 19.293 104.258 20.9805 103.648 22.7734C103.496 23.2188 103.068 24.0566 102.365 25.2871C101.662 26.5059 100.713 27.6191 99.5176 28.627C98.3223 29.623 97.0625 30.3555 95.7383 30.8242C94.4141 31.293 93.3301 31.5273 92.4863 31.5273C92.334 31.5273 92.1113 31.5156 91.8184 31.4922ZM115.232 30.877L115.285 29.6816C116.75 29.4941 117.682 29.1953 118.08 28.7852C118.338 28.5039 118.537 27.7715 118.678 26.5879L118.906 20.3301L119.17 13.9668C119.193 13.5801 119.205 13.3457 119.205 13.2637C119.205 11.6113 119.105 10.6563 118.906 10.3984C118.719 10.1406 117.969 9.88867 116.656 9.64258C116.328 9.57227 116.07 9.51367 115.883 9.4668C115.859 9.17383 115.848 8.92773 115.848 8.72852V8.18359C116.281 8.14844 116.791 8.13086 117.377 8.13086L122.527 8.30664C122.645 8.31836 122.809 8.33008 123.02 8.3418L123.828 8.37695C124.027 8.61133 124.227 8.92188 124.426 9.30859C124.859 10.1641 125.434 11.418 126.148 13.0703L126.342 13.5449L129.084 19.5039C129.143 19.6445 129.236 19.8496 129.365 20.1191C129.541 20.541 129.723 20.9453 129.91 21.332C130.098 21.707 130.291 22.123 130.49 22.5801C130.701 23.0371 130.9 23.4414 131.088 23.793C131.252 23.5117 131.41 23.2012 131.562 22.8613C132.031 21.7832 132.488 20.793 132.934 19.8906C133.707 18.2969 134.756 15.8594 136.08 12.5781C136.291 12.0508 136.637 11.2598 137.117 10.2051C137.609 9.13867 137.879 8.57617 137.926 8.51758C138.031 8.42383 138.242 8.37695 138.559 8.37695C138.676 8.37695 138.857 8.37109 139.104 8.35938C139.713 8.32422 140.445 8.29492 141.301 8.27148C142.531 8.25977 143.516 8.22461 144.254 8.16602C145.004 8.0957 145.426 8.06055 145.52 8.06055C145.637 8.06055 145.777 8.07227 145.941 8.0957C145.953 8.25977 145.959 8.38867 145.959 8.48242L145.924 9.00977C145.924 9.11523 145.918 9.27344 145.906 9.48438C144.805 9.64844 143.908 9.89453 143.217 10.2227C142.736 10.457 142.496 10.75 142.496 11.1016V11.3652L142.795 16.7441C142.83 17.2363 142.924 19.6797 143.076 24.0742C143.111 25.0586 143.188 26.3066 143.305 27.8184C143.328 28.0059 143.34 28.1523 143.34 28.2578C143.352 28.5391 143.41 28.7207 143.516 28.8027C143.633 28.8848 144.688 29.2246 146.68 29.8223C146.691 30.0098 146.697 30.1504 146.697 30.2441C146.697 30.4902 146.691 30.7363 146.68 30.9824C146.363 30.9824 145.566 30.918 144.289 30.7891C143.012 30.6484 141.816 30.5781 140.703 30.5781C139.004 30.5781 137.352 30.6484 135.746 30.7891C135.535 30.8125 135.33 30.8301 135.131 30.8418L135.166 29.6289C135.646 29.4414 136.285 29.2832 137.082 29.1543C137.645 29.0605 138.002 28.9023 138.154 28.6797C138.307 28.457 138.383 27.8359 138.383 26.8164C138.383 26.4297 138.377 26.0898 138.365 25.7969C138.307 24.5664 138.271 22.8555 138.26 20.6641L137.961 14.459C137.926 13.5801 137.885 12.9707 137.838 12.6309L133.461 22.6855C133.355 22.9199 133.197 23.2598 132.986 23.7051C132.717 24.2793 132.535 24.6719 132.441 24.8828C131.539 27.0508 130.912 28.709 130.561 29.8574C130.467 30.1504 130.326 30.5312 130.139 31L128.785 30.9824L127.836 28.293C127.555 27.5898 127.074 26.5234 126.395 25.0938C125.996 24.2617 125.686 23.5879 125.463 23.0723C125.357 22.8613 125.281 22.7031 125.234 22.5977L125.023 22.1582C125.012 22.0879 124.994 22.0293 124.971 21.9824L122.352 16.3398L120.752 12.9121L120.611 21.2266L120.488 26.623C120.488 27.5137 120.652 28.1523 120.98 28.5391C121.32 28.9141 122.041 29.2363 123.143 29.5059L123.986 29.7168V31C123.307 30.9883 122.574 30.9414 121.789 30.8594C121.016 30.7656 119.984 30.7188 118.695 30.7188C118.426 30.7188 117.271 30.7715 115.232 30.877ZM150.547 9.92383C150.547 9.29102 150.752 8.77539 151.162 8.37695C151.572 7.9668 152.1 7.76172 152.744 7.76172C153.436 7.76172 154.01 7.97852 154.467 8.41211C154.924 8.83398 155.152 9.31445 155.152 9.85352C155.152 10.252 155.059 10.6504 154.871 11.0488C154.695 11.4473 154.408 11.7695 154.01 12.0156C153.623 12.25 153.225 12.3672 152.814 12.3672C152.252 12.3672 151.73 12.127 151.25 11.6465C150.781 11.166 150.547 10.5918 150.547 9.92383ZM148.086 30.8945L148.051 29.752L150.037 29.4883C150.33 29.4062 150.529 29.2891 150.635 29.1367C150.752 28.9727 150.811 28.6152 150.811 28.0645V27.8711C150.811 27.7305 150.816 27.4785 150.828 27.1152C150.852 26.7402 150.863 26.4121 150.863 26.1309C150.863 25.9082 150.846 25.4805 150.811 24.8477L150.828 23.9688L150.811 23.1426L150.846 20.2773C150.846 19.9141 150.811 19.5391 150.74 19.1523C150.611 18.9766 150.377 18.8242 150.037 18.6953C149.697 18.5664 149.105 18.4727 148.262 18.4141V17.4297C149.469 17.3594 150.529 17.1074 151.443 16.6738C152.064 16.3926 152.738 15.8945 153.465 15.1797H154.643C154.689 16.6328 154.713 18.5195 154.713 20.8398L154.59 28.0117C154.59 28.5039 154.613 28.9492 154.66 29.3477C155.023 29.4766 155.615 29.6055 156.436 29.7344C156.752 29.7812 157.004 29.8398 157.191 29.9102L157.174 30.877C156.857 30.8887 156.623 30.8945 156.471 30.8945C156.295 30.8945 156.025 30.8828 155.662 30.8594C154.467 30.8008 152.867 30.7715 150.863 30.7715C150.289 30.7715 149.732 30.7949 149.193 30.8418C148.654 30.877 148.285 30.8945 148.086 30.8945ZM157.771 30.1211C158.029 29.9453 158.369 29.834 158.791 29.7871C159.6 29.6934 160.062 29.5703 160.18 29.418C160.414 29.1133 160.531 28.4922 160.531 27.5547V22.5977L160.514 21.4199V17.8691L160.461 13.8086V13.1055C160.461 12.1445 160.385 11.4355 160.232 10.9785C159.822 10.7324 159.383 10.6094 158.914 10.6094C158.633 10.6094 158.369 10.5801 158.123 10.5215C158.088 10.2285 158.07 10.0117 158.07 9.87109C158.07 9.77734 158.082 9.67188 158.105 9.55469C159.031 9.44922 159.992 9.21484 160.988 8.85156C161.984 8.47656 162.746 8.0957 163.273 7.70898L163.766 7.69141C163.871 7.69141 164.023 7.69727 164.223 7.70898C164.281 11.7637 164.311 14.541 164.311 16.041C164.311 16.4863 164.305 16.8438 164.293 17.1133V17.2188L164.311 17.5527V25.3398L164.328 27.9062V28.3281C164.328 28.832 164.41 29.1895 164.574 29.4004C164.715 29.5527 165.014 29.6465 165.471 29.6816C165.717 29.7051 166.203 29.7637 166.93 29.8574C166.988 30.1035 167.018 30.3027 167.018 30.4551C167.018 30.5723 167.006 30.7363 166.982 30.9473L165.594 30.877C164.82 30.8184 163.848 30.7891 162.676 30.7891L162.025 30.7715C161.357 30.7715 160.391 30.8242 159.125 30.9297H157.842L157.771 30.1211ZM168.547 21.5781C168.852 20.582 169.121 19.9199 169.355 19.5918C170.012 18.6309 170.709 17.8809 171.447 17.3418C172.197 16.8027 172.871 16.4453 173.469 16.2695C174.242 16.0469 174.869 15.9355 175.35 15.9355C176.451 15.9355 177.342 16.0234 178.021 16.1992C178.701 16.3633 179.27 16.6035 179.727 16.9199C180.383 17.377 180.91 17.8398 181.309 18.3086C181.707 18.7773 182.029 19.3281 182.275 19.9609C182.533 20.5938 182.674 21.3613 182.697 22.2637L180.746 22.2285C180.207 22.2285 179.023 22.1758 177.195 22.0703C176.516 22.0234 176.047 22 175.789 22C175.707 22 175.074 22.0059 173.891 22.0176H172.379C172.355 22.1816 172.344 22.3223 172.344 22.4395C172.344 23.0605 172.42 23.7168 172.572 24.4082C172.725 25.0879 172.953 25.6914 173.258 26.2188C173.562 26.7344 173.938 27.1797 174.383 27.5547C174.84 27.9297 175.309 28.1992 175.789 28.3633L176.809 28.6973C177.711 28.6973 178.314 28.668 178.619 28.6094C179.182 28.4922 179.674 28.3457 180.096 28.1699C180.529 27.9824 181.051 27.6719 181.66 27.2383C182.082 27.543 182.434 27.8184 182.715 28.0645C181.684 29.2012 180.611 30.0273 179.498 30.543C178.396 31.0469 177.16 31.2988 175.789 31.2988C174.863 31.2988 174.107 31.2168 173.521 31.0527C172.736 30.8418 172.027 30.5195 171.395 30.0859C170.762 29.6523 170.217 29.1133 169.76 28.4688C169.303 27.8242 168.963 27.1621 168.74 26.4824C168.447 25.5918 168.301 24.877 168.301 24.3379C168.301 23.3184 168.383 22.3984 168.547 21.5781ZM178.76 20.8223C178.748 20.166 178.619 19.5391 178.373 18.9414C178.127 18.3438 177.746 17.8809 177.23 17.5527C176.715 17.2129 176.193 17.043 175.666 17.043C174.881 17.043 174.172 17.3887 173.539 18.0801C172.906 18.7715 172.549 19.709 172.467 20.8926L176.475 20.9102C176.732 20.9102 177.096 20.8926 177.564 20.8574C177.904 20.8223 178.145 20.8047 178.285 20.8047C178.391 20.8047 178.549 20.8105 178.76 20.8223ZM185.492 25.9727C185.844 25.9023 186.102 25.8672 186.266 25.8672C186.348 25.8672 186.471 25.873 186.635 25.8848L186.793 26.0605C187.426 27.1738 187.842 27.8477 188.041 28.082C188.451 28.5625 188.855 28.9492 189.254 29.2422C189.523 29.4297 189.945 29.623 190.52 29.8223C190.906 29.9629 191.316 30.0332 191.75 30.0332C192.488 30.0332 193.121 29.7988 193.648 29.3301C194.176 28.8496 194.439 28.334 194.439 27.7832C194.439 27.4082 194.34 27.0918 194.141 26.834C193.941 26.5645 193.543 26.3008 192.945 26.043C192.652 25.9141 191.914 25.7031 190.73 25.4102C189.559 25.1172 188.85 24.9238 188.604 24.8301C188.053 24.6191 187.561 24.3262 187.127 23.9512C186.705 23.5762 186.383 23.1543 186.16 22.6855C185.855 22.0176 185.703 21.4434 185.703 20.9629C185.703 20.0723 185.832 19.3457 186.09 18.7832C186.348 18.209 186.711 17.7051 187.18 17.2715C187.52 16.9434 188.029 16.6445 188.709 16.375C189.4 16.1055 190.139 15.9707 190.924 15.9707C192.037 15.9707 193.016 16.0469 193.859 16.1992C194.703 16.3516 195.418 16.5801 196.004 16.8848C196.074 17.1543 196.174 17.7754 196.303 18.748C196.432 19.7207 196.496 20.2949 196.496 20.4707C196.496 20.5527 196.479 20.6406 196.443 20.7344C196.139 20.8281 195.887 20.875 195.688 20.875C195.57 20.875 195.4 20.8633 195.178 20.8398C195.072 20.6758 194.932 20.4297 194.756 20.1016C194.193 19.0586 193.613 18.3262 193.016 17.9043C192.43 17.4707 191.75 17.2539 190.977 17.2539C190.168 17.2539 189.488 17.4883 188.938 17.957C188.539 18.2969 188.34 18.7598 188.34 19.3457C188.34 19.7324 188.551 20.125 188.973 20.5234C189.383 20.9336 190.098 21.2441 191.117 21.4551C192.652 21.7949 193.783 22.1348 194.51 22.4746C195.564 22.9668 196.303 23.5469 196.725 24.2148C197.158 24.8828 197.375 25.6562 197.375 26.5352C197.375 27.8945 196.859 29.0312 195.828 29.9453C194.809 30.8477 193.314 31.2988 191.346 31.2988C191.088 31.2988 190.414 31.2402 189.324 31.123C188.832 31.0645 188.252 30.9473 187.584 30.7715C187.42 30.7246 186.992 30.5547 186.301 30.2617C186.172 30.1914 186.078 30.1094 186.02 30.0156C185.973 29.9102 185.896 29.418 185.791 28.5391C185.604 27.1094 185.504 26.2539 185.492 25.9727Z" fill="#D6CB89"/>
<path d="M17.3359 45.125L17.0781 44.9844C17.4062 44.1875 17.7969 43.6276 18.25 43.3047C18.7031 42.9766 19.2318 42.8125 19.8359 42.8125C20.3984 42.8125 20.849 42.9375 21.1875 43.1875C21.6927 43.5625 21.9453 43.9844 21.9453 44.4531C21.9453 44.8333 21.8151 45.2161 21.5547 45.6016C21.2995 45.987 20.849 46.4193 20.2031 46.8984L20.3906 46.8906C20.7969 46.8906 21.1875 46.9948 21.5625 47.2031C21.9427 47.4062 22.2422 47.7266 22.4609 48.1641C22.6797 48.5964 22.7891 49.0625 22.7891 49.5625C22.7891 50.5677 22.4193 51.4297 21.6797 52.1484C20.9453 52.862 20.0078 53.2188 18.8672 53.2188C18.0026 53.2188 17.3646 53.0938 16.9531 52.8438C16.7292 52.7135 16.6172 52.5495 16.6172 52.3516C16.6172 52.2422 16.6615 52.1432 16.75 52.0547C16.8438 51.9661 16.9583 51.9219 17.0938 51.9219C17.2656 51.9219 17.474 52.0156 17.7188 52.2031C18.2969 52.6458 18.7995 52.8672 19.2266 52.8672C19.8724 52.8672 20.4453 52.5964 20.9453 52.0547C21.4453 51.5078 21.6953 50.8203 21.6953 49.9922C21.6953 49.3047 21.526 48.7422 21.1875 48.3047C20.8542 47.862 20.4297 47.6406 19.9141 47.6406C19.5286 47.6406 19.1276 47.8229 18.7109 48.1875L18.5234 47.875C18.7839 47.651 19.0182 47.4609 19.2266 47.3047C19.862 46.8411 20.3359 46.3854 20.6484 45.9375C20.8724 45.6146 20.9844 45.3307 20.9844 45.0859C20.9844 44.6745 20.8385 44.3281 20.5469 44.0469C20.2552 43.7604 19.8724 43.6172 19.3984 43.6172C18.6172 43.6172 17.9297 44.1198 17.3359 45.125ZM29.4219 43.9844C28.8385 44.0312 28.3672 44.0547 28.0078 44.0547C27.7422 44.0547 27.4609 44.0469 27.1641 44.0312C27.0026 44.0208 26.9062 44.0156 26.875 44.0156C26.2396 44.0156 25.8984 44.0286 25.8516 44.0547C25.8307 44.0651 25.8177 44.0885 25.8125 44.125C25.7969 44.2083 25.7292 45.138 25.6094 46.9141C25.8438 46.7943 26.0703 46.7109 26.2891 46.6641C26.5078 46.612 26.7969 46.5859 27.1562 46.5859C27.4115 46.5859 27.5885 46.6016 27.6875 46.6328C28.1823 46.7943 28.5391 46.9401 28.7578 47.0703C29.0599 47.2578 29.3047 47.4714 29.4922 47.7109C29.6849 47.9505 29.862 48.3021 30.0234 48.7656C30.138 49.099 30.1953 49.4479 30.1953 49.8125C30.1953 50.2083 30.138 50.5781 30.0234 50.9219C29.9141 51.2604 29.776 51.5443 29.6094 51.7734C29.4427 52.0026 29.1953 52.2422 28.8672 52.4922C28.5391 52.737 28.151 52.9245 27.7031 53.0547C27.2604 53.1849 26.9635 53.2526 26.8125 53.2578L25.6797 53.1562C25.3672 53.1042 25.0938 53.0208 24.8594 52.9062C24.625 52.7865 24.4688 52.6719 24.3906 52.5625C24.3438 52.4948 24.3203 52.4062 24.3203 52.2969C24.3203 52.2135 24.3776 52.1224 24.4922 52.0234C24.612 51.9245 24.7578 51.875 24.9297 51.875C25.0078 51.875 25.0938 51.8984 25.1875 51.9453L25.8047 52.3438C25.9453 52.4688 26.1198 52.5859 26.3281 52.6953C26.3594 52.7109 26.4375 52.7292 26.5625 52.75C26.8646 52.7917 27.0286 52.8125 27.0547 52.8125C27.1693 52.8125 27.3646 52.7656 27.6406 52.6719C27.9167 52.5781 28.1719 52.4193 28.4062 52.1953C28.6406 51.9661 28.8411 51.6797 29.0078 51.3359C29.1797 50.987 29.2656 50.6016 29.2656 50.1797C29.2656 49.4245 29.0286 48.8021 28.5547 48.3125C28.0807 47.8229 27.5104 47.5781 26.8438 47.5781C26.5469 47.5781 26.2708 47.6276 26.0156 47.7266C25.7656 47.8255 25.5964 47.9349 25.5078 48.0547L25.3906 48.1016C25.3281 48.1276 25.2839 48.1406 25.2578 48.1406L25.1562 48.1172C25.1406 48.0234 25.1328 47.9531 25.1328 47.9062C25.1328 47.8646 25.1406 47.7917 25.1562 47.6875C25.1927 47.4323 25.2109 47.1693 25.2109 46.8984C25.2161 46.6224 25.2448 46.375 25.2969 46.1562L25.2734 45.7812C25.3099 45.5885 25.3307 45.4036 25.3359 45.2266C25.3516 44.0286 25.401 43.3411 25.4844 43.1641C25.5208 43.0807 25.5833 43.0391 25.6719 43.0391C25.7083 43.0391 25.7682 43.0443 25.8516 43.0547L25.8984 43.0625L26.8906 43.0547C27.3385 43.0807 27.6693 43.0938 27.8828 43.0938C28.3724 43.0938 28.7656 43.0599 29.0625 42.9922C29.2083 42.8568 29.3203 42.7891 29.3984 42.7891C29.4297 42.7891 29.487 42.7943 29.5703 42.8047L29.5938 42.8984L29.5312 43.2266L29.4922 43.75C29.487 43.7865 29.4635 43.8646 29.4219 43.9844ZM35.3047 53.1172L35.3125 52.9453C35.4896 52.8464 35.6953 52.7839 35.9297 52.7578C36.2995 52.7109 36.5339 52.6641 36.6328 52.6172C36.7318 52.5651 36.8021 52.4948 36.8438 52.4062C36.9167 52.2344 36.9531 52.0599 36.9531 51.8828L36.9375 51.2891L36.9453 50.7422L36.9297 50.1016C36.9297 49.8359 36.9375 49.5052 36.9531 49.1094C36.9688 48.7083 36.9766 48.4948 36.9766 48.4688V46.3359C36.9766 45.9974 36.9844 45.6328 37 45.2422C37.0156 44.8464 37.0234 44.5729 37.0234 44.4219C37.0234 43.974 37.013 43.7135 36.9922 43.6406C36.9714 43.5677 36.9323 43.5156 36.875 43.4844C36.8177 43.4531 36.6302 43.4245 36.3125 43.3984C36.0677 43.3776 35.8984 43.3594 35.8047 43.3438C35.7786 43.2865 35.7656 43.2396 35.7656 43.2031C35.7656 43.1615 35.7682 43.112 35.7734 43.0547C35.8984 43.0443 35.9948 43.0391 36.0625 43.0391L36.7969 43.0469C37.3177 43.0469 37.8698 43.026 38.4531 42.9844C38.7396 42.9635 39.1719 42.9453 39.75 42.9297C39.7604 42.9766 39.7656 43.0208 39.7656 43.0625C39.7656 43.1146 39.7526 43.1562 39.7266 43.1875C39.7057 43.2135 39.6667 43.2318 39.6094 43.2422C38.9271 43.2995 38.5234 43.3854 38.3984 43.5C38.2786 43.6094 38.2188 43.8932 38.2188 44.3516C38.2188 45.1953 38.2318 46.0651 38.2578 46.9609L38.2891 47.6953C38.3151 47.7161 38.6536 47.7422 39.3047 47.7734C39.4818 47.7839 39.5859 47.7891 39.6172 47.7891L40.7656 47.7734L41.5234 47.7969L43.5078 47.7344C43.7526 47.7292 43.901 47.7188 43.9531 47.7031C43.9844 46.7969 44 45.9193 44 45.0703C44 44.2526 43.9818 43.7708 43.9453 43.625C43.9245 43.5365 43.888 43.4766 43.8359 43.4453C43.8047 43.4297 43.5339 43.388 43.0234 43.3203C42.9349 43.3099 42.8516 43.2969 42.7734 43.2812C42.7474 43.2031 42.7344 43.1146 42.7344 43.0156C42.9115 42.9896 43.0234 42.9766 43.0703 42.9766L43.5859 43.0078C44.0599 43.0339 44.5365 43.0469 45.0156 43.0469C45.3229 43.0469 45.8333 43.0208 46.5469 42.9688C46.5417 43.0729 46.5286 43.1667 46.5078 43.25C46.3099 43.3281 46.0729 43.3776 45.7969 43.3984C45.6198 43.4089 45.4714 43.4375 45.3516 43.4844C45.2526 43.5573 45.2031 43.7057 45.2031 43.9297C45.2031 43.9818 45.2057 44.0391 45.2109 44.1016C45.2161 44.2891 45.2188 44.4115 45.2188 44.4688V45.3672L45.2266 45.9297L45.2109 46.6562L45.2188 48.0156L45.2031 49.2969C45.2031 49.5521 45.2109 49.9505 45.2266 50.4922L45.2188 51.5469C45.2188 51.901 45.25 52.1536 45.3125 52.3047C45.3438 52.3776 45.3958 52.4297 45.4688 52.4609L46.1016 52.6016C46.4141 52.6797 46.599 52.7448 46.6562 52.7969C46.7188 52.8438 46.75 52.901 46.75 52.9688L46.7266 53.0625L46.6875 53.0703C46.6615 53.0703 46.6276 53.0651 46.5859 53.0547C46.0182 52.9505 45.4219 52.8984 44.7969 52.8984C44.3073 52.8984 43.9583 52.9062 43.75 52.9219C43.5469 52.9375 43.1198 52.9948 42.4688 53.0938C42.4583 53.026 42.4531 52.9766 42.4531 52.9453C42.4531 52.9089 42.4583 52.8594 42.4688 52.7969C42.6302 52.7031 42.8854 52.638 43.2344 52.6016C43.4948 52.5755 43.7005 52.4922 43.8516 52.3516C43.9505 52.2578 44 52.1198 44 51.9375L43.9922 50.8125C44.0078 50.474 44.0156 50.2891 44.0156 50.2578C44.0156 49.8151 44.0078 49.1693 43.9922 48.3203C43.9766 48.2474 43.9479 48.2031 43.9062 48.1875C43.7656 48.1406 43.0729 48.151 41.8281 48.2188C41.5781 48.2344 41.3906 48.2422 41.2656 48.2422C41.1406 48.2422 40.8776 48.237 40.4766 48.2266C40.0807 48.2109 39.7135 48.2031 39.375 48.2031C39.1927 48.2031 39.0391 48.2057 38.9141 48.2109C38.6745 48.2161 38.5417 48.2188 38.5156 48.2188C38.3958 48.2188 38.3125 48.2422 38.2656 48.2891C38.224 48.3359 38.2031 48.4219 38.2031 48.5469L38.2109 49.0938C38.2109 49.1823 38.1979 49.6745 38.1719 50.5703C38.1667 50.7526 38.1641 50.9036 38.1641 51.0234C38.1641 51.737 38.1901 52.2109 38.2422 52.4453C38.2682 52.5547 38.3151 52.6302 38.3828 52.6719C38.4297 52.7031 38.6328 52.7578 38.9922 52.8359C39.2318 52.888 39.4141 52.9375 39.5391 52.9844L39.5859 53.0625C39.5859 53.0885 39.5755 53.1094 39.5547 53.125C39.5234 53.151 39.4792 53.1641 39.4219 53.1641C39.3802 53.1641 39.3307 53.1615 39.2734 53.1562C39.2161 53.1562 39.1042 53.1536 38.9375 53.1484C38.6719 53.1432 38.3411 53.125 37.9453 53.0938C37.6901 53.0729 37.4635 53.0625 37.2656 53.0625C36.9323 53.0625 36.3984 53.0781 35.6641 53.1094C35.5234 53.1146 35.4036 53.1172 35.3047 53.1172ZM48.2812 43.3984C48.2812 43.2266 48.3464 43.0781 48.4766 42.9531C48.612 42.8281 48.7734 42.7656 48.9609 42.7656C49.1536 42.7656 49.3229 42.8359 49.4688 42.9766C49.6146 43.1172 49.6875 43.2682 49.6875 43.4297C49.6875 43.5911 49.6146 43.7448 49.4688 43.8906C49.3229 44.0312 49.1536 44.1016 48.9609 44.1016C48.7682 44.1016 48.6068 44.0365 48.4766 43.9062C48.3464 43.776 48.2812 43.6068 48.2812 43.3984ZM47.625 47.4453L47.6328 47.2188C47.9714 47.1198 48.1536 47.0625 48.1797 47.0469C48.3672 46.9635 48.5625 46.8359 48.7656 46.6641C48.974 46.4922 49.1484 46.2995 49.2891 46.0859C49.3516 46.0755 49.401 46.0703 49.4375 46.0703L49.5312 46.0781C49.5521 46.3281 49.5625 46.5104 49.5625 46.625C49.5625 46.651 49.5573 46.7682 49.5469 46.9766V47.3906L49.5547 49.6406L49.5312 52.0234C49.526 52.2161 49.5573 52.3516 49.625 52.4297C49.6927 52.5026 49.8932 52.5859 50.2266 52.6797C50.4349 52.737 50.5911 52.7865 50.6953 52.8281C50.7109 52.8646 50.7188 52.8958 50.7188 52.9219C50.7188 52.9531 50.7057 52.9922 50.6797 53.0391C50.4766 53.0339 50.2161 53.0208 49.8984 53C49.4661 52.9635 49.1797 52.9453 49.0391 52.9453C48.9714 52.9453 48.5547 52.9583 47.7891 52.9844C47.6328 52.9896 47.4818 53.0026 47.3359 53.0234C47.3099 53.0234 47.2682 53.0156 47.2109 53C47.1849 52.9635 47.1719 52.9323 47.1719 52.9062C47.1719 52.8333 47.2214 52.776 47.3203 52.7344C47.3411 52.724 47.6068 52.6641 48.1172 52.5547C48.2839 52.5234 48.3932 52.4714 48.4453 52.3984C48.5339 52.2891 48.5781 52.1146 48.5781 51.875C48.5885 51.474 48.5938 50.375 48.5938 48.5781C48.5938 48.2188 48.5781 47.9948 48.5469 47.9062C48.5208 47.8438 48.4505 47.7734 48.3359 47.6953C48.2266 47.612 47.9896 47.5286 47.625 47.4453ZM52.9531 53.5156C52.8906 53.4844 52.6901 53.3984 52.3516 53.2578C51.9557 53.0026 51.7057 52.8125 51.6016 52.6875C51.4974 52.5625 51.4453 52.4245 51.4453 52.2734C51.4453 52.138 51.4844 52.0286 51.5625 51.9453C51.6771 51.8255 51.9036 51.7109 52.2422 51.6016C52.5807 51.4922 52.8594 51.3854 53.0781 51.2812C53.0104 51.2344 52.9036 51.1667 52.7578 51.0781C51.9818 50.599 51.5938 49.9349 51.5938 49.0859C51.5938 48.388 51.8385 47.7995 52.3281 47.3203C52.8229 46.8359 53.4557 46.5938 54.2266 46.5938C54.5755 46.5938 54.8958 46.6432 55.1875 46.7422C55.3542 46.7943 55.6016 46.9245 55.9297 47.1328C56.138 47.263 56.2604 47.3359 56.2969 47.3516C56.3802 47.3776 56.474 47.3906 56.5781 47.3906C56.6667 47.3906 56.8802 47.3698 57.2188 47.3281C57.5625 47.2812 57.7656 47.2578 57.8281 47.2578C57.9479 47.2578 58.0469 47.2812 58.125 47.3281C58.1875 47.4323 58.2188 47.6068 58.2188 47.8516C58.2188 47.9349 58.1953 47.9974 58.1484 48.0391C58.1068 48.0807 58.0443 48.1016 57.9609 48.1016C57.8151 48.1016 57.5729 48.0573 57.2344 47.9688C56.901 47.875 56.6979 47.8281 56.625 47.8281C56.599 47.8281 56.5495 47.8333 56.4766 47.8438C56.7005 48.2917 56.8125 48.7005 56.8125 49.0703C56.8125 49.4401 56.6953 49.8229 56.4609 50.2188C56.2266 50.6146 55.9036 50.9167 55.4922 51.125C55.0807 51.3333 54.6641 51.4375 54.2422 51.4375C54.2109 51.4375 54.1224 51.4349 53.9766 51.4297C53.4974 51.4297 53.0573 51.5495 52.6562 51.7891C52.4635 51.9089 52.3672 52.0208 52.3672 52.125C52.3672 52.2344 52.4609 52.3411 52.6484 52.4453C53.1432 52.7109 54.0807 52.8646 55.4609 52.9062C56.0599 52.9271 56.526 53.013 56.8594 53.1641C57.1927 53.3151 57.4427 53.5365 57.6094 53.8281C57.7812 54.125 57.8672 54.4297 57.8672 54.7422C57.8672 55.1641 57.724 55.5547 57.4375 55.9141C57.151 56.2734 56.7161 56.5651 56.1328 56.7891C55.5495 57.013 54.8802 57.125 54.125 57.125C53.2917 57.125 52.6484 57.0234 52.1953 56.8203C51.7422 56.6172 51.4193 56.3958 51.2266 56.1562C51.0391 55.9167 50.9453 55.6797 50.9453 55.4453C50.9453 55.2422 51.0495 54.987 51.2578 54.6797C51.4661 54.3776 51.8984 54.0599 52.5547 53.7266C52.7474 53.6276 52.8802 53.5573 52.9531 53.5156ZM52.6406 49.0547C52.6406 49.5234 52.7109 49.9167 52.8516 50.2344C52.9922 50.5469 53.1849 50.7812 53.4297 50.9375C53.6745 51.0885 53.9219 51.1641 54.1719 51.1641C54.625 51.1641 55 50.9922 55.2969 50.6484C55.599 50.2995 55.75 49.7708 55.75 49.0625C55.75 48.349 55.5938 47.8073 55.2812 47.4375C54.9688 47.0625 54.5911 46.875 54.1484 46.875C53.6536 46.875 53.2786 47.0521 53.0234 47.4062C52.7682 47.7604 52.6406 48.3099 52.6406 49.0547ZM52.3828 56.2891C52.8568 56.6536 53.4557 56.8359 54.1797 56.8359C54.6953 56.8359 55.2083 56.7526 55.7188 56.5859C56.2344 56.4245 56.6094 56.1901 56.8438 55.8828C57.0833 55.5807 57.2031 55.2943 57.2031 55.0234C57.2031 54.8568 57.1615 54.6901 57.0781 54.5234C56.9948 54.362 56.8802 54.2266 56.7344 54.1172C56.5938 54.013 56.4062 53.9297 56.1719 53.8672C56.0052 53.8203 55.7682 53.7865 55.4609 53.7656C54.5859 53.6979 54.0495 53.6641 53.8516 53.6641C53.2943 53.6641 52.7969 53.8516 52.3594 54.2266C52.0208 54.5182 51.8516 54.8672 51.8516 55.2734C51.8516 55.6484 52.0286 55.987 52.3828 56.2891ZM58.3125 52.8125C58.9219 52.7031 59.2734 52.6198 59.3672 52.5625C59.4245 52.526 59.4531 52.4427 59.4531 52.3125L59.4453 51.7969L59.4531 50.8828L59.4375 48.5547L59.4453 47.6875V47.0703L59.4688 46.3125C59.4688 45.125 59.4557 44.4167 59.4297 44.1875C59.4089 43.9531 59.3646 43.8073 59.2969 43.75C59.1719 43.6302 58.8281 43.5052 58.2656 43.375V43.3359C58.2656 43.2995 58.2708 43.2474 58.2812 43.1797C58.3542 43.1693 58.4245 43.1562 58.4922 43.1406C58.5599 43.125 58.625 43.1146 58.6875 43.1094C59.3073 42.9323 59.7578 42.7604 60.0391 42.5938H60.4219C60.4323 42.7396 60.4375 43.2005 60.4375 43.9766L60.4297 44.9688L60.4375 46.25L60.4062 47.8281C60.4062 47.9219 60.4115 48.026 60.4219 48.1406C60.75 47.7604 60.9896 47.5078 61.1406 47.3828C61.4115 47.1641 61.7005 46.9922 62.0078 46.8672C62.3151 46.737 62.638 46.6719 62.9766 46.6719C63.6172 46.6719 64.1406 46.9427 64.5469 47.4844C64.7812 47.8021 64.8984 48.2526 64.8984 48.8359L64.875 49.6328L64.8828 50.0781L64.8516 50.8516C64.8307 51.4922 64.8203 51.8724 64.8203 51.9922C64.8203 52.1276 64.8255 52.3099 64.8359 52.5391L65.2812 52.6406C65.5781 52.7031 65.8073 52.7604 65.9688 52.8125L65.9609 53.0547L64.2969 53.0078C64.2031 53.0078 63.9479 53.0182 63.5312 53.0391C63.276 53.0495 63.1276 53.0547 63.0859 53.0547H62.9141C62.888 53.0078 62.875 52.9688 62.875 52.9375V52.8672C62.9479 52.7734 63.0833 52.7109 63.2812 52.6797L63.75 52.5703C63.8125 52.5182 63.849 52.4635 63.8594 52.4062C63.8802 52.2708 63.9036 51.599 63.9297 50.3906L63.9453 49.8125C63.9661 49.2031 63.9193 48.6979 63.8047 48.2969C63.7318 48.0208 63.5651 47.8021 63.3047 47.6406C63.0495 47.474 62.7526 47.3906 62.4141 47.3906C62.1328 47.3906 61.8672 47.4505 61.6172 47.5703C61.4453 47.6589 61.2396 47.8125 61 48.0312C60.7604 48.25 60.5938 48.4375 60.5 48.5938C60.4375 48.6979 60.4062 48.8698 60.4062 49.1094L60.4141 49.6562L60.3984 50.2266C60.3984 50.2734 60.4062 50.599 60.4219 51.2031L60.4141 51.7031L60.4297 52.25C60.4349 52.3281 60.4427 52.3854 60.4531 52.4219L61.5547 52.6875C61.612 52.7031 61.6979 52.7344 61.8125 52.7812L61.8359 52.8672C61.8359 52.8932 61.8229 52.9349 61.7969 52.9922C61.6458 52.9974 61.5312 53 61.4531 53L60.8438 52.9922L59.5 53.0078L58.4922 53.0391C58.4401 53.0339 58.362 53.0286 58.2578 53.0234L58.25 52.9688C58.25 52.9271 58.2708 52.875 58.3125 52.8125ZM66.0234 46.8438L69.0234 46.8516C69.0807 46.8516 69.1198 46.862 69.1406 46.8828C69.1615 46.9036 69.1719 46.9349 69.1719 46.9766C69.1719 47.0755 69.1328 47.1484 69.0547 47.1953C68.6901 47.2214 68.4635 47.2656 68.375 47.3281C68.2865 47.3906 68.2422 47.4766 68.2422 47.5859C68.2422 47.638 68.2474 47.6875 68.2578 47.7344C68.2734 47.7969 68.349 47.9818 68.4844 48.2891C68.6615 48.7005 68.9766 49.3672 69.4297 50.2891L70.3594 52.1797C70.8906 51.2526 71.3203 50.3906 71.6484 49.5938L71.1719 48.3438C71.1198 48.2292 71.0521 48.0573 70.9688 47.8281C70.8906 47.599 70.8281 47.4661 70.7812 47.4297C70.7396 47.388 70.5807 47.3281 70.3047 47.25C70.0286 47.1719 69.8646 47.112 69.8125 47.0703L69.8047 47.0156C69.8047 46.9844 69.8203 46.9401 69.8516 46.8828C69.9766 46.8516 70.0755 46.8359 70.1484 46.8359L70.5938 46.8438H71.5703L71.8672 46.8359L72.8281 46.8516C72.9062 46.8516 72.9714 46.849 73.0234 46.8438H73.1562C73.1875 46.8438 73.2318 46.8464 73.2891 46.8516L73.2734 47.1016C73.1953 47.1484 73.0651 47.1823 72.8828 47.2031C72.5391 47.2396 72.276 47.3047 72.0938 47.3984C72.0365 47.4609 72.0078 47.5156 72.0078 47.5625C72.0078 47.6771 72.0391 47.8203 72.1016 47.9922C72.1224 48.0443 72.1771 48.2057 72.2656 48.4766L73.1016 50.6797C73.3464 51.3359 73.5339 51.7943 73.6641 52.0547C73.8828 51.6536 74.1901 50.9323 74.5859 49.8906C74.7266 49.526 74.9141 49.0911 75.1484 48.5859C75.2995 48.2682 75.375 47.9948 75.375 47.7656C75.375 47.6458 75.3307 47.5443 75.2422 47.4609C75.1536 47.3776 74.9479 47.2995 74.625 47.2266C74.4323 47.1849 74.2891 47.1458 74.1953 47.1094C74.1693 47.0677 74.1562 47.0339 74.1562 47.0078C74.1562 46.9609 74.1849 46.9089 74.2422 46.8516H74.3594L74.9922 46.8438C75.0182 46.8438 75.138 46.849 75.3516 46.8594C75.5651 46.8646 75.7734 46.8672 75.9766 46.8672C76.1328 46.8672 76.3125 46.862 76.5156 46.8516H76.9062C76.9375 46.862 76.9583 46.875 76.9688 46.8906C76.9844 46.9062 76.9922 46.9323 76.9922 46.9688C76.9922 47.026 76.9844 47.0885 76.9688 47.1562C76.7135 47.1875 76.513 47.2474 76.3672 47.3359C76.2214 47.4193 76.0234 47.6536 75.7734 48.0391L74.375 51.3984C74.2448 51.7109 74.0182 52.1901 73.6953 52.8359C73.6276 52.9714 73.5755 53.0807 73.5391 53.1641C73.5078 53.2474 73.4766 53.3021 73.4453 53.3281C73.4141 53.3542 73.3724 53.3672 73.3203 53.3672C73.2839 53.3672 73.2344 53.3568 73.1719 53.3359C73.026 53.0495 72.7031 52.2604 72.2031 50.9688C72.0677 50.6198 71.9427 50.3229 71.8281 50.0781C70.974 51.8542 70.4141 52.9453 70.1484 53.3516C70.0755 53.362 70.0208 53.3672 69.9844 53.3672C69.9479 53.3672 69.8958 53.362 69.8281 53.3516L68.3516 50.2656L67 47.625C66.9062 47.4635 66.8333 47.3646 66.7812 47.3281C66.6927 47.2708 66.5365 47.224 66.3125 47.1875C66.1875 47.1667 66.0911 47.151 66.0234 47.1406C66.0182 47.0625 66.0156 47.0026 66.0156 46.9609C66.0156 46.9349 66.0182 46.8958 66.0234 46.8438ZM82.9922 51.9375C83.0234 52.0052 83.0391 52.0547 83.0391 52.0859C83.0391 52.1641 82.9766 52.3021 82.8516 52.5C82.6901 52.7604 82.5104 52.9505 82.3125 53.0703C82.1875 53.1484 82.0156 53.1875 81.7969 53.1875C81.4219 53.1875 81.1406 53.0729 80.9531 52.8438C80.8385 52.7083 80.7578 52.4661 80.7109 52.1172L79.8359 52.7266C79.5286 52.9036 79.2943 53.0156 79.1328 53.0625C78.8724 53.1302 78.5599 53.1641 78.1953 53.1641C77.9297 53.1641 77.7188 53.0859 77.5625 52.9297C77.4115 52.7682 77.3359 52.5625 77.3359 52.3125C77.3359 51.9531 77.5547 51.5234 77.9922 51.0234C78.4349 50.5234 79.0339 50.1146 79.7891 49.7969C80.3203 49.5729 80.6458 49.4297 80.7656 49.3672C80.776 49.1953 80.7812 49.0078 80.7812 48.8047C80.7812 48.1432 80.6875 47.6953 80.5 47.4609C80.3177 47.2266 80.0547 47.1094 79.7109 47.1094C79.3516 47.1094 79.0156 47.25 78.7031 47.5312C78.5104 47.7083 78.3646 48.0417 78.2656 48.5312C78.2344 48.6667 78.1745 48.8125 78.0859 48.9688C77.862 49.1146 77.6823 49.1875 77.5469 49.1875C77.4323 49.1875 77.3281 49.1536 77.2344 49.0859C77.1823 49.0495 77.1562 49.0078 77.1562 48.9609C77.1562 48.8255 77.2995 48.5208 77.5859 48.0469C77.8776 47.5677 78.2422 47.2109 78.6797 46.9766C79.1224 46.737 79.5078 46.6172 79.8359 46.6172C80.2839 46.6172 80.6172 46.6589 80.8359 46.7422C81.0547 46.8203 81.2474 46.9609 81.4141 47.1641C81.5807 47.3672 81.6823 47.5885 81.7188 47.8281C81.7396 47.9427 81.75 48.3516 81.75 49.0547L81.7266 50.2969L81.7344 51.2031C81.7344 51.3229 81.7318 51.4245 81.7266 51.5078C81.7214 51.6589 81.7188 51.7708 81.7188 51.8438C81.7188 52.0156 81.7682 52.1536 81.8672 52.2578C81.9661 52.362 82.0833 52.4141 82.2188 52.4141C82.4167 52.4141 82.5859 52.3151 82.7266 52.1172L82.8203 51.9922C82.8464 51.9766 82.9036 51.9583 82.9922 51.9375ZM80.6953 51.7109C80.7318 51.0495 80.75 50.5833 80.75 50.3125C80.75 50.1719 80.7422 49.9818 80.7266 49.7422C80.3776 49.8672 80.0078 50.0573 79.6172 50.3125C79.2266 50.5677 78.9167 50.862 78.6875 51.1953C78.5208 51.4349 78.4375 51.6615 78.4375 51.875C78.4375 52.0781 78.5052 52.2474 78.6406 52.3828C78.7812 52.5182 78.9557 52.5859 79.1641 52.5859C79.3255 52.5859 79.5208 52.5286 79.75 52.4141C80.0521 52.263 80.3672 52.0286 80.6953 51.7109ZM83.0156 46.8438C83.1302 46.8333 83.2266 46.8281 83.3047 46.8281H83.6797L84.1875 46.8125L84.8516 46.8359L85.3906 46.8203C85.6771 46.8203 85.9349 46.8385 86.1641 46.875C86.1849 46.9271 86.1953 46.9688 86.1953 47L86.1875 47.0625C86.0781 47.1146 85.9089 47.151 85.6797 47.1719C85.3568 47.1979 85.125 47.2552 84.9844 47.3438L84.9688 47.4297C84.9688 47.4818 84.9896 47.5599 85.0312 47.6641C85.0573 47.7266 85.0911 47.8203 85.1328 47.9453C85.2474 48.3307 85.4948 49.0755 85.875 50.1797C86.151 50.9766 86.4062 51.6615 86.6406 52.2344C86.7865 51.9219 86.9531 51.526 87.1406 51.0469L87.8047 49.1953C87.9505 48.7891 88.0625 48.3828 88.1406 47.9766C88.1719 47.8151 88.1875 47.6875 88.1875 47.5938C88.1875 47.5156 88.1536 47.4427 88.0859 47.375C88.0182 47.3073 87.8828 47.25 87.6797 47.2031C87.3099 47.1094 87.1094 47.0521 87.0781 47.0312C87.0469 47.0052 87.0286 46.9531 87.0234 46.875C87.0547 46.849 87.0911 46.8281 87.1328 46.8125H87.6172L88.1406 46.8203L88.9219 46.8125L89.4219 46.8203L89.5469 46.8125C89.5833 46.8125 89.6432 46.8177 89.7266 46.8281C89.7786 46.8542 89.8047 46.8958 89.8047 46.9531C89.8047 47.0052 89.7812 47.0521 89.7344 47.0938L89.5781 47.1172C89.276 47.1589 89.0443 47.237 88.8828 47.3516C88.7943 47.4141 88.7188 47.5443 88.6562 47.7422C88.6354 47.8151 88.6016 47.9089 88.5547 48.0234C88.5286 48.0859 88.4896 48.1901 88.4375 48.3359C88.3906 48.4818 88.3281 48.6536 88.25 48.8516L88.1562 49.0703L88.1484 49.1094L86.8203 52.6094L85.8516 55.2422C85.7891 55.3724 85.7161 55.5339 85.6328 55.7266C85.4349 56.0964 85.3177 56.2995 85.2812 56.3359C85.125 56.5286 84.9896 56.6641 84.875 56.7422L84.4766 56.9141C84.3984 56.9349 84.3151 56.9453 84.2266 56.9453C83.9922 56.9453 83.8203 56.8932 83.7109 56.7891C83.6016 56.6901 83.5469 56.5521 83.5469 56.375C83.5469 56.2083 83.6276 56.0573 83.7891 55.9219C83.8411 55.9062 83.8932 55.8854 83.9453 55.8594L84.0469 55.8359C84.5104 55.9193 84.7995 55.9609 84.9141 55.9609C85.0234 55.9036 85.1042 55.8359 85.1562 55.7578C85.4115 55.3776 85.6302 54.9531 85.8125 54.4844C85.9948 54.0156 86.0859 53.7005 86.0859 53.5391C86.0859 53.362 86.0182 53.1042 85.8828 52.7656L85.0156 50.4688C84.8958 50.1719 84.5391 49.2031 83.9453 47.5625C83.9089 47.4583 83.862 47.3802 83.8047 47.3281L83.2734 47.1328L83.1094 47.1016C83.0208 47.0651 82.9766 47.013 82.9766 46.9453L83.0156 46.8438ZM93.7031 52.8203C93.8646 52.7109 94.1562 52.6328 94.5781 52.5859C94.9062 52.5703 95.1016 52.5417 95.1641 52.5C95.2057 52.4688 95.237 52.4297 95.2578 52.3828C95.3359 52.1901 95.3932 51.6667 95.4297 50.8125C95.4766 49.7031 95.5521 48.2266 95.6562 46.3828C95.7396 44.9766 95.7812 44.099 95.7812 43.75V43.5469C95.4062 43.4688 94.8125 43.3854 94 43.2969C93.9479 43.2188 93.9219 43.1589 93.9219 43.1172C93.9219 43.0911 93.9401 43.0443 93.9766 42.9766C94.0651 42.9453 94.1328 42.9297 94.1797 42.9297C94.2214 42.9297 94.3125 42.9401 94.4531 42.9609C94.7083 42.9974 95.0599 43.0156 95.5078 43.0156C95.6536 43.0156 95.9036 43.0052 96.2578 42.9844C96.5078 42.9688 96.6484 42.9609 96.6797 42.9609C96.763 42.9609 96.8594 42.974 96.9688 43C97.0208 43.0521 97.0599 43.1016 97.0859 43.1484L97.4141 43.8828L99.625 48.7734L100.539 50.8281C101.263 49.3958 101.826 48.1224 102.227 47.0078C102.253 46.9245 102.284 46.849 102.32 46.7812C102.367 46.6927 102.411 46.5938 102.453 46.4844C102.495 46.375 102.664 45.9583 102.961 45.2344C103.081 44.9427 103.177 44.6927 103.25 44.4844C103.547 43.651 103.721 43.1745 103.773 43.0547C103.872 43.0182 103.958 43 104.031 43C104.115 43 104.221 43.0052 104.352 43.0156C104.643 43.0312 105.117 43.0391 105.773 43.0391C106.18 43.0391 106.513 43.0339 106.773 43.0234C106.784 43.0807 106.789 43.1224 106.789 43.1484C106.789 43.1849 106.781 43.2344 106.766 43.2969C106.599 43.3854 106.398 43.4349 106.164 43.4453C105.701 43.4714 105.406 43.5078 105.281 43.5547C105.156 43.6016 105.076 43.6615 105.039 43.7344C105.008 43.8073 104.979 44.0469 104.953 44.4531L104.961 44.8125L104.953 45.1875C104.953 45.9688 104.974 47.2812 105.016 49.125L105.008 50.6562L105.016 51.6406C105.016 52.026 105.034 52.2552 105.07 52.3281C105.107 52.3958 105.211 52.4609 105.383 52.5234C105.664 52.6172 106.122 52.7135 106.758 52.8125C106.794 52.8385 106.812 52.8724 106.812 52.9141C106.812 52.9609 106.81 53.013 106.805 53.0703H106.445C106.138 53.0703 105.805 53.0599 105.445 53.0391C105.086 53.0234 104.893 53.0156 104.867 53.0156C103.799 53.0156 103.091 53.026 102.742 53.0469C102.529 53.0625 102.393 53.0703 102.336 53.0703C102.299 53.0703 102.26 53.0599 102.219 53.0391V52.9375C102.219 52.8906 102.227 52.8411 102.242 52.7891C102.414 52.7161 102.648 52.6667 102.945 52.6406C103.273 52.5521 103.513 52.4583 103.664 52.3594C103.711 52.1615 103.734 51.7578 103.734 51.1484L103.711 49.5703C103.711 49.3984 103.719 49.0781 103.734 48.6094C103.755 48.1406 103.766 47.3776 103.766 46.3203C103.766 45.4818 103.745 44.8464 103.703 44.4141C103.615 44.5964 103.44 44.9922 103.18 45.6016L103.062 45.8984L103.047 45.9453L101.891 48.6797L101.477 49.7344L100.938 51.0156C100.703 51.6042 100.503 52.125 100.336 52.5781C100.263 52.7865 100.203 52.9505 100.156 53.0703L99.9766 53.0625C99.388 51.3438 98.6849 49.5807 97.8672 47.7734C97.0547 45.9661 96.4844 44.7734 96.1562 44.1953C96.1146 44.4193 96.0677 45.0703 96.0156 46.1484C95.9479 47.4609 95.9141 48.9062 95.9141 50.4844C95.9141 50.9792 95.9505 51.5365 96.0234 52.1562C96.0443 52.3333 96.1198 52.4661 96.25 52.5547C96.3802 52.638 96.7161 52.6849 97.2578 52.6953C97.4661 52.6953 97.6641 52.7109 97.8516 52.7422C97.888 52.8203 97.9062 52.8776 97.9062 52.9141C97.9062 52.9401 97.8932 52.9844 97.8672 53.0469L95.4375 52.9609C95.2604 52.9609 94.9844 52.974 94.6094 53C94.401 53.0156 94.1016 53.026 93.7109 53.0312L93.7031 52.8203ZM107.281 43.0234C107.375 43.0078 107.435 43 107.461 43C107.638 43 107.93 43.0104 108.336 43.0312C108.549 43.0365 108.695 43.0391 108.773 43.0391C108.888 43.0391 109.13 43.0286 109.5 43.0078L110.828 42.9297C111.177 42.8984 111.583 42.8828 112.047 42.8828C112.865 42.8828 113.516 43 114 43.2344C114.484 43.4635 114.857 43.8255 115.117 44.3203C115.383 44.8151 115.516 45.3073 115.516 45.7969C115.516 46.6146 115.229 47.3203 114.656 47.9141C114.083 48.5078 113.312 48.8047 112.344 48.8047C112.073 48.8047 111.846 48.7786 111.664 48.7266C111.482 48.6693 111.273 48.5625 111.039 48.4062C110.94 48.3385 110.88 48.2682 110.859 48.1953C110.88 48.1589 110.909 48.1328 110.945 48.1172C111.018 48.1172 111.094 48.1328 111.172 48.1641C111.349 48.2266 111.573 48.2578 111.844 48.2578C112.255 48.2578 112.643 48.1562 113.008 47.9531C113.378 47.75 113.656 47.4609 113.844 47.0859C114.031 46.7109 114.125 46.3151 114.125 45.8984C114.125 45.4922 114.026 45.099 113.828 44.7188C113.63 44.3333 113.37 44.026 113.047 43.7969C112.865 43.6667 112.583 43.5573 112.203 43.4688C111.828 43.3802 111.536 43.3359 111.328 43.3359C110.682 43.3359 110.299 43.3828 110.18 43.4766L110.172 43.5859L110.203 44.4688L110.195 44.625C110.185 44.7656 110.18 44.9818 110.18 45.2734C110.18 46.3359 110.195 46.9974 110.227 47.2578V47.6953L110.328 51.2656C110.328 51.3177 110.32 51.4141 110.305 51.5547C110.294 51.6953 110.289 51.8177 110.289 51.9219C110.289 52.1719 110.31 52.362 110.352 52.4922C110.477 52.5286 110.841 52.6146 111.445 52.75C111.727 52.8177 111.88 52.8568 111.906 52.8672C111.948 52.8828 111.984 52.9167 112.016 52.9688C111.995 53.0469 111.966 53.0964 111.93 53.1172C111.898 53.1432 111.833 53.1562 111.734 53.1562C111.672 53.1562 111.526 53.1432 111.297 53.1172C110.849 53.0703 110.497 53.0469 110.242 53.0469L108.867 53.1016L108.047 53.0781C107.995 53.0781 107.844 53.0833 107.594 53.0938L107.586 52.8906L108.602 52.6953C108.768 52.6484 108.87 52.6016 108.906 52.5547C108.958 52.4818 108.984 52.3385 108.984 52.125C108.984 52.0781 108.987 51.9766 108.992 51.8203C108.997 51.7109 109 51.5599 109 51.3672C109 50.7526 108.974 49.4427 108.922 47.4375C108.901 46.5 108.891 45.5469 108.891 44.5781V44.4453C108.891 44.0703 108.833 43.8333 108.719 43.7344C108.526 43.5625 108.044 43.4219 107.273 43.3125C107.247 43.2552 107.234 43.2083 107.234 43.1719C107.234 43.1302 107.25 43.0807 107.281 43.0234ZM126.367 43.5156L126.453 44.7031C126.484 45.0625 126.5 45.3073 126.5 45.4375L126.281 45.4766C125.932 44.6849 125.497 44.0911 124.977 43.6953C124.461 43.2995 123.828 43.1016 123.078 43.1016C122.161 43.1016 121.448 43.2135 120.938 43.4375C120.198 43.7552 119.565 44.3073 119.039 45.0938C118.513 45.8802 118.25 46.8281 118.25 47.9375C118.25 48.5781 118.346 49.1536 118.539 49.6641C118.732 50.1745 119.003 50.651 119.352 51.0938C119.706 51.5312 120.122 51.9115 120.602 52.2344C120.914 52.4479 121.286 52.6094 121.719 52.7188C121.964 52.776 122.328 52.8047 122.812 52.8047C123.125 52.8047 123.471 52.7604 123.852 52.6719C124.232 52.5833 124.518 52.4661 124.711 52.3203C124.904 52.1693 125.034 52 125.102 51.8125C125.174 51.625 125.211 51.2604 125.211 50.7188C125.211 49.8177 125.151 49.2943 125.031 49.1484C124.911 48.9974 124.534 48.8984 123.898 48.8516L123.586 48.8281L123.375 48.8359C123.344 48.8307 123.302 48.8229 123.25 48.8125L123.133 48.6172C123.133 48.5911 123.151 48.5573 123.188 48.5156C123.458 48.474 124.047 48.4531 124.953 48.4531C125.156 48.4531 125.487 48.4583 125.945 48.4688L126.75 48.5L127.477 48.4922C127.617 48.4922 127.786 48.4974 127.984 48.5078C128.021 48.513 128.044 48.5234 128.055 48.5391C128.065 48.5495 128.07 48.5703 128.07 48.6016C128.07 48.6589 128.057 48.7318 128.031 48.8203C127.812 48.8672 127.643 48.8906 127.523 48.8906L127.016 48.8828C126.844 48.8828 126.706 48.9427 126.602 49.0625C126.549 49.1198 126.523 49.3151 126.523 49.6484L126.531 50.6719C126.531 51.375 126.503 51.8229 126.445 52.0156C126.414 52.1302 126.349 52.2344 126.25 52.3281C126.151 52.4167 125.943 52.5234 125.625 52.6484C125.172 52.8307 124.76 52.9531 124.391 53.0156C123.703 53.1354 123.039 53.1953 122.398 53.1953C121.367 53.1953 120.521 53.0651 119.859 52.8047C119.203 52.5391 118.635 52.1719 118.156 51.7031C117.682 51.2344 117.344 50.7604 117.141 50.2812C116.833 49.5781 116.68 48.862 116.68 48.1328C116.68 47.2214 116.919 46.3307 117.398 45.4609C117.883 44.5859 118.661 43.875 119.734 43.3281C120.49 42.9427 121.516 42.75 122.812 42.75C123.708 42.75 124.44 42.8281 125.008 42.9844C125.581 43.1406 126.034 43.3177 126.367 43.5156ZM6.82031 69.9844C6.03906 69.9531 4.99219 69.9375 3.67969 69.9375L1.98438 69.9844L1.22656 69.9609L0.625 69.9844C0.5625 69.9792 0.471354 69.9661 0.351562 69.9453C0.445312 69.7266 0.565104 69.526 0.710938 69.3438C1.14323 68.8125 1.77604 68.1276 2.60938 67.2891C3.77604 66.1172 4.54427 65.1979 4.91406 64.5312C5.28385 63.8594 5.46875 63.2292 5.46875 62.6406C5.46875 62.0885 5.28125 61.625 4.90625 61.25C4.53125 60.875 4.07031 60.6875 3.52344 60.6875C3.19531 60.6875 2.8776 60.7656 2.57031 60.9219C2.26302 61.0729 2.01562 61.2656 1.82812 61.5C1.70833 61.651 1.54948 61.9531 1.35156 62.4062C1.24219 62.6562 1.17708 62.7917 1.15625 62.8125C1.125 62.849 1.08854 62.8672 1.04688 62.8672C1.00521 62.8672 0.963542 62.8464 0.921875 62.8047C0.885417 62.7578 0.867188 62.7005 0.867188 62.6328C0.867188 62.3984 0.984375 62.0234 1.21875 61.5078C1.45833 60.9922 1.80729 60.5885 2.26562 60.2969C2.72917 60.0052 3.26562 59.8594 3.875 59.8594C4.67188 59.8594 5.33594 60.1198 5.86719 60.6406C6.40365 61.1562 6.67188 61.7734 6.67188 62.4922C6.67188 63.0599 6.48958 63.638 6.125 64.2266C5.76042 64.8099 4.92188 65.7057 3.60938 66.9141C3.17708 67.3099 2.86979 67.6016 2.6875 67.7891C2.50521 67.9766 2.13802 68.3828 1.58594 69.0078C2.38281 69.0391 3.10677 69.0547 3.75781 69.0547C3.89844 69.0547 4.05208 69.0495 4.21875 69.0391C4.52604 69.0286 4.70573 69.0234 4.75781 69.0234L5.84375 69.0469C5.96354 69.0469 6.08594 68.9896 6.21094 68.875C6.33594 68.7604 6.50521 68.4375 6.71875 67.9062L6.90625 67.8984C6.93229 67.8984 6.97135 67.901 7.02344 67.9062C7.04948 67.9583 7.0625 67.9974 7.0625 68.0234L7.04688 68.0859C7.00521 68.237 6.96875 68.513 6.9375 68.9141C6.91667 69.1484 6.8776 69.5052 6.82031 69.9844ZM13.4219 60.9844C12.8385 61.0312 12.3672 61.0547 12.0078 61.0547C11.7422 61.0547 11.4609 61.0469 11.1641 61.0312C11.0026 61.0208 10.9062 61.0156 10.875 61.0156C10.2396 61.0156 9.89844 61.0286 9.85156 61.0547C9.83073 61.0651 9.81771 61.0885 9.8125 61.125C9.79688 61.2083 9.72917 62.138 9.60938 63.9141C9.84375 63.7943 10.0703 63.7109 10.2891 63.6641C10.5078 63.612 10.7969 63.5859 11.1562 63.5859C11.4115 63.5859 11.5885 63.6016 11.6875 63.6328C12.1823 63.7943 12.5391 63.9401 12.7578 64.0703C13.0599 64.2578 13.3047 64.4714 13.4922 64.7109C13.6849 64.9505 13.862 65.3021 14.0234 65.7656C14.138 66.099 14.1953 66.4479 14.1953 66.8125C14.1953 67.2083 14.138 67.5781 14.0234 67.9219C13.9141 68.2604 13.776 68.5443 13.6094 68.7734C13.4427 69.0026 13.1953 69.2422 12.8672 69.4922C12.5391 69.737 12.151 69.9245 11.7031 70.0547C11.2604 70.1849 10.9635 70.2526 10.8125 70.2578L9.67969 70.1562C9.36719 70.1042 9.09375 70.0208 8.85938 69.9062C8.625 69.7865 8.46875 69.6719 8.39062 69.5625C8.34375 69.4948 8.32031 69.4062 8.32031 69.2969C8.32031 69.2135 8.3776 69.1224 8.49219 69.0234C8.61198 68.9245 8.75781 68.875 8.92969 68.875C9.00781 68.875 9.09375 68.8984 9.1875 68.9453L9.80469 69.3438C9.94531 69.4688 10.1198 69.5859 10.3281 69.6953C10.3594 69.7109 10.4375 69.7292 10.5625 69.75C10.8646 69.7917 11.0286 69.8125 11.0547 69.8125C11.1693 69.8125 11.3646 69.7656 11.6406 69.6719C11.9167 69.5781 12.1719 69.4193 12.4062 69.1953C12.6406 68.9661 12.8411 68.6797 13.0078 68.3359C13.1797 67.987 13.2656 67.6016 13.2656 67.1797C13.2656 66.4245 13.0286 65.8021 12.5547 65.3125C12.0807 64.8229 11.5104 64.5781 10.8438 64.5781C10.5469 64.5781 10.2708 64.6276 10.0156 64.7266C9.76562 64.8255 9.59635 64.9349 9.50781 65.0547L9.39062 65.1016C9.32812 65.1276 9.28385 65.1406 9.25781 65.1406L9.15625 65.1172C9.14062 65.0234 9.13281 64.9531 9.13281 64.9062C9.13281 64.8646 9.14062 64.7917 9.15625 64.6875C9.19271 64.4323 9.21094 64.1693 9.21094 63.8984C9.21615 63.6224 9.24479 63.375 9.29688 63.1562L9.27344 62.7812C9.3099 62.5885 9.33073 62.4036 9.33594 62.2266C9.35156 61.0286 9.40104 60.3411 9.48438 60.1641C9.52083 60.0807 9.58333 60.0391 9.67188 60.0391C9.70833 60.0391 9.76823 60.0443 9.85156 60.0547L9.89844 60.0625L10.8906 60.0547C11.3385 60.0807 11.6693 60.0938 11.8828 60.0938C12.3724 60.0938 12.7656 60.0599 13.0625 59.9922C13.2083 59.8568 13.3203 59.7891 13.3984 59.7891C13.4297 59.7891 13.487 59.7943 13.5703 59.8047L13.5938 59.8984L13.5312 60.2266L13.4922 60.75C13.487 60.7865 13.4635 60.8646 13.4219 60.9844ZM28.2578 60.4375C28.3203 60.8385 28.3516 61.25 28.3516 61.6719C28.3516 61.7552 28.349 61.8672 28.3438 62.0078C28.2708 62.0234 28.2161 62.0312 28.1797 62.0312C28.1484 62.0312 28.1042 62.026 28.0469 62.0156C27.8281 61.4062 27.4714 60.9375 26.9766 60.6094C26.4818 60.2812 25.8698 60.1172 25.1406 60.1172C24.7552 60.1172 24.4297 60.1615 24.1641 60.25C23.6953 60.4115 23.2839 60.6354 22.9297 60.9219C22.5755 61.2031 22.276 61.5417 22.0312 61.9375C21.7865 62.3281 21.5911 62.8047 21.4453 63.3672C21.3047 63.9245 21.2344 64.4948 21.2344 65.0781C21.2344 66.1927 21.4036 67.1146 21.7422 67.8438C22.0807 68.5677 22.5443 69.0859 23.1328 69.3984C23.7214 69.7057 24.3151 69.8594 24.9141 69.8594L25.2812 69.8516C25.6979 69.7995 25.9818 69.75 26.1328 69.7031C26.513 69.5938 26.8255 69.4661 27.0703 69.3203C27.3203 69.1693 27.5625 68.9583 27.7969 68.6875C28.0365 68.4167 28.2396 68.1016 28.4062 67.7422L28.5 67.7109C28.526 67.7109 28.5651 67.7266 28.6172 67.7578C28.612 67.8828 28.6068 67.9635 28.6016 68C28.3828 68.8802 28.224 69.4818 28.125 69.8047C28.0417 69.8255 27.9375 69.8568 27.8125 69.8984C27.2031 70.1068 26.388 70.2109 25.3672 70.2109C24.5443 70.2109 23.9271 70.1536 23.5156 70.0391C23.1094 69.9297 22.6641 69.7578 22.1797 69.5234C21.7005 69.2839 21.2786 68.9688 20.9141 68.5781C20.5495 68.1875 20.2552 67.6953 20.0312 67.1016C19.8073 66.5026 19.6953 65.8516 19.6953 65.1484C19.6953 64.4818 19.7839 63.901 19.9609 63.4062C20.138 62.9062 20.4115 62.401 20.7812 61.8906C21.151 61.3802 21.5859 60.9557 22.0859 60.6172C22.5911 60.2786 23.151 60.0391 23.7656 59.8984C24.1979 59.8047 24.8099 59.7578 25.6016 59.7578C26.1797 59.7578 26.724 59.8359 27.2344 59.9922C27.7448 60.1432 28.0859 60.2917 28.2578 60.4375ZM30.2812 60.3984C30.2812 60.2266 30.3464 60.0781 30.4766 59.9531C30.612 59.8281 30.7734 59.7656 30.9609 59.7656C31.1536 59.7656 31.3229 59.8359 31.4688 59.9766C31.6146 60.1172 31.6875 60.2682 31.6875 60.4297C31.6875 60.5911 31.6146 60.7448 31.4688 60.8906C31.3229 61.0312 31.1536 61.1016 30.9609 61.1016C30.7682 61.1016 30.6068 61.0365 30.4766 60.9062C30.3464 60.776 30.2812 60.6068 30.2812 60.3984ZM29.625 64.4453L29.6328 64.2188C29.9714 64.1198 30.1536 64.0625 30.1797 64.0469C30.3672 63.9635 30.5625 63.8359 30.7656 63.6641C30.974 63.4922 31.1484 63.2995 31.2891 63.0859C31.3516 63.0755 31.401 63.0703 31.4375 63.0703L31.5312 63.0781C31.5521 63.3281 31.5625 63.5104 31.5625 63.625C31.5625 63.651 31.5573 63.7682 31.5469 63.9766V64.3906L31.5547 66.6406L31.5312 69.0234C31.526 69.2161 31.5573 69.3516 31.625 69.4297C31.6927 69.5026 31.8932 69.5859 32.2266 69.6797C32.4349 69.737 32.5911 69.7865 32.6953 69.8281C32.7109 69.8646 32.7188 69.8958 32.7188 69.9219C32.7188 69.9531 32.7057 69.9922 32.6797 70.0391C32.4766 70.0339 32.2161 70.0208 31.8984 70C31.4661 69.9635 31.1797 69.9453 31.0391 69.9453C30.9714 69.9453 30.5547 69.9583 29.7891 69.9844C29.6328 69.9896 29.4818 70.0026 29.3359 70.0234C29.3099 70.0234 29.2682 70.0156 29.2109 70C29.1849 69.9635 29.1719 69.9323 29.1719 69.9062C29.1719 69.8333 29.2214 69.776 29.3203 69.7344C29.3411 69.724 29.6068 69.6641 30.1172 69.5547C30.2839 69.5234 30.3932 69.4714 30.4453 69.3984C30.5339 69.2891 30.5781 69.1146 30.5781 68.875C30.5885 68.474 30.5938 67.375 30.5938 65.5781C30.5938 65.2188 30.5781 64.9948 30.5469 64.9062C30.5208 64.8438 30.4505 64.7734 30.3359 64.6953C30.2266 64.612 29.9896 64.5286 29.625 64.4453ZM35.0781 62.2812L35.3203 62.2891L35.3516 63.0312L35.3359 63.9922C35.4349 63.9974 35.4974 64 35.5234 64C35.6589 64 35.9167 63.9896 36.2969 63.9688C36.5417 63.9531 36.776 63.9453 37 63.9453C37.1042 63.9453 37.2604 63.9479 37.4688 63.9531C37.4792 64.0573 37.4844 64.1406 37.4844 64.2031C37.4844 64.2708 37.4688 64.3776 37.4375 64.5234H37.3047L36.0938 64.5625L35.4922 64.5781L35.3516 64.5938C35.3099 64.724 35.2891 64.875 35.2891 65.0469L35.3125 66.2188L35.2969 68.2812C35.2969 68.8229 35.3672 69.1823 35.5078 69.3594C35.6432 69.5417 35.8464 69.6328 36.1172 69.6328C36.2526 69.6328 36.5078 69.5911 36.8828 69.5078C36.9974 69.4818 37.151 69.3958 37.3438 69.25H37.4141C37.4609 69.25 37.4974 69.2656 37.5234 69.2969C37.5547 69.3229 37.5703 69.3594 37.5703 69.4062L37.5625 69.4609C37.3385 69.7057 37.0807 69.8854 36.7891 70C36.5026 70.1094 36.1198 70.1641 35.6406 70.1641C35.3021 70.1641 35.0208 70.0859 34.7969 69.9297C34.5781 69.7734 34.4375 69.5885 34.375 69.375C34.3125 69.1615 34.2812 68.6953 34.2812 67.9766L34.3125 66.2188L34.3047 65.375V65.0625C34.3047 64.9167 34.2995 64.7708 34.2891 64.625L34.1562 64.6172L33.5156 64.6406L33.4531 64.6484C33.3958 64.6484 33.3516 64.6354 33.3203 64.6094C33.2943 64.5833 33.2812 64.5521 33.2812 64.5156C33.2812 64.4531 33.2995 64.4036 33.3359 64.3672C33.3776 64.3255 33.4974 64.263 33.6953 64.1797C33.8307 64.1224 33.987 64.0156 34.1641 63.8594C34.3464 63.6979 34.5 63.5208 34.625 63.3281C34.6875 63.224 34.776 63.026 34.8906 62.7344C34.974 62.5208 35.0365 62.3698 35.0781 62.2812ZM37.6094 63.8438C37.724 63.8333 37.8203 63.8281 37.8984 63.8281H38.2734L38.7812 63.8125L39.4453 63.8359L39.9844 63.8203C40.2708 63.8203 40.5286 63.8385 40.7578 63.875C40.7786 63.9271 40.7891 63.9688 40.7891 64L40.7812 64.0625C40.6719 64.1146 40.5026 64.151 40.2734 64.1719C39.9505 64.1979 39.7188 64.2552 39.5781 64.3438L39.5625 64.4297C39.5625 64.4818 39.5833 64.5599 39.625 64.6641C39.651 64.7266 39.6849 64.8203 39.7266 64.9453C39.8411 65.3307 40.0885 66.0755 40.4688 67.1797C40.7448 67.9766 41 68.6615 41.2344 69.2344C41.3802 68.9219 41.5469 68.526 41.7344 68.0469L42.3984 66.1953C42.5443 65.7891 42.6562 65.3828 42.7344 64.9766C42.7656 64.8151 42.7812 64.6875 42.7812 64.5938C42.7812 64.5156 42.7474 64.4427 42.6797 64.375C42.612 64.3073 42.4766 64.25 42.2734 64.2031C41.9036 64.1094 41.7031 64.0521 41.6719 64.0312C41.6406 64.0052 41.6224 63.9531 41.6172 63.875C41.6484 63.849 41.6849 63.8281 41.7266 63.8125H42.2109L42.7344 63.8203L43.5156 63.8125L44.0156 63.8203L44.1406 63.8125C44.1771 63.8125 44.237 63.8177 44.3203 63.8281C44.3724 63.8542 44.3984 63.8958 44.3984 63.9531C44.3984 64.0052 44.375 64.0521 44.3281 64.0938L44.1719 64.1172C43.8698 64.1589 43.638 64.237 43.4766 64.3516C43.388 64.4141 43.3125 64.5443 43.25 64.7422C43.2292 64.8151 43.1953 64.9089 43.1484 65.0234C43.1224 65.0859 43.0833 65.1901 43.0312 65.3359C42.9844 65.4818 42.9219 65.6536 42.8438 65.8516L42.75 66.0703L42.7422 66.1094L41.4141 69.6094L40.4453 72.2422C40.3828 72.3724 40.3099 72.5339 40.2266 72.7266C40.0286 73.0964 39.9115 73.2995 39.875 73.3359C39.7188 73.5286 39.5833 73.6641 39.4688 73.7422L39.0703 73.9141C38.9922 73.9349 38.9089 73.9453 38.8203 73.9453C38.5859 73.9453 38.4141 73.8932 38.3047 73.7891C38.1953 73.6901 38.1406 73.5521 38.1406 73.375C38.1406 73.2083 38.2214 73.0573 38.3828 72.9219C38.4349 72.9062 38.487 72.8854 38.5391 72.8594L38.6406 72.8359C39.1042 72.9193 39.3932 72.9609 39.5078 72.9609C39.6172 72.9036 39.6979 72.8359 39.75 72.7578C40.0052 72.3776 40.224 71.9531 40.4062 71.4844C40.5885 71.0156 40.6797 70.7005 40.6797 70.5391C40.6797 70.362 40.612 70.1042 40.4766 69.7656L39.6094 67.4688C39.4896 67.1719 39.1328 66.2031 38.5391 64.5625C38.5026 64.4583 38.4557 64.3802 38.3984 64.3281L37.8672 64.1328L37.7031 64.1016C37.6146 64.0651 37.5703 64.013 37.5703 63.9453L37.6094 63.8438ZM48.2969 69.8203C48.4583 69.7109 48.75 69.6328 49.1719 69.5859C49.5 69.5703 49.6953 69.5417 49.7578 69.5C49.7995 69.4688 49.8307 69.4297 49.8516 69.3828C49.9297 69.1901 49.987 68.6667 50.0234 67.8125C50.0703 66.7031 50.1458 65.2266 50.25 63.3828C50.3333 61.9766 50.375 61.099 50.375 60.75V60.5469C50 60.4688 49.4062 60.3854 48.5938 60.2969C48.5417 60.2188 48.5156 60.1589 48.5156 60.1172C48.5156 60.0911 48.5339 60.0443 48.5703 59.9766C48.6589 59.9453 48.7266 59.9297 48.7734 59.9297C48.8151 59.9297 48.9062 59.9401 49.0469 59.9609C49.3021 59.9974 49.6536 60.0156 50.1016 60.0156C50.2474 60.0156 50.4974 60.0052 50.8516 59.9844C51.1016 59.9688 51.2422 59.9609 51.2734 59.9609C51.3568 59.9609 51.4531 59.974 51.5625 60C51.6146 60.0521 51.6536 60.1016 51.6797 60.1484L52.0078 60.8828L54.2188 65.7734L55.1328 67.8281C55.8568 66.3958 56.4193 65.1224 56.8203 64.0078C56.8464 63.9245 56.8776 63.849 56.9141 63.7812C56.9609 63.6927 57.0052 63.5938 57.0469 63.4844C57.0885 63.375 57.2578 62.9583 57.5547 62.2344C57.6745 61.9427 57.7708 61.6927 57.8438 61.4844C58.1406 60.651 58.3151 60.1745 58.3672 60.0547C58.4661 60.0182 58.5521 60 58.625 60C58.7083 60 58.8151 60.0052 58.9453 60.0156C59.237 60.0312 59.7109 60.0391 60.3672 60.0391C60.7734 60.0391 61.1068 60.0339 61.3672 60.0234C61.3776 60.0807 61.3828 60.1224 61.3828 60.1484C61.3828 60.1849 61.375 60.2344 61.3594 60.2969C61.1927 60.3854 60.9922 60.4349 60.7578 60.4453C60.2943 60.4714 60 60.5078 59.875 60.5547C59.75 60.6016 59.6693 60.6615 59.6328 60.7344C59.6016 60.8073 59.5729 61.0469 59.5469 61.4531L59.5547 61.8125L59.5469 62.1875C59.5469 62.9688 59.5677 64.2812 59.6094 66.125L59.6016 67.6562L59.6094 68.6406C59.6094 69.026 59.6276 69.2552 59.6641 69.3281C59.7005 69.3958 59.8047 69.4609 59.9766 69.5234C60.2578 69.6172 60.7161 69.7135 61.3516 69.8125C61.388 69.8385 61.4062 69.8724 61.4062 69.9141C61.4062 69.9609 61.4036 70.013 61.3984 70.0703H61.0391C60.7318 70.0703 60.3984 70.0599 60.0391 70.0391C59.6797 70.0234 59.487 70.0156 59.4609 70.0156C58.3932 70.0156 57.6849 70.026 57.3359 70.0469C57.1224 70.0625 56.987 70.0703 56.9297 70.0703C56.8932 70.0703 56.8542 70.0599 56.8125 70.0391V69.9375C56.8125 69.8906 56.8203 69.8411 56.8359 69.7891C57.0078 69.7161 57.2422 69.6667 57.5391 69.6406C57.8672 69.5521 58.1068 69.4583 58.2578 69.3594C58.3047 69.1615 58.3281 68.7578 58.3281 68.1484L58.3047 66.5703C58.3047 66.3984 58.3125 66.0781 58.3281 65.6094C58.349 65.1406 58.3594 64.3776 58.3594 63.3203C58.3594 62.4818 58.3385 61.8464 58.2969 61.4141C58.2083 61.5964 58.0339 61.9922 57.7734 62.6016L57.6562 62.8984L57.6406 62.9453L56.4844 65.6797L56.0703 66.7344L55.5312 68.0156C55.2969 68.6042 55.0964 69.125 54.9297 69.5781C54.8568 69.7865 54.7969 69.9505 54.75 70.0703L54.5703 70.0625C53.9818 68.3438 53.2786 66.5807 52.4609 64.7734C51.6484 62.9661 51.0781 61.7734 50.75 61.1953C50.7083 61.4193 50.6615 62.0703 50.6094 63.1484C50.5417 64.4609 50.5078 65.9062 50.5078 67.4844C50.5078 67.9792 50.5443 68.5365 50.6172 69.1562C50.638 69.3333 50.7135 69.4661 50.8438 69.5547C50.974 69.638 51.3099 69.6849 51.8516 69.6953C52.0599 69.6953 52.2578 69.7109 52.4453 69.7422C52.4818 69.8203 52.5 69.8776 52.5 69.9141C52.5 69.9401 52.487 69.9844 52.4609 70.0469L50.0312 69.9609C49.8542 69.9609 49.5781 69.974 49.2031 70C48.9948 70.0156 48.6953 70.026 48.3047 70.0312L48.2969 69.8203ZM61.875 60.0234C61.9688 60.0078 62.0286 60 62.0547 60C62.2318 60 62.5234 60.0104 62.9297 60.0312C63.1432 60.0365 63.2891 60.0391 63.3672 60.0391C63.4818 60.0391 63.724 60.0286 64.0938 60.0078L65.4219 59.9297C65.7708 59.8984 66.1771 59.8828 66.6406 59.8828C67.4583 59.8828 68.1094 60 68.5938 60.2344C69.0781 60.4635 69.4505 60.8255 69.7109 61.3203C69.9766 61.8151 70.1094 62.3073 70.1094 62.7969C70.1094 63.6146 69.8229 64.3203 69.25 64.9141C68.6771 65.5078 67.9062 65.8047 66.9375 65.8047C66.6667 65.8047 66.4401 65.7786 66.2578 65.7266C66.0755 65.6693 65.8672 65.5625 65.6328 65.4062C65.5339 65.3385 65.474 65.2682 65.4531 65.1953C65.474 65.1589 65.5026 65.1328 65.5391 65.1172C65.612 65.1172 65.6875 65.1328 65.7656 65.1641C65.9427 65.2266 66.1667 65.2578 66.4375 65.2578C66.849 65.2578 67.237 65.1562 67.6016 64.9531C67.9714 64.75 68.25 64.4609 68.4375 64.0859C68.625 63.7109 68.7188 63.3151 68.7188 62.8984C68.7188 62.4922 68.6198 62.099 68.4219 61.7188C68.224 61.3333 67.9635 61.026 67.6406 60.7969C67.4583 60.6667 67.1771 60.5573 66.7969 60.4688C66.4219 60.3802 66.1302 60.3359 65.9219 60.3359C65.276 60.3359 64.8932 60.3828 64.7734 60.4766L64.7656 60.5859L64.7969 61.4688L64.7891 61.625C64.7786 61.7656 64.7734 61.9818 64.7734 62.2734C64.7734 63.3359 64.7891 63.9974 64.8203 64.2578V64.6953L64.9219 68.2656C64.9219 68.3177 64.9141 68.4141 64.8984 68.5547C64.888 68.6953 64.8828 68.8177 64.8828 68.9219C64.8828 69.1719 64.9036 69.362 64.9453 69.4922C65.0703 69.5286 65.4349 69.6146 66.0391 69.75C66.3203 69.8177 66.474 69.8568 66.5 69.8672C66.5417 69.8828 66.5781 69.9167 66.6094 69.9688C66.5885 70.0469 66.5599 70.0964 66.5234 70.1172C66.4922 70.1432 66.4271 70.1562 66.3281 70.1562C66.2656 70.1562 66.1198 70.1432 65.8906 70.1172C65.4427 70.0703 65.0911 70.0469 64.8359 70.0469L63.4609 70.1016L62.6406 70.0781C62.5885 70.0781 62.4375 70.0833 62.1875 70.0938L62.1797 69.8906L63.1953 69.6953C63.362 69.6484 63.4635 69.6016 63.5 69.5547C63.5521 69.4818 63.5781 69.3385 63.5781 69.125C63.5781 69.0781 63.5807 68.9766 63.5859 68.8203C63.5911 68.7109 63.5938 68.5599 63.5938 68.3672C63.5938 67.7526 63.5677 66.4427 63.5156 64.4375C63.4948 63.5 63.4844 62.5469 63.4844 61.5781V61.4453C63.4844 61.0703 63.4271 60.8333 63.3125 60.7344C63.1198 60.5625 62.638 60.4219 61.8672 60.3125C61.8411 60.2552 61.8281 60.2083 61.8281 60.1719C61.8281 60.1302 61.8438 60.0807 61.875 60.0234ZM80.9609 60.5156L81.0469 61.7031C81.0781 62.0625 81.0938 62.3073 81.0938 62.4375L80.875 62.4766C80.526 61.6849 80.0911 61.0911 79.5703 60.6953C79.0547 60.2995 78.4219 60.1016 77.6719 60.1016C76.7552 60.1016 76.0417 60.2135 75.5312 60.4375C74.7917 60.7552 74.1589 61.3073 73.6328 62.0938C73.1068 62.8802 72.8438 63.8281 72.8438 64.9375C72.8438 65.5781 72.9401 66.1536 73.1328 66.6641C73.3255 67.1745 73.5964 67.651 73.9453 68.0938C74.2995 68.5312 74.7161 68.9115 75.1953 69.2344C75.5078 69.4479 75.8802 69.6094 76.3125 69.7188C76.5573 69.776 76.9219 69.8047 77.4062 69.8047C77.7188 69.8047 78.0651 69.7604 78.4453 69.6719C78.8255 69.5833 79.112 69.4661 79.3047 69.3203C79.4974 69.1693 79.6276 69 79.6953 68.8125C79.7682 68.625 79.8047 68.2604 79.8047 67.7188C79.8047 66.8177 79.7448 66.2943 79.625 66.1484C79.5052 65.9974 79.1276 65.8984 78.4922 65.8516L78.1797 65.8281L77.9688 65.8359C77.9375 65.8307 77.8958 65.8229 77.8438 65.8125L77.7266 65.6172C77.7266 65.5911 77.7448 65.5573 77.7812 65.5156C78.0521 65.474 78.6406 65.4531 79.5469 65.4531C79.75 65.4531 80.0807 65.4583 80.5391 65.4688L81.3438 65.5L82.0703 65.4922C82.2109 65.4922 82.3802 65.4974 82.5781 65.5078C82.6146 65.513 82.638 65.5234 82.6484 65.5391C82.6589 65.5495 82.6641 65.5703 82.6641 65.6016C82.6641 65.6589 82.651 65.7318 82.625 65.8203C82.4062 65.8672 82.237 65.8906 82.1172 65.8906L81.6094 65.8828C81.4375 65.8828 81.2995 65.9427 81.1953 66.0625C81.1432 66.1198 81.1172 66.3151 81.1172 66.6484L81.125 67.6719C81.125 68.375 81.0964 68.8229 81.0391 69.0156C81.0078 69.1302 80.9427 69.2344 80.8438 69.3281C80.7448 69.4167 80.5365 69.5234 80.2188 69.6484C79.7656 69.8307 79.3542 69.9531 78.9844 70.0156C78.2969 70.1354 77.6328 70.1953 76.9922 70.1953C75.9609 70.1953 75.1146 70.0651 74.4531 69.8047C73.7969 69.5391 73.2292 69.1719 72.75 68.7031C72.276 68.2344 71.9375 67.7604 71.7344 67.2812C71.4271 66.5781 71.2734 65.862 71.2734 65.1328C71.2734 64.2214 71.513 63.3307 71.9922 62.4609C72.4766 61.5859 73.2552 60.875 74.3281 60.3281C75.0833 59.9427 76.1094 59.75 77.4062 59.75C78.3021 59.75 79.0339 59.8281 79.6016 59.9844C80.1745 60.1406 80.6276 60.3177 80.9609 60.5156Z" fill="#D6CB89"/>
<path fill-rule="evenodd" clip-rule="evenodd" d="M2.125 43.5C2.125 43.2929 2.29289 43.125 2.5 43.125H9.5C9.70711 43.125 9.875 43.2929 9.875 43.5V52.5C9.875 52.7071 9.70711 52.875 9.5 52.875H2.5C2.29289 52.875 2.125 52.7071 2.125 52.5V43.5ZM2.875 43.875V52.125H9.125V43.875H2.875Z" fill="#D6CB89"/>
<path fill-rule="evenodd" clip-rule="evenodd" d="M5.89917 46.1276C6.03287 46.1117 6.16484 46.1687 6.24494 46.2769C6.38399 46.4648 6.59726 46.7842 6.79804 47.115C6.99559 47.4405 7.1978 47.8042 7.3004 48.0738L7.30041 48.0738C7.47018 48.5199 7.33258 48.9795 7.07736 49.3053C6.82147 49.6318 6.41079 49.875 5.9435 49.875C5.4314 49.875 5.01556 49.5259 4.80334 49.1356C4.58805 48.7396 4.5234 48.1903 4.86236 47.745M5.89917 46.1276C5.76547 46.1436 5.65056 46.2299 5.59812 46.3539ZM6.01061 47.2686C5.86254 47.5741 5.67599 47.9144 5.45915 48.1993L5.45914 48.1993C5.35081 48.3416 5.34208 48.5563 5.46225 48.7773C5.5855 49.004 5.78468 49.125 5.9435 49.125C6.14717 49.125 6.35151 49.0156 6.487 48.8427C6.62316 48.6689 6.6533 48.4821 6.59946 48.3406M6.01061 47.2686C6.05895 47.3447 6.10818 47.4238 6.15689 47.5041C6.35259 47.8265 6.52313 48.1401 6.59945 48.3406M5.59812 46.3539C5.44592 46.7138 5.18686 47.3187 4.86237 47.745Z" fill="#D6CB89"/>
<path fill-rule="evenodd" clip-rule="evenodd" d="M1.125 43.5C1.125 43.2929 1.29289 43.125 1.5 43.125H10.5C10.7071 43.125 10.875 43.2929 10.875 43.5C10.875 43.7071 10.7071 43.875 10.5 43.875H1.5C1.29289 43.875 1.125 43.7071 1.125 43.5Z" fill="#D6CB89"/>
<path fill-rule="evenodd" clip-rule="evenodd" d="M1.125 52.5C1.125 52.2929 1.29289 52.125 1.5 52.125H10.5C10.7071 52.125 10.875 52.2929 10.875 52.5C10.875 52.7071 10.7071 52.875 10.5 52.875H1.5C1.29289 52.875 1.125 52.7071 1.125 52.5Z" fill="#D6CB89"/>
<path fill-rule="evenodd" clip-rule="evenodd" d="M1.125 48C1.125 47.7929 1.29289 47.625 1.5 47.625H2.5C2.70711 47.625 2.875 47.7929 2.875 48C2.875 48.2071 2.70711 48.375 2.5 48.375H1.5C1.29289 48.375 1.125 48.2071 1.125 48Z" fill="#D6CB89"/>
<path fill-rule="evenodd" clip-rule="evenodd" d="M9.125 48C9.125 47.7929 9.29289 47.625 9.5 47.625H10.5C10.7071 47.625 10.875 47.7929 10.875 48C10.875 48.2071 10.7071 48.375 10.5 48.375H9.5C9.29289 48.375 9.125 48.2071 9.125 48Z" fill="#D6CB89"/>
</svg>
