<svg width="328" height="104" viewBox="0 0 328 104" fill="none" xmlns="http://www.w3.org/2000/svg">
<rect x="0.5" y="0.5" width="127" height="29" rx="14.5" stroke="#D6CB89"/>
<rect x="200.5" y="0.5" width="127" height="29" rx="14.5" stroke="#D6CB89"/>
<line x1="152" y1="14.5" x2="175" y2="14.5" stroke="#D6CB89"/>
<path d="M14.8149 14.8804C14.8149 14.4149 14.8424 14.0509 14.8975 13.7886C15.0244 13.158 15.1471 12.701 15.2656 12.4175C15.4518 11.9774 15.6698 11.6219 15.9194 11.3511C16.1733 11.076 16.4653 10.8687 16.7954 10.729C16.9901 10.6444 17.2482 10.6021 17.5698 10.6021C17.9634 10.6021 18.3464 10.7396 18.7188 11.0146C19.0911 11.2897 19.4233 11.7446 19.7153 12.3794C20.0073 13.0099 20.1533 13.8034 20.1533 14.7598C20.1533 15.4665 20.0729 16.1309 19.9121 16.7529C19.8105 17.1296 19.6646 17.4787 19.4741 17.8003C19.2879 18.1177 19.1335 18.3377 19.0107 18.4604C18.7992 18.6678 18.5664 18.8328 18.3125 18.9556C18.0586 19.0783 17.8534 19.1396 17.6968 19.1396C17.2355 19.1396 16.8843 19.0931 16.6431 19C16.4019 18.9111 16.1691 18.7482 15.9448 18.5112C15.7248 18.2743 15.5259 17.9717 15.3481 17.6035C15.1746 17.2354 15.0498 16.8799 14.9736 16.5371C14.8678 16.0589 14.8149 15.5067 14.8149 14.8804ZM16.459 15.7183C16.459 16.6493 16.4886 17.2798 16.5479 17.6099C16.6071 17.9357 16.7192 18.1812 16.8843 18.3462C17.0535 18.507 17.2313 18.5874 17.4175 18.5874C17.6079 18.5874 17.7708 18.5366 17.9062 18.4351C18.0417 18.3335 18.1559 18.1748 18.249 17.959C18.3464 17.7389 18.4141 17.394 18.4521 16.9243C18.5156 16.1584 18.5474 15.6104 18.5474 15.2803L18.5283 14.4424V13.5474C18.5283 13.1242 18.4987 12.7306 18.4395 12.3667C18.3802 12.0028 18.2998 11.7425 18.1982 11.5859C18.1009 11.4251 17.9824 11.3151 17.8428 11.2559C17.7074 11.1924 17.5762 11.1606 17.4492 11.1606C17.2926 11.1606 17.1234 11.2389 16.9414 11.3955C16.7594 11.5479 16.6283 11.8293 16.5479 12.2397C16.4674 12.6502 16.4272 13.3506 16.4272 14.3408L16.4399 14.7915C16.4526 15.2274 16.459 15.5363 16.459 15.7183Z" fill="white"/>
<path d="M98.7812 19L98.7686 18.8159C98.8024 18.7905 98.8341 18.7757 98.8638 18.7715C98.8934 18.763 98.9992 18.7524 99.1812 18.7397C99.3674 18.7271 99.4837 18.6868 99.5303 18.6191C99.5768 18.5472 99.6001 18.2573 99.6001 17.7495L99.6128 15.2422L99.6001 14.7979C99.6001 14.7598 99.6043 14.618 99.6128 14.3726C99.6213 14.2583 99.6255 14.1208 99.6255 13.96L99.6001 12.8555L99.6064 11.8906C99.6064 11.6579 99.5726 11.5098 99.5049 11.4463C99.4414 11.3786 99.2108 11.3172 98.813 11.2622V11.186C98.813 11.1606 98.8151 11.1247 98.8193 11.0781C99.0605 11.0273 99.2743 10.9639 99.4604 10.8877C99.5578 10.8454 99.8053 10.7142 100.203 10.4941H100.4C100.396 10.5915 100.394 10.6507 100.394 10.6719V11.2241L100.387 11.4971L100.406 11.9985L100.4 12.7539L100.406 14.0107L100.387 15.5723V16.0547C100.387 16.1139 100.389 16.1965 100.394 16.3022L100.463 16.3086C100.607 16.3086 100.753 16.2557 100.901 16.1499C101.566 15.6759 101.983 15.3543 102.152 15.1851C102.321 15.0116 102.406 14.8867 102.406 14.8105C102.406 14.764 102.378 14.7048 102.323 14.6328C102.196 14.5651 102.055 14.5186 101.898 14.4932C101.851 14.4847 101.801 14.4741 101.746 14.4614C101.669 14.4403 101.606 14.4255 101.555 14.417L101.542 14.3535C101.542 14.3239 101.553 14.2816 101.574 14.2266C102.243 14.2012 102.825 14.1885 103.32 14.1885C103.599 14.1885 103.897 14.1948 104.215 14.2075V14.29C104.215 14.3197 104.204 14.3577 104.183 14.4043C104.12 14.417 104.02 14.436 103.885 14.4614C103.622 14.5037 103.424 14.563 103.288 14.6392C102.962 14.8127 102.626 15.056 102.279 15.3691C102.071 15.5553 101.892 15.7119 101.739 15.8389L101.511 16.0356C101.528 16.0653 101.555 16.1012 101.593 16.1436C101.61 16.1605 101.644 16.1986 101.695 16.2578C101.746 16.3171 101.837 16.4165 101.968 16.5562C102.425 17.0386 102.763 17.411 102.983 17.6733C103.055 17.758 103.136 17.8511 103.225 17.9526C103.555 18.3208 103.747 18.526 103.802 18.5684C103.921 18.6445 104.096 18.7038 104.329 18.7461C104.439 18.7673 104.534 18.7863 104.615 18.8032C104.632 18.854 104.64 18.8942 104.64 18.9238L104.634 18.9873C104.333 18.9619 104.118 18.9492 103.986 18.9492H103.872L102.107 19C102.04 19.0085 101.993 19.0127 101.968 19.0127C101.925 19.0127 101.881 19.0042 101.834 18.9873C101.822 18.9535 101.815 18.9238 101.815 18.8984V18.854C101.841 18.8159 101.864 18.7926 101.885 18.7842C102.304 18.7503 102.548 18.7228 102.615 18.7017C102.653 18.6932 102.689 18.6699 102.723 18.6318C102.723 18.5599 102.662 18.4435 102.539 18.2827C102.416 18.1219 102.11 17.7686 101.619 17.2227C101.306 16.8757 101.102 16.6746 101.009 16.6196C100.92 16.5604 100.796 16.5308 100.635 16.5308H100.394C100.377 16.6831 100.368 17.0322 100.368 17.5781C100.368 18.0859 100.41 18.4118 100.495 18.5557C100.542 18.6361 100.652 18.6868 100.825 18.708C100.999 18.7292 101.111 18.7609 101.162 18.8032C101.195 18.8286 101.217 18.8879 101.225 18.981C100.971 18.9767 100.757 18.9746 100.584 18.9746C100.305 18.9746 100 18.981 99.6699 18.9937C99.471 19.0021 99.3145 19.0063 99.2002 19.0063C99.1156 19.0063 98.9759 19.0042 98.7812 19ZM106.786 18.7778C106.854 18.7313 106.947 18.6995 107.065 18.6826C107.235 18.6615 107.366 18.6276 107.459 18.5811C107.535 18.5176 107.586 18.4266 107.611 18.3081C107.641 18.1558 107.656 17.6204 107.656 16.7021C107.656 15.8008 107.628 15.2189 107.573 14.9565C107.48 14.8973 107.36 14.8507 107.211 14.8169C107.165 14.8084 107.068 14.7852 106.919 14.7471V14.5376C107.169 14.4657 107.37 14.3726 107.522 14.2583C107.679 14.144 107.895 13.9155 108.17 13.5728H108.208C108.233 13.5728 108.274 13.5706 108.329 13.5664C108.362 13.5706 108.39 13.5812 108.411 13.5981L108.405 14.3218C108.405 14.4699 108.409 14.6286 108.417 14.7979C108.87 14.3874 109.277 14.0996 109.636 13.9346C109.882 13.8245 110.159 13.7695 110.468 13.7695C110.836 13.7695 111.128 13.8394 111.344 13.979C111.56 14.1187 111.765 14.3704 111.959 14.7344C112.336 14.362 112.677 14.1017 112.981 13.9536C113.29 13.8055 113.601 13.7314 113.915 13.7314C114.389 13.7314 114.778 13.8859 115.083 14.1948C115.383 14.508 115.537 14.9671 115.546 15.5723V16.0991L115.552 16.6768L115.546 18.1621C115.542 18.3356 115.58 18.4668 115.66 18.5557C115.694 18.5684 115.823 18.6064 116.047 18.6699C116.187 18.708 116.27 18.7376 116.295 18.7588C116.32 18.7799 116.333 18.8096 116.333 18.8477C116.333 18.8942 116.32 18.9492 116.295 19.0127H116.25L115.609 18.9746C115.533 18.9704 115.413 18.9683 115.248 18.9683C115.044 18.9683 114.761 18.9767 114.397 18.9937H114.073C114.027 18.9937 113.936 18.9958 113.8 19C113.796 18.9619 113.794 18.9281 113.794 18.8984C113.794 18.8646 113.809 18.8223 113.838 18.7715C113.953 18.7207 114.109 18.6805 114.308 18.6509C114.507 18.617 114.63 18.5599 114.676 18.4795C114.727 18.3949 114.752 18.0648 114.752 17.4893C114.752 16.2409 114.738 15.5173 114.708 15.3184C114.657 15.001 114.522 14.7534 114.302 14.5757C114.086 14.3937 113.813 14.3027 113.483 14.3027C113.229 14.3027 112.981 14.3704 112.74 14.5059C112.499 14.637 112.262 14.8359 112.029 15.1025L112.023 15.2549V16.2261L111.998 16.9814C111.998 17.7516 112.004 18.1896 112.017 18.2954C112.034 18.4012 112.069 18.4795 112.125 18.5303C112.184 18.5768 112.351 18.6191 112.626 18.6572C112.749 18.6742 112.844 18.6911 112.912 18.708C112.962 18.7503 112.988 18.8053 112.988 18.873C112.988 18.9281 112.969 18.9661 112.931 18.9873H112.823L112.505 18.981H110.658L110.15 18.9873C110.142 18.9238 110.138 18.8773 110.138 18.8477L110.144 18.7715C110.237 18.7207 110.411 18.672 110.665 18.6255C110.796 18.6043 110.931 18.5684 111.071 18.5176C111.096 18.4964 111.115 18.4689 111.128 18.4351C111.149 18.3758 111.164 18.2065 111.172 17.9272L111.204 17.1909L111.191 16.3594L111.198 15.896C111.198 15.3755 111.092 14.9967 110.88 14.7598C110.669 14.5186 110.402 14.3979 110.081 14.3979C109.78 14.3979 109.478 14.472 109.173 14.6201C108.872 14.7682 108.623 14.9671 108.424 15.2168C108.42 15.3353 108.417 15.4432 108.417 15.5405L108.443 17.6733C108.447 18.1388 108.472 18.4054 108.519 18.4731C108.57 18.5366 108.68 18.5811 108.849 18.6064C109.12 18.6445 109.296 18.6911 109.376 18.7461C109.414 18.7715 109.433 18.8096 109.433 18.8604C109.433 18.8942 109.431 18.9344 109.427 18.981C108.944 18.9471 108.621 18.9302 108.456 18.9302C108.286 18.9302 108.134 18.9323 107.999 18.9365L107.681 18.9556H107.484L106.773 18.981C106.765 18.9513 106.761 18.9259 106.761 18.9048C106.761 18.8836 106.769 18.8413 106.786 18.7778Z" fill="#D6CB89"/>
<path d="M298.781 19L298.769 18.8159C298.802 18.7905 298.834 18.7757 298.864 18.7715C298.893 18.763 298.999 18.7524 299.181 18.7397C299.367 18.7271 299.484 18.6868 299.53 18.6191C299.577 18.5472 299.6 18.2573 299.6 17.7495L299.613 15.2422L299.6 14.7979C299.6 14.7598 299.604 14.618 299.613 14.3726C299.621 14.2583 299.625 14.1208 299.625 13.96L299.6 12.8555L299.606 11.8906C299.606 11.6579 299.573 11.5098 299.505 11.4463C299.441 11.3786 299.211 11.3172 298.813 11.2622V11.186C298.813 11.1606 298.815 11.1247 298.819 11.0781C299.061 11.0273 299.274 10.9639 299.46 10.8877C299.558 10.8454 299.805 10.7142 300.203 10.4941H300.4C300.396 10.5915 300.394 10.6507 300.394 10.6719V11.2241L300.387 11.4971L300.406 11.9985L300.4 12.7539L300.406 14.0107L300.387 15.5723V16.0547C300.387 16.1139 300.389 16.1965 300.394 16.3022L300.463 16.3086C300.607 16.3086 300.753 16.2557 300.901 16.1499C301.566 15.6759 301.983 15.3543 302.152 15.1851C302.321 15.0116 302.406 14.8867 302.406 14.8105C302.406 14.764 302.378 14.7048 302.323 14.6328C302.196 14.5651 302.055 14.5186 301.898 14.4932C301.851 14.4847 301.801 14.4741 301.746 14.4614C301.669 14.4403 301.606 14.4255 301.555 14.417L301.542 14.3535C301.542 14.3239 301.553 14.2816 301.574 14.2266C302.243 14.2012 302.825 14.1885 303.32 14.1885C303.599 14.1885 303.897 14.1948 304.215 14.2075V14.29C304.215 14.3197 304.204 14.3577 304.183 14.4043C304.12 14.417 304.02 14.436 303.885 14.4614C303.622 14.5037 303.424 14.563 303.288 14.6392C302.962 14.8127 302.626 15.056 302.279 15.3691C302.071 15.5553 301.892 15.7119 301.739 15.8389L301.511 16.0356C301.528 16.0653 301.555 16.1012 301.593 16.1436C301.61 16.1605 301.644 16.1986 301.695 16.2578C301.746 16.3171 301.837 16.4165 301.968 16.5562C302.425 17.0386 302.763 17.411 302.983 17.6733C303.055 17.758 303.136 17.8511 303.225 17.9526C303.555 18.3208 303.747 18.526 303.802 18.5684C303.921 18.6445 304.096 18.7038 304.329 18.7461C304.439 18.7673 304.534 18.7863 304.615 18.8032C304.632 18.854 304.64 18.8942 304.64 18.9238L304.634 18.9873C304.333 18.9619 304.118 18.9492 303.986 18.9492H303.872L302.107 19C302.04 19.0085 301.993 19.0127 301.968 19.0127C301.925 19.0127 301.881 19.0042 301.834 18.9873C301.822 18.9535 301.815 18.9238 301.815 18.8984V18.854C301.841 18.8159 301.864 18.7926 301.885 18.7842C302.304 18.7503 302.548 18.7228 302.615 18.7017C302.653 18.6932 302.689 18.6699 302.723 18.6318C302.723 18.5599 302.662 18.4435 302.539 18.2827C302.416 18.1219 302.11 17.7686 301.619 17.2227C301.306 16.8757 301.102 16.6746 301.009 16.6196C300.92 16.5604 300.796 16.5308 300.635 16.5308H300.394C300.377 16.6831 300.368 17.0322 300.368 17.5781C300.368 18.0859 300.41 18.4118 300.495 18.5557C300.542 18.6361 300.652 18.6868 300.825 18.708C300.999 18.7292 301.111 18.7609 301.162 18.8032C301.195 18.8286 301.217 18.8879 301.225 18.981C300.971 18.9767 300.757 18.9746 300.584 18.9746C300.305 18.9746 300 18.981 299.67 18.9937C299.471 19.0021 299.314 19.0063 299.2 19.0063C299.116 19.0063 298.976 19.0042 298.781 19ZM306.786 18.7778C306.854 18.7313 306.947 18.6995 307.065 18.6826C307.235 18.6615 307.366 18.6276 307.459 18.5811C307.535 18.5176 307.586 18.4266 307.611 18.3081C307.641 18.1558 307.656 17.6204 307.656 16.7021C307.656 15.8008 307.628 15.2189 307.573 14.9565C307.48 14.8973 307.36 14.8507 307.211 14.8169C307.165 14.8084 307.068 14.7852 306.919 14.7471V14.5376C307.169 14.4657 307.37 14.3726 307.522 14.2583C307.679 14.144 307.895 13.9155 308.17 13.5728H308.208C308.233 13.5728 308.274 13.5706 308.329 13.5664C308.362 13.5706 308.39 13.5812 308.411 13.5981L308.405 14.3218C308.405 14.4699 308.409 14.6286 308.417 14.7979C308.87 14.3874 309.277 14.0996 309.636 13.9346C309.882 13.8245 310.159 13.7695 310.468 13.7695C310.836 13.7695 311.128 13.8394 311.344 13.979C311.56 14.1187 311.765 14.3704 311.959 14.7344C312.336 14.362 312.677 14.1017 312.981 13.9536C313.29 13.8055 313.601 13.7314 313.915 13.7314C314.389 13.7314 314.778 13.8859 315.083 14.1948C315.383 14.508 315.537 14.9671 315.546 15.5723V16.0991L315.552 16.6768L315.546 18.1621C315.542 18.3356 315.58 18.4668 315.66 18.5557C315.694 18.5684 315.823 18.6064 316.047 18.6699C316.187 18.708 316.27 18.7376 316.295 18.7588C316.32 18.7799 316.333 18.8096 316.333 18.8477C316.333 18.8942 316.32 18.9492 316.295 19.0127H316.25L315.609 18.9746C315.533 18.9704 315.413 18.9683 315.248 18.9683C315.044 18.9683 314.761 18.9767 314.397 18.9937H314.073C314.027 18.9937 313.936 18.9958 313.8 19C313.796 18.9619 313.794 18.9281 313.794 18.8984C313.794 18.8646 313.809 18.8223 313.838 18.7715C313.953 18.7207 314.109 18.6805 314.308 18.6509C314.507 18.617 314.63 18.5599 314.676 18.4795C314.727 18.3949 314.752 18.0648 314.752 17.4893C314.752 16.2409 314.738 15.5173 314.708 15.3184C314.657 15.001 314.522 14.7534 314.302 14.5757C314.086 14.3937 313.813 14.3027 313.483 14.3027C313.229 14.3027 312.981 14.3704 312.74 14.5059C312.499 14.637 312.262 14.8359 312.029 15.1025L312.023 15.2549V16.2261L311.998 16.9814C311.998 17.7516 312.004 18.1896 312.017 18.2954C312.034 18.4012 312.069 18.4795 312.125 18.5303C312.184 18.5768 312.351 18.6191 312.626 18.6572C312.749 18.6742 312.844 18.6911 312.912 18.708C312.962 18.7503 312.988 18.8053 312.988 18.873C312.988 18.9281 312.969 18.9661 312.931 18.9873H312.823L312.505 18.981H310.658L310.15 18.9873C310.142 18.9238 310.138 18.8773 310.138 18.8477L310.144 18.7715C310.237 18.7207 310.411 18.672 310.665 18.6255C310.796 18.6043 310.931 18.5684 311.071 18.5176C311.096 18.4964 311.115 18.4689 311.128 18.4351C311.149 18.3758 311.164 18.2065 311.172 17.9272L311.204 17.1909L311.191 16.3594L311.198 15.896C311.198 15.3755 311.092 14.9967 310.88 14.7598C310.669 14.5186 310.402 14.3979 310.081 14.3979C309.78 14.3979 309.478 14.472 309.173 14.6201C308.872 14.7682 308.623 14.9671 308.424 15.2168C308.42 15.3353 308.417 15.4432 308.417 15.5405L308.443 17.6733C308.447 18.1388 308.472 18.4054 308.519 18.4731C308.57 18.5366 308.68 18.5811 308.849 18.6064C309.12 18.6445 309.296 18.6911 309.376 18.7461C309.414 18.7715 309.433 18.8096 309.433 18.8604C309.433 18.8942 309.431 18.9344 309.427 18.981C308.944 18.9471 308.621 18.9302 308.456 18.9302C308.286 18.9302 308.134 18.9323 307.999 18.9365L307.681 18.9556H307.484L306.773 18.981C306.765 18.9513 306.761 18.9259 306.761 18.9048C306.761 18.8836 306.769 18.8413 306.786 18.7778Z" fill="#D6CB89"/>
<path d="M220.819 15.9277V16.9941C220.591 17.0068 220.411 17.0132 220.28 17.0132C220.157 17.0132 220 17.0068 219.81 16.9941C219.797 17.0957 219.791 17.1571 219.791 17.1782L219.804 17.5591L219.797 17.9653L219.81 18.2446C219.81 18.2954 219.804 18.4224 219.791 18.6255C219.783 18.7397 219.776 18.9111 219.772 19.1396L219.226 19.1333H218.89C218.801 19.1333 218.733 19.1312 218.687 19.127L218.579 19.1143C218.549 19.1143 218.502 19.1227 218.439 19.1396L218.452 17.9082L218.426 17.1147C218.426 17.0936 218.431 17.0534 218.439 16.9941C218.236 16.9984 217.933 17.0026 217.531 17.0068H217.112C216.753 17.0068 216.353 17.0005 215.913 16.9878C215.773 16.9836 215.682 16.9814 215.64 16.9814C215.576 16.9814 215.479 16.9857 215.348 16.9941L215.335 16.9116L215.354 16.4736L215.341 16.334L215.36 16.0737L215.348 16.0229C215.547 15.6463 215.674 15.4178 215.729 15.3374L217.182 13.103C217.508 12.6206 217.766 12.2546 217.957 12.0049C218.151 11.751 218.287 11.5627 218.363 11.4399C218.481 11.2495 218.585 11.0993 218.674 10.9893C218.805 10.8242 218.89 10.7078 218.928 10.6401C219.177 10.6274 219.334 10.6211 219.397 10.6211C219.478 10.6211 219.628 10.6274 219.848 10.6401L219.861 10.7163L219.835 11.186L219.848 11.3511L219.829 11.6113L219.842 11.8716L219.829 12.5L219.823 12.7729L219.829 13.1284L219.823 13.4585L219.829 13.9092L219.823 14.3408L219.829 14.8423L219.81 15.9277C219.958 15.9277 220.142 15.932 220.362 15.9404H220.515C220.582 15.9404 220.684 15.9362 220.819 15.9277ZM218.439 15.915C218.464 15.7035 218.477 15.5448 218.477 15.439C218.477 15.3966 218.473 15.3184 218.464 15.2041C218.46 15.0856 218.458 15.0094 218.458 14.9756L218.477 14.4805L218.464 14.0552L218.483 12.957L218.477 12.4556C218.477 12.4132 218.481 12.3138 218.49 12.1572C218.456 12.208 218.397 12.2842 218.312 12.3857C218.253 12.4831 218.204 12.555 218.166 12.6016C218.001 12.8047 217.817 13.0565 217.614 13.3569L217.042 14.271C216.987 14.3556 216.926 14.4551 216.858 14.5693C216.744 14.7555 216.607 14.9692 216.446 15.2104C216.289 15.4517 216.158 15.6865 216.052 15.915C216.179 15.9023 216.266 15.896 216.312 15.896L216.617 15.9023H217.227L218.077 15.915H218.439ZM223.479 14.8804C223.479 14.4149 223.507 14.0509 223.562 13.7886C223.689 13.158 223.812 12.701 223.93 12.4175C224.116 11.9774 224.334 11.6219 224.584 11.3511C224.838 11.076 225.13 10.8687 225.46 10.729C225.655 10.6444 225.913 10.6021 226.234 10.6021C226.628 10.6021 227.011 10.7396 227.383 11.0146C227.756 11.2897 228.088 11.7446 228.38 12.3794C228.672 13.0099 228.818 13.8034 228.818 14.7598C228.818 15.4665 228.737 16.1309 228.577 16.7529C228.475 17.1296 228.329 17.4787 228.139 17.8003C227.952 18.1177 227.798 18.3377 227.675 18.4604C227.464 18.6678 227.231 18.8328 226.977 18.9556C226.723 19.0783 226.518 19.1396 226.361 19.1396C225.9 19.1396 225.549 19.0931 225.308 19C225.066 18.9111 224.834 18.7482 224.609 18.5112C224.389 18.2743 224.19 17.9717 224.013 17.6035C223.839 17.2354 223.714 16.8799 223.638 16.5371C223.532 16.0589 223.479 15.5067 223.479 14.8804ZM225.124 15.7183C225.124 16.6493 225.153 17.2798 225.212 17.6099C225.272 17.9357 225.384 18.1812 225.549 18.3462C225.718 18.507 225.896 18.5874 226.082 18.5874C226.272 18.5874 226.435 18.5366 226.571 18.4351C226.706 18.3335 226.82 18.1748 226.914 17.959C227.011 17.7389 227.079 17.394 227.117 16.9243C227.18 16.1584 227.212 15.6104 227.212 15.2803L227.193 14.4424V13.5474C227.193 13.1242 227.163 12.7306 227.104 12.3667C227.045 12.0028 226.964 11.7425 226.863 11.5859C226.765 11.4251 226.647 11.3151 226.507 11.2559C226.372 11.1924 226.241 11.1606 226.114 11.1606C225.957 11.1606 225.788 11.2389 225.606 11.3955C225.424 11.5479 225.293 11.8293 225.212 12.2397C225.132 12.6502 225.092 13.3506 225.092 14.3408L225.104 14.7915C225.117 15.2274 225.124 15.5363 225.124 15.7183ZM231.573 14.8804C231.573 14.4149 231.601 14.0509 231.656 13.7886C231.783 13.158 231.905 12.701 232.024 12.4175C232.21 11.9774 232.428 11.6219 232.678 11.3511C232.932 11.076 233.224 10.8687 233.554 10.729C233.748 10.6444 234.007 10.6021 234.328 10.6021C234.722 10.6021 235.105 10.7396 235.477 11.0146C235.849 11.2897 236.182 11.7446 236.474 12.3794C236.766 13.0099 236.912 13.8034 236.912 14.7598C236.912 15.4665 236.831 16.1309 236.67 16.7529C236.569 17.1296 236.423 17.4787 236.232 17.8003C236.046 18.1177 235.892 18.3377 235.769 18.4604C235.557 18.6678 235.325 18.8328 235.071 18.9556C234.817 19.0783 234.612 19.1396 234.455 19.1396C233.994 19.1396 233.643 19.0931 233.401 19C233.16 18.9111 232.927 18.7482 232.703 18.5112C232.483 18.2743 232.284 17.9717 232.106 17.6035C231.933 17.2354 231.808 16.8799 231.732 16.5371C231.626 16.0589 231.573 15.5067 231.573 14.8804ZM233.217 15.7183C233.217 16.6493 233.247 17.2798 233.306 17.6099C233.365 17.9357 233.478 18.1812 233.643 18.3462C233.812 18.507 233.99 18.5874 234.176 18.5874C234.366 18.5874 234.529 18.5366 234.665 18.4351C234.8 18.3335 234.914 18.1748 235.007 17.959C235.105 17.7389 235.172 17.394 235.21 16.9243C235.274 16.1584 235.306 15.6104 235.306 15.2803L235.287 14.4424V13.5474C235.287 13.1242 235.257 12.7306 235.198 12.3667C235.139 12.0028 235.058 11.7425 234.957 11.5859C234.859 11.4251 234.741 11.3151 234.601 11.2559C234.466 11.1924 234.334 11.1606 234.208 11.1606C234.051 11.1606 233.882 11.2389 233.7 11.3955C233.518 11.5479 233.387 11.8293 233.306 12.2397C233.226 12.6502 233.186 13.3506 233.186 14.3408L233.198 14.7915C233.211 15.2274 233.217 15.5363 233.217 15.7183ZM239.915 20.8726C239.923 20.8387 239.938 20.8133 239.959 20.7964C239.98 20.7795 240.052 20.7393 240.175 20.6758C240.416 20.5573 240.619 20.388 240.784 20.168C240.949 19.9479 241.032 19.7342 241.032 19.5269C241.032 19.4084 241.006 19.3153 240.956 19.2476C240.901 19.1799 240.75 19.0783 240.505 18.9429C240.259 18.8075 240.097 18.6847 240.016 18.5747C239.936 18.4604 239.896 18.3081 239.896 18.1177C239.896 17.8765 239.982 17.6733 240.156 17.5083C240.333 17.339 240.568 17.2544 240.86 17.2544C241.199 17.2544 241.504 17.4067 241.774 17.7114C242.049 18.0119 242.187 18.3885 242.187 18.8413C242.187 19.0994 242.143 19.366 242.054 19.6411C241.969 19.9162 241.861 20.1405 241.73 20.314C241.603 20.4875 241.4 20.6864 241.121 20.9106C241.066 20.953 240.839 21.0799 240.441 21.2915C240.386 21.3169 240.331 21.3296 240.276 21.3296C240.213 21.3296 240.156 21.3063 240.105 21.2598C240.058 21.2132 239.995 21.0841 239.915 20.8726ZM245.057 14.8804C245.057 14.4149 245.084 14.0509 245.139 13.7886C245.266 13.158 245.389 12.701 245.507 12.4175C245.694 11.9774 245.911 11.6219 246.161 11.3511C246.415 11.076 246.707 10.8687 247.037 10.729C247.232 10.6444 247.49 10.6021 247.812 10.6021C248.205 10.6021 248.588 10.7396 248.96 11.0146C249.333 11.2897 249.665 11.7446 249.957 12.3794C250.249 13.0099 250.395 13.8034 250.395 14.7598C250.395 15.4665 250.315 16.1309 250.154 16.7529C250.052 17.1296 249.906 17.4787 249.716 17.8003C249.53 18.1177 249.375 18.3377 249.252 18.4604C249.041 18.6678 248.808 18.8328 248.554 18.9556C248.3 19.0783 248.095 19.1396 247.938 19.1396C247.477 19.1396 247.126 19.0931 246.885 19C246.644 18.9111 246.411 18.7482 246.187 18.5112C245.966 18.2743 245.768 17.9717 245.59 17.6035C245.416 17.2354 245.292 16.8799 245.215 16.5371C245.11 16.0589 245.057 15.5067 245.057 14.8804ZM246.701 15.7183C246.701 16.6493 246.73 17.2798 246.79 17.6099C246.849 17.9357 246.961 18.1812 247.126 18.3462C247.295 18.507 247.473 18.5874 247.659 18.5874C247.85 18.5874 248.013 18.5366 248.148 18.4351C248.283 18.3335 248.398 18.1748 248.491 17.959C248.588 17.7389 248.656 17.394 248.694 16.9243C248.757 16.1584 248.789 15.6104 248.789 15.2803L248.77 14.4424V13.5474C248.77 13.1242 248.74 12.7306 248.681 12.3667C248.622 12.0028 248.542 11.7425 248.44 11.5859C248.343 11.4251 248.224 11.3151 248.084 11.2559C247.949 11.1924 247.818 11.1606 247.691 11.1606C247.534 11.1606 247.365 11.2389 247.183 11.3955C247.001 11.5479 246.87 11.8293 246.79 12.2397C246.709 12.6502 246.669 13.3506 246.669 14.3408L246.682 14.7915C246.694 15.2274 246.701 15.5363 246.701 15.7183ZM253.15 14.8804C253.15 14.4149 253.178 14.0509 253.233 13.7886C253.36 13.158 253.483 12.701 253.601 12.4175C253.787 11.9774 254.005 11.6219 254.255 11.3511C254.509 11.076 254.801 10.8687 255.131 10.729C255.326 10.6444 255.584 10.6021 255.905 10.6021C256.299 10.6021 256.682 10.7396 257.054 11.0146C257.427 11.2897 257.759 11.7446 258.051 12.3794C258.343 13.0099 258.489 13.8034 258.489 14.7598C258.489 15.4665 258.408 16.1309 258.248 16.7529C258.146 17.1296 258 17.4787 257.81 17.8003C257.623 18.1177 257.469 18.3377 257.346 18.4604C257.135 18.6678 256.902 18.8328 256.648 18.9556C256.394 19.0783 256.189 19.1396 256.032 19.1396C255.571 19.1396 255.22 19.0931 254.979 19C254.737 18.9111 254.505 18.7482 254.28 18.5112C254.06 18.2743 253.861 17.9717 253.684 17.6035C253.51 17.2354 253.385 16.8799 253.309 16.5371C253.203 16.0589 253.15 15.5067 253.15 14.8804ZM254.794 15.7183C254.794 16.6493 254.824 17.2798 254.883 17.6099C254.943 17.9357 255.055 18.1812 255.22 18.3462C255.389 18.507 255.567 18.5874 255.753 18.5874C255.943 18.5874 256.106 18.5366 256.242 18.4351C256.377 18.3335 256.491 18.1748 256.584 17.959C256.682 17.7389 256.75 17.394 256.788 16.9243C256.851 16.1584 256.883 15.6104 256.883 15.2803L256.864 14.4424V13.5474C256.864 13.1242 256.834 12.7306 256.775 12.3667C256.716 12.0028 256.635 11.7425 256.534 11.5859C256.436 11.4251 256.318 11.3151 256.178 11.2559C256.043 11.1924 255.912 11.1606 255.785 11.1606C255.628 11.1606 255.459 11.2389 255.277 11.3955C255.095 11.5479 254.964 11.8293 254.883 12.2397C254.803 12.6502 254.763 13.3506 254.763 14.3408L254.775 14.7915C254.788 15.2274 254.794 15.5363 254.794 15.7183ZM261.244 14.8804C261.244 14.4149 261.272 14.0509 261.327 13.7886C261.454 13.158 261.576 12.701 261.695 12.4175C261.881 11.9774 262.099 11.6219 262.349 11.3511C262.603 11.076 262.895 10.8687 263.225 10.729C263.419 10.6444 263.677 10.6021 263.999 10.6021C264.393 10.6021 264.776 10.7396 265.148 11.0146C265.52 11.2897 265.853 11.7446 266.145 12.3794C266.437 13.0099 266.583 13.8034 266.583 14.7598C266.583 15.4665 266.502 16.1309 266.341 16.7529C266.24 17.1296 266.094 17.4787 265.903 17.8003C265.717 18.1177 265.563 18.3377 265.44 18.4604C265.228 18.6678 264.996 18.8328 264.742 18.9556C264.488 19.0783 264.283 19.1396 264.126 19.1396C263.665 19.1396 263.313 19.0931 263.072 19C262.831 18.9111 262.598 18.7482 262.374 18.5112C262.154 18.2743 261.955 17.9717 261.777 17.6035C261.604 17.2354 261.479 16.8799 261.403 16.5371C261.297 16.0589 261.244 15.5067 261.244 14.8804ZM262.888 15.7183C262.888 16.6493 262.918 17.2798 262.977 17.6099C263.036 17.9357 263.148 18.1812 263.313 18.3462C263.483 18.507 263.66 18.5874 263.847 18.5874C264.037 18.5874 264.2 18.5366 264.335 18.4351C264.471 18.3335 264.585 18.1748 264.678 17.959C264.776 17.7389 264.843 17.394 264.881 16.9243C264.945 16.1584 264.977 15.6104 264.977 15.2803L264.958 14.4424V13.5474C264.958 13.1242 264.928 12.7306 264.869 12.3667C264.809 12.0028 264.729 11.7425 264.627 11.5859C264.53 11.4251 264.412 11.3151 264.272 11.2559C264.137 11.1924 264.005 11.1606 263.878 11.1606C263.722 11.1606 263.553 11.2389 263.371 11.3955C263.189 11.5479 263.057 11.8293 262.977 12.2397C262.897 12.6502 262.856 13.3506 262.856 14.3408L262.869 14.7915C262.882 15.2274 262.888 15.5363 262.888 15.7183Z" fill="white"/>
<path d="M24.1406 93.9946C24.1406 94.4305 24.1089 94.8177 24.0454 95.1562C23.9312 95.7402 23.7725 96.229 23.5693 96.6226C23.3662 97.0161 23.125 97.3483 22.8457 97.6191C22.6426 97.818 22.4268 97.9619 22.1982 98.0508C21.9697 98.1439 21.737 98.1904 21.5 98.1904C21.0811 98.1904 20.6833 98.0508 20.3066 97.7715C19.9342 97.4922 19.6084 97.0309 19.3291 96.3877C19.0498 95.7445 18.9102 94.987 18.9102 94.1152C18.9102 93.4339 18.9948 92.7801 19.1641 92.1538C19.3333 91.5275 19.5555 91.043 19.8306 90.7002C20.1099 90.3532 20.3849 90.1035 20.6558 89.9512C20.9308 89.7988 21.2292 89.7227 21.5508 89.7227C22.0036 89.7227 22.4416 89.9004 22.8647 90.2559C23.2922 90.6113 23.6328 91.1636 23.8867 91.9126C24.056 92.4162 24.1406 93.1102 24.1406 93.9946ZM23.1885 93.7852C23.1842 92.7441 23.1462 92.0374 23.0742 91.665C22.9557 91.0514 22.7611 90.6219 22.4902 90.3765C22.2236 90.131 21.9105 90.0083 21.5508 90.0083C21.2503 90.0083 20.9647 90.1056 20.6938 90.3003C20.4272 90.495 20.2432 90.7996 20.1416 91.2144C19.9681 91.8872 19.8813 92.9071 19.8813 94.2739C19.8813 95.6281 20.0146 96.576 20.2812 97.1177C20.5521 97.6551 20.9562 97.9238 21.4937 97.9238C21.8618 97.9238 22.1792 97.8096 22.4458 97.5811C22.7166 97.3525 22.9092 96.9294 23.0234 96.3115C23.1419 95.6895 23.1991 94.9933 23.1948 94.2231L23.1885 93.7852Z" fill="#D6CB89"/>
<path d="M274.556 89.7227H274.848C274.844 89.8538 274.842 89.9321 274.842 89.9575L274.861 90.8906L274.823 91.7285L274.848 92.6616V93.3979L274.861 94.4009C274.861 94.5575 274.857 94.7944 274.848 95.1118L274.981 95.1182H275.432L275.864 95.1245L276.219 95.1118C276.228 95.243 276.232 95.3403 276.232 95.4038C276.232 95.4673 276.228 95.5646 276.219 95.6958C275.957 95.7085 275.815 95.7148 275.794 95.7148L275.477 95.7085H275.223C275.155 95.7085 275.03 95.7043 274.848 95.6958C274.84 96.2967 274.84 97.0944 274.848 98.0889C274.823 98.1143 274.795 98.1312 274.766 98.1396L274.372 98.1523C274.287 98.1523 274.158 98.1481 273.985 98.1396C273.998 97.6403 274.004 97.2827 274.004 97.0669C274.004 96.8765 274 96.703 273.991 96.5464C273.979 96.2586 273.972 96.0936 273.972 96.0513C273.972 95.9751 273.976 95.8566 273.985 95.6958C273.807 95.717 273.67 95.7275 273.572 95.7275C273.521 95.7275 273.464 95.7254 273.401 95.7212C272.973 95.7 272.732 95.6895 272.677 95.6895C272.622 95.6895 272.487 95.7043 272.271 95.7339L271.617 95.6958L271.262 95.7148L271.021 95.6768L270.716 95.7402L270.659 95.6958C270.65 95.6027 270.646 95.5329 270.646 95.4863C270.646 95.4398 270.65 95.37 270.659 95.2769C270.777 95.1203 270.995 94.8029 271.312 94.3247L272.55 92.5283C272.855 92.0755 273.111 91.7158 273.318 91.4492C273.526 91.1826 273.731 90.897 273.934 90.5923C274.137 90.2834 274.345 89.9935 274.556 89.7227ZM273.985 95.1118L273.991 94.0708L273.985 93.2456V91.1191C273.638 91.5762 273.155 92.2681 272.538 93.1948C271.831 94.2528 271.412 94.8918 271.281 95.1118C271.467 95.1034 271.607 95.0991 271.7 95.0991L273.439 95.1245C273.566 95.1245 273.748 95.1203 273.985 95.1118ZM284.078 93.9946C284.078 94.4305 284.046 94.8177 283.983 95.1562C283.869 95.7402 283.71 96.229 283.507 96.6226C283.304 97.0161 283.062 97.3483 282.783 97.6191C282.58 97.818 282.364 97.9619 282.136 98.0508C281.907 98.1439 281.674 98.1904 281.438 98.1904C281.019 98.1904 280.621 98.0508 280.244 97.7715C279.872 97.4922 279.546 97.0309 279.267 96.3877C278.987 95.7445 278.848 94.987 278.848 94.1152C278.848 93.4339 278.932 92.7801 279.102 92.1538C279.271 91.5275 279.493 91.043 279.768 90.7002C280.047 90.3532 280.322 90.1035 280.593 89.9512C280.868 89.7988 281.167 89.7227 281.488 89.7227C281.941 89.7227 282.379 89.9004 282.802 90.2559C283.23 90.6113 283.57 91.1636 283.824 91.9126C283.993 92.4162 284.078 93.1102 284.078 93.9946ZM283.126 93.7852C283.122 92.7441 283.084 92.0374 283.012 91.665C282.893 91.0514 282.699 90.6219 282.428 90.3765C282.161 90.131 281.848 90.0083 281.488 90.0083C281.188 90.0083 280.902 90.1056 280.631 90.3003C280.365 90.495 280.181 90.7996 280.079 91.2144C279.906 91.8872 279.819 92.9071 279.819 94.2739C279.819 95.6281 279.952 96.576 280.219 97.1177C280.49 97.6551 280.894 97.9238 281.431 97.9238C281.799 97.9238 282.117 97.8096 282.383 97.5811C282.654 97.3525 282.847 96.9294 282.961 96.3115C283.079 95.6895 283.137 94.9933 283.132 94.2231L283.126 93.7852ZM292.172 93.9946C292.172 94.4305 292.14 94.8177 292.077 95.1562C291.962 95.7402 291.804 96.229 291.601 96.6226C291.397 97.0161 291.156 97.3483 290.877 97.6191C290.674 97.818 290.458 97.9619 290.229 98.0508C290.001 98.1439 289.768 98.1904 289.531 98.1904C289.112 98.1904 288.715 98.0508 288.338 97.7715C287.965 97.4922 287.64 97.0309 287.36 96.3877C287.081 95.7445 286.941 94.987 286.941 94.1152C286.941 93.4339 287.026 92.7801 287.195 92.1538C287.365 91.5275 287.587 91.043 287.862 90.7002C288.141 90.3532 288.416 90.1035 288.687 89.9512C288.962 89.7988 289.26 89.7227 289.582 89.7227C290.035 89.7227 290.473 89.9004 290.896 90.2559C291.323 90.6113 291.664 91.1636 291.918 91.9126C292.087 92.4162 292.172 93.1102 292.172 93.9946ZM291.22 93.7852C291.215 92.7441 291.177 92.0374 291.105 91.665C290.987 91.0514 290.792 90.6219 290.521 90.3765C290.255 90.131 289.942 90.0083 289.582 90.0083C289.282 90.0083 288.996 90.1056 288.725 90.3003C288.458 90.495 288.274 90.7996 288.173 91.2144C287.999 91.8872 287.913 92.9071 287.913 94.2739C287.913 95.6281 288.046 96.576 288.312 97.1177C288.583 97.6551 288.987 97.9238 289.525 97.9238C289.893 97.9238 290.21 97.8096 290.477 97.5811C290.748 97.3525 290.94 96.9294 291.055 96.3115C291.173 95.6895 291.23 94.9933 291.226 94.2231L291.22 93.7852ZM295.111 100.26L295.118 100.063C295.168 100.038 295.219 100.014 295.27 99.9932C295.714 99.7816 296.011 99.5615 296.159 99.333C296.311 99.1087 296.387 98.9077 296.387 98.73C296.387 98.6115 296.345 98.5078 296.26 98.4189C296.176 98.3301 296.03 98.2624 295.822 98.2158C295.619 98.1735 295.486 98.1396 295.422 98.1143C295.38 98.0973 295.327 98.055 295.264 97.9873C295.221 97.8984 295.2 97.8138 295.2 97.7334C295.2 97.5345 295.24 97.3991 295.321 97.3271C295.49 97.179 295.666 97.105 295.848 97.105C296.169 97.105 296.449 97.2298 296.686 97.4795C296.923 97.7249 297.041 98.0339 297.041 98.4062C297.041 98.6644 296.956 98.9437 296.787 99.2441C296.618 99.5446 296.362 99.7879 296.019 99.9741C295.676 100.16 295.374 100.256 295.111 100.26ZM305.109 93.9946C305.109 94.4305 305.078 94.8177 305.014 95.1562C304.9 95.7402 304.741 96.229 304.538 96.6226C304.335 97.0161 304.094 97.3483 303.814 97.6191C303.611 97.818 303.396 97.9619 303.167 98.0508C302.938 98.1439 302.706 98.1904 302.469 98.1904C302.05 98.1904 301.652 98.0508 301.275 97.7715C300.903 97.4922 300.577 97.0309 300.298 96.3877C300.019 95.7445 299.879 94.987 299.879 94.1152C299.879 93.4339 299.964 92.7801 300.133 92.1538C300.302 91.5275 300.524 91.043 300.799 90.7002C301.079 90.3532 301.354 90.1035 301.625 89.9512C301.9 89.7988 302.198 89.7227 302.52 89.7227C302.972 89.7227 303.41 89.9004 303.833 90.2559C304.261 90.6113 304.602 91.1636 304.855 91.9126C305.025 92.4162 305.109 93.1102 305.109 93.9946ZM304.157 93.7852C304.153 92.7441 304.115 92.0374 304.043 91.665C303.924 91.0514 303.73 90.6219 303.459 90.3765C303.192 90.131 302.879 90.0083 302.52 90.0083C302.219 90.0083 301.933 90.1056 301.663 90.3003C301.396 90.495 301.212 90.7996 301.11 91.2144C300.937 91.8872 300.85 92.9071 300.85 94.2739C300.85 95.6281 300.983 96.576 301.25 97.1177C301.521 97.6551 301.925 97.9238 302.462 97.9238C302.831 97.9238 303.148 97.8096 303.415 97.5811C303.685 97.3525 303.878 96.9294 303.992 96.3115C304.111 95.6895 304.168 94.9933 304.164 94.2231L304.157 93.7852ZM313.203 93.9946C313.203 94.4305 313.171 94.8177 313.108 95.1562C312.994 95.7402 312.835 96.229 312.632 96.6226C312.429 97.0161 312.188 97.3483 311.908 97.6191C311.705 97.818 311.489 97.9619 311.261 98.0508C311.032 98.1439 310.799 98.1904 310.562 98.1904C310.144 98.1904 309.746 98.0508 309.369 97.7715C308.997 97.4922 308.671 97.0309 308.392 96.3877C308.112 95.7445 307.973 94.987 307.973 94.1152C307.973 93.4339 308.057 92.7801 308.227 92.1538C308.396 91.5275 308.618 91.043 308.893 90.7002C309.172 90.3532 309.447 90.1035 309.718 89.9512C309.993 89.7988 310.292 89.7227 310.613 89.7227C311.066 89.7227 311.504 89.9004 311.927 90.2559C312.355 90.6113 312.695 91.1636 312.949 91.9126C313.118 92.4162 313.203 93.1102 313.203 93.9946ZM312.251 93.7852C312.247 92.7441 312.209 92.0374 312.137 91.665C312.018 91.0514 311.824 90.6219 311.553 90.3765C311.286 90.131 310.973 90.0083 310.613 90.0083C310.313 90.0083 310.027 90.1056 309.756 90.3003C309.49 90.495 309.306 90.7996 309.204 91.2144C309.031 91.8872 308.944 92.9071 308.944 94.2739C308.944 95.6281 309.077 96.576 309.344 97.1177C309.615 97.6551 310.019 97.9238 310.556 97.9238C310.924 97.9238 311.242 97.8096 311.508 97.5811C311.779 97.3525 311.972 96.9294 312.086 96.3115C312.204 95.6895 312.262 94.9933 312.257 94.2231L312.251 93.7852ZM321.297 93.9946C321.297 94.4305 321.265 94.8177 321.202 95.1562C321.087 95.7402 320.929 96.229 320.726 96.6226C320.522 97.0161 320.281 97.3483 320.002 97.6191C319.799 97.818 319.583 97.9619 319.354 98.0508C319.126 98.1439 318.893 98.1904 318.656 98.1904C318.237 98.1904 317.84 98.0508 317.463 97.7715C317.09 97.4922 316.765 97.0309 316.485 96.3877C316.206 95.7445 316.066 94.987 316.066 94.1152C316.066 93.4339 316.151 92.7801 316.32 92.1538C316.49 91.5275 316.712 91.043 316.987 90.7002C317.266 90.3532 317.541 90.1035 317.812 89.9512C318.087 89.7988 318.385 89.7227 318.707 89.7227C319.16 89.7227 319.598 89.9004 320.021 90.2559C320.448 90.6113 320.789 91.1636 321.043 91.9126C321.212 92.4162 321.297 93.1102 321.297 93.9946ZM320.345 93.7852C320.34 92.7441 320.302 92.0374 320.23 91.665C320.112 91.0514 319.917 90.6219 319.646 90.3765C319.38 90.131 319.067 90.0083 318.707 90.0083C318.407 90.0083 318.121 90.1056 317.85 90.3003C317.583 90.495 317.399 90.7996 317.298 91.2144C317.124 91.8872 317.038 92.9071 317.038 94.2739C317.038 95.6281 317.171 96.576 317.438 97.1177C317.708 97.6551 318.112 97.9238 318.65 97.9238C319.018 97.9238 319.335 97.8096 319.602 97.5811C319.873 97.3525 320.065 96.9294 320.18 96.3115C320.298 95.6895 320.355 94.9933 320.351 94.2231L320.345 93.7852Z" fill="#D6CB89"/>
<line x1="7.5" y1="71.5" x2="321.5" y2="71.5" stroke="#D6CB89" stroke-linecap="round"/>
<circle cx="6.5" cy="71.5" r="6.5" fill="#D6CB89"/>
<circle cx="321.5" cy="71.5" r="6.5" fill="#D6CB89"/>
</svg>
