<svg width="329" height="104" viewBox="0 0 329 104" fill="none" xmlns="http://www.w3.org/2000/svg">
<rect x="1.5" y="0.5" width="127" height="29" rx="14.5" stroke="#D6CB89"/>
<rect x="201.5" y="0.5" width="127" height="29" rx="14.5" stroke="#D6CB89"/>
<line x1="153" y1="14.5" x2="176" y2="14.5" stroke="#D6CB89"/>
<path d="M18.123 18.4033L18.1357 15.5088C18.068 15.4749 17.9876 15.439 17.8945 15.4009C17.2005 15.1131 16.7139 14.8042 16.4346 14.4741C16.1553 14.1398 16.0156 13.7399 16.0156 13.2744C16.0156 12.7624 16.1849 12.3244 16.5234 11.9604C16.862 11.5923 17.3275 11.368 17.9199 11.2876C18.0173 11.2749 18.0977 11.2622 18.1611 11.2495L18.1675 10.748L18.7388 10.7417C18.743 10.856 18.7451 10.9364 18.7451 10.9829V11.1353C18.7451 11.1776 18.7493 11.2199 18.7578 11.2622C18.8213 11.2707 18.8996 11.2812 18.9927 11.2939C19.5724 11.3617 20.0443 11.5605 20.4082 11.8906C20.679 12.1445 20.8145 12.4323 20.8145 12.7539C20.8145 12.9147 20.7637 13.0501 20.6621 13.1602C20.5605 13.266 20.4378 13.3188 20.2939 13.3188C20.1585 13.3188 20.0443 13.2744 19.9512 13.1855C19.8581 13.0967 19.7861 12.9274 19.7354 12.6777C19.6888 12.4238 19.619 12.2482 19.5259 12.1509C19.327 11.9562 19.0688 11.8483 18.7515 11.8271C18.743 11.9583 18.7388 12.3392 18.7388 12.9697C18.7388 13.613 18.7409 13.9896 18.7451 14.0996L19.7036 14.5376C20.0083 14.6984 20.2622 14.8804 20.4653 15.0835C20.6727 15.2866 20.8271 15.513 20.9287 15.7627C21.0345 16.0081 21.0874 16.2832 21.0874 16.5879C21.0874 17.1803 20.8927 17.6987 20.5034 18.1431C20.1183 18.5832 19.6042 18.8582 18.9609 18.9683C18.8678 18.981 18.7874 18.9979 18.7197 19.019L18.707 20.2188L18.1357 20.2251L18.1294 19.0127C17.4396 18.9535 16.8979 18.7419 16.5044 18.3779C16.1151 18.014 15.9204 17.6437 15.9204 17.2671C15.9204 17.0978 15.9691 16.9603 16.0664 16.8545C16.168 16.7487 16.297 16.6958 16.4536 16.6958C16.6102 16.6958 16.7435 16.7487 16.8535 16.8545C16.9678 16.9561 17.0609 17.1549 17.1328 17.4512C17.2048 17.7474 17.3211 17.9717 17.4819 18.124C17.6427 18.2721 17.8564 18.3652 18.123 18.4033ZM18.1421 13.8457C18.1548 13.4987 18.1611 12.902 18.1611 12.0557C18.1611 12.0345 18.159 11.9668 18.1548 11.8525C17.8501 11.8822 17.6089 11.988 17.4312 12.1699C17.2534 12.3477 17.1646 12.5592 17.1646 12.8047C17.1646 13.0628 17.264 13.2829 17.4629 13.4648C17.6618 13.6426 17.8882 13.7695 18.1421 13.8457ZM18.7197 18.3906C19.0456 18.361 19.3228 18.2235 19.5513 17.978C19.7798 17.7326 19.894 17.4491 19.894 17.1274C19.894 16.7931 19.7777 16.5075 19.5449 16.2705C19.3122 16.0293 19.0456 15.8643 18.7451 15.7754C18.7324 15.9362 18.7261 16.0462 18.7261 16.1055L18.7324 16.6387L18.7197 18.3906ZM23.8618 14.8804C23.8618 14.4149 23.8893 14.0509 23.9443 13.7886C24.0713 13.158 24.194 12.701 24.3125 12.4175C24.4987 11.9774 24.7166 11.6219 24.9663 11.3511C25.2202 11.076 25.5122 10.8687 25.8423 10.729C26.0369 10.6444 26.2951 10.6021 26.6167 10.6021C27.0103 10.6021 27.3932 10.7396 27.7656 11.0146C28.138 11.2897 28.4702 11.7446 28.7622 12.3794C29.0542 13.0099 29.2002 13.8034 29.2002 14.7598C29.2002 15.4665 29.1198 16.1309 28.959 16.7529C28.8574 17.1296 28.7114 17.4787 28.521 17.8003C28.3348 18.1177 28.1803 18.3377 28.0576 18.4604C27.846 18.6678 27.6133 18.8328 27.3594 18.9556C27.1055 19.0783 26.9002 19.1396 26.7437 19.1396C26.2824 19.1396 25.9312 19.0931 25.6899 19C25.4487 18.9111 25.216 18.7482 24.9917 18.5112C24.7716 18.2743 24.5728 17.9717 24.395 17.6035C24.2215 17.2354 24.0967 16.8799 24.0205 16.5371C23.9147 16.0589 23.8618 15.5067 23.8618 14.8804ZM25.5059 15.7183C25.5059 16.6493 25.5355 17.2798 25.5947 17.6099C25.654 17.9357 25.7661 18.1812 25.9312 18.3462C26.1004 18.507 26.2782 18.5874 26.4644 18.5874C26.6548 18.5874 26.8177 18.5366 26.9531 18.4351C27.0885 18.3335 27.2028 18.1748 27.2959 17.959C27.3932 17.7389 27.4609 17.394 27.499 16.9243C27.5625 16.1584 27.5942 15.6104 27.5942 15.2803L27.5752 14.4424V13.5474C27.5752 13.1242 27.5456 12.7306 27.4863 12.3667C27.4271 12.0028 27.3467 11.7425 27.2451 11.5859C27.1478 11.4251 27.0293 11.3151 26.8896 11.2559C26.7542 11.1924 26.623 11.1606 26.4961 11.1606C26.3395 11.1606 26.1702 11.2389 25.9883 11.3955C25.8063 11.5479 25.6751 11.8293 25.5947 12.2397C25.5143 12.6502 25.4741 13.3506 25.4741 14.3408L25.4868 14.7915C25.4995 15.2274 25.5059 15.5363 25.5059 15.7183Z" fill="white"/>
<path d="M217.922 18.4033L217.935 15.5088C217.867 15.4749 217.786 15.439 217.693 15.4009C216.999 15.1131 216.513 14.8042 216.233 14.4741C215.954 14.1398 215.814 13.7399 215.814 13.2744C215.814 12.7624 215.984 12.3244 216.322 11.9604C216.661 11.5923 217.126 11.368 217.719 11.2876C217.816 11.2749 217.896 11.2622 217.96 11.2495L217.966 10.748L218.538 10.7417C218.542 10.856 218.544 10.9364 218.544 10.9829V11.1353C218.544 11.1776 218.548 11.2199 218.557 11.2622C218.62 11.2707 218.698 11.2812 218.792 11.2939C219.371 11.3617 219.843 11.5605 220.207 11.8906C220.478 12.1445 220.613 12.4323 220.613 12.7539C220.613 12.9147 220.562 13.0501 220.461 13.1602C220.359 13.266 220.237 13.3188 220.093 13.3188C219.957 13.3188 219.843 13.2744 219.75 13.1855C219.657 13.0967 219.585 12.9274 219.534 12.6777C219.488 12.4238 219.418 12.2482 219.325 12.1509C219.126 11.9562 218.868 11.8483 218.55 11.8271C218.542 11.9583 218.538 12.3392 218.538 12.9697C218.538 13.613 218.54 13.9896 218.544 14.0996L219.502 14.5376C219.807 14.6984 220.061 14.8804 220.264 15.0835C220.472 15.2866 220.626 15.513 220.728 15.7627C220.833 16.0081 220.886 16.2832 220.886 16.5879C220.886 17.1803 220.692 17.6987 220.302 18.1431C219.917 18.5832 219.403 18.8582 218.76 18.9683C218.667 18.981 218.586 18.9979 218.519 19.019L218.506 20.2188L217.935 20.2251L217.928 19.0127C217.238 18.9535 216.697 18.7419 216.303 18.3779C215.914 18.014 215.719 17.6437 215.719 17.2671C215.719 17.0978 215.768 16.9603 215.865 16.8545C215.967 16.7487 216.096 16.6958 216.252 16.6958C216.409 16.6958 216.542 16.7487 216.652 16.8545C216.767 16.9561 216.86 17.1549 216.932 17.4512C217.004 17.7474 217.12 17.9717 217.281 18.124C217.442 18.2721 217.655 18.3652 217.922 18.4033ZM217.941 13.8457C217.954 13.4987 217.96 12.902 217.96 12.0557C217.96 12.0345 217.958 11.9668 217.954 11.8525C217.649 11.8822 217.408 11.988 217.23 12.1699C217.052 12.3477 216.963 12.5592 216.963 12.8047C216.963 13.0628 217.063 13.2829 217.262 13.4648C217.461 13.6426 217.687 13.7695 217.941 13.8457ZM218.519 18.3906C218.844 18.361 219.122 18.2235 219.35 17.978C219.579 17.7326 219.693 17.4491 219.693 17.1274C219.693 16.7931 219.576 16.5075 219.344 16.2705C219.111 16.0293 218.844 15.8643 218.544 15.7754C218.531 15.9362 218.525 16.0462 218.525 16.1055L218.531 16.6387L218.519 18.3906ZM225.908 10.6338C225.929 10.6338 226.073 10.6296 226.339 10.6211L226.542 10.6274L226.942 10.6338C226.959 10.7692 226.968 10.8687 226.968 10.9321C226.968 10.9533 226.966 11.0189 226.961 11.1289C226.957 11.1882 226.953 11.4146 226.949 11.8081L226.936 12.7666L226.942 13.3696L226.898 17.6543V18.0161C226.898 18.1431 226.928 18.234 226.987 18.2891C227.046 18.3441 227.205 18.3906 227.463 18.4287C227.564 18.4414 227.768 18.4753 228.072 18.5303C228.081 18.5726 228.085 18.6128 228.085 18.6509C228.085 18.6974 228.081 18.799 228.072 18.9556H227.799C227.613 18.9556 227.342 18.9471 226.987 18.9302C226.771 18.9175 226.623 18.9111 226.542 18.9111C226.441 18.9111 226.066 18.9217 225.419 18.9429C225.347 18.9471 225.288 18.9492 225.241 18.9492H225.127L224.943 18.9365L224.771 18.9492L224.454 18.9365C224.412 18.9365 224.325 18.9429 224.194 18.9556C224.185 18.8625 224.181 18.7905 224.181 18.7397C224.181 18.6932 224.185 18.6234 224.194 18.5303C224.363 18.4837 224.56 18.4372 224.784 18.3906C225.093 18.3271 225.281 18.2658 225.349 18.2065C225.421 18.1431 225.457 18.0605 225.457 17.959L225.451 17.5273L225.476 17.0576L225.47 16.0928L225.463 15.8452C225.463 15.8114 225.468 15.6844 225.476 15.4644C225.485 15.3501 225.489 15.2485 225.489 15.1597C225.489 15.1047 225.482 14.9333 225.47 14.6455L225.495 14.2837C225.478 14.0086 225.47 13.8457 225.47 13.7949C225.47 13.7314 225.472 13.668 225.476 13.6045L225.489 13.4458L225.47 13.0142L225.489 12.8174C225.493 12.7285 225.495 12.61 225.495 12.4619C225.495 12.318 225.493 12.1424 225.489 11.9351C225.188 12.1593 224.846 12.3836 224.46 12.6079C224.418 12.6333 224.228 12.7201 223.889 12.8682C223.754 12.665 223.667 12.5127 223.629 12.4111C224.077 12.1784 224.382 12.007 224.543 11.897C224.81 11.7108 225.097 11.478 225.406 11.1987C225.537 11.076 225.705 10.8877 225.908 10.6338ZM231.062 20.8726C231.071 20.8387 231.086 20.8133 231.107 20.7964C231.128 20.7795 231.2 20.7393 231.323 20.6758C231.564 20.5573 231.767 20.388 231.932 20.168C232.097 19.9479 232.18 19.7342 232.18 19.5269C232.18 19.4084 232.154 19.3153 232.104 19.2476C232.049 19.1799 231.898 19.0783 231.653 18.9429C231.407 18.8075 231.244 18.6847 231.164 18.5747C231.084 18.4604 231.043 18.3081 231.043 18.1177C231.043 17.8765 231.13 17.6733 231.304 17.5083C231.481 17.339 231.716 17.2544 232.008 17.2544C232.347 17.2544 232.652 17.4067 232.922 17.7114C233.197 18.0119 233.335 18.3885 233.335 18.8413C233.335 19.0994 233.291 19.366 233.202 19.6411C233.117 19.9162 233.009 20.1405 232.878 20.314C232.751 20.4875 232.548 20.6864 232.269 20.9106C232.214 20.953 231.987 21.0799 231.589 21.2915C231.534 21.3169 231.479 21.3296 231.424 21.3296C231.361 21.3296 231.304 21.3063 231.253 21.2598C231.206 21.2132 231.143 21.0841 231.062 20.8726ZM236.205 14.8804C236.205 14.4149 236.232 14.0509 236.287 13.7886C236.414 13.158 236.537 12.701 236.655 12.4175C236.841 11.9774 237.059 11.6219 237.309 11.3511C237.563 11.076 237.855 10.8687 238.185 10.729C238.38 10.6444 238.638 10.6021 238.959 10.6021C239.353 10.6021 239.736 10.7396 240.108 11.0146C240.481 11.2897 240.813 11.7446 241.105 12.3794C241.397 13.0099 241.543 13.8034 241.543 14.7598C241.543 15.4665 241.463 16.1309 241.302 16.7529C241.2 17.1296 241.054 17.4787 240.864 17.8003C240.678 18.1177 240.523 18.3377 240.4 18.4604C240.189 18.6678 239.956 18.8328 239.702 18.9556C239.448 19.0783 239.243 19.1396 239.086 19.1396C238.625 19.1396 238.274 19.0931 238.033 19C237.792 18.9111 237.559 18.7482 237.334 18.5112C237.114 18.2743 236.916 17.9717 236.738 17.6035C236.564 17.2354 236.439 16.8799 236.363 16.5371C236.257 16.0589 236.205 15.5067 236.205 14.8804ZM237.849 15.7183C237.849 16.6493 237.878 17.2798 237.938 17.6099C237.997 17.9357 238.109 18.1812 238.274 18.3462C238.443 18.507 238.621 18.5874 238.807 18.5874C238.998 18.5874 239.16 18.5366 239.296 18.4351C239.431 18.3335 239.546 18.1748 239.639 17.959C239.736 17.7389 239.804 17.394 239.842 16.9243C239.905 16.1584 239.937 15.6104 239.937 15.2803L239.918 14.4424V13.5474C239.918 13.1242 239.888 12.7306 239.829 12.3667C239.77 12.0028 239.689 11.7425 239.588 11.5859C239.491 11.4251 239.372 11.3151 239.232 11.2559C239.097 11.1924 238.966 11.1606 238.839 11.1606C238.682 11.1606 238.513 11.2389 238.331 11.3955C238.149 11.5479 238.018 11.8293 237.938 12.2397C237.857 12.6502 237.817 13.3506 237.817 14.3408L237.83 14.7915C237.842 15.2274 237.849 15.5363 237.849 15.7183ZM244.298 14.8804C244.298 14.4149 244.326 14.0509 244.381 13.7886C244.508 13.158 244.631 12.701 244.749 12.4175C244.935 11.9774 245.153 11.6219 245.403 11.3511C245.657 11.076 245.949 10.8687 246.279 10.729C246.473 10.6444 246.732 10.6021 247.053 10.6021C247.447 10.6021 247.83 10.7396 248.202 11.0146C248.575 11.2897 248.907 11.7446 249.199 12.3794C249.491 13.0099 249.637 13.8034 249.637 14.7598C249.637 15.4665 249.556 16.1309 249.396 16.7529C249.294 17.1296 249.148 17.4787 248.958 17.8003C248.771 18.1177 248.617 18.3377 248.494 18.4604C248.283 18.6678 248.05 18.8328 247.796 18.9556C247.542 19.0783 247.337 19.1396 247.18 19.1396C246.719 19.1396 246.368 19.0931 246.126 19C245.885 18.9111 245.653 18.7482 245.428 18.5112C245.208 18.2743 245.009 17.9717 244.832 17.6035C244.658 17.2354 244.533 16.8799 244.457 16.5371C244.351 16.0589 244.298 15.5067 244.298 14.8804ZM245.942 15.7183C245.942 16.6493 245.972 17.2798 246.031 17.6099C246.09 17.9357 246.203 18.1812 246.368 18.3462C246.537 18.507 246.715 18.5874 246.901 18.5874C247.091 18.5874 247.254 18.5366 247.39 18.4351C247.525 18.3335 247.639 18.1748 247.732 17.959C247.83 17.7389 247.897 17.394 247.936 16.9243C247.999 16.1584 248.031 15.6104 248.031 15.2803L248.012 14.4424V13.5474C248.012 13.1242 247.982 12.7306 247.923 12.3667C247.864 12.0028 247.783 11.7425 247.682 11.5859C247.584 11.4251 247.466 11.3151 247.326 11.2559C247.191 11.1924 247.06 11.1606 246.933 11.1606C246.776 11.1606 246.607 11.2389 246.425 11.3955C246.243 11.5479 246.112 11.8293 246.031 12.2397C245.951 12.6502 245.911 13.3506 245.911 14.3408L245.923 14.7915C245.936 15.2274 245.942 15.5363 245.942 15.7183ZM252.392 14.8804C252.392 14.4149 252.42 14.0509 252.475 13.7886C252.602 13.158 252.724 12.701 252.843 12.4175C253.029 11.9774 253.247 11.6219 253.497 11.3511C253.75 11.076 254.042 10.8687 254.373 10.729C254.567 10.6444 254.825 10.6021 255.147 10.6021C255.541 10.6021 255.924 10.7396 256.296 11.0146C256.668 11.2897 257 11.7446 257.292 12.3794C257.584 13.0099 257.73 13.8034 257.73 14.7598C257.73 15.4665 257.65 16.1309 257.489 16.7529C257.388 17.1296 257.242 17.4787 257.051 17.8003C256.865 18.1177 256.711 18.3377 256.588 18.4604C256.376 18.6678 256.144 18.8328 255.89 18.9556C255.636 19.0783 255.431 19.1396 255.274 19.1396C254.813 19.1396 254.461 19.0931 254.22 19C253.979 18.9111 253.746 18.7482 253.522 18.5112C253.302 18.2743 253.103 17.9717 252.925 17.6035C252.752 17.2354 252.627 16.8799 252.551 16.5371C252.445 16.0589 252.392 15.5067 252.392 14.8804ZM254.036 15.7183C254.036 16.6493 254.066 17.2798 254.125 17.6099C254.184 17.9357 254.296 18.1812 254.461 18.3462C254.631 18.507 254.808 18.5874 254.995 18.5874C255.185 18.5874 255.348 18.5366 255.483 18.4351C255.619 18.3335 255.733 18.1748 255.826 17.959C255.924 17.7389 255.991 17.394 256.029 16.9243C256.093 16.1584 256.125 15.6104 256.125 15.2803L256.105 14.4424V13.5474C256.105 13.1242 256.076 12.7306 256.017 12.3667C255.957 12.0028 255.877 11.7425 255.775 11.5859C255.678 11.4251 255.56 11.3151 255.42 11.2559C255.285 11.1924 255.153 11.1606 255.026 11.1606C254.87 11.1606 254.701 11.2389 254.519 11.3955C254.337 11.5479 254.205 11.8293 254.125 12.2397C254.045 12.6502 254.004 13.3506 254.004 14.3408L254.017 14.7915C254.03 15.2274 254.036 15.5363 254.036 15.7183ZM260.733 20.8726C260.742 20.8387 260.757 20.8133 260.778 20.7964C260.799 20.7795 260.871 20.7393 260.994 20.6758C261.235 20.5573 261.438 20.388 261.603 20.168C261.768 19.9479 261.851 19.7342 261.851 19.5269C261.851 19.4084 261.825 19.3153 261.774 19.2476C261.719 19.1799 261.569 19.0783 261.324 18.9429C261.078 18.8075 260.915 18.6847 260.835 18.5747C260.755 18.4604 260.714 18.3081 260.714 18.1177C260.714 17.8765 260.801 17.6733 260.975 17.5083C261.152 17.339 261.387 17.2544 261.679 17.2544C262.018 17.2544 262.322 17.4067 262.593 17.7114C262.868 18.0119 263.006 18.3885 263.006 18.8413C263.006 19.0994 262.961 19.366 262.873 19.6411C262.788 19.9162 262.68 20.1405 262.549 20.314C262.422 20.4875 262.219 20.6864 261.939 20.9106C261.884 20.953 261.658 21.0799 261.26 21.2915C261.205 21.3169 261.15 21.3296 261.095 21.3296C261.032 21.3296 260.975 21.3063 260.924 21.2598C260.877 21.2132 260.814 21.0841 260.733 20.8726ZM265.875 14.8804C265.875 14.4149 265.903 14.0509 265.958 13.7886C266.085 13.158 266.208 12.701 266.326 12.4175C266.512 11.9774 266.73 11.6219 266.98 11.3511C267.234 11.076 267.526 10.8687 267.856 10.729C268.051 10.6444 268.309 10.6021 268.63 10.6021C269.024 10.6021 269.407 10.7396 269.779 11.0146C270.152 11.2897 270.484 11.7446 270.776 12.3794C271.068 13.0099 271.214 13.8034 271.214 14.7598C271.214 15.4665 271.133 16.1309 270.973 16.7529C270.871 17.1296 270.725 17.4787 270.535 17.8003C270.348 18.1177 270.194 18.3377 270.071 18.4604C269.86 18.6678 269.627 18.8328 269.373 18.9556C269.119 19.0783 268.914 19.1396 268.757 19.1396C268.296 19.1396 267.945 19.0931 267.704 19C267.462 18.9111 267.23 18.7482 267.005 18.5112C266.785 18.2743 266.586 17.9717 266.409 17.6035C266.235 17.2354 266.11 16.8799 266.034 16.5371C265.928 16.0589 265.875 15.5067 265.875 14.8804ZM267.52 15.7183C267.52 16.6493 267.549 17.2798 267.608 17.6099C267.668 17.9357 267.78 18.1812 267.945 18.3462C268.114 18.507 268.292 18.5874 268.478 18.5874C268.668 18.5874 268.831 18.5366 268.967 18.4351C269.102 18.3335 269.216 18.1748 269.31 17.959C269.407 17.7389 269.475 17.394 269.513 16.9243C269.576 16.1584 269.608 15.6104 269.608 15.2803L269.589 14.4424V13.5474C269.589 13.1242 269.559 12.7306 269.5 12.3667C269.441 12.0028 269.36 11.7425 269.259 11.5859C269.161 11.4251 269.043 11.3151 268.903 11.2559C268.768 11.1924 268.637 11.1606 268.51 11.1606C268.353 11.1606 268.184 11.2389 268.002 11.3955C267.82 11.5479 267.689 11.8293 267.608 12.2397C267.528 12.6502 267.488 13.3506 267.488 14.3408L267.5 14.7915C267.513 15.2274 267.52 15.5363 267.52 15.7183ZM273.969 14.8804C273.969 14.4149 273.997 14.0509 274.052 13.7886C274.179 13.158 274.301 12.701 274.42 12.4175C274.606 11.9774 274.824 11.6219 275.074 11.3511C275.328 11.076 275.62 10.8687 275.95 10.729C276.144 10.6444 276.403 10.6021 276.724 10.6021C277.118 10.6021 277.501 10.7396 277.873 11.0146C278.245 11.2897 278.578 11.7446 278.87 12.3794C279.162 13.0099 279.308 13.8034 279.308 14.7598C279.308 15.4665 279.227 16.1309 279.066 16.7529C278.965 17.1296 278.819 17.4787 278.628 17.8003C278.442 18.1177 278.288 18.3377 278.165 18.4604C277.953 18.6678 277.721 18.8328 277.467 18.9556C277.213 19.0783 277.008 19.1396 276.851 19.1396C276.39 19.1396 276.039 19.0931 275.797 19C275.556 18.9111 275.323 18.7482 275.099 18.5112C274.879 18.2743 274.68 17.9717 274.502 17.6035C274.329 17.2354 274.204 16.8799 274.128 16.5371C274.022 16.0589 273.969 15.5067 273.969 14.8804ZM275.613 15.7183C275.613 16.6493 275.643 17.2798 275.702 17.6099C275.761 17.9357 275.874 18.1812 276.039 18.3462C276.208 18.507 276.386 18.5874 276.572 18.5874C276.762 18.5874 276.925 18.5366 277.061 18.4351C277.196 18.3335 277.31 18.1748 277.403 17.959C277.501 17.7389 277.568 17.394 277.606 16.9243C277.67 16.1584 277.702 15.6104 277.702 15.2803L277.683 14.4424V13.5474C277.683 13.1242 277.653 12.7306 277.594 12.3667C277.535 12.0028 277.454 11.7425 277.353 11.5859C277.255 11.4251 277.137 11.3151 276.997 11.2559C276.862 11.1924 276.73 11.1606 276.604 11.1606C276.447 11.1606 276.278 11.2389 276.096 11.3955C275.914 11.5479 275.783 11.8293 275.702 12.2397C275.622 12.6502 275.582 13.3506 275.582 14.3408L275.594 14.7915C275.607 15.2274 275.613 15.5363 275.613 15.7183ZM282.063 14.8804C282.063 14.4149 282.09 14.0509 282.146 13.7886C282.272 13.158 282.395 12.701 282.514 12.4175C282.7 11.9774 282.918 11.6219 283.167 11.3511C283.421 11.076 283.713 10.8687 284.043 10.729C284.238 10.6444 284.496 10.6021 284.818 10.6021C285.211 10.6021 285.594 10.7396 285.967 11.0146C286.339 11.2897 286.671 11.7446 286.963 12.3794C287.255 13.0099 287.401 13.8034 287.401 14.7598C287.401 15.4665 287.321 16.1309 287.16 16.7529C287.059 17.1296 286.913 17.4787 286.722 17.8003C286.536 18.1177 286.382 18.3377 286.259 18.4604C286.047 18.6678 285.814 18.8328 285.561 18.9556C285.307 19.0783 285.101 19.1396 284.945 19.1396C284.484 19.1396 284.132 19.0931 283.891 19C283.65 18.9111 283.417 18.7482 283.193 18.5112C282.973 18.2743 282.774 17.9717 282.596 17.6035C282.423 17.2354 282.298 16.8799 282.222 16.5371C282.116 16.0589 282.063 15.5067 282.063 14.8804ZM283.707 15.7183C283.707 16.6493 283.737 17.2798 283.796 17.6099C283.855 17.9357 283.967 18.1812 284.132 18.3462C284.302 18.507 284.479 18.5874 284.666 18.5874C284.856 18.5874 285.019 18.5366 285.154 18.4351C285.29 18.3335 285.404 18.1748 285.497 17.959C285.594 17.7389 285.662 17.394 285.7 16.9243C285.764 16.1584 285.795 15.6104 285.795 15.2803L285.776 14.4424V13.5474C285.776 13.1242 285.747 12.7306 285.688 12.3667C285.628 12.0028 285.548 11.7425 285.446 11.5859C285.349 11.4251 285.23 11.3151 285.091 11.2559C284.955 11.1924 284.824 11.1606 284.697 11.1606C284.541 11.1606 284.371 11.2389 284.189 11.3955C284.007 11.5479 283.876 11.8293 283.796 12.2397C283.715 12.6502 283.675 13.3506 283.675 14.3408L283.688 14.7915C283.701 15.2274 283.707 15.5363 283.707 15.7183Z" fill="white"/>
<path d="M2.16602 97.6255C2.21257 97.3335 2.23796 96.6479 2.24219 95.5688L2.25488 95.2451L2.2168 94.0264C1.95866 93.9163 1.67936 93.7513 1.37891 93.5312C1.08268 93.3112 0.875326 93.0806 0.756836 92.8394C0.642578 92.5939 0.585449 92.3146 0.585449 92.0015C0.585449 91.5741 0.712402 91.1932 0.966309 90.8589C1.22021 90.5246 1.5778 90.2876 2.03906 90.1479L2.15332 90.1099V90.021C2.15332 89.9871 2.16602 89.8073 2.19141 89.4814L2.42627 89.4878C2.44743 89.7544 2.45801 89.9554 2.45801 90.0908C2.62305 90.0739 2.75635 90.0654 2.85791 90.0654C2.96794 90.0654 3.09066 90.0739 3.22607 90.0908C3.31071 90.0993 3.38053 90.1056 3.43555 90.1099V90.021C3.43555 89.9364 3.44189 89.7607 3.45459 89.4941H3.72754C3.74023 89.5745 3.74658 89.6803 3.74658 89.8115C3.74658 89.9469 3.7487 90.0591 3.75293 90.1479C4.08301 90.2326 4.33057 90.3172 4.49561 90.4019C4.66064 90.4823 4.82357 90.5902 4.98438 90.7256C5.02669 90.7594 5.10498 90.8525 5.21924 91.0049C5.25732 91.0768 5.27637 91.1678 5.27637 91.2778C5.27637 91.3836 5.23828 91.4725 5.16211 91.5444C5.08594 91.6164 4.99284 91.6523 4.88281 91.6523C4.80241 91.6523 4.6945 91.5994 4.55908 91.4937C4.521 91.4429 4.45964 91.3709 4.375 91.2778C4.15918 90.9689 4.02165 90.7912 3.9624 90.7446C3.90739 90.6938 3.82275 90.6536 3.7085 90.624C3.67887 91.0895 3.66406 91.3836 3.66406 91.5063C3.66406 91.5487 3.66829 91.6227 3.67676 91.7285C3.69368 91.8893 3.70215 92.1644 3.70215 92.5537L3.68945 93.8105C3.71484 93.8359 3.7487 93.8592 3.79102 93.8804L4.3877 94.2739C4.5612 94.3882 4.70085 94.5194 4.80664 94.6675C5.00977 94.9552 5.14941 95.2134 5.22559 95.4419C5.27637 95.6027 5.30176 95.8058 5.30176 96.0513C5.30176 96.4998 5.16846 96.8955 4.90186 97.2383C4.63949 97.5811 4.30518 97.818 3.89893 97.9492C3.81006 97.9746 3.72754 98.0063 3.65137 98.0444C3.60905 98.2433 3.58789 98.3618 3.58789 98.3999L3.60693 99.2822C3.60693 99.333 3.59424 99.4832 3.56885 99.7329H3.32129C3.31283 99.5721 3.30859 99.4536 3.30859 99.3774C3.30859 99.314 3.31494 99.132 3.32764 98.8315C3.33187 98.7427 3.33398 98.6686 3.33398 98.6094C3.33398 98.5417 3.32975 98.457 3.32129 98.3555C3.31283 98.2581 3.30859 98.1735 3.30859 98.1016C3.19434 98.1227 2.91715 98.1375 2.47705 98.146C2.4432 98.3576 2.41992 98.6326 2.40723 98.9712C2.39876 99.314 2.3903 99.5658 2.38184 99.7266H2.14697C2.15967 99.388 2.16602 98.8612 2.16602 98.146C2.10677 98.1333 2.0306 98.1164 1.9375 98.0952C1.46777 97.9894 1.12288 97.8286 0.902832 97.6128C0.687012 97.3927 0.579102 97.179 0.579102 96.9717C0.579102 96.8743 0.617188 96.7918 0.693359 96.7241C0.769531 96.6522 0.856283 96.6162 0.953613 96.6162C1.14404 96.6162 1.37467 96.7939 1.64551 97.1494C1.8444 97.4118 2.0179 97.5705 2.16602 97.6255ZM2.43896 93.1821C2.57015 93.2583 2.8431 93.3958 3.25781 93.5947C3.30436 93.6286 3.35091 93.6519 3.39746 93.6646C3.40169 93.5122 3.40381 93.4233 3.40381 93.3979L3.44189 91.5444L3.43555 91.1763L3.44189 90.9922C3.44189 90.8102 3.42497 90.6261 3.39111 90.4399C3.18799 90.4019 2.99544 90.3828 2.81348 90.3828C2.6696 90.3828 2.53841 90.404 2.41992 90.4463L2.43262 91.354L2.41992 92.2046C2.43262 92.4416 2.43896 92.6235 2.43896 92.7505L2.43262 93.0425C2.43262 93.0636 2.43473 93.1102 2.43896 93.1821ZM2.14697 93.0488C2.15967 92.8669 2.16602 92.7505 2.16602 92.6997V92.2998C2.17448 91.9189 2.17871 91.6566 2.17871 91.5127C2.17871 91.0133 2.16813 90.6769 2.14697 90.5034C1.82113 90.5838 1.58415 90.7235 1.43604 90.9224C1.22868 91.1974 1.125 91.4746 1.125 91.7539C1.125 91.957 1.2181 92.1898 1.4043 92.4521C1.59049 92.7103 1.83805 92.9092 2.14697 93.0488ZM2.43262 97.7144C2.62305 97.7863 2.83464 97.8223 3.06738 97.8223C3.17318 97.8223 3.27262 97.8075 3.36572 97.7778L3.37842 97.6763L3.38477 97.2446L3.40381 96.2227L3.39746 95.4038V94.9468C3.39746 94.8875 3.39111 94.7839 3.37842 94.6357C3.07796 94.4411 2.79443 94.2972 2.52783 94.2041C2.50667 94.2633 2.49609 94.3057 2.49609 94.3311L2.41992 96.9653L2.42627 97.0796V97.3843C2.4305 97.5451 2.43262 97.6551 2.43262 97.7144ZM3.65137 97.6699C3.96452 97.5387 4.19727 97.3589 4.34961 97.1304C4.50618 96.9019 4.58447 96.6247 4.58447 96.2988C4.58447 96.1169 4.55697 95.9624 4.50195 95.8354C4.37923 95.5562 4.26709 95.3636 4.16553 95.2578C4.01742 95.097 3.86507 94.9743 3.7085 94.8896C3.6958 94.9701 3.68734 95.0356 3.68311 95.0864L3.67041 96.394L3.62598 97.4668L3.63232 97.5239L3.65137 97.6699ZM13.5542 93.9946C13.5542 94.4305 13.5225 94.8177 13.459 95.1562C13.3447 95.7402 13.186 96.229 12.9829 96.6226C12.7798 97.0161 12.5386 97.3483 12.2593 97.6191C12.0562 97.818 11.8403 97.9619 11.6118 98.0508C11.3833 98.1439 11.1506 98.1904 10.9136 98.1904C10.4946 98.1904 10.0968 98.0508 9.72021 97.7715C9.34782 97.4922 9.02197 97.0309 8.74268 96.3877C8.46338 95.7445 8.32373 94.987 8.32373 94.1152C8.32373 93.4339 8.40837 92.7801 8.57764 92.1538C8.74691 91.5275 8.96908 91.043 9.24414 90.7002C9.52344 90.3532 9.7985 90.1035 10.0693 89.9512C10.3444 89.7988 10.6427 89.7227 10.9644 89.7227C11.4172 89.7227 11.8551 89.9004 12.2783 90.2559C12.7057 90.6113 13.0464 91.1636 13.3003 91.9126C13.4696 92.4162 13.5542 93.1102 13.5542 93.9946ZM12.6021 93.7852C12.5978 92.7441 12.5597 92.0374 12.4878 91.665C12.3693 91.0514 12.1746 90.6219 11.9038 90.3765C11.6372 90.131 11.3241 90.0083 10.9644 90.0083C10.6639 90.0083 10.3783 90.1056 10.1074 90.3003C9.84082 90.495 9.65674 90.7996 9.55518 91.2144C9.38167 91.8872 9.29492 92.9071 9.29492 94.2739C9.29492 95.6281 9.42822 96.576 9.69482 97.1177C9.96566 97.6551 10.3698 97.9238 10.9072 97.9238C11.2754 97.9238 11.5928 97.8096 11.8594 97.5811C12.1302 97.3525 12.3228 96.9294 12.437 96.3115C12.5555 95.6895 12.6126 94.9933 12.6084 94.2231L12.6021 93.7852Z" fill="#D6CB89"/>
<path d="M258.541 97.6255C258.588 97.3335 258.613 96.6479 258.617 95.5688L258.63 95.2451L258.592 94.0264C258.334 93.9163 258.054 93.7513 257.754 93.5312C257.458 93.3112 257.25 93.0806 257.132 92.8394C257.018 92.5939 256.96 92.3146 256.96 92.0015C256.96 91.5741 257.087 91.1932 257.341 90.8589C257.595 90.5246 257.953 90.2876 258.414 90.1479L258.528 90.1099V90.021C258.528 89.9871 258.541 89.8073 258.566 89.4814L258.801 89.4878C258.822 89.7544 258.833 89.9554 258.833 90.0908C258.998 90.0739 259.131 90.0654 259.233 90.0654C259.343 90.0654 259.466 90.0739 259.601 90.0908C259.686 90.0993 259.756 90.1056 259.811 90.1099V90.021C259.811 89.9364 259.817 89.7607 259.83 89.4941H260.103C260.115 89.5745 260.122 89.6803 260.122 89.8115C260.122 89.9469 260.124 90.0591 260.128 90.1479C260.458 90.2326 260.706 90.3172 260.871 90.4019C261.036 90.4823 261.199 90.5902 261.359 90.7256C261.402 90.7594 261.48 90.8525 261.594 91.0049C261.632 91.0768 261.651 91.1678 261.651 91.2778C261.651 91.3836 261.613 91.4725 261.537 91.5444C261.461 91.6164 261.368 91.6523 261.258 91.6523C261.177 91.6523 261.069 91.5994 260.934 91.4937C260.896 91.4429 260.835 91.3709 260.75 91.2778C260.534 90.9689 260.397 90.7912 260.337 90.7446C260.282 90.6938 260.198 90.6536 260.083 90.624C260.054 91.0895 260.039 91.3836 260.039 91.5063C260.039 91.5487 260.043 91.6227 260.052 91.7285C260.069 91.8893 260.077 92.1644 260.077 92.5537L260.064 93.8105C260.09 93.8359 260.124 93.8592 260.166 93.8804L260.763 94.2739C260.936 94.3882 261.076 94.5194 261.182 94.6675C261.385 94.9552 261.524 95.2134 261.601 95.4419C261.651 95.6027 261.677 95.8058 261.677 96.0513C261.677 96.4998 261.543 96.8955 261.277 97.2383C261.014 97.5811 260.68 97.818 260.274 97.9492C260.185 97.9746 260.103 98.0063 260.026 98.0444C259.984 98.2433 259.963 98.3618 259.963 98.3999L259.982 99.2822C259.982 99.333 259.969 99.4832 259.944 99.7329H259.696C259.688 99.5721 259.684 99.4536 259.684 99.3774C259.684 99.314 259.69 99.132 259.703 98.8315C259.707 98.7427 259.709 98.6686 259.709 98.6094C259.709 98.5417 259.705 98.457 259.696 98.3555C259.688 98.2581 259.684 98.1735 259.684 98.1016C259.569 98.1227 259.292 98.1375 258.852 98.146C258.818 98.3576 258.795 98.6326 258.782 98.9712C258.774 99.314 258.765 99.5658 258.757 99.7266H258.522C258.535 99.388 258.541 98.8612 258.541 98.146C258.482 98.1333 258.406 98.1164 258.312 98.0952C257.843 97.9894 257.498 97.8286 257.278 97.6128C257.062 97.3927 256.954 97.179 256.954 96.9717C256.954 96.8743 256.992 96.7918 257.068 96.7241C257.145 96.6522 257.231 96.6162 257.329 96.6162C257.519 96.6162 257.75 96.7939 258.021 97.1494C258.219 97.4118 258.393 97.5705 258.541 97.6255ZM258.814 93.1821C258.945 93.2583 259.218 93.3958 259.633 93.5947C259.679 93.6286 259.726 93.6519 259.772 93.6646C259.777 93.5122 259.779 93.4233 259.779 93.3979L259.817 91.5444L259.811 91.1763L259.817 90.9922C259.817 90.8102 259.8 90.6261 259.766 90.4399C259.563 90.4019 259.37 90.3828 259.188 90.3828C259.045 90.3828 258.913 90.404 258.795 90.4463L258.808 91.354L258.795 92.2046C258.808 92.4416 258.814 92.6235 258.814 92.7505L258.808 93.0425C258.808 93.0636 258.81 93.1102 258.814 93.1821ZM258.522 93.0488C258.535 92.8669 258.541 92.7505 258.541 92.6997V92.2998C258.549 91.9189 258.554 91.6566 258.554 91.5127C258.554 91.0133 258.543 90.6769 258.522 90.5034C258.196 90.5838 257.959 90.7235 257.811 90.9224C257.604 91.1974 257.5 91.4746 257.5 91.7539C257.5 91.957 257.593 92.1898 257.779 92.4521C257.965 92.7103 258.213 92.9092 258.522 93.0488ZM258.808 97.7144C258.998 97.7863 259.21 97.8223 259.442 97.8223C259.548 97.8223 259.648 97.8075 259.741 97.7778L259.753 97.6763L259.76 97.2446L259.779 96.2227L259.772 95.4038V94.9468C259.772 94.8875 259.766 94.7839 259.753 94.6357C259.453 94.4411 259.169 94.2972 258.903 94.2041C258.882 94.2633 258.871 94.3057 258.871 94.3311L258.795 96.9653L258.801 97.0796V97.3843C258.806 97.5451 258.808 97.6551 258.808 97.7144ZM260.026 97.6699C260.34 97.5387 260.572 97.3589 260.725 97.1304C260.881 96.9019 260.959 96.6247 260.959 96.2988C260.959 96.1169 260.932 95.9624 260.877 95.8354C260.754 95.5562 260.642 95.3636 260.541 95.2578C260.392 95.097 260.24 94.9743 260.083 94.8896C260.071 94.9701 260.062 95.0356 260.058 95.0864L260.045 96.394L260.001 97.4668L260.007 97.5239L260.026 97.6699ZM268.85 97.9873H265.943C265.939 97.9492 265.937 97.9175 265.937 97.8921C265.937 97.8201 265.951 97.7715 265.981 97.7461C266.011 97.7165 266.104 97.6868 266.26 97.6572C266.506 97.6064 266.705 97.5451 266.857 97.4731C266.899 97.38 266.92 97.2933 266.92 97.2129V96.8193C266.92 96.7728 266.927 96.5591 266.939 96.1782C266.944 96.0343 266.948 95.4123 266.952 94.312L266.965 92.8203L266.952 91.9507C266.952 91.8237 266.956 91.4238 266.965 90.751C266.004 91.4365 265.477 91.7793 265.384 91.7793C265.35 91.7793 265.314 91.7624 265.276 91.7285C265.238 91.6904 265.219 91.6545 265.219 91.6206C265.219 91.5783 265.234 91.5444 265.264 91.519C265.323 91.464 265.465 91.373 265.689 91.2461C265.723 91.2292 265.869 91.1149 266.127 90.9033C266.537 90.5605 266.838 90.2918 267.028 90.0972C267.219 89.9025 267.335 89.7925 267.377 89.7671C267.462 89.7629 267.528 89.7607 267.574 89.7607C267.684 89.7607 267.752 89.7798 267.777 89.8179C267.807 89.8517 267.822 89.9808 267.822 90.2051L267.777 95.8608V96.4194C267.777 96.5549 267.775 96.6924 267.771 96.832C267.767 96.9674 267.765 97.0669 267.765 97.1304C267.765 97.2827 267.784 97.3822 267.822 97.4287C267.847 97.4583 267.925 97.4964 268.057 97.543L268.488 97.6318C268.674 97.6784 268.776 97.7101 268.793 97.7271C268.835 97.7651 268.856 97.8244 268.856 97.9048L268.85 97.9873ZM272.869 100.26L272.875 100.063C272.926 100.038 272.977 100.014 273.027 99.9932C273.472 99.7816 273.768 99.5615 273.916 99.333C274.068 99.1087 274.145 98.9077 274.145 98.73C274.145 98.6115 274.102 98.5078 274.018 98.4189C273.933 98.3301 273.787 98.2624 273.58 98.2158C273.376 98.1735 273.243 98.1396 273.18 98.1143C273.137 98.0973 273.084 98.055 273.021 97.9873C272.979 97.8984 272.958 97.8138 272.958 97.7334C272.958 97.5345 272.998 97.3991 273.078 97.3271C273.247 97.179 273.423 97.105 273.605 97.105C273.927 97.105 274.206 97.2298 274.443 97.4795C274.68 97.7249 274.798 98.0339 274.798 98.4062C274.798 98.6644 274.714 98.9437 274.544 99.2441C274.375 99.5446 274.119 99.7879 273.776 99.9741C273.434 100.16 273.131 100.256 272.869 100.26ZM282.867 93.9946C282.867 94.4305 282.835 94.8177 282.771 95.1562C282.657 95.7402 282.499 96.229 282.295 96.6226C282.092 97.0161 281.851 97.3483 281.572 97.6191C281.369 97.818 281.153 97.9619 280.924 98.0508C280.696 98.1439 280.463 98.1904 280.226 98.1904C279.807 98.1904 279.409 98.0508 279.033 97.7715C278.66 97.4922 278.334 97.0309 278.055 96.3877C277.776 95.7445 277.636 94.987 277.636 94.1152C277.636 93.4339 277.721 92.7801 277.89 92.1538C278.059 91.5275 278.282 91.043 278.557 90.7002C278.836 90.3532 279.111 90.1035 279.382 89.9512C279.657 89.7988 279.955 89.7227 280.277 89.7227C280.73 89.7227 281.168 89.9004 281.591 90.2559C282.018 90.6113 282.359 91.1636 282.613 91.9126C282.782 92.4162 282.867 93.1102 282.867 93.9946ZM281.915 93.7852C281.91 92.7441 281.872 92.0374 281.8 91.665C281.682 91.0514 281.487 90.6219 281.216 90.3765C280.95 90.131 280.637 90.0083 280.277 90.0083C279.976 90.0083 279.691 90.1056 279.42 90.3003C279.153 90.495 278.969 90.7996 278.868 91.2144C278.694 91.8872 278.607 92.9071 278.607 94.2739C278.607 95.6281 278.741 96.576 279.007 97.1177C279.278 97.6551 279.682 97.9238 280.22 97.9238C280.588 97.9238 280.905 97.8096 281.172 97.5811C281.443 97.3525 281.635 96.9294 281.75 96.3115C281.868 95.6895 281.925 94.9933 281.921 94.2231L281.915 93.7852ZM290.96 93.9946C290.96 94.4305 290.929 94.8177 290.865 95.1562C290.751 95.7402 290.592 96.229 290.389 96.6226C290.186 97.0161 289.945 97.3483 289.666 97.6191C289.462 97.818 289.247 97.9619 289.018 98.0508C288.79 98.1439 288.557 98.1904 288.32 98.1904C287.901 98.1904 287.503 98.0508 287.126 97.7715C286.754 97.4922 286.428 97.0309 286.149 96.3877C285.87 95.7445 285.73 94.987 285.73 94.1152C285.73 93.4339 285.815 92.7801 285.984 92.1538C286.153 91.5275 286.375 91.043 286.65 90.7002C286.93 90.3532 287.205 90.1035 287.476 89.9512C287.751 89.7988 288.049 89.7227 288.371 89.7227C288.823 89.7227 289.261 89.9004 289.685 90.2559C290.112 90.6113 290.453 91.1636 290.707 91.9126C290.876 92.4162 290.96 93.1102 290.96 93.9946ZM290.008 93.7852C290.004 92.7441 289.966 92.0374 289.894 91.665C289.776 91.0514 289.581 90.6219 289.31 90.3765C289.043 90.131 288.73 90.0083 288.371 90.0083C288.07 90.0083 287.785 90.1056 287.514 90.3003C287.247 90.495 287.063 90.7996 286.961 91.2144C286.788 91.8872 286.701 92.9071 286.701 94.2739C286.701 95.6281 286.834 96.576 287.101 97.1177C287.372 97.6551 287.776 97.9238 288.313 97.9238C288.682 97.9238 288.999 97.8096 289.266 97.5811C289.536 97.3525 289.729 96.9294 289.843 96.3115C289.962 95.6895 290.019 94.9933 290.015 94.2231L290.008 93.7852ZM299.054 93.9946C299.054 94.4305 299.022 94.8177 298.959 95.1562C298.845 95.7402 298.686 96.229 298.483 96.6226C298.28 97.0161 298.039 97.3483 297.759 97.6191C297.556 97.818 297.34 97.9619 297.112 98.0508C296.883 98.1439 296.651 98.1904 296.414 98.1904C295.995 98.1904 295.597 98.0508 295.22 97.7715C294.848 97.4922 294.522 97.0309 294.243 96.3877C293.963 95.7445 293.824 94.987 293.824 94.1152C293.824 93.4339 293.908 92.7801 294.078 92.1538C294.247 91.5275 294.469 91.043 294.744 90.7002C295.023 90.3532 295.299 90.1035 295.569 89.9512C295.844 89.7988 296.143 89.7227 296.464 89.7227C296.917 89.7227 297.355 89.9004 297.778 90.2559C298.206 90.6113 298.546 91.1636 298.8 91.9126C298.97 92.4162 299.054 93.1102 299.054 93.9946ZM298.102 93.7852C298.098 92.7441 298.06 92.0374 297.988 91.665C297.869 91.0514 297.675 90.6219 297.404 90.3765C297.137 90.131 296.824 90.0083 296.464 90.0083C296.164 90.0083 295.878 90.1056 295.607 90.3003C295.341 90.495 295.157 90.7996 295.055 91.2144C294.882 91.8872 294.795 92.9071 294.795 94.2739C294.795 95.6281 294.928 96.576 295.195 97.1177C295.466 97.6551 295.87 97.9238 296.407 97.9238C296.775 97.9238 297.093 97.8096 297.359 97.5811C297.63 97.3525 297.823 96.9294 297.937 96.3115C298.056 95.6895 298.113 94.9933 298.108 94.2231L298.102 93.7852ZM301.994 100.26L302 100.063C302.051 100.038 302.102 100.014 302.152 99.9932C302.597 99.7816 302.893 99.5615 303.041 99.333C303.193 99.1087 303.27 98.9077 303.27 98.73C303.27 98.6115 303.227 98.5078 303.143 98.4189C303.058 98.3301 302.912 98.2624 302.705 98.2158C302.501 98.1735 302.368 98.1396 302.305 98.1143C302.262 98.0973 302.209 98.055 302.146 97.9873C302.104 97.8984 302.083 97.8138 302.083 97.7334C302.083 97.5345 302.123 97.3991 302.203 97.3271C302.372 97.179 302.548 97.105 302.73 97.105C303.052 97.105 303.331 97.2298 303.568 97.4795C303.805 97.7249 303.923 98.0339 303.923 98.4062C303.923 98.6644 303.839 98.9437 303.669 99.2441C303.5 99.5446 303.244 99.7879 302.901 99.9741C302.559 100.16 302.256 100.256 301.994 100.26ZM311.992 93.9946C311.992 94.4305 311.96 94.8177 311.896 95.1562C311.782 95.7402 311.624 96.229 311.42 96.6226C311.217 97.0161 310.976 97.3483 310.697 97.6191C310.494 97.818 310.278 97.9619 310.049 98.0508C309.821 98.1439 309.588 98.1904 309.351 98.1904C308.932 98.1904 308.534 98.0508 308.158 97.7715C307.785 97.4922 307.459 97.0309 307.18 96.3877C306.901 95.7445 306.761 94.987 306.761 94.1152C306.761 93.4339 306.846 92.7801 307.015 92.1538C307.184 91.5275 307.407 91.043 307.682 90.7002C307.961 90.3532 308.236 90.1035 308.507 89.9512C308.782 89.7988 309.08 89.7227 309.402 89.7227C309.855 89.7227 310.293 89.9004 310.716 90.2559C311.143 90.6113 311.484 91.1636 311.738 91.9126C311.907 92.4162 311.992 93.1102 311.992 93.9946ZM311.04 93.7852C311.035 92.7441 310.997 92.0374 310.925 91.665C310.807 91.0514 310.612 90.6219 310.341 90.3765C310.075 90.131 309.762 90.0083 309.402 90.0083C309.101 90.0083 308.816 90.1056 308.545 90.3003C308.278 90.495 308.094 90.7996 307.993 91.2144C307.819 91.8872 307.732 92.9071 307.732 94.2739C307.732 95.6281 307.866 96.576 308.132 97.1177C308.403 97.6551 308.807 97.9238 309.345 97.9238C309.713 97.9238 310.03 97.8096 310.297 97.5811C310.568 97.3525 310.76 96.9294 310.875 96.3115C310.993 95.6895 311.05 94.9933 311.046 94.2231L311.04 93.7852ZM320.085 93.9946C320.085 94.4305 320.054 94.8177 319.99 95.1562C319.876 95.7402 319.717 96.229 319.514 96.6226C319.311 97.0161 319.07 97.3483 318.791 97.6191C318.587 97.818 318.372 97.9619 318.143 98.0508C317.915 98.1439 317.682 98.1904 317.445 98.1904C317.026 98.1904 316.628 98.0508 316.251 97.7715C315.879 97.4922 315.553 97.0309 315.274 96.3877C314.995 95.7445 314.855 94.987 314.855 94.1152C314.855 93.4339 314.94 92.7801 315.109 92.1538C315.278 91.5275 315.5 91.043 315.775 90.7002C316.055 90.3532 316.33 90.1035 316.601 89.9512C316.876 89.7988 317.174 89.7227 317.496 89.7227C317.948 89.7227 318.386 89.9004 318.81 90.2559C319.237 90.6113 319.578 91.1636 319.832 91.9126C320.001 92.4162 320.085 93.1102 320.085 93.9946ZM319.133 93.7852C319.129 92.7441 319.091 92.0374 319.019 91.665C318.901 91.0514 318.706 90.6219 318.435 90.3765C318.168 90.131 317.855 90.0083 317.496 90.0083C317.195 90.0083 316.91 90.1056 316.639 90.3003C316.372 90.495 316.188 90.7996 316.086 91.2144C315.913 91.8872 315.826 92.9071 315.826 94.2739C315.826 95.6281 315.959 96.576 316.226 97.1177C316.497 97.6551 316.901 97.9238 317.438 97.9238C317.807 97.9238 318.124 97.8096 318.391 97.5811C318.661 97.3525 318.854 96.9294 318.968 96.3115C319.087 95.6895 319.144 94.9933 319.14 94.2231L319.133 93.7852ZM328.179 93.9946C328.179 94.4305 328.147 94.8177 328.084 95.1562C327.97 95.7402 327.811 96.229 327.608 96.6226C327.405 97.0161 327.164 97.3483 326.884 97.6191C326.681 97.818 326.465 97.9619 326.237 98.0508C326.008 98.1439 325.776 98.1904 325.539 98.1904C325.12 98.1904 324.722 98.0508 324.345 97.7715C323.973 97.4922 323.647 97.0309 323.368 96.3877C323.088 95.7445 322.949 94.987 322.949 94.1152C322.949 93.4339 323.033 92.7801 323.203 92.1538C323.372 91.5275 323.594 91.043 323.869 90.7002C324.148 90.3532 324.424 90.1035 324.694 89.9512C324.969 89.7988 325.268 89.7227 325.589 89.7227C326.042 89.7227 326.48 89.9004 326.903 90.2559C327.331 90.6113 327.671 91.1636 327.925 91.9126C328.095 92.4162 328.179 93.1102 328.179 93.9946ZM327.227 93.7852C327.223 92.7441 327.185 92.0374 327.113 91.665C326.994 91.0514 326.8 90.6219 326.529 90.3765C326.262 90.131 325.949 90.0083 325.589 90.0083C325.289 90.0083 325.003 90.1056 324.732 90.3003C324.466 90.495 324.282 90.7996 324.18 91.2144C324.007 91.8872 323.92 92.9071 323.92 94.2739C323.92 95.6281 324.053 96.576 324.32 97.1177C324.591 97.6551 324.995 97.9238 325.532 97.9238C325.9 97.9238 326.218 97.8096 326.484 97.5811C326.755 97.3525 326.948 96.9294 327.062 96.3115C327.181 95.6895 327.238 94.9933 327.233 94.2231L327.227 93.7852Z" fill="#D6CB89"/>
<line x1="8.5" y1="71.5" x2="322.5" y2="71.5" stroke="#D6CB89" stroke-linecap="round"/>
<circle cx="7.5" cy="71.5" r="6.5" fill="#D6CB89"/>
<circle cx="322.5" cy="71.5" r="6.5" fill="#D6CB89"/>
</svg>
