<svg width="109" height="74" viewBox="0 0 109 74" fill="none" xmlns="http://www.w3.org/2000/svg">
<path d="M8.00586 29.3477L8.04102 21.332C7.85352 21.2383 7.63086 21.1387 7.37305 21.0332C5.45117 20.2363 4.10352 19.3809 3.33008 18.4668C2.55664 17.541 2.16992 16.4336 2.16992 15.1445C2.16992 13.7266 2.63867 12.5137 3.57617 11.5059C4.51367 10.4863 5.80273 9.86523 7.44336 9.64258C7.71289 9.60742 7.93555 9.57227 8.11133 9.53711L8.12891 8.14844L9.71094 8.13086C9.72266 8.44727 9.72852 8.66992 9.72852 8.79883V9.2207C9.72852 9.33789 9.74023 9.45508 9.76367 9.57227C9.93945 9.5957 10.1562 9.625 10.4141 9.66016C12.0195 9.84766 13.3262 10.3984 14.334 11.3125C15.084 12.0156 15.459 12.8125 15.459 13.7031C15.459 14.1484 15.3184 14.5234 15.0371 14.8281C14.7559 15.1211 14.416 15.2676 14.0176 15.2676C13.6426 15.2676 13.3262 15.1445 13.0684 14.8984C12.8105 14.6523 12.6113 14.1836 12.4707 13.4922C12.3418 12.7891 12.1484 12.3027 11.8906 12.0332C11.3398 11.4941 10.625 11.1953 9.74609 11.1367C9.72266 11.5 9.71094 12.5547 9.71094 14.3008C9.71094 16.082 9.7168 17.125 9.72852 17.4297L12.3828 18.6426C13.2266 19.0879 13.9297 19.5918 14.4922 20.1543C15.0664 20.7168 15.4941 21.3438 15.7754 22.0352C16.0684 22.7148 16.2148 23.4766 16.2148 24.3203C16.2148 25.9609 15.6758 27.3965 14.5977 28.627C13.5312 29.8457 12.1074 30.6074 10.3262 30.9121C10.0684 30.9473 9.8457 30.9941 9.6582 31.0527L9.62305 34.375L8.04102 34.3926L8.02344 31.0352C6.11328 30.8711 4.61328 30.2852 3.52344 29.2773C2.44531 28.2695 1.90625 27.2441 1.90625 26.2012C1.90625 25.7324 2.04102 25.3516 2.31055 25.0586C2.5918 24.7656 2.94922 24.6191 3.38281 24.6191C3.81641 24.6191 4.18555 24.7656 4.49023 25.0586C4.80664 25.3398 5.06445 25.8906 5.26367 26.7109C5.46289 27.5312 5.78516 28.1523 6.23047 28.5742C6.67578 28.9844 7.26758 29.2422 8.00586 29.3477ZM8.05859 16.7266C8.09375 15.7656 8.11133 14.1133 8.11133 11.7695C8.11133 11.7109 8.10547 11.5234 8.09375 11.207C7.25 11.2891 6.58203 11.582 6.08984 12.0859C5.59766 12.5781 5.35156 13.1641 5.35156 13.8438C5.35156 14.5586 5.62695 15.168 6.17773 15.6719C6.72852 16.1641 7.35547 16.5156 8.05859 16.7266ZM9.6582 29.3125C10.5605 29.2305 11.3281 28.8496 11.9609 28.1699C12.5938 27.4902 12.9102 26.7051 12.9102 25.8145C12.9102 24.8887 12.5879 24.0977 11.9434 23.4414C11.2988 22.7734 10.5605 22.3164 9.72852 22.0703C9.69336 22.5156 9.67578 22.8203 9.67578 22.9844L9.69336 24.4609L9.6582 29.3125ZM24.582 7.83203C24.6406 7.83203 25.0391 7.82031 25.7773 7.79688L26.3398 7.81445L27.4473 7.83203C27.4941 8.20703 27.5176 8.48242 27.5176 8.6582C27.5176 8.7168 27.5117 8.89844 27.5 9.20312C27.4883 9.36719 27.4766 9.99414 27.4648 11.084L27.4297 13.7383L27.4473 15.4082L27.3242 27.2734V28.2754C27.3242 28.627 27.4062 28.8789 27.5703 29.0312C27.7344 29.1836 28.1738 29.3125 28.8887 29.418C29.1699 29.4531 29.7324 29.5469 30.5762 29.6992C30.5996 29.8164 30.6113 29.9277 30.6113 30.0332C30.6113 30.1621 30.5996 30.4434 30.5762 30.877H29.8203C29.3047 30.877 28.5547 30.8535 27.5703 30.8066C26.9727 30.7715 26.5625 30.7539 26.3398 30.7539C26.0586 30.7539 25.0215 30.7832 23.2285 30.8418C23.0293 30.8535 22.8652 30.8594 22.7363 30.8594H22.4199L21.9102 30.8242L21.4355 30.8594L20.5566 30.8242C20.4395 30.8242 20.1992 30.8418 19.8359 30.877C19.8125 30.6191 19.8008 30.4199 19.8008 30.2793C19.8008 30.1504 19.8125 29.957 19.8359 29.6992C20.3047 29.5703 20.8496 29.4414 21.4707 29.3125C22.3262 29.1367 22.8477 28.9668 23.0352 28.8027C23.2344 28.627 23.334 28.3984 23.334 28.1172L23.3164 26.9219L23.3867 25.6211L23.3691 22.9492L23.3516 22.2637C23.3516 22.1699 23.3633 21.8184 23.3867 21.209C23.4102 20.8926 23.4219 20.6113 23.4219 20.3652C23.4219 20.2129 23.4043 19.7383 23.3691 18.9414L23.4395 17.9395C23.3926 17.1777 23.3691 16.7266 23.3691 16.5859C23.3691 16.4102 23.375 16.2344 23.3867 16.0586L23.4219 15.6191L23.3691 14.4238L23.4219 13.8789C23.4336 13.6328 23.4395 13.3047 23.4395 12.8945C23.4395 12.4961 23.4336 12.0098 23.4219 11.4355C22.5898 12.0566 21.6406 12.6777 20.5742 13.2988C20.457 13.3691 19.9297 13.6094 18.9922 14.0195C18.6172 13.457 18.377 13.0352 18.2715 12.7539C19.5137 12.1094 20.3574 11.6348 20.8027 11.3301C21.541 10.8145 22.3379 10.1699 23.1934 9.39648C23.5566 9.05664 24.0195 8.53516 24.582 7.83203ZM44.6738 7.91992L45.3242 7.90234C45.4062 7.90234 45.6172 7.9082 45.957 7.91992C45.4648 10.2754 45.1074 11.6406 44.8848 12.0156C44.7441 12.25 44.6035 12.3789 44.4629 12.4023C43.0566 12.4609 42.3125 12.4902 42.2305 12.4902H41.7559L40.6309 12.5078C40.4434 12.5078 40.1621 12.4961 39.7871 12.4727C38.8027 12.4375 38.0879 12.4199 37.6426 12.4199C37.5137 12.4199 37.3203 12.4258 37.0625 12.4375C37.0156 12.7656 36.9922 13 36.9922 13.1406L36.9043 15.4258L36.834 17.0781C37.3379 16.832 37.8652 16.6504 38.416 16.5332C38.9785 16.4043 39.5586 16.3398 40.1562 16.3398C41.0352 16.3398 41.8906 16.5098 42.7227 16.8496C43.5664 17.1895 44.3047 17.6699 44.9375 18.291C45.4062 18.7598 45.8633 19.3867 46.3086 20.1719C46.625 20.7344 46.8008 21.1562 46.8359 21.4375C46.9766 22.4688 47.0469 23.0137 47.0469 23.0723C47.0469 23.9746 46.9473 24.8008 46.748 25.5508C46.5605 26.2891 46.1387 27.1152 45.4824 28.0293C44.8262 28.9434 44.2344 29.5762 43.707 29.9277C42.9102 30.4668 42.043 30.8418 41.1055 31.0527C40.1797 31.2754 39.043 31.3867 37.6953 31.3867C36.1133 31.3867 34.7891 31.0059 33.7227 30.2441C33.0898 29.7871 32.7734 29.2129 32.7734 28.5215C32.7734 28.0176 32.9551 27.584 33.3184 27.2207C33.6934 26.8574 34.1504 26.6758 34.6895 26.6758C35.5215 26.6758 36.3652 27.209 37.2207 28.2754C37.7246 28.9199 38.1055 29.3125 38.3633 29.4531C38.7617 29.6758 39.2129 29.7871 39.7168 29.7871C40.3848 29.7871 41.0352 29.5879 41.668 29.1895C42.3125 28.7793 42.834 28.1641 43.2324 27.3438C43.6426 26.5117 43.8477 25.7383 43.8477 25.0234C43.8477 23.793 43.4258 22.7383 42.582 21.8594C41.75 20.9688 40.7539 20.5234 39.5938 20.5234C38.9961 20.5234 38.4746 20.5938 38.0293 20.7344C37.8066 20.8047 37.3906 21.0449 36.7812 21.4551L36.0254 21.9473C35.8848 22.0059 35.75 22.0352 35.6211 22.0352C35.4453 22.0352 35.2988 21.9883 35.1816 21.8945C35.0996 21.8125 35.0586 21.7012 35.0586 21.5605L35.2695 15.9883C35.2695 15.7422 35.2812 15.5254 35.3047 15.3379C35.3281 15.1504 35.3457 14.6641 35.3574 13.8789C35.3809 13.082 35.4043 12.5137 35.4277 12.1738C35.4629 11.6699 35.4863 11.2539 35.498 10.9258C35.498 10.6914 35.5098 10.4629 35.5332 10.2402C35.5449 10.0879 35.5508 9.97656 35.5508 9.90625L35.5332 9.25586C35.5332 8.98633 35.7207 8.79297 36.0957 8.67578C36.2949 8.61719 37.2324 8.58789 38.9082 8.58789L42.9512 8.64062C43.5957 8.64062 44.0059 8.59961 44.1816 8.51758C44.3691 8.42383 44.5332 8.22461 44.6738 7.91992ZM50.1934 36.1855C50.2168 36.0918 50.2578 36.0215 50.3164 35.9746C50.375 35.9277 50.5742 35.8164 50.9141 35.6406C51.582 35.3125 52.1445 34.8438 52.6016 34.2344C53.0586 33.625 53.2871 33.0332 53.2871 32.459C53.2871 32.1309 53.2168 31.873 53.0762 31.6855C52.9238 31.498 52.5078 31.2168 51.8281 30.8418C51.1484 30.4668 50.6973 30.127 50.4746 29.8223C50.252 29.5059 50.1406 29.084 50.1406 28.5566C50.1406 27.8887 50.3809 27.3262 50.8613 26.8691C51.3535 26.4004 52.0039 26.166 52.8125 26.166C53.75 26.166 54.5938 26.5879 55.3438 27.4316C56.1055 28.2637 56.4863 29.3066 56.4863 30.5605C56.4863 31.2754 56.3633 32.0137 56.1172 32.7754C55.8828 33.5371 55.584 34.1582 55.2207 34.6387C54.8691 35.1191 54.3066 35.6699 53.5332 36.291C53.3809 36.4082 52.7539 36.7598 51.6523 37.3457C51.5 37.416 51.3477 37.4512 51.1953 37.4512C51.0195 37.4512 50.8613 37.3867 50.7207 37.2578C50.5918 37.1289 50.416 36.7715 50.1934 36.1855ZM61.0742 31.4922C60.8867 31.2695 60.793 31.0527 60.793 30.8418C60.793 30.6426 60.8516 30.4844 60.9688 30.3672C61.0273 30.2852 61.3672 30.127 61.9883 29.8926C63.207 29.4238 64.2559 28.8613 65.1348 28.2051C66.0137 27.5371 66.752 26.7344 67.3496 25.7969C67.9473 24.8477 68.3691 23.8281 68.6152 22.7383C68.873 21.6367 69.0137 20.7695 69.0371 20.1367C69.0488 19.9258 69.1016 19.416 69.1953 18.6074C69.2656 18.0098 69.3008 17.2891 69.3008 16.4453C69.3008 13.457 68.9375 11.4062 68.2109 10.293C67.6602 9.46094 66.9805 9.04492 66.1719 9.04492C65.4219 9.04492 64.7832 9.40234 64.2559 10.1172C63.541 11.0898 63.1836 12.4785 63.1836 14.2832C63.1836 15.3965 63.2539 16.4395 63.3945 17.4121C63.4883 18.0566 63.6992 18.6484 64.0273 19.1875C64.2383 19.5391 64.4375 19.7676 64.625 19.873C65.082 20.0957 65.5391 20.207 65.9961 20.207C66.2891 20.207 66.5938 20.1602 66.9102 20.0664L67.1738 20.0137C67.3145 20.0137 67.4434 20.084 67.5605 20.2246C67.6777 20.3535 67.7363 20.5469 67.7363 20.8047C67.7363 21.25 67.5605 21.5371 67.209 21.666C66.459 21.9473 65.6445 22.0879 64.7656 22.0879C64.2148 22.0879 63.8691 22.0645 63.7285 22.0176C62.627 21.6191 61.9414 21.3203 61.6719 21.1211C60.9922 20.6289 60.4707 20.1309 60.1074 19.627C59.7559 19.1113 59.4922 18.5254 59.3164 17.8691C59.0938 17.002 58.9824 16.1289 58.9824 15.25C58.9824 13.8555 59.293 12.5664 59.9141 11.3828C60.5469 10.1875 61.4082 9.29102 62.498 8.69336C63.5996 8.0957 64.7773 7.79688 66.0312 7.79688C68.2578 7.79688 70.1094 8.64648 71.5859 10.3457C73.0742 12.0449 73.8184 14.5 73.8184 17.7109C73.8184 19.293 73.5137 20.9805 72.9043 22.7734C72.752 23.2188 72.3242 24.0566 71.6211 25.2871C70.918 26.5059 69.9688 27.6191 68.7734 28.627C67.5781 29.623 66.3184 30.3555 64.9941 30.8242C63.6699 31.293 62.5859 31.5273 61.7422 31.5273C61.5898 31.5273 61.3672 31.5156 61.0742 31.4922ZM77.9492 31.4922C77.7617 31.2695 77.668 31.0527 77.668 30.8418C77.668 30.6426 77.7266 30.4844 77.8438 30.3672C77.9023 30.2852 78.2422 30.127 78.8633 29.8926C80.082 29.4238 81.1309 28.8613 82.0098 28.2051C82.8887 27.5371 83.627 26.7344 84.2246 25.7969C84.8223 24.8477 85.2441 23.8281 85.4902 22.7383C85.748 21.6367 85.8887 20.7695 85.9121 20.1367C85.9238 19.9258 85.9766 19.416 86.0703 18.6074C86.1406 18.0098 86.1758 17.2891 86.1758 16.4453C86.1758 13.457 85.8125 11.4062 85.0859 10.293C84.5352 9.46094 83.8555 9.04492 83.0469 9.04492C82.2969 9.04492 81.6582 9.40234 81.1309 10.1172C80.416 11.0898 80.0586 12.4785 80.0586 14.2832C80.0586 15.3965 80.1289 16.4395 80.2695 17.4121C80.3633 18.0566 80.5742 18.6484 80.9023 19.1875C81.1133 19.5391 81.3125 19.7676 81.5 19.873C81.957 20.0957 82.4141 20.207 82.8711 20.207C83.1641 20.207 83.4688 20.1602 83.7852 20.0664L84.0488 20.0137C84.1895 20.0137 84.3184 20.084 84.4355 20.2246C84.5527 20.3535 84.6113 20.5469 84.6113 20.8047C84.6113 21.25 84.4355 21.5371 84.084 21.666C83.334 21.9473 82.5195 22.0879 81.6406 22.0879C81.0898 22.0879 80.7441 22.0645 80.6035 22.0176C79.502 21.6191 78.8164 21.3203 78.5469 21.1211C77.8672 20.6289 77.3457 20.1309 76.9824 19.627C76.6309 19.1113 76.3672 18.5254 76.1914 17.8691C75.9688 17.002 75.8574 16.1289 75.8574 15.25C75.8574 13.8555 76.168 12.5664 76.7891 11.3828C77.4219 10.1875 78.2832 9.29102 79.373 8.69336C80.4746 8.0957 81.6523 7.79688 82.9062 7.79688C85.1328 7.79688 86.9844 8.64648 88.4609 10.3457C89.9492 12.0449 90.6934 14.5 90.6934 17.7109C90.6934 19.293 90.3887 20.9805 89.7793 22.7734C89.627 23.2188 89.1992 24.0566 88.4961 25.2871C87.793 26.5059 86.8438 27.6191 85.6484 28.627C84.4531 29.623 83.1934 30.3555 81.8691 30.8242C80.5449 31.293 79.4609 31.5273 78.6172 31.5273C78.4648 31.5273 78.2422 31.5156 77.9492 31.4922ZM94.8242 31.4922C94.6367 31.2695 94.543 31.0527 94.543 30.8418C94.543 30.6426 94.6016 30.4844 94.7188 30.3672C94.7773 30.2852 95.1172 30.127 95.7383 29.8926C96.957 29.4238 98.0059 28.8613 98.8848 28.2051C99.7637 27.5371 100.502 26.7344 101.1 25.7969C101.697 24.8477 102.119 23.8281 102.365 22.7383C102.623 21.6367 102.764 20.7695 102.787 20.1367C102.799 19.9258 102.852 19.416 102.945 18.6074C103.016 18.0098 103.051 17.2891 103.051 16.4453C103.051 13.457 102.688 11.4062 101.961 10.293C101.41 9.46094 100.73 9.04492 99.9219 9.04492C99.1719 9.04492 98.5332 9.40234 98.0059 10.1172C97.291 11.0898 96.9336 12.4785 96.9336 14.2832C96.9336 15.3965 97.0039 16.4395 97.1445 17.4121C97.2383 18.0566 97.4492 18.6484 97.7773 19.1875C97.9883 19.5391 98.1875 19.7676 98.375 19.873C98.832 20.0957 99.2891 20.207 99.7461 20.207C100.039 20.207 100.344 20.1602 100.66 20.0664L100.924 20.0137C101.064 20.0137 101.193 20.084 101.311 20.2246C101.428 20.3535 101.486 20.5469 101.486 20.8047C101.486 21.25 101.311 21.5371 100.959 21.666C100.209 21.9473 99.3945 22.0879 98.5156 22.0879C97.9648 22.0879 97.6191 22.0645 97.4785 22.0176C96.377 21.6191 95.6914 21.3203 95.4219 21.1211C94.7422 20.6289 94.2207 20.1309 93.8574 19.627C93.5059 19.1113 93.2422 18.5254 93.0664 17.8691C92.8438 17.002 92.7324 16.1289 92.7324 15.25C92.7324 13.8555 93.043 12.5664 93.6641 11.3828C94.2969 10.1875 95.1582 9.29102 96.248 8.69336C97.3496 8.0957 98.5273 7.79688 99.7812 7.79688C102.008 7.79688 103.859 8.64648 105.336 10.3457C106.824 12.0449 107.568 14.5 107.568 17.7109C107.568 19.293 107.264 20.9805 106.654 22.7734C106.502 23.2188 106.074 24.0566 105.371 25.2871C104.668 26.5059 103.719 27.6191 102.523 28.627C101.328 29.623 100.068 30.3555 98.7441 30.8242C97.4199 31.293 96.3359 31.5273 95.4922 31.5273C95.3398 31.5273 95.1172 31.5156 94.8242 31.4922Z" fill="#D6CB89"/>
<path d="M26.8203 54.9844C26.0391 54.9531 24.9922 54.9375 23.6797 54.9375L21.9844 54.9844L21.2266 54.9609L20.625 54.9844C20.5625 54.9792 20.4714 54.9661 20.3516 54.9453C20.4453 54.7266 20.5651 54.526 20.7109 54.3438C21.1432 53.8125 21.776 53.1276 22.6094 52.2891C23.776 51.1172 24.5443 50.1979 24.9141 49.5312C25.2839 48.8594 25.4688 48.2292 25.4688 47.6406C25.4688 47.0885 25.2812 46.625 24.9062 46.25C24.5312 45.875 24.0703 45.6875 23.5234 45.6875C23.1953 45.6875 22.8776 45.7656 22.5703 45.9219C22.263 46.0729 22.0156 46.2656 21.8281 46.5C21.7083 46.651 21.5495 46.9531 21.3516 47.4062C21.2422 47.6562 21.1771 47.7917 21.1562 47.8125C21.125 47.849 21.0885 47.8672 21.0469 47.8672C21.0052 47.8672 20.9635 47.8464 20.9219 47.8047C20.8854 47.7578 20.8672 47.7005 20.8672 47.6328C20.8672 47.3984 20.9844 47.0234 21.2188 46.5078C21.4583 45.9922 21.8073 45.5885 22.2656 45.2969C22.7292 45.0052 23.2656 44.8594 23.875 44.8594C24.6719 44.8594 25.3359 45.1198 25.8672 45.6406C26.4036 46.1562 26.6719 46.7734 26.6719 47.4922C26.6719 48.0599 26.4896 48.638 26.125 49.2266C25.7604 49.8099 24.9219 50.7057 23.6094 51.9141C23.1771 52.3099 22.8698 52.6016 22.6875 52.7891C22.5052 52.9766 22.138 53.3828 21.5859 54.0078C22.3828 54.0391 23.1068 54.0547 23.7578 54.0547C23.8984 54.0547 24.0521 54.0495 24.2188 54.0391C24.526 54.0286 24.7057 54.0234 24.7578 54.0234L25.8438 54.0469C25.9635 54.0469 26.0859 53.9896 26.2109 53.875C26.3359 53.7604 26.5052 53.4375 26.7188 52.9062L26.9062 52.8984C26.9323 52.8984 26.9714 52.901 27.0234 52.9062C27.0495 52.9583 27.0625 52.9974 27.0625 53.0234L27.0469 53.0859C27.0052 53.237 26.9688 53.513 26.9375 53.9141C26.9167 54.1484 26.8776 54.5052 26.8203 54.9844ZM30.5156 50.0078C30.0104 49.737 29.6667 49.5208 29.4844 49.3594C29.224 49.1354 29.0052 48.8464 28.8281 48.4922C28.6562 48.138 28.5703 47.776 28.5703 47.4062C28.5703 46.7604 28.8255 46.1771 29.3359 45.6562C29.8516 45.1302 30.4818 44.8672 31.2266 44.8672C32.0651 44.8672 32.7292 45.0885 33.2188 45.5312C33.7083 45.974 33.9531 46.513 33.9531 47.1484C33.9531 47.5026 33.8802 47.8255 33.7344 48.1172C33.5885 48.4089 33.3724 48.6719 33.0859 48.9062C32.8932 49.0677 32.5625 49.2682 32.0938 49.5078C32.8073 49.888 33.2318 50.1328 33.3672 50.2422C33.6484 50.4609 33.8854 50.75 34.0781 51.1094C34.2708 51.4688 34.3672 51.8672 34.3672 52.3047C34.3672 53.1224 34.0833 53.8125 33.5156 54.375C32.9531 54.9375 32.2344 55.2188 31.3594 55.2188C30.4583 55.2188 29.7396 54.974 29.2031 54.4844C28.6719 53.9896 28.4062 53.3802 28.4062 52.6562C28.4062 52.2448 28.4766 51.8724 28.6172 51.5391C28.7578 51.2005 28.9766 50.9115 29.2734 50.6719C29.5026 50.4896 29.9167 50.2682 30.5156 50.0078ZM31.7422 49.3281C32.1797 49.0885 32.4844 48.8411 32.6562 48.5859C32.9375 48.1641 33.0781 47.6849 33.0781 47.1484C33.0781 46.7318 32.9948 46.375 32.8281 46.0781C32.6615 45.776 32.4375 45.5599 32.1562 45.4297C31.8802 45.2995 31.5807 45.2344 31.2578 45.2344C30.7422 45.2344 30.3177 45.4115 29.9844 45.7656C29.651 46.1198 29.4844 46.5547 29.4844 47.0703C29.4844 47.3724 29.5286 47.625 29.6172 47.8281C29.7057 48.026 29.8464 48.2109 30.0391 48.3828C30.1641 48.4974 30.4557 48.7031 30.9141 49C30.9818 49.0417 31.1458 49.1068 31.4062 49.1953C31.4844 49.2214 31.5964 49.2656 31.7422 49.3281ZM30.8984 50.1797C30.5234 50.3776 30.2604 50.5521 30.1094 50.7031C29.8802 50.9219 29.7005 51.1823 29.5703 51.4844C29.4401 51.7865 29.375 52.2031 29.375 52.7344C29.375 53.2917 29.4974 53.7292 29.7422 54.0469C30.1484 54.5729 30.6797 54.8359 31.3359 54.8359C31.9349 54.8359 32.4245 54.6458 32.8047 54.2656C33.1901 53.8854 33.3828 53.3958 33.3828 52.7969C33.3828 52.1458 33.1875 51.6302 32.7969 51.25C32.4115 50.8698 31.7786 50.513 30.8984 50.1797ZM41.1484 44.7656C41.1953 44.8438 41.2292 44.9297 41.25 45.0234C41.2188 45.0807 41.1693 45.1198 41.1016 45.1406C40.8828 45.1979 40.5599 45.349 40.1328 45.5938C40.0339 45.6458 39.7318 45.888 39.2266 46.3203C39.0026 46.4766 38.7318 46.7682 38.4141 47.1953C37.9818 47.7682 37.6719 48.2812 37.4844 48.7344C37.2969 49.1823 37.1302 49.7708 36.9844 50.5C36.9427 50.7083 36.9141 51.0755 36.8984 51.6016L36.875 51.8906C36.875 52.5573 37.0703 53.224 37.4609 53.8906C37.8568 54.5521 38.349 54.8828 38.9375 54.8828C39.2448 54.8828 39.5312 54.7891 39.7969 54.6016C40.0677 54.4141 40.2812 54.0964 40.4375 53.6484C40.5938 53.2005 40.6719 52.6589 40.6719 52.0234C40.6719 51.1589 40.5052 50.5208 40.1719 50.1094C39.8438 49.6927 39.4479 49.4844 38.9844 49.4844C38.8438 49.4844 38.7188 49.5052 38.6094 49.5469L38.5469 49.5625C38.4792 49.5625 38.4089 49.487 38.3359 49.3359C38.4714 49.2474 38.6354 49.1745 38.8281 49.1172C39.0208 49.0599 39.1458 49.0312 39.2031 49.0312C39.2396 49.0312 39.4766 49.0703 39.9141 49.1484L40.1406 49.2578C40.3906 49.3359 40.5807 49.4271 40.7109 49.5312C40.9505 49.724 41.1641 49.9661 41.3516 50.2578C41.4453 50.4089 41.5703 50.7161 41.7266 51.1797C41.737 51.2109 41.7734 51.4401 41.8359 51.8672L41.7969 52.6484C41.6875 53.1172 41.5833 53.4453 41.4844 53.6328C41.3385 53.9193 41.0938 54.2318 40.75 54.5703C40.5729 54.7422 40.3438 54.8828 40.0625 54.9922C39.6667 55.1432 39.2474 55.2188 38.8047 55.2188C37.9609 55.2188 37.2448 54.8828 36.6562 54.2109C36.0729 53.5339 35.7812 52.5547 35.7812 51.2734C35.7812 50.5599 35.8906 49.8854 36.1094 49.25C36.3281 48.6094 36.638 48.0234 37.0391 47.4922C37.3099 47.1328 37.6771 46.7474 38.1406 46.3359C38.6094 45.9245 39.0521 45.6042 39.4688 45.375C40.0365 45.0729 40.5964 44.8698 41.1484 44.7656ZM48.9062 43.8594H49.5938L44.0859 57.1641H43.4062L48.9062 43.8594ZM50.6094 54.8203C50.7708 54.7109 51.0625 54.6328 51.4844 54.5859C51.8125 54.5703 52.0078 54.5417 52.0703 54.5C52.112 54.4688 52.1432 54.4297 52.1641 54.3828C52.2422 54.1901 52.2995 53.6667 52.3359 52.8125C52.3828 51.7031 52.4583 50.2266 52.5625 48.3828C52.6458 46.9766 52.6875 46.099 52.6875 45.75V45.5469C52.3125 45.4688 51.7188 45.3854 50.9062 45.2969C50.8542 45.2188 50.8281 45.1589 50.8281 45.1172C50.8281 45.0911 50.8464 45.0443 50.8828 44.9766C50.9714 44.9453 51.0391 44.9297 51.0859 44.9297C51.1276 44.9297 51.2188 44.9401 51.3594 44.9609C51.6146 44.9974 51.9661 45.0156 52.4141 45.0156C52.5599 45.0156 52.8099 45.0052 53.1641 44.9844C53.4141 44.9688 53.5547 44.9609 53.5859 44.9609C53.6693 44.9609 53.7656 44.974 53.875 45C53.9271 45.0521 53.9661 45.1016 53.9922 45.1484L54.3203 45.8828L56.5312 50.7734L57.4453 52.8281C58.1693 51.3958 58.7318 50.1224 59.1328 49.0078C59.1589 48.9245 59.1901 48.849 59.2266 48.7812C59.2734 48.6927 59.3177 48.5938 59.3594 48.4844C59.401 48.375 59.5703 47.9583 59.8672 47.2344C59.987 46.9427 60.0833 46.6927 60.1562 46.4844C60.4531 45.651 60.6276 45.1745 60.6797 45.0547C60.7786 45.0182 60.8646 45 60.9375 45C61.0208 45 61.1276 45.0052 61.2578 45.0156C61.5495 45.0312 62.0234 45.0391 62.6797 45.0391C63.0859 45.0391 63.4193 45.0339 63.6797 45.0234C63.6901 45.0807 63.6953 45.1224 63.6953 45.1484C63.6953 45.1849 63.6875 45.2344 63.6719 45.2969C63.5052 45.3854 63.3047 45.4349 63.0703 45.4453C62.6068 45.4714 62.3125 45.5078 62.1875 45.5547C62.0625 45.6016 61.9818 45.6615 61.9453 45.7344C61.9141 45.8073 61.8854 46.0469 61.8594 46.4531L61.8672 46.8125L61.8594 47.1875C61.8594 47.9688 61.8802 49.2812 61.9219 51.125L61.9141 52.6562L61.9219 53.6406C61.9219 54.026 61.9401 54.2552 61.9766 54.3281C62.013 54.3958 62.1172 54.4609 62.2891 54.5234C62.5703 54.6172 63.0286 54.7135 63.6641 54.8125C63.7005 54.8385 63.7188 54.8724 63.7188 54.9141C63.7188 54.9609 63.7161 55.013 63.7109 55.0703H63.3516C63.0443 55.0703 62.7109 55.0599 62.3516 55.0391C61.9922 55.0234 61.7995 55.0156 61.7734 55.0156C60.7057 55.0156 59.9974 55.026 59.6484 55.0469C59.4349 55.0625 59.2995 55.0703 59.2422 55.0703C59.2057 55.0703 59.1667 55.0599 59.125 55.0391V54.9375C59.125 54.8906 59.1328 54.8411 59.1484 54.7891C59.3203 54.7161 59.5547 54.6667 59.8516 54.6406C60.1797 54.5521 60.4193 54.4583 60.5703 54.3594C60.6172 54.1615 60.6406 53.7578 60.6406 53.1484L60.6172 51.5703C60.6172 51.3984 60.625 51.0781 60.6406 50.6094C60.6615 50.1406 60.6719 49.3776 60.6719 48.3203C60.6719 47.4818 60.651 46.8464 60.6094 46.4141C60.5208 46.5964 60.3464 46.9922 60.0859 47.6016L59.9688 47.8984L59.9531 47.9453L58.7969 50.6797L58.3828 51.7344L57.8438 53.0156C57.6094 53.6042 57.4089 54.125 57.2422 54.5781C57.1693 54.7865 57.1094 54.9505 57.0625 55.0703L56.8828 55.0625C56.2943 53.3438 55.5911 51.5807 54.7734 49.7734C53.9609 47.9661 53.3906 46.7734 53.0625 46.1953C53.0208 46.4193 52.974 47.0703 52.9219 48.1484C52.8542 49.4609 52.8203 50.9062 52.8203 52.4844C52.8203 52.9792 52.8568 53.5365 52.9297 54.1562C52.9505 54.3333 53.026 54.4661 53.1562 54.5547C53.2865 54.638 53.6224 54.6849 54.1641 54.6953C54.3724 54.6953 54.5703 54.7109 54.7578 54.7422C54.7943 54.8203 54.8125 54.8776 54.8125 54.9141C54.8125 54.9401 54.7995 54.9844 54.7734 55.0469L52.3438 54.9609C52.1667 54.9609 51.8906 54.974 51.5156 55C51.3073 55.0156 51.0078 55.026 50.6172 55.0312L50.6094 54.8203ZM64.4141 51.8594C64.4141 51.5052 64.487 51.1276 64.6328 50.7266C64.7839 50.3203 65.0104 49.9583 65.3125 49.6406C65.6146 49.3177 65.9349 49.0781 66.2734 48.9219C66.7474 48.7031 67.3255 48.5938 68.0078 48.5938C68.9818 48.5938 69.7943 48.9271 70.4453 49.5938C71.1016 50.2604 71.4297 51.0625 71.4297 52C71.4297 52.8333 71.0859 53.5781 70.3984 54.2344C69.7161 54.8854 68.8516 55.2109 67.8047 55.2109C67.1589 55.2109 66.5495 55.0417 65.9766 54.7031C65.5495 54.4479 65.1823 54.0703 64.875 53.5703C64.5677 53.0703 64.4141 52.5 64.4141 51.8594ZM67.8672 54.9062C68.263 54.9062 68.6432 54.7995 69.0078 54.5859C69.3776 54.3724 69.6719 54.0312 69.8906 53.5625C70.1094 53.0885 70.2188 52.5417 70.2188 51.9219C70.2188 51.5156 70.1328 51.0443 69.9609 50.5078C69.7943 49.9714 69.5339 49.5703 69.1797 49.3047C68.8307 49.0339 68.4193 48.8984 67.9453 48.8984C67.6016 48.8984 67.25 48.9792 66.8906 49.1406C66.5365 49.3021 66.2344 49.612 65.9844 50.0703C65.7396 50.5286 65.6172 51.1797 65.6172 52.0234C65.6172 52.9714 65.8307 53.6901 66.2578 54.1797C66.6901 54.6641 67.2266 54.9062 67.8672 54.9062ZM72.3125 54.75C72.4427 54.7135 72.5938 54.6823 72.7656 54.6562C73.0938 54.6094 73.2891 54.5547 73.3516 54.4922C73.4193 54.4297 73.4531 54.2865 73.4531 54.0625L73.4688 53.7812C73.474 53.6771 73.4766 53.5443 73.4766 53.3828L73.4609 50.9844C73.4609 50.6615 73.4193 50.4531 73.3359 50.3594C73.1953 50.2135 72.9349 50.112 72.5547 50.0547V49.7734C72.9349 49.6693 73.2266 49.5339 73.4297 49.3672C73.7266 49.1328 73.9766 48.8151 74.1797 48.4141L74.4453 48.4219C74.4609 48.6667 74.4688 48.8411 74.4688 48.9453V49.4609L74.4766 49.6016C74.5391 49.5599 74.612 49.5078 74.6953 49.4453C75.0078 49.2109 75.3281 49.0208 75.6562 48.875C75.9844 48.724 76.276 48.6198 76.5312 48.5625C76.6927 48.5208 76.875 48.5 77.0781 48.5C77.5052 48.5 77.8724 48.6146 78.1797 48.8438C78.487 49.0729 78.6849 49.3438 78.7734 49.6562C78.8672 49.9635 78.9141 50.5781 78.9141 51.5V52.6797C78.9141 52.7109 78.9089 52.8151 78.8984 52.9922C78.8932 53.1693 78.8906 53.3724 78.8906 53.6016C78.8906 53.9661 78.9062 54.1979 78.9375 54.2969C78.9635 54.3646 79.0312 54.4323 79.1406 54.5C79.6406 54.5677 79.9323 54.6484 80.0156 54.7422V54.8047C80.0156 54.8568 80 54.9219 79.9688 55H79.8203L78.7891 54.9922L77.7734 55.0078C77.3984 55.0182 77.0521 55.0156 76.7344 55L76.6875 54.8359C76.6875 54.8047 76.7057 54.763 76.7422 54.7109C76.8828 54.6484 77.0807 54.6068 77.3359 54.5859C77.487 54.5755 77.5911 54.5599 77.6484 54.5391C77.7057 54.5182 77.776 54.4766 77.8594 54.4141C77.9219 54.2891 77.9531 54.1849 77.9531 54.1016C77.9531 54.0651 77.9479 53.9922 77.9375 53.8828C77.9219 53.6432 77.9115 53.0469 77.9062 52.0938V51.6875L77.9219 51.0625C77.9219 50.3906 77.7865 49.9271 77.5156 49.6719C77.2448 49.4167 76.8828 49.2891 76.4297 49.2891C76.0807 49.2891 75.7396 49.3672 75.4062 49.5234C75.0729 49.6745 74.75 49.9036 74.4375 50.2109C74.4271 50.4609 74.4219 50.6745 74.4219 50.8516L74.4453 52.5781C74.4453 53.4792 74.4583 54.0312 74.4844 54.2344C74.4948 54.3177 74.513 54.375 74.5391 54.4062C74.5807 54.4479 74.6641 54.4818 74.7891 54.5078C74.9141 54.5339 75.0573 54.5703 75.2188 54.6172C75.3854 54.6641 75.4948 54.6927 75.5469 54.7031C75.651 54.7292 75.7214 54.7812 75.7578 54.8594L75.75 55.0156H74.9297L73.2422 54.9922C72.8516 55.0026 72.6042 55.0078 72.5 55.0078H72.3047L72.2891 54.9062C72.2891 54.8698 72.2969 54.8177 72.3125 54.75ZM82.4219 47.2812L82.6641 47.2891L82.6953 48.0312L82.6797 48.9922C82.7786 48.9974 82.8411 49 82.8672 49C83.0026 49 83.2604 48.9896 83.6406 48.9688C83.8854 48.9531 84.1198 48.9453 84.3438 48.9453C84.4479 48.9453 84.6042 48.9479 84.8125 48.9531C84.8229 49.0573 84.8281 49.1406 84.8281 49.2031C84.8281 49.2708 84.8125 49.3776 84.7812 49.5234H84.6484L83.4375 49.5625L82.8359 49.5781L82.6953 49.5938C82.6536 49.724 82.6328 49.875 82.6328 50.0469L82.6562 51.2188L82.6406 53.2812C82.6406 53.8229 82.7109 54.1823 82.8516 54.3594C82.987 54.5417 83.1901 54.6328 83.4609 54.6328C83.5964 54.6328 83.8516 54.5911 84.2266 54.5078C84.3411 54.4818 84.4948 54.3958 84.6875 54.25H84.7578C84.8047 54.25 84.8411 54.2656 84.8672 54.2969C84.8984 54.3229 84.9141 54.3594 84.9141 54.4062L84.9062 54.4609C84.6823 54.7057 84.4245 54.8854 84.1328 55C83.8464 55.1094 83.4635 55.1641 82.9844 55.1641C82.6458 55.1641 82.3646 55.0859 82.1406 54.9297C81.9219 54.7734 81.7812 54.5885 81.7188 54.375C81.6562 54.1615 81.625 53.6953 81.625 52.9766L81.6562 51.2188L81.6484 50.375V50.0625C81.6484 49.9167 81.6432 49.7708 81.6328 49.625L81.5 49.6172L80.8594 49.6406L80.7969 49.6484C80.7396 49.6484 80.6953 49.6354 80.6641 49.6094C80.638 49.5833 80.625 49.5521 80.625 49.5156C80.625 49.4531 80.6432 49.4036 80.6797 49.3672C80.7214 49.3255 80.8411 49.263 81.0391 49.1797C81.1745 49.1224 81.3307 49.0156 81.5078 48.8594C81.6901 48.6979 81.8438 48.5208 81.9688 48.3281C82.0312 48.224 82.1198 48.026 82.2344 47.7344C82.3177 47.5208 82.3802 47.3698 82.4219 47.2812ZM85.1562 54.8125C85.7656 54.7031 86.1172 54.6198 86.2109 54.5625C86.2682 54.526 86.2969 54.4427 86.2969 54.3125L86.2891 53.7969L86.2969 52.8828L86.2812 50.5547L86.2891 49.6875V49.0703L86.3125 48.3125C86.3125 47.125 86.2995 46.4167 86.2734 46.1875C86.2526 45.9531 86.2083 45.8073 86.1406 45.75C86.0156 45.6302 85.6719 45.5052 85.1094 45.375V45.3359C85.1094 45.2995 85.1146 45.2474 85.125 45.1797C85.1979 45.1693 85.2682 45.1562 85.3359 45.1406C85.4036 45.125 85.4688 45.1146 85.5312 45.1094C86.151 44.9323 86.6016 44.7604 86.8828 44.5938H87.2656C87.276 44.7396 87.2812 45.2005 87.2812 45.9766L87.2734 46.9688L87.2812 48.25L87.25 49.8281C87.25 49.9219 87.2552 50.026 87.2656 50.1406C87.5938 49.7604 87.8333 49.5078 87.9844 49.3828C88.2552 49.1641 88.5443 48.9922 88.8516 48.8672C89.1589 48.737 89.4818 48.6719 89.8203 48.6719C90.4609 48.6719 90.9844 48.9427 91.3906 49.4844C91.625 49.8021 91.7422 50.2526 91.7422 50.8359L91.7188 51.6328L91.7266 52.0781L91.6953 52.8516C91.6745 53.4922 91.6641 53.8724 91.6641 53.9922C91.6641 54.1276 91.6693 54.3099 91.6797 54.5391L92.125 54.6406C92.4219 54.7031 92.651 54.7604 92.8125 54.8125L92.8047 55.0547L91.1406 55.0078C91.0469 55.0078 90.7917 55.0182 90.375 55.0391C90.1198 55.0495 89.9714 55.0547 89.9297 55.0547H89.7578C89.7318 55.0078 89.7188 54.9688 89.7188 54.9375V54.8672C89.7917 54.7734 89.9271 54.7109 90.125 54.6797L90.5938 54.5703C90.6562 54.5182 90.6927 54.4635 90.7031 54.4062C90.724 54.2708 90.7474 53.599 90.7734 52.3906L90.7891 51.8125C90.8099 51.2031 90.763 50.6979 90.6484 50.2969C90.5755 50.0208 90.4089 49.8021 90.1484 49.6406C89.8932 49.474 89.5964 49.3906 89.2578 49.3906C88.9766 49.3906 88.7109 49.4505 88.4609 49.5703C88.2891 49.6589 88.0833 49.8125 87.8438 50.0312C87.6042 50.25 87.4375 50.4375 87.3438 50.5938C87.2812 50.6979 87.25 50.8698 87.25 51.1094L87.2578 51.6562L87.2422 52.2266C87.2422 52.2734 87.25 52.599 87.2656 53.2031L87.2578 53.7031L87.2734 54.25C87.2786 54.3281 87.2865 54.3854 87.2969 54.4219L88.3984 54.6875C88.4557 54.7031 88.5417 54.7344 88.6562 54.7812L88.6797 54.8672C88.6797 54.8932 88.6667 54.9349 88.6406 54.9922C88.4896 54.9974 88.375 55 88.2969 55L87.6875 54.9922L86.3438 55.0078L85.3359 55.0391C85.2839 55.0339 85.2057 55.0286 85.1016 55.0234L85.0938 54.9688C85.0938 54.9271 85.1146 54.875 85.1562 54.8125Z" fill="#D6CB89"/>
<path d="M4.10938 69.8203C4.27083 69.7109 4.5625 69.6328 4.98438 69.5859C5.3125 69.5703 5.50781 69.5417 5.57031 69.5C5.61198 69.4688 5.64323 69.4297 5.66406 69.3828C5.74219 69.1901 5.79948 68.6667 5.83594 67.8125C5.88281 66.7031 5.95833 65.2266 6.0625 63.3828C6.14583 61.9766 6.1875 61.099 6.1875 60.75V60.5469C5.8125 60.4688 5.21875 60.3854 4.40625 60.2969C4.35417 60.2188 4.32812 60.1589 4.32812 60.1172C4.32812 60.0911 4.34635 60.0443 4.38281 59.9766C4.47135 59.9453 4.53906 59.9297 4.58594 59.9297C4.6276 59.9297 4.71875 59.9401 4.85938 59.9609C5.11458 59.9974 5.46615 60.0156 5.91406 60.0156C6.0599 60.0156 6.3099 60.0052 6.66406 59.9844C6.91406 59.9688 7.05469 59.9609 7.08594 59.9609C7.16927 59.9609 7.26562 59.974 7.375 60C7.42708 60.0521 7.46615 60.1016 7.49219 60.1484L7.82031 60.8828L10.0312 65.7734L10.9453 67.8281C11.6693 66.3958 12.2318 65.1224 12.6328 64.0078C12.6589 63.9245 12.6901 63.849 12.7266 63.7812C12.7734 63.6927 12.8177 63.5938 12.8594 63.4844C12.901 63.375 13.0703 62.9583 13.3672 62.2344C13.487 61.9427 13.5833 61.6927 13.6562 61.4844C13.9531 60.651 14.1276 60.1745 14.1797 60.0547C14.2786 60.0182 14.3646 60 14.4375 60C14.5208 60 14.6276 60.0052 14.7578 60.0156C15.0495 60.0312 15.5234 60.0391 16.1797 60.0391C16.5859 60.0391 16.9193 60.0339 17.1797 60.0234C17.1901 60.0807 17.1953 60.1224 17.1953 60.1484C17.1953 60.1849 17.1875 60.2344 17.1719 60.2969C17.0052 60.3854 16.8047 60.4349 16.5703 60.4453C16.1068 60.4714 15.8125 60.5078 15.6875 60.5547C15.5625 60.6016 15.4818 60.6615 15.4453 60.7344C15.4141 60.8073 15.3854 61.0469 15.3594 61.4531L15.3672 61.8125L15.3594 62.1875C15.3594 62.9688 15.3802 64.2812 15.4219 66.125L15.4141 67.6562L15.4219 68.6406C15.4219 69.026 15.4401 69.2552 15.4766 69.3281C15.513 69.3958 15.6172 69.4609 15.7891 69.5234C16.0703 69.6172 16.5286 69.7135 17.1641 69.8125C17.2005 69.8385 17.2188 69.8724 17.2188 69.9141C17.2188 69.9609 17.2161 70.013 17.2109 70.0703H16.8516C16.5443 70.0703 16.2109 70.0599 15.8516 70.0391C15.4922 70.0234 15.2995 70.0156 15.2734 70.0156C14.2057 70.0156 13.4974 70.026 13.1484 70.0469C12.9349 70.0625 12.7995 70.0703 12.7422 70.0703C12.7057 70.0703 12.6667 70.0599 12.625 70.0391V69.9375C12.625 69.8906 12.6328 69.8411 12.6484 69.7891C12.8203 69.7161 13.0547 69.6667 13.3516 69.6406C13.6797 69.5521 13.9193 69.4583 14.0703 69.3594C14.1172 69.1615 14.1406 68.7578 14.1406 68.1484L14.1172 66.5703C14.1172 66.3984 14.125 66.0781 14.1406 65.6094C14.1615 65.1406 14.1719 64.3776 14.1719 63.3203C14.1719 62.4818 14.151 61.8464 14.1094 61.4141C14.0208 61.5964 13.8464 61.9922 13.5859 62.6016L13.4688 62.8984L13.4531 62.9453L12.2969 65.6797L11.8828 66.7344L11.3438 68.0156C11.1094 68.6042 10.9089 69.125 10.7422 69.5781C10.6693 69.7865 10.6094 69.9505 10.5625 70.0703L10.3828 70.0625C9.79427 68.3438 9.09115 66.5807 8.27344 64.7734C7.46094 62.9661 6.89062 61.7734 6.5625 61.1953C6.52083 61.4193 6.47396 62.0703 6.42188 63.1484C6.35417 64.4609 6.32031 65.9062 6.32031 67.4844C6.32031 67.9792 6.35677 68.5365 6.42969 69.1562C6.45052 69.3333 6.52604 69.4661 6.65625 69.5547C6.78646 69.638 7.1224 69.6849 7.66406 69.6953C7.8724 69.6953 8.07031 69.7109 8.25781 69.7422C8.29427 69.8203 8.3125 69.8776 8.3125 69.9141C8.3125 69.9401 8.29948 69.9844 8.27344 70.0469L5.84375 69.9609C5.66667 69.9609 5.39062 69.974 5.01562 70C4.80729 70.0156 4.50781 70.026 4.11719 70.0312L4.10938 69.8203ZM23.5547 60.3594C23.5964 60.7031 23.6172 60.901 23.6172 60.9531L23.5859 61.6484C23.5755 61.9453 23.5625 62.1354 23.5469 62.2188C23.5 62.2396 23.4609 62.25 23.4297 62.25L23.3594 62.2344C23.1927 61.5052 22.9089 60.974 22.5078 60.6406C22.112 60.3073 21.6276 60.1406 21.0547 60.1406C20.4609 60.1406 19.974 60.3073 19.5938 60.6406C19.2135 60.974 19.0234 61.362 19.0234 61.8047C19.0234 62.1432 19.1562 62.4531 19.4219 62.7344C19.6875 63.0156 20.3672 63.4375 21.4609 64C22.2943 64.4323 22.8906 64.7865 23.25 65.0625C23.6094 65.3333 23.8802 65.6484 24.0625 66.0078C24.2448 66.3672 24.3359 66.7682 24.3359 67.2109C24.3359 67.7682 24.1901 68.2917 23.8984 68.7812C23.612 69.2708 23.224 69.6406 22.7344 69.8906C22.2448 70.1354 21.5964 70.2578 20.7891 70.2578C20.0859 70.2578 19.4115 70.1458 18.7656 69.9219C18.3854 69.7865 18.1536 69.6771 18.0703 69.5938C17.987 69.5104 17.9453 69.4219 17.9453 69.3281C17.9453 69.2708 17.9505 69.1979 17.9609 69.1094C18.0339 68.4948 18.0729 67.9896 18.0781 67.5938C18.0885 67.349 18.1068 67.2057 18.1328 67.1641C18.1536 67.1276 18.1927 67.1094 18.25 67.1094C18.2969 67.1094 18.3333 67.1276 18.3594 67.1641C18.3906 67.1953 18.4115 67.2578 18.4219 67.3516C18.4792 67.9922 18.776 68.5651 19.3125 69.0703C19.8438 69.5755 20.4453 69.8281 21.1172 69.8281C21.5286 69.8281 21.9062 69.7422 22.25 69.5703C22.599 69.3984 22.8698 69.151 23.0625 68.8281C23.2604 68.5 23.3594 68.1823 23.3594 67.875C23.3594 67.4531 23.2109 67.0677 22.9141 66.7188C22.6172 66.3698 22.0208 65.9635 21.125 65.5C20.2292 65.0312 19.6458 64.6901 19.375 64.4766C18.9375 64.1276 18.6094 63.7578 18.3906 63.3672C18.2292 63.0651 18.1484 62.7135 18.1484 62.3125C18.1484 61.5885 18.4349 60.9766 19.0078 60.4766C19.5807 59.9714 20.349 59.7188 21.3125 59.7188C21.8438 59.7188 22.3021 59.7786 22.6875 59.8984C22.9688 59.9922 23.2578 60.1458 23.5547 60.3594ZM25.4531 69.7656C26.2135 69.6771 26.6432 69.6146 26.7422 69.5781C26.8099 69.5521 26.8724 69.474 26.9297 69.3438V69.2578C26.9297 69.1276 26.9505 68.6562 26.9922 67.8438C27.0026 67.6146 27.0078 67.3906 27.0078 67.1719L26.9844 66.2422L27 65.1875L26.9922 63.2266L27 61.8203C27.0052 61.2266 26.9583 60.8646 26.8594 60.7344C26.7656 60.6042 26.5182 60.513 26.1172 60.4609C25.7161 60.4036 25.4948 60.362 25.4531 60.3359C25.4115 60.3099 25.3906 60.2682 25.3906 60.2109C25.3906 60.1745 25.3984 60.1276 25.4141 60.0703C25.4661 60.0234 25.5859 59.9974 25.7734 59.9922C25.7995 59.9922 25.8698 59.987 25.9844 59.9766C26.1042 59.9609 26.2161 59.9531 26.3203 59.9531H26.9609L29.0156 59.9297C30.1771 59.9297 30.9896 60.0156 31.4531 60.1875C31.9219 60.3594 32.2943 60.651 32.5703 61.0625C32.8464 61.4688 32.9844 61.9245 32.9844 62.4297C32.9844 63.388 32.4818 64.1198 31.4766 64.625C31.3047 64.7135 31.1693 64.7917 31.0703 64.8594C31.2474 65.2344 31.4948 65.6849 31.8125 66.2109L32.8047 67.9141C33.2005 68.5391 33.474 68.9323 33.625 69.0938C33.776 69.25 33.9583 69.3802 34.1719 69.4844C34.3906 69.5885 34.7552 69.6875 35.2656 69.7812C35.2708 69.8333 35.2734 69.875 35.2734 69.9062C35.2734 69.9375 35.2708 69.9766 35.2656 70.0234C34.5521 70.0339 33.7161 70.0391 32.7578 70.0391C32.6901 70.0391 32.5964 70.0339 32.4766 70.0234C32.1068 69.3151 31.6719 68.5365 31.1719 67.6875L30.0156 65.5781C29.8594 65.3594 29.7292 65.224 29.625 65.1719C29.526 65.1146 29.3932 65.0859 29.2266 65.0859L28.5625 65.0938L28.3438 65.0859C28.3281 65.2526 28.3203 65.5938 28.3203 66.1094V68.7812C28.3151 68.8802 28.3359 69.0182 28.3828 69.1953C28.4245 69.2943 28.4948 69.375 28.5938 69.4375C28.6979 69.4948 28.9922 69.5833 29.4766 69.7031L29.7969 69.7812C29.8385 69.8333 29.8594 69.9036 29.8594 69.9922C29.7188 70.0182 29.6198 70.0312 29.5625 70.0312C29.0938 70.0312 28.763 70.026 28.5703 70.0156C28.4714 70.0104 28.3906 70.0078 28.3281 70.0078L27.2656 70.0234L26.2266 70.0156C26.1797 70.0156 25.9427 70.0234 25.5156 70.0391L25.3594 70.0078L25.3438 69.9297C25.3438 69.8828 25.3802 69.8281 25.4531 69.7656ZM28.3594 64.6562C28.5 64.6615 28.6042 64.6641 28.6719 64.6641C29.0469 64.6641 29.4792 64.6198 29.9688 64.5312C30.3125 64.4635 30.5911 64.3542 30.8047 64.2031C31.0182 64.0469 31.1953 63.8177 31.3359 63.5156C31.4818 63.2135 31.5547 62.901 31.5547 62.5781C31.5547 62.224 31.4427 61.849 31.2188 61.4531C31.0469 61.151 30.7552 60.8984 30.3438 60.6953C29.9375 60.4922 29.4479 60.3906 28.875 60.3906C28.7344 60.3906 28.5521 60.3984 28.3281 60.4141C28.3073 60.6849 28.2969 60.8932 28.2969 61.0391L28.3359 62.5L28.3281 63.1016C28.3281 63.5078 28.3385 64.026 28.3594 64.6562ZM35.3594 60.0234C35.4531 60.0078 35.513 60 35.5391 60C35.7161 60 36.0078 60.0104 36.4141 60.0312C36.6276 60.0365 36.7734 60.0391 36.8516 60.0391C36.9661 60.0391 37.2083 60.0286 37.5781 60.0078L38.9062 59.9297C39.2552 59.8984 39.6615 59.8828 40.125 59.8828C40.9427 59.8828 41.5938 60 42.0781 60.2344C42.5625 60.4635 42.9349 60.8255 43.1953 61.3203C43.4609 61.8151 43.5938 62.3073 43.5938 62.7969C43.5938 63.6146 43.3073 64.3203 42.7344 64.9141C42.1615 65.5078 41.3906 65.8047 40.4219 65.8047C40.151 65.8047 39.9245 65.7786 39.7422 65.7266C39.5599 65.6693 39.3516 65.5625 39.1172 65.4062C39.0182 65.3385 38.9583 65.2682 38.9375 65.1953C38.9583 65.1589 38.987 65.1328 39.0234 65.1172C39.0964 65.1172 39.1719 65.1328 39.25 65.1641C39.4271 65.2266 39.651 65.2578 39.9219 65.2578C40.3333 65.2578 40.7214 65.1562 41.0859 64.9531C41.4557 64.75 41.7344 64.4609 41.9219 64.0859C42.1094 63.7109 42.2031 63.3151 42.2031 62.8984C42.2031 62.4922 42.1042 62.099 41.9062 61.7188C41.7083 61.3333 41.4479 61.026 41.125 60.7969C40.9427 60.6667 40.6615 60.5573 40.2812 60.4688C39.9062 60.3802 39.6146 60.3359 39.4062 60.3359C38.7604 60.3359 38.3776 60.3828 38.2578 60.4766L38.25 60.5859L38.2812 61.4688L38.2734 61.625C38.263 61.7656 38.2578 61.9818 38.2578 62.2734C38.2578 63.3359 38.2734 63.9974 38.3047 64.2578V64.6953L38.4062 68.2656C38.4062 68.3177 38.3984 68.4141 38.3828 68.5547C38.3724 68.6953 38.3672 68.8177 38.3672 68.9219C38.3672 69.1719 38.388 69.362 38.4297 69.4922C38.5547 69.5286 38.9193 69.6146 39.5234 69.75C39.8047 69.8177 39.9583 69.8568 39.9844 69.8672C40.026 69.8828 40.0625 69.9167 40.0938 69.9688C40.0729 70.0469 40.0443 70.0964 40.0078 70.1172C39.9766 70.1432 39.9115 70.1562 39.8125 70.1562C39.75 70.1562 39.6042 70.1432 39.375 70.1172C38.9271 70.0703 38.5755 70.0469 38.3203 70.0469L36.9453 70.1016L36.125 70.0781C36.0729 70.0781 35.9219 70.0833 35.6719 70.0938L35.6641 69.8906L36.6797 69.6953C36.8464 69.6484 36.9479 69.6016 36.9844 69.5547C37.0365 69.4818 37.0625 69.3385 37.0625 69.125C37.0625 69.0781 37.0651 68.9766 37.0703 68.8203C37.0755 68.7109 37.0781 68.5599 37.0781 68.3672C37.0781 67.7526 37.0521 66.4427 37 64.4375C36.9792 63.5 36.9688 62.5469 36.9688 61.5781V61.4453C36.9688 61.0703 36.9115 60.8333 36.7969 60.7344C36.6042 60.5625 36.1224 60.4219 35.3516 60.3125C35.3255 60.2552 35.3125 60.2083 35.3125 60.1719C35.3125 60.1302 35.3281 60.0807 35.3594 60.0234ZM50.6328 69.5391C50.6901 69.1797 50.7214 68.3359 50.7266 67.0078L50.7422 66.6094L50.6953 65.1094C50.3776 64.974 50.0339 64.7708 49.6641 64.5C49.2995 64.2292 49.0443 63.9453 48.8984 63.6484C48.7578 63.3464 48.6875 63.0026 48.6875 62.6172C48.6875 62.0911 48.8438 61.6224 49.1562 61.2109C49.4688 60.7995 49.9089 60.5078 50.4766 60.3359L50.6172 60.2891V60.1797C50.6172 60.138 50.6328 59.9167 50.6641 59.5156L50.9531 59.5234C50.9792 59.8516 50.9922 60.099 50.9922 60.2656C51.1953 60.2448 51.3594 60.2344 51.4844 60.2344C51.6198 60.2344 51.7708 60.2448 51.9375 60.2656C52.0417 60.276 52.1276 60.2839 52.1953 60.2891V60.1797C52.1953 60.0755 52.2031 59.8594 52.2188 59.5312H52.5547C52.5703 59.6302 52.5781 59.7604 52.5781 59.9219C52.5781 60.0885 52.5807 60.2266 52.5859 60.3359C52.9922 60.4401 53.2969 60.5443 53.5 60.6484C53.7031 60.7474 53.9036 60.8802 54.1016 61.0469C54.1536 61.0885 54.25 61.2031 54.3906 61.3906C54.4375 61.4792 54.4609 61.5911 54.4609 61.7266C54.4609 61.8568 54.4141 61.9661 54.3203 62.0547C54.2266 62.1432 54.112 62.1875 53.9766 62.1875C53.8776 62.1875 53.7448 62.1224 53.5781 61.9922C53.5312 61.9297 53.4557 61.8411 53.3516 61.7266C53.0859 61.3464 52.9167 61.1276 52.8438 61.0703C52.776 61.0078 52.6719 60.9583 52.5312 60.9219C52.4948 61.4948 52.4766 61.8568 52.4766 62.0078C52.4766 62.0599 52.4818 62.151 52.4922 62.2812C52.513 62.4792 52.5234 62.8177 52.5234 63.2969L52.5078 64.8438C52.5391 64.875 52.5807 64.9036 52.6328 64.9297L53.3672 65.4141C53.5807 65.5547 53.7526 65.7161 53.8828 65.8984C54.1328 66.2526 54.3047 66.5703 54.3984 66.8516C54.4609 67.0495 54.4922 67.2995 54.4922 67.6016C54.4922 68.1536 54.3281 68.6406 54 69.0625C53.6771 69.4844 53.2656 69.776 52.7656 69.9375C52.6562 69.9688 52.5547 70.0078 52.4609 70.0547C52.4089 70.2995 52.3828 70.4453 52.3828 70.4922L52.4062 71.5781C52.4062 71.6406 52.3906 71.8255 52.3594 72.1328H52.0547C52.0443 71.9349 52.0391 71.7891 52.0391 71.6953C52.0391 71.6172 52.0469 71.3932 52.0625 71.0234C52.0677 70.9141 52.0703 70.8229 52.0703 70.75C52.0703 70.6667 52.0651 70.5625 52.0547 70.4375C52.0443 70.3177 52.0391 70.2135 52.0391 70.125C51.8984 70.151 51.5573 70.1693 51.0156 70.1797C50.974 70.4401 50.9453 70.7786 50.9297 71.1953C50.9193 71.6172 50.9089 71.9271 50.8984 72.125H50.6094C50.625 71.7083 50.6328 71.0599 50.6328 70.1797C50.5599 70.1641 50.4661 70.1432 50.3516 70.1172C49.7734 69.987 49.349 69.7891 49.0781 69.5234C48.8125 69.2526 48.6797 68.9896 48.6797 68.7344C48.6797 68.6146 48.7266 68.513 48.8203 68.4297C48.9141 68.3411 49.0208 68.2969 49.1406 68.2969C49.375 68.2969 49.6589 68.5156 49.9922 68.9531C50.237 69.276 50.4505 69.4714 50.6328 69.5391ZM50.9688 64.0703C51.1302 64.1641 51.4661 64.3333 51.9766 64.5781C52.0339 64.6198 52.0911 64.6484 52.1484 64.6641C52.1536 64.4766 52.1562 64.3672 52.1562 64.3359L52.2031 62.0547L52.1953 61.6016L52.2031 61.375C52.2031 61.151 52.1823 60.9245 52.1406 60.6953C51.8906 60.6484 51.6536 60.625 51.4297 60.625C51.2526 60.625 51.0911 60.651 50.9453 60.7031L50.9609 61.8203L50.9453 62.8672C50.9609 63.1589 50.9688 63.3828 50.9688 63.5391L50.9609 63.8984C50.9609 63.9245 50.9635 63.9818 50.9688 64.0703ZM50.6094 63.9062C50.625 63.6823 50.6328 63.5391 50.6328 63.4766V62.9844C50.6432 62.5156 50.6484 62.1927 50.6484 62.0156C50.6484 61.401 50.6354 60.987 50.6094 60.7734C50.2083 60.8724 49.9167 61.0443 49.7344 61.2891C49.4792 61.6276 49.3516 61.9688 49.3516 62.3125C49.3516 62.5625 49.4661 62.849 49.6953 63.1719C49.9245 63.4896 50.2292 63.7344 50.6094 63.9062ZM50.9609 69.6484C51.1953 69.737 51.4557 69.7812 51.7422 69.7812C51.8724 69.7812 51.9948 69.763 52.1094 69.7266L52.125 69.6016L52.1328 69.0703L52.1562 67.8125L52.1484 66.8047V66.2422C52.1484 66.1693 52.1406 66.0417 52.125 65.8594C51.7552 65.6198 51.4062 65.4427 51.0781 65.3281C51.0521 65.401 51.0391 65.4531 51.0391 65.4844L50.9453 68.7266L50.9531 68.8672V69.2422C50.9583 69.4401 50.9609 69.5755 50.9609 69.6484ZM52.4609 69.5938C52.8464 69.4323 53.1328 69.2109 53.3203 68.9297C53.513 68.6484 53.6094 68.3073 53.6094 67.9062C53.6094 67.6823 53.5755 67.4922 53.5078 67.3359C53.3568 66.9922 53.2188 66.7552 53.0938 66.625C52.9115 66.4271 52.724 66.276 52.5312 66.1719C52.5156 66.2708 52.5052 66.3516 52.5 66.4141L52.4844 68.0234L52.4297 69.3438L52.4375 69.4141L52.4609 69.5938ZM62.0078 69.9844C61.2266 69.9531 60.1797 69.9375 58.8672 69.9375L57.1719 69.9844L56.4141 69.9609L55.8125 69.9844C55.75 69.9792 55.6589 69.9661 55.5391 69.9453C55.6328 69.7266 55.7526 69.526 55.8984 69.3438C56.3307 68.8125 56.9635 68.1276 57.7969 67.2891C58.9635 66.1172 59.7318 65.1979 60.1016 64.5312C60.4714 63.8594 60.6562 63.2292 60.6562 62.6406C60.6562 62.0885 60.4688 61.625 60.0938 61.25C59.7188 60.875 59.2578 60.6875 58.7109 60.6875C58.3828 60.6875 58.0651 60.7656 57.7578 60.9219C57.4505 61.0729 57.2031 61.2656 57.0156 61.5C56.8958 61.651 56.737 61.9531 56.5391 62.4062C56.4297 62.6562 56.3646 62.7917 56.3438 62.8125C56.3125 62.849 56.276 62.8672 56.2344 62.8672C56.1927 62.8672 56.151 62.8464 56.1094 62.8047C56.0729 62.7578 56.0547 62.7005 56.0547 62.6328C56.0547 62.3984 56.1719 62.0234 56.4062 61.5078C56.6458 60.9922 56.9948 60.5885 57.4531 60.2969C57.9167 60.0052 58.4531 59.8594 59.0625 59.8594C59.8594 59.8594 60.5234 60.1198 61.0547 60.6406C61.5911 61.1562 61.8594 61.7734 61.8594 62.4922C61.8594 63.0599 61.6771 63.638 61.3125 64.2266C60.9479 64.8099 60.1094 65.7057 58.7969 66.9141C58.3646 67.3099 58.0573 67.6016 57.875 67.7891C57.6927 67.9766 57.3255 68.3828 56.7734 69.0078C57.5703 69.0391 58.2943 69.0547 58.9453 69.0547C59.0859 69.0547 59.2396 69.0495 59.4062 69.0391C59.7135 69.0286 59.8932 69.0234 59.9453 69.0234L61.0312 69.0469C61.151 69.0469 61.2734 68.9896 61.3984 68.875C61.5234 68.7604 61.6927 68.4375 61.9062 67.9062L62.0938 67.8984C62.1198 67.8984 62.1589 67.901 62.2109 67.9062C62.237 67.9583 62.25 67.9974 62.25 68.0234L62.2344 68.0859C62.1927 68.237 62.1562 68.513 62.125 68.9141C62.1042 69.1484 62.0651 69.5052 62.0078 69.9844ZM68.2734 60.5391C68.6589 60.9557 68.9349 61.3672 69.1016 61.7734C69.3255 62.3464 69.4375 63.0104 69.4375 63.7656C69.4375 64.6198 69.3125 65.3802 69.0625 66.0469C68.8125 66.7135 68.5078 67.2917 68.1484 67.7812C67.7943 68.2656 67.4219 68.6667 67.0312 68.9844C66.6406 69.2969 66.1589 69.5833 65.5859 69.8438C65.013 70.1042 64.5339 70.2344 64.1484 70.2344H64.0859C64.0234 70.1875 63.9922 70.1302 63.9922 70.0625C63.9922 69.9844 64.0052 69.9323 64.0312 69.9062C64.0573 69.8802 64.125 69.8646 64.2344 69.8594C64.4271 69.8438 64.7526 69.724 65.2109 69.5C65.8359 69.1875 66.3125 68.8438 66.6406 68.4688C67.1979 67.8333 67.612 67.1146 67.8828 66.3125C68.1589 65.5104 68.2969 64.612 68.2969 63.6172C68.2969 62.7891 68.2031 62.1172 68.0156 61.6016C67.8281 61.0859 67.5625 60.7135 67.2188 60.4844C66.875 60.2552 66.5443 60.1406 66.2266 60.1406C65.8099 60.1406 65.4557 60.3385 65.1641 60.7344C64.763 61.2865 64.5625 62.0833 64.5625 63.125C64.5625 63.9479 64.75 64.5964 65.125 65.0703C65.3906 65.4036 65.7552 65.5703 66.2188 65.5703C66.3854 65.5703 66.5052 65.5547 66.5781 65.5234L66.6406 65.5C66.6927 65.5 66.7396 65.526 66.7812 65.5781C66.8438 65.6562 66.875 65.737 66.875 65.8203L66.7891 65.8906C66.6745 65.9427 66.5417 65.9818 66.3906 66.0078C66.2448 66.0339 66.0807 66.0469 65.8984 66.0469C65.2578 66.0469 64.6797 65.7552 64.1641 65.1719C63.6484 64.5885 63.3906 63.8542 63.3906 62.9688C63.3906 62.0625 63.6797 61.3073 64.2578 60.7031C64.8411 60.0938 65.5365 59.7891 66.3438 59.7891C66.6927 59.7891 67 59.8385 67.2656 59.9375C67.5312 60.0365 67.8672 60.237 68.2734 60.5391ZM70.8438 72.7812L70.8516 72.5391C70.9141 72.5078 70.9766 72.4792 71.0391 72.4531C71.5859 72.1927 71.9505 71.9219 72.1328 71.6406C72.3203 71.3646 72.4141 71.1172 72.4141 70.8984C72.4141 70.7526 72.362 70.625 72.2578 70.5156C72.1536 70.4062 71.974 70.3229 71.7188 70.2656C71.4688 70.2135 71.3047 70.1719 71.2266 70.1406C71.1745 70.1198 71.1094 70.0677 71.0312 69.9844C70.9792 69.875 70.9531 69.7708 70.9531 69.6719C70.9531 69.4271 71.0026 69.2604 71.1016 69.1719C71.3099 68.9896 71.526 68.8984 71.75 68.8984C72.1458 68.8984 72.4896 69.0521 72.7812 69.3594C73.0729 69.6615 73.2188 70.0417 73.2188 70.5C73.2188 70.8177 73.1146 71.1615 72.9062 71.5312C72.6979 71.901 72.3828 72.2005 71.9609 72.4297C71.5391 72.6589 71.1667 72.776 70.8438 72.7812ZM79.2734 60.5391C79.6589 60.9557 79.9349 61.3672 80.1016 61.7734C80.3255 62.3464 80.4375 63.0104 80.4375 63.7656C80.4375 64.6198 80.3125 65.3802 80.0625 66.0469C79.8125 66.7135 79.5078 67.2917 79.1484 67.7812C78.7943 68.2656 78.4219 68.6667 78.0312 68.9844C77.6406 69.2969 77.1589 69.5833 76.5859 69.8438C76.013 70.1042 75.5339 70.2344 75.1484 70.2344H75.0859C75.0234 70.1875 74.9922 70.1302 74.9922 70.0625C74.9922 69.9844 75.0052 69.9323 75.0312 69.9062C75.0573 69.8802 75.125 69.8646 75.2344 69.8594C75.4271 69.8438 75.7526 69.724 76.2109 69.5C76.8359 69.1875 77.3125 68.8438 77.6406 68.4688C78.1979 67.8333 78.612 67.1146 78.8828 66.3125C79.1589 65.5104 79.2969 64.612 79.2969 63.6172C79.2969 62.7891 79.2031 62.1172 79.0156 61.6016C78.8281 61.0859 78.5625 60.7135 78.2188 60.4844C77.875 60.2552 77.5443 60.1406 77.2266 60.1406C76.8099 60.1406 76.4557 60.3385 76.1641 60.7344C75.763 61.2865 75.5625 62.0833 75.5625 63.125C75.5625 63.9479 75.75 64.5964 76.125 65.0703C76.3906 65.4036 76.7552 65.5703 77.2188 65.5703C77.3854 65.5703 77.5052 65.5547 77.5781 65.5234L77.6406 65.5C77.6927 65.5 77.7396 65.526 77.7812 65.5781C77.8438 65.6562 77.875 65.737 77.875 65.8203L77.7891 65.8906C77.6745 65.9427 77.5417 65.9818 77.3906 66.0078C77.2448 66.0339 77.0807 66.0469 76.8984 66.0469C76.2578 66.0469 75.6797 65.7552 75.1641 65.1719C74.6484 64.5885 74.3906 63.8542 74.3906 62.9688C74.3906 62.0625 74.6797 61.3073 75.2578 60.7031C75.8411 60.0938 76.5365 59.7891 77.3438 59.7891C77.6927 59.7891 78 59.8385 78.2656 59.9375C78.5312 60.0365 78.8672 60.237 79.2734 60.5391ZM86.7734 60.5391C87.1589 60.9557 87.4349 61.3672 87.6016 61.7734C87.8255 62.3464 87.9375 63.0104 87.9375 63.7656C87.9375 64.6198 87.8125 65.3802 87.5625 66.0469C87.3125 66.7135 87.0078 67.2917 86.6484 67.7812C86.2943 68.2656 85.9219 68.6667 85.5312 68.9844C85.1406 69.2969 84.6589 69.5833 84.0859 69.8438C83.513 70.1042 83.0339 70.2344 82.6484 70.2344H82.5859C82.5234 70.1875 82.4922 70.1302 82.4922 70.0625C82.4922 69.9844 82.5052 69.9323 82.5312 69.9062C82.5573 69.8802 82.625 69.8646 82.7344 69.8594C82.9271 69.8438 83.2526 69.724 83.7109 69.5C84.3359 69.1875 84.8125 68.8438 85.1406 68.4688C85.6979 67.8333 86.112 67.1146 86.3828 66.3125C86.6589 65.5104 86.7969 64.612 86.7969 63.6172C86.7969 62.7891 86.7031 62.1172 86.5156 61.6016C86.3281 61.0859 86.0625 60.7135 85.7188 60.4844C85.375 60.2552 85.0443 60.1406 84.7266 60.1406C84.3099 60.1406 83.9557 60.3385 83.6641 60.7344C83.263 61.2865 83.0625 62.0833 83.0625 63.125C83.0625 63.9479 83.25 64.5964 83.625 65.0703C83.8906 65.4036 84.2552 65.5703 84.7188 65.5703C84.8854 65.5703 85.0052 65.5547 85.0781 65.5234L85.1406 65.5C85.1927 65.5 85.2396 65.526 85.2812 65.5781C85.3438 65.6562 85.375 65.737 85.375 65.8203L85.2891 65.8906C85.1745 65.9427 85.0417 65.9818 84.8906 66.0078C84.7448 66.0339 84.5807 66.0469 84.3984 66.0469C83.7578 66.0469 83.1797 65.7552 82.6641 65.1719C82.1484 64.5885 81.8906 63.8542 81.8906 62.9688C81.8906 62.0625 82.1797 61.3073 82.7578 60.7031C83.3411 60.0938 84.0365 59.7891 84.8438 59.7891C85.1927 59.7891 85.5 59.8385 85.7656 59.9375C86.0312 60.0365 86.3672 60.237 86.7734 60.5391ZM95.6875 65.0703C95.6875 65.6068 95.6484 66.0833 95.5703 66.5C95.4297 67.2188 95.2344 67.8203 94.9844 68.3047C94.7344 68.7891 94.4375 69.1979 94.0938 69.5312C93.8438 69.776 93.5781 69.9531 93.2969 70.0625C93.0156 70.1771 92.7292 70.2344 92.4375 70.2344C91.9219 70.2344 91.4323 70.0625 90.9688 69.7188C90.5104 69.375 90.1094 68.8073 89.7656 68.0156C89.4219 67.224 89.25 66.2917 89.25 65.2188C89.25 64.3802 89.3542 63.5755 89.5625 62.8047C89.7708 62.0339 90.0443 61.4375 90.3828 61.0156C90.7266 60.5885 91.0651 60.2812 91.3984 60.0938C91.737 59.9062 92.1042 59.8125 92.5 59.8125C93.0573 59.8125 93.5964 60.0312 94.1172 60.4688C94.6432 60.9062 95.0625 61.5859 95.375 62.5078C95.5833 63.1276 95.6875 63.9818 95.6875 65.0703ZM94.5156 64.8125C94.5104 63.5312 94.4635 62.6615 94.375 62.2031C94.2292 61.4479 93.9896 60.9193 93.6562 60.6172C93.3281 60.3151 92.9427 60.1641 92.5 60.1641C92.1302 60.1641 91.7786 60.2839 91.4453 60.5234C91.1172 60.763 90.8906 61.138 90.7656 61.6484C90.5521 62.4766 90.4453 63.7318 90.4453 65.4141C90.4453 67.0807 90.6094 68.2474 90.9375 68.9141C91.2708 69.5755 91.7682 69.9062 92.4297 69.9062C92.8828 69.9062 93.2734 69.7656 93.6016 69.4844C93.9349 69.2031 94.1719 68.6823 94.3125 67.9219C94.4583 67.1562 94.5286 66.2995 94.5234 65.3516L94.5156 64.8125Z" fill="#D6CB89"/>
<path fill-rule="evenodd" clip-rule="evenodd" d="M5.21594 44.2765C4.73464 44.5171 4.60352 44.7686 4.60352 44.9163C4.60352 45.0641 4.73464 45.3156 5.21594 45.5562C5.67108 45.7838 6.33046 45.9372 7.08268 45.9372C7.83491 45.9372 8.49429 45.7838 8.94942 45.5562C9.43073 45.3156 9.56185 45.0641 9.56185 44.9163C9.56185 44.7686 9.43073 44.5171 8.94942 44.2765C8.49429 44.0489 7.83491 43.8955 7.08268 43.8955C6.33046 43.8955 5.67108 44.0489 5.21594 44.2765ZM4.82463 43.4938C5.42512 43.1936 6.22407 43.0205 7.08268 43.0205C7.94129 43.0205 8.74024 43.1936 9.34073 43.4938C9.91505 43.781 10.4368 44.2586 10.4368 44.9163C10.4368 45.574 9.91505 46.0517 9.34073 46.3389C8.74024 46.6391 7.94129 46.8122 7.08268 46.8122C6.22407 46.8122 5.42512 46.6391 4.82463 46.3389C4.25031 46.0517 3.72852 45.574 3.72852 44.9163C3.72852 44.2586 4.25031 43.781 4.82463 43.4938Z" fill="#D6CB89"/>
<path fill-rule="evenodd" clip-rule="evenodd" d="M4.16602 44.4795C4.40764 44.4795 4.60352 44.6754 4.60352 44.917H4.16602H3.72852C3.72852 44.6754 3.92439 44.4795 4.16602 44.4795ZM9.99935 44.917L10.4368 44.917V46.9587C10.4368 47.6164 9.91505 48.094 9.34073 48.3812C8.74024 48.6814 7.94128 48.8545 7.08268 48.8545C6.22407 48.8545 5.42512 48.6814 4.82463 48.3812C4.25031 48.094 3.72852 47.6164 3.72852 46.9587V44.917H4.16602H4.60352V46.9587C4.60352 47.1064 4.73464 47.3579 5.21594 47.5985C5.67108 47.8261 6.33046 47.9795 7.08268 47.9795C7.8349 47.9795 8.49428 47.8261 8.94942 47.5985C9.43073 47.3579 9.56185 47.1064 9.56185 46.9587V44.917L9.99935 44.917ZM9.99935 44.917L10.4368 44.917C10.4368 44.6754 10.241 44.4795 9.99935 44.4795C9.75773 44.4795 9.56185 44.6754 9.56185 44.917L9.99935 44.917Z" fill="#D6CB89"/>
<path fill-rule="evenodd" clip-rule="evenodd" d="M4.16602 46.5205C4.40764 46.5205 4.60352 46.7164 4.60352 46.958H4.16602H3.72852C3.72852 46.7164 3.92439 46.5205 4.16602 46.5205ZM9.99935 46.958L10.4368 46.958V48.9997C10.4368 49.6574 9.91505 50.135 9.34073 50.4222C8.74024 50.7224 7.94128 50.8955 7.08268 50.8955C6.22407 50.8955 5.42512 50.7224 4.82463 50.4222C4.25031 50.135 3.72852 49.6574 3.72852 48.9997V46.958H4.16602H4.60352V48.9997C4.60352 49.1474 4.73464 49.3989 5.21594 49.6396C5.67108 49.8671 6.33046 50.0205 7.08268 50.0205C7.8349 50.0205 8.49428 49.8671 8.94942 49.6396C9.43073 49.3989 9.56185 49.1474 9.56185 48.9997V46.958L9.99935 46.958ZM9.99935 46.958L10.4368 46.958C10.4368 46.7164 10.241 46.5205 9.99935 46.5205C9.75773 46.5205 9.56185 46.7164 9.56185 46.958L9.99935 46.958Z" fill="#D6CB89"/>
<path fill-rule="evenodd" clip-rule="evenodd" d="M4.16602 48.5625C4.40764 48.5625 4.60352 48.7584 4.60352 49H4.16602H3.72852C3.72852 48.7584 3.92439 48.5625 4.16602 48.5625ZM9.99935 49L10.4368 49V51.0417C10.4368 51.6994 9.91505 52.177 9.34073 52.4642C8.74024 52.7644 7.94128 52.9375 7.08268 52.9375C6.22407 52.9375 5.42512 52.7644 4.82463 52.4642C4.25031 52.177 3.72852 51.6994 3.72852 51.0417V49H4.16602H4.60352V51.0417C4.60352 51.1894 4.73464 51.4409 5.21594 51.6815C5.67108 51.9091 6.33046 52.0625 7.08268 52.0625C7.8349 52.0625 8.49428 51.9091 8.94942 51.6815C9.43073 51.4409 9.56185 51.1894 9.56185 51.0417V49L9.99935 49ZM9.99935 49L10.4368 49C10.4368 48.7584 10.241 48.5625 9.99935 48.5625C9.75773 48.5625 9.56185 48.7584 9.56185 49L9.99935 49Z" fill="#D6CB89"/>
<path fill-rule="evenodd" clip-rule="evenodd" d="M4.16602 50.6045C4.40764 50.6045 4.60352 50.8004 4.60352 51.042H4.16602H3.72852C3.72852 50.8004 3.92439 50.6045 4.16602 50.6045ZM9.99935 51.042L10.4368 51.042V53.0837C10.4368 53.7414 9.91505 54.219 9.34073 54.5062C8.74024 54.8064 7.94128 54.9795 7.08268 54.9795C6.22407 54.9795 5.42512 54.8064 4.82463 54.5062C4.25031 54.219 3.72852 53.7414 3.72852 53.0837V51.042H4.16602H4.60352V53.0837C4.60352 53.2314 4.73464 53.4829 5.21594 53.7235C5.67108 53.9511 6.33046 54.1045 7.08268 54.1045C7.8349 54.1045 8.49428 53.9511 8.94942 53.7235C9.43073 53.4829 9.56185 53.2314 9.56185 53.0837V51.042L9.99935 51.042ZM9.99935 51.042L10.4368 51.042C10.4368 50.8004 10.241 50.6045 9.99935 50.6045C9.75773 50.6045 9.56185 50.8004 9.56185 51.042L9.99935 51.042Z" fill="#D6CB89"/>
<path fill-rule="evenodd" clip-rule="evenodd" d="M11.0499 48.3604C10.5686 48.6011 10.4375 48.8526 10.4375 49.0003C10.4375 49.148 10.5686 49.3996 11.0499 49.6402C11.5051 49.8678 12.1644 50.0212 12.9167 50.0212C13.6689 50.0212 14.3283 49.8678 14.7834 49.6402C15.2647 49.3996 15.3958 49.148 15.3958 49.0003C15.3958 48.8526 15.2647 48.6011 14.7834 48.3604C14.3283 48.1329 13.6689 47.9795 12.9167 47.9795C12.1644 47.9795 11.5051 48.1329 11.0499 48.3604ZM10.6586 47.5778C11.2591 47.2776 12.0581 47.1045 12.9167 47.1045C13.7753 47.1045 14.5742 47.2776 15.1747 47.5778C15.749 47.865 16.2708 48.3426 16.2708 49.0003C16.2708 49.658 15.749 50.1357 15.1747 50.4228C14.5742 50.7231 13.7753 50.8962 12.9167 50.8962C12.0581 50.8962 11.2591 50.7231 10.6586 50.4228C10.0843 50.1357 9.5625 49.658 9.5625 49.0003C9.5625 48.3426 10.0843 47.865 10.6586 47.5778Z" fill="#D6CB89"/>
<path fill-rule="evenodd" clip-rule="evenodd" d="M10 48.5625C10.2416 48.5625 10.4375 48.7584 10.4375 49H10H9.5625C9.5625 48.7584 9.75838 48.5625 10 48.5625ZM15.8333 49L16.2708 49V51.0417C16.2708 51.6994 15.749 52.177 15.1747 52.4642C14.5742 52.7644 13.7753 52.9375 12.9167 52.9375C12.0581 52.9375 11.2591 52.7644 10.6586 52.4642C10.0843 52.177 9.5625 51.6994 9.5625 51.0417V49H10H10.4375V51.0417C10.4375 51.1894 10.5686 51.4409 11.0499 51.6815C11.5051 51.9091 12.1645 52.0625 12.9167 52.0625C13.6689 52.0625 14.3283 51.9091 14.7834 51.6815C15.2647 51.4409 15.3958 51.1894 15.3958 51.0417V49L15.8333 49ZM15.8333 49L16.2708 49C16.2708 48.7584 16.075 48.5625 15.8333 48.5625C15.5917 48.5625 15.3958 48.7584 15.3958 49L15.8333 49Z" fill="#D6CB89"/>
<path fill-rule="evenodd" clip-rule="evenodd" d="M10 50.6045C10.2416 50.6045 10.4375 50.8004 10.4375 51.042H10H9.5625C9.5625 50.8004 9.75838 50.6045 10 50.6045ZM15.8333 51.042L16.2708 51.042V53.0837C16.2708 53.7414 15.749 54.219 15.1747 54.5062C14.5742 54.8064 13.7753 54.9795 12.9167 54.9795C12.0581 54.9795 11.2591 54.8064 10.6586 54.5062C10.0843 54.219 9.5625 53.7414 9.5625 53.0837V51.042H10H10.4375V53.0837C10.4375 53.2314 10.5686 53.4829 11.0499 53.7235C11.5051 53.9511 12.1645 54.1045 12.9167 54.1045C13.6689 54.1045 14.3283 53.9511 14.7834 53.7235C15.2647 53.4829 15.3958 53.2314 15.3958 53.0837V51.042L15.8333 51.042ZM15.8333 51.042L16.2708 51.042C16.2708 50.8004 16.075 50.6045 15.8333 50.6045C15.5917 50.6045 15.3958 50.8004 15.3958 51.042L15.8333 51.042Z" fill="#D6CB89"/>
</svg>
