<svg width="37" height="55" viewBox="0 0 37 55" fill="none" xmlns="http://www.w3.org/2000/svg">
<path fill-rule="evenodd" clip-rule="evenodd" d="M5.00977 3.33301C5.00977 2.64265 5.52744 2.08301 6.16602 2.08301H26.2077C26.8463 2.08301 27.3639 2.64265 27.3639 3.33301V8.33301C27.3639 9.02336 26.8463 9.58301 26.2077 9.58301C25.5691 9.58301 25.0514 9.02336 25.0514 8.33301V4.58301H7.32227V29.6438L10.2739 28.0483C10.8451 27.7396 11.5396 27.9899 11.8252 28.6073C12.1108 29.2248 11.8793 29.9756 11.3081 30.2844L6.68311 32.7844C6.32468 32.9781 5.89902 32.9574 5.55814 32.7297C5.21726 32.5019 5.00977 32.0996 5.00977 31.6663V3.33301Z" fill="#D6CB89"/>
<path fill-rule="evenodd" clip-rule="evenodd" d="M9.63477 8.33301C9.63477 7.64265 10.1524 7.08301 10.791 7.08301H30.8327C31.4713 7.08301 31.9889 7.64265 31.9889 8.33301V36.6663C31.9889 37.0964 31.7844 37.4963 31.4475 37.725C31.1105 37.9537 30.6885 37.979 30.3302 37.7921L20.8118 32.827L11.2935 37.7921C10.9352 37.979 10.5132 37.9537 10.1762 37.725C9.83929 37.4963 9.63477 37.0964 9.63477 36.6663V8.33301ZM11.9473 9.58301V34.6753L20.3094 30.3133C20.6268 30.1477 20.9969 30.1477 21.3143 30.3133L29.6764 34.6753V9.58301H11.9473Z" fill="#D6CB89"/>
<path d="M10.0464 46.167C10.0802 46.4463 10.0972 46.6071 10.0972 46.6494L10.0718 47.2144C10.0633 47.4556 10.0527 47.61 10.04 47.6777C10.002 47.6947 9.97021 47.7031 9.94482 47.7031L9.8877 47.6904C9.75228 47.098 9.52165 46.6663 9.1958 46.3955C8.87419 46.1247 8.48063 45.9893 8.01514 45.9893C7.53271 45.9893 7.13704 46.1247 6.82812 46.3955C6.51921 46.6663 6.36475 46.9816 6.36475 47.3413C6.36475 47.6164 6.47266 47.8682 6.68848 48.0967C6.9043 48.3252 7.45654 48.668 8.34521 49.125C9.0223 49.4762 9.50684 49.764 9.79883 49.9883C10.0908 50.2083 10.3109 50.4644 10.459 50.7563C10.6071 51.0483 10.6812 51.3742 10.6812 51.7339C10.6812 52.1867 10.5627 52.612 10.3257 53.0098C10.0929 53.4076 9.77767 53.708 9.37988 53.9111C8.9821 54.11 8.45524 54.2095 7.79932 54.2095C7.22803 54.2095 6.68001 54.1185 6.15527 53.9365C5.84635 53.8265 5.65804 53.7376 5.59033 53.6699C5.52262 53.6022 5.48877 53.5303 5.48877 53.4541C5.48877 53.4076 5.493 53.3483 5.50146 53.2764C5.56071 52.777 5.59245 52.3665 5.59668 52.0449C5.60514 51.846 5.61995 51.7297 5.64111 51.6958C5.65804 51.6662 5.68978 51.6514 5.73633 51.6514C5.77441 51.6514 5.80404 51.6662 5.8252 51.6958C5.85059 51.7212 5.86751 51.772 5.87598 51.8481C5.92253 52.3687 6.16374 52.8341 6.59961 53.2446C7.03125 53.6551 7.52002 53.8604 8.06592 53.8604C8.40023 53.8604 8.70703 53.7905 8.98633 53.6509C9.26986 53.5112 9.48991 53.3102 9.64648 53.0479C9.80729 52.7812 9.8877 52.5231 9.8877 52.2734C9.8877 51.9307 9.76709 51.6175 9.52588 51.334C9.28467 51.0505 8.80013 50.7204 8.07227 50.3438C7.3444 49.9629 6.87044 49.6857 6.65039 49.5122C6.29492 49.2287 6.02832 48.9282 5.85059 48.6108C5.7194 48.3654 5.65381 48.0798 5.65381 47.7539C5.65381 47.1657 5.88656 46.6685 6.35205 46.2622C6.81755 45.8517 7.44173 45.6465 8.22461 45.6465C8.65625 45.6465 9.02865 45.6951 9.3418 45.7925C9.57031 45.8687 9.80518 45.9935 10.0464 46.167ZM16.394 53.1367C16.4194 53.1917 16.4321 53.2319 16.4321 53.2573C16.4321 53.3208 16.3813 53.4329 16.2798 53.5938C16.1486 53.8053 16.0026 53.9598 15.8418 54.0571C15.7402 54.1206 15.6006 54.1523 15.4229 54.1523C15.1182 54.1523 14.8896 54.0592 14.7373 53.873C14.6442 53.763 14.5786 53.5662 14.5405 53.2827L13.8296 53.7778C13.5799 53.9217 13.3895 54.0127 13.2583 54.0508C13.0467 54.1058 12.7928 54.1333 12.4966 54.1333C12.2808 54.1333 12.1094 54.0698 11.9824 53.9429C11.8597 53.8117 11.7983 53.6445 11.7983 53.4414C11.7983 53.1494 11.9761 52.8003 12.3315 52.394C12.6912 51.9878 13.1779 51.6556 13.7915 51.3975C14.2231 51.2155 14.4876 51.0991 14.585 51.0483C14.5934 50.9087 14.5977 50.7563 14.5977 50.5913C14.5977 50.0539 14.5215 49.6899 14.3691 49.4995C14.221 49.3091 14.0073 49.2139 13.728 49.2139C13.436 49.2139 13.1631 49.3281 12.9092 49.5566C12.7526 49.7005 12.6341 49.9714 12.5537 50.3691C12.5283 50.4792 12.4797 50.5977 12.4077 50.7246C12.2257 50.8431 12.0798 50.9023 11.9697 50.9023C11.8766 50.9023 11.792 50.8748 11.7158 50.8198C11.6735 50.7902 11.6523 50.7563 11.6523 50.7183C11.6523 50.6082 11.7687 50.3607 12.0015 49.9756C12.2384 49.5863 12.5347 49.2964 12.8901 49.106C13.2498 48.9113 13.563 48.814 13.8296 48.814C14.1935 48.814 14.4644 48.8478 14.6421 48.9155C14.8198 48.979 14.9764 49.0933 15.1118 49.2583C15.2472 49.4233 15.3298 49.6032 15.3594 49.7979C15.3763 49.891 15.3848 50.2231 15.3848 50.7944L15.3657 51.8037L15.3721 52.54C15.3721 52.6374 15.37 52.7199 15.3657 52.7876C15.3615 52.9103 15.3594 53.0013 15.3594 53.0605C15.3594 53.2002 15.3996 53.3123 15.48 53.397C15.5604 53.4816 15.6556 53.5239 15.7656 53.5239C15.9264 53.5239 16.064 53.4435 16.1782 53.2827L16.2544 53.1812C16.2756 53.1685 16.3221 53.1536 16.394 53.1367ZM14.5278 52.9526C14.5575 52.4152 14.5723 52.0365 14.5723 51.8164C14.5723 51.7021 14.5659 51.5477 14.5532 51.353C14.2697 51.4546 13.9692 51.609 13.6519 51.8164C13.3345 52.0238 13.0827 52.2629 12.8965 52.5337C12.7611 52.7284 12.6934 52.9124 12.6934 53.0859C12.6934 53.251 12.7484 53.3885 12.8584 53.4985C12.9727 53.6086 13.1144 53.6636 13.2837 53.6636C13.4149 53.6636 13.5736 53.617 13.7598 53.5239C14.0052 53.4012 14.2612 53.2108 14.5278 52.9526ZM16.2671 48.96C16.7368 48.9642 17.1473 48.979 17.4985 49.0044C17.7482 49.0044 17.9302 49.0002 18.0444 48.9917C18.1248 48.9875 18.1756 48.9854 18.1968 48.9854L18.9077 48.9917C19.005 49.0086 19.0833 49.0192 19.1426 49.0234C19.168 49.0319 19.1912 49.0552 19.2124 49.0933C19.2124 49.1356 19.1997 49.18 19.1743 49.2266C19.1024 49.2477 19.0283 49.2604 18.9521 49.2646C18.6348 49.2985 18.3682 49.3472 18.1523 49.4106C18.1227 49.4318 18.1079 49.453 18.1079 49.4741C18.1079 49.5164 18.1291 49.582 18.1714 49.6709C18.1799 49.6921 18.1989 49.7428 18.2285 49.8232L18.8633 51.3467C19.1468 52.0449 19.4092 52.6331 19.6504 53.1113C19.8154 52.7982 19.9678 52.4744 20.1074 52.1401C20.2471 51.8058 20.4523 51.279 20.7231 50.5596C20.7993 50.3564 20.8713 50.1047 20.939 49.8042C20.9517 49.745 20.958 49.6942 20.958 49.6519C20.958 49.6011 20.9284 49.5461 20.8691 49.4868C20.8141 49.4233 20.7189 49.3726 20.5835 49.3345C20.5539 49.3302 20.3613 49.2985 20.0059 49.2393C19.9762 49.2223 19.9487 49.1991 19.9233 49.1694V49.1187C19.9233 49.0975 19.9255 49.07 19.9297 49.0361C20.0312 49.0234 20.1053 49.0171 20.1519 49.0171L20.9009 49.0234C20.9517 49.0234 21.0723 49.0171 21.2627 49.0044C21.9355 49.0044 22.3397 49.0107 22.4751 49.0234C22.5005 49.0319 22.5238 49.0573 22.5449 49.0996C22.5449 49.1377 22.5322 49.18 22.5068 49.2266L22.3101 49.2773C22.2593 49.2816 22.2191 49.2858 22.1895 49.29C21.8255 49.3239 21.6012 49.3747 21.5166 49.4424C21.4531 49.4889 21.3537 49.7069 21.2183 50.0962C21.1548 50.2866 21.0617 50.5278 20.939 50.8198L20.6089 51.6196C20.5623 51.7339 20.5116 51.8587 20.4565 51.9941L19.4727 54.2666H19.2822C19.2441 54.165 19.1976 54.0592 19.1426 53.9492L18.6602 52.9272L17.5239 50.2676C17.2954 49.7513 17.1579 49.472 17.1113 49.4297C17.0648 49.3874 16.7939 49.2985 16.2988 49.1631C16.2734 49.0954 16.2607 49.0467 16.2607 49.0171L16.2671 48.96ZM27.2041 50.6484L24.6587 50.6675H24.1763C23.9816 50.6675 23.7827 50.6759 23.5796 50.6929C23.5415 50.8198 23.5225 50.9066 23.5225 50.9531L23.5288 51.0166V51.0801L23.5225 51.3911C23.5225 51.6493 23.6029 51.9666 23.7637 52.3433C23.9287 52.7157 24.1615 53.0013 24.4619 53.2002C24.7666 53.3949 25.1453 53.4985 25.5981 53.5112C25.8394 53.4985 26.0319 53.4689 26.1758 53.4224C26.3197 53.3758 26.5228 53.2679 26.7852 53.0986L27.2422 52.7241L27.2803 52.978C27.2803 53.0076 27.2782 53.0394 27.2739 53.0732C27.0835 53.3145 26.8423 53.526 26.5503 53.708C26.2583 53.89 25.9621 54.0233 25.6616 54.1079C25.5177 54.146 25.2808 54.165 24.9507 54.165C24.6502 54.165 24.354 54.1037 24.062 53.981C23.6304 53.7948 23.2897 53.4964 23.04 53.0859C22.7946 52.6712 22.6719 52.1698 22.6719 51.5815C22.6719 51.3953 22.7057 51.1562 22.7734 50.8643C22.8454 50.5723 22.9723 50.2612 23.1543 49.9312C23.277 49.7069 23.4272 49.5228 23.605 49.3789C23.8589 49.1758 24.0811 49.034 24.2715 48.9536C24.5465 48.8394 24.866 48.7822 25.23 48.7822C25.6235 48.7822 25.9451 48.8542 26.1948 48.998C26.5334 49.1885 26.7852 49.4339 26.9502 49.7344C27.1195 50.0348 27.2041 50.3099 27.2041 50.5596V50.6484ZM23.6621 50.4199H23.9604C24.1763 50.4199 24.8195 50.3861 25.8901 50.3184C26.0594 50.3099 26.1631 50.293 26.2012 50.2676C26.2773 50.1872 26.3154 50.1152 26.3154 50.0518C26.3154 49.9206 26.2731 49.7725 26.1885 49.6074C26.1038 49.4382 25.9727 49.3091 25.7949 49.2202C25.6214 49.1271 25.4183 49.0806 25.1855 49.0806C24.6947 49.0806 24.3011 49.2646 24.0049 49.6328C23.7764 49.9121 23.6621 50.1745 23.6621 50.4199ZM32.2314 49.3916L32.2378 49.2075L32.2314 48.4648L32.2378 47.062C32.2378 46.6727 32.1955 46.4251 32.1108 46.3193C32.0262 46.2135 31.7786 46.1056 31.3682 45.9956C31.3385 45.9871 31.292 45.9744 31.2285 45.9575V45.8877C31.2285 45.8454 31.2327 45.7988 31.2412 45.748C31.8167 45.6888 32.3118 45.5894 32.7266 45.4497L33.0503 45.4434C33.0672 45.7311 33.0757 46.0527 33.0757 46.4082L33.0503 48.8521L33.0947 51.6069L33.0757 53.0732C33.0757 53.3737 33.0968 53.543 33.1392 53.5811C33.2238 53.6657 33.41 53.7101 33.6978 53.7144C33.757 53.7144 33.8374 53.7186 33.939 53.7271V53.8413C33.939 53.8709 33.9368 53.9027 33.9326 53.9365C33.8014 53.9661 33.666 53.9937 33.5264 54.019L32.606 54.1968C32.4705 54.2222 32.3626 54.2349 32.2822 54.2349V53.6255C32.2103 53.6466 32.0981 53.689 31.9458 53.7524C31.2856 54.0317 30.6784 54.1714 30.124 54.1714C29.7897 54.1714 29.4491 54.0635 29.1021 53.8477C28.755 53.6276 28.4884 53.3229 28.3022 52.9336C28.116 52.5443 28.0229 52.1465 28.0229 51.7402C28.0229 51.3763 28.0843 51.0293 28.207 50.6992C28.3298 50.3649 28.4906 50.0877 28.6895 49.8677C28.8164 49.7238 28.9963 49.582 29.229 49.4424C29.4618 49.2985 29.6543 49.2075 29.8066 49.1694C30.1833 49.0721 30.4351 49.0234 30.562 49.0234C31.1333 49.0234 31.603 49.1081 31.9712 49.2773C32.0854 49.3324 32.1722 49.3704 32.2314 49.3916ZM32.2378 53.3145C32.2547 53.0309 32.2632 52.4469 32.2632 51.5625C32.2632 50.8135 32.2272 50.3416 32.1553 50.147C32.0876 49.9481 31.9141 49.7619 31.6348 49.5884C31.3555 49.4106 31.0423 49.3218 30.6953 49.3218C30.2087 49.3218 29.7961 49.5101 29.4575 49.8867C29.119 50.2633 28.9497 50.8198 28.9497 51.5562C28.9497 52.2036 29.1317 52.7199 29.4956 53.105C29.8638 53.4901 30.3208 53.6826 30.8667 53.6826C31.1799 53.6826 31.4655 53.6403 31.7236 53.5557C31.9818 53.471 32.1532 53.3906 32.2378 53.3145Z" fill="#D6CB89"/>
</svg>
