<svg width="26" height="29" viewBox="0 0 26 29" fill="none" xmlns="http://www.w3.org/2000/svg">
<path fill-rule="evenodd" clip-rule="evenodd" d="M3.52148 2.41699C3.52148 1.91648 3.88525 1.51074 4.33398 1.51074H18.4173C18.866 1.51074 19.2298 1.91648 19.2298 2.41699V6.04199C19.2298 6.5425 18.866 6.94824 18.4173 6.94824C17.9686 6.94824 17.6048 6.5425 17.6048 6.04199V3.32324H5.14648V21.4923L7.22062 20.3356C7.62198 20.1118 8.11003 20.2932 8.31071 20.7409C8.51138 21.1885 8.3487 21.7329 7.94735 21.9567L4.69735 23.7692C4.44548 23.9097 4.14637 23.8947 3.90683 23.7296C3.66729 23.5644 3.52148 23.2727 3.52148 22.9587V2.41699Z" fill="#D6CB89"/>
<path fill-rule="evenodd" clip-rule="evenodd" d="M6.77148 6.04199C6.77148 5.54148 7.13525 5.13574 7.58398 5.13574H21.6673C22.116 5.13574 22.4798 5.54148 22.4798 6.04199V26.5837C22.4798 26.8955 22.3361 27.1854 22.0993 27.3512C21.8626 27.517 21.566 27.5354 21.3142 27.3999L14.6257 23.8001L7.93707 27.3999C7.68529 27.5354 7.38874 27.517 7.15197 27.3512C6.9152 27.1854 6.77148 26.8955 6.77148 26.5837V6.04199ZM8.39648 6.94824V25.1401L14.2726 21.9777C14.4956 21.8576 14.7557 21.8576 14.9787 21.9777L20.8548 25.1401V6.94824H8.39648Z" fill="#D6CB89"/>
</svg>
