<svg width="36" height="48" viewBox="0 0 36 48" fill="none" xmlns="http://www.w3.org/2000/svg">
<path fill-rule="evenodd" clip-rule="evenodd" d="M4.875 6C4.875 5.37868 5.37868 4.875 6 4.875H19.5C19.7984 4.875 20.0845 4.99353 20.2955 5.2045L32.4247 17.3337C33.9077 18.8256 33.9077 21.2351 32.4247 22.727L32.4223 22.7293L22.7433 32.4084C22.0258 33.1267 21.0522 33.5302 20.0371 33.5302C19.0221 33.5302 18.0488 33.1268 17.3314 32.4089C17.3312 32.4087 17.3316 32.4091 17.3314 32.4089L5.20495 20.2959C4.9937 20.0849 4.875 19.7986 4.875 19.5V6ZM7.125 7.125V19.0336L18.9219 30.8174C19.2174 31.1132 19.619 31.2802 20.0371 31.2802C20.4552 31.2802 20.856 31.114 21.1514 30.8183L30.829 21.1407C30.8293 21.1404 30.8287 21.141 30.829 21.1407C31.4385 20.5266 31.4393 19.5349 30.8298 18.9208C30.8295 18.9205 30.8301 18.9211 30.8298 18.9208L19.034 7.125H7.125Z" fill="#D6CB89"/>
<path fill-rule="evenodd" clip-rule="evenodd" d="M13.875 15.75C14.9105 15.75 15.75 14.9105 15.75 13.875C15.75 12.8395 14.9105 12 13.875 12C12.8395 12 12 12.8395 12 13.875C12 14.9105 12.8395 15.75 13.875 15.75Z" fill="#D6CB89"/>
<path d="M15.0464 39.167C15.0802 39.4463 15.0972 39.6071 15.0972 39.6494L15.0718 40.2144C15.0633 40.4556 15.0527 40.61 15.04 40.6777C15.002 40.6947 14.9702 40.7031 14.9448 40.7031L14.8877 40.6904C14.7523 40.098 14.5216 39.6663 14.1958 39.3955C13.8742 39.1247 13.4806 38.9893 13.0151 38.9893C12.5327 38.9893 12.137 39.1247 11.8281 39.3955C11.5192 39.6663 11.3647 39.9816 11.3647 40.3413C11.3647 40.6164 11.4727 40.8682 11.6885 41.0967C11.9043 41.3252 12.4565 41.668 13.3452 42.125C14.0223 42.4762 14.5068 42.764 14.7988 42.9883C15.0908 43.2083 15.3109 43.4644 15.459 43.7563C15.6071 44.0483 15.6812 44.3742 15.6812 44.7339C15.6812 45.1867 15.5627 45.612 15.3257 46.0098C15.0929 46.4076 14.7777 46.708 14.3799 46.9111C13.9821 47.11 13.4552 47.2095 12.7993 47.2095C12.228 47.2095 11.68 47.1185 11.1553 46.9365C10.8464 46.8265 10.658 46.7376 10.5903 46.6699C10.5226 46.6022 10.4888 46.5303 10.4888 46.4541C10.4888 46.4076 10.493 46.3483 10.5015 46.2764C10.5607 45.777 10.5924 45.3665 10.5967 45.0449C10.6051 44.846 10.62 44.7297 10.6411 44.6958C10.658 44.6662 10.6898 44.6514 10.7363 44.6514C10.7744 44.6514 10.804 44.6662 10.8252 44.6958C10.8506 44.7212 10.8675 44.772 10.876 44.8481C10.9225 45.3687 11.1637 45.8341 11.5996 46.2446C12.0312 46.6551 12.52 46.8604 13.0659 46.8604C13.4002 46.8604 13.707 46.7905 13.9863 46.6509C14.2699 46.5112 14.4899 46.3102 14.6465 46.0479C14.8073 45.7812 14.8877 45.5231 14.8877 45.2734C14.8877 44.9307 14.7671 44.6175 14.5259 44.334C14.2847 44.0505 13.8001 43.7204 13.0723 43.3438C12.3444 42.9629 11.8704 42.6857 11.6504 42.5122C11.2949 42.2287 11.0283 41.9282 10.8506 41.6108C10.7194 41.3654 10.6538 41.0798 10.6538 40.7539C10.6538 40.1657 10.8866 39.6685 11.3521 39.2622C11.8175 38.8517 12.4417 38.6465 13.2246 38.6465C13.6562 38.6465 14.0286 38.6951 14.3418 38.7925C14.5703 38.8687 14.8052 38.9935 15.0464 39.167ZM21.2607 43.6484L18.7153 43.6675H18.2329C18.0382 43.6675 17.8394 43.6759 17.6362 43.6929C17.5981 43.8198 17.5791 43.9066 17.5791 43.9531L17.5854 44.0166V44.0801L17.5791 44.3911C17.5791 44.6493 17.6595 44.9666 17.8203 45.3433C17.9854 45.7157 18.2181 46.0013 18.5186 46.2002C18.8232 46.3949 19.202 46.4985 19.6548 46.5112C19.896 46.4985 20.0885 46.4689 20.2324 46.4224C20.3763 46.3758 20.5794 46.2679 20.8418 46.0986L21.2988 45.7241L21.3369 45.978C21.3369 46.0076 21.3348 46.0394 21.3306 46.0732C21.1401 46.3145 20.8989 46.526 20.6069 46.708C20.3149 46.89 20.0187 47.0233 19.7183 47.1079C19.5744 47.146 19.3374 47.165 19.0073 47.165C18.7069 47.165 18.4106 47.1037 18.1187 46.981C17.687 46.7948 17.3464 46.4964 17.0967 46.0859C16.8512 45.6712 16.7285 45.1698 16.7285 44.5815C16.7285 44.3953 16.7624 44.1562 16.8301 43.8643C16.902 43.5723 17.029 43.2612 17.2109 42.9312C17.3337 42.7069 17.4839 42.5228 17.6616 42.3789C17.9155 42.1758 18.1377 42.034 18.3281 41.9536C18.6032 41.8394 18.9227 41.7822 19.2866 41.7822C19.6802 41.7822 20.0018 41.8542 20.2515 41.998C20.59 42.1885 20.8418 42.4339 21.0068 42.7344C21.1761 43.0348 21.2607 43.3099 21.2607 43.5596V43.6484ZM17.7188 43.4199H18.0171C18.2329 43.4199 18.8761 43.3861 19.9468 43.3184C20.116 43.3099 20.2197 43.293 20.2578 43.2676C20.334 43.1872 20.3721 43.1152 20.3721 43.0518C20.3721 42.9206 20.3298 42.7725 20.2451 42.6074C20.1605 42.4382 20.0293 42.3091 19.8516 42.2202C19.6781 42.1271 19.4749 42.0806 19.2422 42.0806C18.7513 42.0806 18.3577 42.2646 18.0615 42.6328C17.833 42.9121 17.7188 43.1745 17.7188 43.4199ZM21.9844 39.1353V38.9956C22.1029 38.9575 22.234 38.9173 22.3779 38.875C22.5895 38.8073 22.9027 38.7036 23.3174 38.564H23.6157C23.62 38.7671 23.6221 38.8835 23.6221 38.9131C23.6221 42.3874 23.6115 44.4588 23.5903 45.1274C23.5776 45.521 23.5713 45.7305 23.5713 45.7559C23.5713 46.2298 23.5903 46.4943 23.6284 46.5493C23.6792 46.6255 23.8337 46.6784 24.0918 46.708C24.3542 46.7376 24.5086 46.7673 24.5552 46.7969C24.589 46.8138 24.606 46.8434 24.606 46.8857C24.606 46.9323 24.5954 46.9661 24.5742 46.9873C24.5573 47.0042 24.5234 47.0127 24.4727 47.0127C24.443 47.0127 24.2209 47.0063 23.8062 46.9937L22.9746 46.9683L21.9082 47.0127C21.8405 47.0169 21.7897 47.0042 21.7559 46.9746C21.7305 46.9535 21.7178 46.9238 21.7178 46.8857C21.7178 46.8434 21.7305 46.8138 21.7559 46.7969C21.7855 46.7757 21.9378 46.7419 22.2129 46.6953C22.4922 46.6488 22.6509 46.6107 22.689 46.5811C22.7313 46.5472 22.7588 46.4753 22.7715 46.3652C22.7884 46.2129 22.7969 45.7834 22.7969 45.0767L22.7905 43.6167L22.8096 42.106L22.8032 40.5952L22.8223 39.8525C22.8223 39.7044 22.799 39.5986 22.7524 39.5352C22.7059 39.4674 22.6064 39.4019 22.4541 39.3384C22.2256 39.2453 22.069 39.1776 21.9844 39.1353ZM24.9678 39.1353V38.9956C25.0863 38.9575 25.2174 38.9173 25.3613 38.875C25.5729 38.8073 25.8861 38.7036 26.3008 38.564H26.5991C26.6034 38.7671 26.6055 38.8835 26.6055 38.9131C26.6055 42.3874 26.5949 44.4588 26.5737 45.1274C26.561 45.521 26.5547 45.7305 26.5547 45.7559C26.5547 46.2298 26.5737 46.4943 26.6118 46.5493C26.6626 46.6255 26.8171 46.6784 27.0752 46.708C27.3376 46.7376 27.492 46.7673 27.5386 46.7969C27.5724 46.8138 27.5894 46.8434 27.5894 46.8857C27.5894 46.9323 27.5788 46.9661 27.5576 46.9873C27.5407 47.0042 27.5068 47.0127 27.4561 47.0127C27.4264 47.0127 27.2043 47.0063 26.7896 46.9937L25.958 46.9683L24.8916 47.0127C24.8239 47.0169 24.7731 47.0042 24.7393 46.9746C24.7139 46.9535 24.7012 46.9238 24.7012 46.8857C24.7012 46.8434 24.7139 46.8138 24.7393 46.7969C24.7689 46.7757 24.9212 46.7419 25.1963 46.6953C25.4756 46.6488 25.6343 46.6107 25.6724 46.5811C25.7147 46.5472 25.7422 46.4753 25.7549 46.3652C25.7718 46.2129 25.7803 45.7834 25.7803 45.0767L25.7739 43.6167L25.793 42.106L25.7866 40.5952L25.8057 39.8525C25.8057 39.7044 25.7824 39.5986 25.7358 39.5352C25.6893 39.4674 25.5898 39.4019 25.4375 39.3384C25.209 39.2453 25.0524 39.1776 24.9678 39.1353Z" fill="#D6CB89"/>
</svg>
