<svg width="37" height="52" viewBox="0 0 37 52" fill="none" xmlns="http://www.w3.org/2000/svg">
<path d="M10.0464 43.167C10.0802 43.4463 10.0972 43.6071 10.0972 43.6494L10.0718 44.2144C10.0633 44.4556 10.0527 44.61 10.04 44.6777C10.002 44.6947 9.97021 44.7031 9.94482 44.7031L9.8877 44.6904C9.75228 44.098 9.52165 43.6663 9.1958 43.3955C8.87419 43.1247 8.48063 42.9893 8.01514 42.9893C7.53271 42.9893 7.13704 43.1247 6.82812 43.3955C6.51921 43.6663 6.36475 43.9816 6.36475 44.3413C6.36475 44.6164 6.47266 44.8682 6.68848 45.0967C6.9043 45.3252 7.45654 45.668 8.34521 46.125C9.0223 46.4762 9.50684 46.764 9.79883 46.9883C10.0908 47.2083 10.3109 47.4644 10.459 47.7563C10.6071 48.0483 10.6812 48.3742 10.6812 48.7339C10.6812 49.1867 10.5627 49.612 10.3257 50.0098C10.0929 50.4076 9.77767 50.708 9.37988 50.9111C8.9821 51.11 8.45524 51.2095 7.79932 51.2095C7.22803 51.2095 6.68001 51.1185 6.15527 50.9365C5.84635 50.8265 5.65804 50.7376 5.59033 50.6699C5.52262 50.6022 5.48877 50.5303 5.48877 50.4541C5.48877 50.4076 5.493 50.3483 5.50146 50.2764C5.56071 49.777 5.59245 49.3665 5.59668 49.0449C5.60514 48.846 5.61995 48.7297 5.64111 48.6958C5.65804 48.6662 5.68978 48.6514 5.73633 48.6514C5.77441 48.6514 5.80404 48.6662 5.8252 48.6958C5.85059 48.7212 5.86751 48.772 5.87598 48.8481C5.92253 49.3687 6.16374 49.8341 6.59961 50.2446C7.03125 50.6551 7.52002 50.8604 8.06592 50.8604C8.40023 50.8604 8.70703 50.7905 8.98633 50.6509C9.26986 50.5112 9.48991 50.3102 9.64648 50.0479C9.80729 49.7812 9.8877 49.5231 9.8877 49.2734C9.8877 48.9307 9.76709 48.6175 9.52588 48.334C9.28467 48.0505 8.80013 47.7204 8.07227 47.3438C7.3444 46.9629 6.87044 46.6857 6.65039 46.5122C6.29492 46.2287 6.02832 45.9282 5.85059 45.6108C5.7194 45.3654 5.65381 45.0798 5.65381 44.7539C5.65381 44.1657 5.88656 43.6685 6.35205 43.2622C6.81755 42.8517 7.44173 42.6465 8.22461 42.6465C8.65625 42.6465 9.02865 42.6951 9.3418 42.7925C9.57031 42.8687 9.80518 42.9935 10.0464 43.167ZM11.4746 50.8477C11.9697 50.7588 12.2554 50.6911 12.3315 50.6445C12.3781 50.6149 12.4014 50.5472 12.4014 50.4414L12.395 50.0225L12.4014 49.2798L12.3887 47.3882L12.395 46.6836V46.1821L12.4141 45.5664C12.4141 44.6016 12.4035 44.026 12.3823 43.8398C12.3654 43.6494 12.3294 43.5309 12.2744 43.4844C12.1729 43.387 11.8936 43.2855 11.4365 43.1797V43.1479C11.4365 43.1183 11.4408 43.076 11.4492 43.021C11.5085 43.0125 11.5656 43.002 11.6206 42.9893C11.6756 42.9766 11.7285 42.9681 11.7793 42.9639C12.2829 42.82 12.6489 42.6803 12.8774 42.5449H13.1885C13.1969 42.6634 13.2012 43.0379 13.2012 43.6685L13.1948 44.4746L13.2012 45.5156L13.1758 46.7979C13.1758 46.874 13.18 46.9587 13.1885 47.0518C13.4551 46.7428 13.6497 46.5376 13.7725 46.436C13.9925 46.2583 14.2274 46.1187 14.4771 46.0171C14.7267 45.9113 14.9891 45.8584 15.2642 45.8584C15.7847 45.8584 16.21 46.0785 16.54 46.5186C16.7305 46.7767 16.8257 47.1427 16.8257 47.6167L16.8066 48.2642L16.813 48.626L16.7876 49.2544C16.7707 49.7749 16.7622 50.0838 16.7622 50.1812C16.7622 50.2912 16.7664 50.4393 16.7749 50.6255L17.1367 50.708C17.3779 50.7588 17.5641 50.8053 17.6953 50.8477L17.689 51.0444L16.3369 51.0063C16.2607 51.0063 16.0534 51.0148 15.7148 51.0317C15.5075 51.0402 15.3869 51.0444 15.353 51.0444H15.2134C15.1922 51.0063 15.1816 50.9746 15.1816 50.9492V50.8921C15.2409 50.8159 15.3509 50.7651 15.5117 50.7397L15.8926 50.6509C15.9434 50.6086 15.973 50.5641 15.9814 50.5176C15.9984 50.4076 16.0174 49.8617 16.0386 48.8799L16.0513 48.4102C16.0682 47.915 16.0301 47.5046 15.937 47.1787C15.8778 46.9544 15.7424 46.7767 15.5308 46.6455C15.3234 46.5101 15.0822 46.4424 14.8071 46.4424C14.5786 46.4424 14.3628 46.491 14.1597 46.5884C14.02 46.6603 13.8529 46.7852 13.6582 46.9629C13.4635 47.1406 13.3281 47.293 13.252 47.4199C13.2012 47.5046 13.1758 47.6442 13.1758 47.8389L13.1821 48.2832L13.1694 48.7466C13.1694 48.7847 13.1758 49.0492 13.1885 49.54L13.1821 49.9463L13.1948 50.3906C13.1991 50.4541 13.2054 50.5007 13.2139 50.5303L14.1089 50.7461C14.1554 50.7588 14.2253 50.7842 14.3184 50.8223L14.3374 50.8921C14.3374 50.9132 14.3268 50.9471 14.3057 50.9937C14.1829 50.9979 14.0898 51 14.0264 51L13.5312 50.9937L12.4395 51.0063L11.6206 51.0317C11.5783 51.0275 11.5148 51.0233 11.4302 51.019L11.4238 50.9746C11.4238 50.9408 11.4408 50.8984 11.4746 50.8477ZM23.0337 50.1367C23.0591 50.1917 23.0718 50.2319 23.0718 50.2573C23.0718 50.3208 23.021 50.4329 22.9194 50.5938C22.7882 50.8053 22.6423 50.9598 22.4814 51.0571C22.3799 51.1206 22.2402 51.1523 22.0625 51.1523C21.7578 51.1523 21.5293 51.0592 21.377 50.873C21.2839 50.763 21.2183 50.5662 21.1802 50.2827L20.4692 50.7778C20.2196 50.9217 20.0291 51.0127 19.8979 51.0508C19.6864 51.1058 19.4325 51.1333 19.1362 51.1333C18.9204 51.1333 18.749 51.0698 18.6221 50.9429C18.4993 50.8117 18.438 50.6445 18.438 50.4414C18.438 50.1494 18.6157 49.8003 18.9712 49.394C19.3309 48.9878 19.8175 48.6556 20.4312 48.3975C20.8628 48.2155 21.1273 48.0991 21.2246 48.0483C21.2331 47.9087 21.2373 47.7563 21.2373 47.5913C21.2373 47.0539 21.1611 46.6899 21.0088 46.4995C20.8607 46.3091 20.647 46.2139 20.3677 46.2139C20.0757 46.2139 19.8027 46.3281 19.5488 46.5566C19.3923 46.7005 19.2738 46.9714 19.1934 47.3691C19.168 47.4792 19.1193 47.5977 19.0474 47.7246C18.8654 47.8431 18.7194 47.9023 18.6094 47.9023C18.5163 47.9023 18.4316 47.8748 18.3555 47.8198C18.3132 47.7902 18.292 47.7563 18.292 47.7183C18.292 47.6082 18.4084 47.3607 18.6411 46.9756C18.8781 46.5863 19.1743 46.2964 19.5298 46.106C19.8895 45.9113 20.2026 45.814 20.4692 45.814C20.8332 45.814 21.104 45.8478 21.2817 45.9155C21.4595 45.979 21.616 46.0933 21.7515 46.2583C21.8869 46.4233 21.9694 46.6032 21.999 46.7979C22.016 46.891 22.0244 47.2231 22.0244 47.7944L22.0054 48.8037L22.0117 49.54C22.0117 49.6374 22.0096 49.7199 22.0054 49.7876C22.0011 49.9103 21.999 50.0013 21.999 50.0605C21.999 50.2002 22.0392 50.3123 22.1196 50.397C22.2 50.4816 22.2952 50.5239 22.4053 50.5239C22.5661 50.5239 22.7036 50.4435 22.8179 50.2827L22.894 50.1812C22.9152 50.1685 22.9618 50.1536 23.0337 50.1367ZM21.1675 49.9526C21.1971 49.4152 21.2119 49.0365 21.2119 48.8164C21.2119 48.7021 21.2056 48.5477 21.1929 48.353C20.9093 48.4546 20.6089 48.609 20.2915 48.8164C19.9741 49.0238 19.7223 49.2629 19.5361 49.5337C19.4007 49.7284 19.333 49.9124 19.333 50.0859C19.333 50.251 19.388 50.3885 19.498 50.4985C19.6123 50.6086 19.7541 50.6636 19.9233 50.6636C20.0545 50.6636 20.2132 50.617 20.3994 50.5239C20.6449 50.4012 20.9009 50.2108 21.1675 49.9526ZM23.4146 51.019L23.3892 50.9365C23.3892 50.9069 23.4082 50.8625 23.4463 50.8032L23.8208 50.7271L24.3477 50.6318C24.39 50.6107 24.4196 50.5811 24.4365 50.543C24.4619 50.488 24.4746 50.325 24.4746 50.0542C24.4746 48.6154 24.4661 47.786 24.4492 47.5659C24.4323 47.3416 24.3942 47.1999 24.335 47.1406C24.2757 47.0814 24.1234 47.0348 23.8779 47.001C23.734 46.9798 23.6198 46.9523 23.5352 46.9185L23.5605 46.728C24.0049 46.5461 24.3032 46.3895 24.4556 46.2583C24.6672 46.0679 24.847 45.8182 24.9951 45.5093L25.2109 45.5156C25.2363 45.7272 25.249 46.1969 25.249 46.9248L25.2427 47.0327C25.2427 47.0581 25.2469 47.0983 25.2554 47.1533C25.4162 46.8613 25.6172 46.5926 25.8584 46.3472L26.0044 46.2012C26.0636 46.1335 26.1208 46.0806 26.1758 46.0425C26.472 45.8647 26.6921 45.7759 26.8359 45.7759C27.0221 45.7759 27.1745 45.8394 27.293 45.9663C27.4115 46.089 27.4707 46.2414 27.4707 46.4233C27.4707 46.5672 27.4284 46.6794 27.3438 46.7598C27.2295 46.8656 27.0983 46.9185 26.9502 46.9185C26.8825 46.9185 26.7492 46.8825 26.5503 46.8105C26.3514 46.7386 26.2202 46.7026 26.1567 46.7026C26.0382 46.7026 25.9557 46.7217 25.9092 46.7598C25.7907 46.8529 25.6468 47.0433 25.4775 47.3311C25.3464 47.5469 25.2808 47.7458 25.2808 47.9277L25.3125 48.9751L25.3252 50.2319C25.3379 50.3758 25.3548 50.4689 25.376 50.5112C25.3929 50.5409 25.4352 50.5768 25.5029 50.6191C25.96 50.6572 26.2308 50.6847 26.3154 50.7017C26.3747 50.7059 26.4191 50.7101 26.4487 50.7144C26.6307 50.7186 26.7576 50.744 26.8296 50.7905C26.8677 50.8117 26.8867 50.8434 26.8867 50.8857C26.8867 50.9111 26.8698 50.945 26.8359 50.9873L26.1313 50.981L25.8647 50.9746L25.4775 50.981H24.8301L24.481 51L23.4146 51.019ZM32.5234 47.6484L29.978 47.6675H29.4956C29.3009 47.6675 29.1021 47.6759 28.8989 47.6929C28.8608 47.8198 28.8418 47.9066 28.8418 47.9531L28.8481 48.0166V48.0801L28.8418 48.3911C28.8418 48.6493 28.9222 48.9666 29.083 49.3433C29.248 49.7157 29.4808 50.0013 29.7812 50.2002C30.0859 50.3949 30.4647 50.4985 30.9175 50.5112C31.1587 50.4985 31.3512 50.4689 31.4951 50.4224C31.639 50.3758 31.8421 50.2679 32.1045 50.0986L32.5615 49.7241L32.5996 49.978C32.5996 50.0076 32.5975 50.0394 32.5933 50.0732C32.4028 50.3145 32.1616 50.526 31.8696 50.708C31.5776 50.89 31.2814 51.0233 30.981 51.1079C30.8371 51.146 30.6001 51.165 30.27 51.165C29.9696 51.165 29.6733 51.1037 29.3813 50.981C28.9497 50.7948 28.609 50.4964 28.3594 50.0859C28.1139 49.6712 27.9912 49.1698 27.9912 48.5815C27.9912 48.3953 28.0251 48.1562 28.0928 47.8643C28.1647 47.5723 28.2917 47.2612 28.4736 46.9312C28.5964 46.7069 28.7466 46.5228 28.9243 46.3789C29.1782 46.1758 29.4004 46.034 29.5908 45.9536C29.8659 45.8394 30.1854 45.7822 30.5493 45.7822C30.9429 45.7822 31.2645 45.8542 31.5142 45.998C31.8527 46.1885 32.1045 46.4339 32.2695 46.7344C32.4388 47.0348 32.5234 47.3099 32.5234 47.5596V47.6484ZM28.9814 47.4199H29.2798C29.4956 47.4199 30.1388 47.3861 31.2095 47.3184C31.3787 47.3099 31.4824 47.293 31.5205 47.2676C31.5967 47.1872 31.6348 47.1152 31.6348 47.0518C31.6348 46.9206 31.5924 46.7725 31.5078 46.6074C31.4232 46.4382 31.292 46.3091 31.1143 46.2202C30.9408 46.1271 30.7376 46.0806 30.5049 46.0806C30.014 46.0806 29.6204 46.2646 29.3242 46.6328C29.0957 46.9121 28.9814 47.1745 28.9814 47.4199Z" fill="#D6CB89"/>
<path fill-rule="evenodd" clip-rule="evenodd" d="M20.4277 4.5C20.4277 3.87868 20.9454 3.375 21.584 3.375H32.3757C33.0142 3.375 33.5319 3.87868 33.5319 4.5V15C33.5319 15.6213 33.0142 16.125 32.3757 16.125C31.7371 16.125 31.2194 15.6213 31.2194 15V5.625H21.584C20.9454 5.625 20.4277 5.12132 20.4277 4.5Z" fill="#D6CB89"/>
<path fill-rule="evenodd" clip-rule="evenodd" d="M6.9375 5.625C6.29892 5.625 5.78125 6.12868 5.78125 6.75V29.25C5.78125 29.8713 6.29891 30.375 6.9375 30.375H30.0625C30.7011 30.375 31.2187 29.8714 31.2187 29.25V22.1053C31.2187 21.484 31.7364 20.9803 32.375 20.9803C33.0136 20.9803 33.5312 21.484 33.5312 22.1053V29.25C33.5312 31.114 31.9783 32.625 30.0625 32.625H6.9375C5.02178 32.625 3.46875 31.114 3.46875 29.25V6.75C3.46875 4.88604 5.02177 3.375 6.9375 3.375H13.875C14.5136 3.375 15.0312 3.87868 15.0312 4.5C15.0312 5.12132 14.5136 5.625 13.875 5.625H6.9375Z" fill="#D6CB89"/>
<path fill-rule="evenodd" clip-rule="evenodd" d="M32.4981 4.37931C32.9496 4.81865 32.9496 5.53096 32.4981 5.9703L20.7043 17.4453C20.2528 17.8846 19.5207 17.8846 19.0691 17.4453C18.6176 17.006 18.6176 16.2937 19.0691 15.8543L30.8629 4.37931C31.3144 3.93997 32.0465 3.93997 32.4981 4.37931Z" fill="#D6CB89"/>
</svg>
