<svg width="35" height="49" viewBox="0 0 35 49" fill="none" xmlns="http://www.w3.org/2000/svg">
<path fill-rule="evenodd" clip-rule="evenodd" d="M3.28125 8.86426C3.28125 8.22568 3.77094 7.70801 4.375 7.70801H21.1458C21.7499 7.70801 22.2396 8.22568 22.2396 8.86426C22.2396 9.50284 21.7499 10.0205 21.1458 10.0205H4.375C3.77094 10.0205 3.28125 9.50284 3.28125 8.86426Z" fill="#D6CB89"/>
<path fill-rule="evenodd" clip-rule="evenodd" d="M3.28125 18.8857C3.28125 18.2472 3.77094 17.7295 4.375 17.7295H21.1458C21.7499 17.7295 22.2396 18.2472 22.2396 18.8857C22.2396 19.5243 21.7499 20.042 21.1458 20.042H4.375C3.77094 20.042 3.28125 19.5243 3.28125 18.8857Z" fill="#D6CB89"/>
<path fill-rule="evenodd" clip-rule="evenodd" d="M26.25 7.70801C26.8541 7.70801 27.3437 8.22568 27.3437 8.86426V25.7803L29.7946 22.7576C30.1877 22.2728 30.8782 22.2166 31.3368 22.6322C31.7954 23.0478 31.8486 23.7777 31.4554 24.2626L27.0804 29.6584C26.7826 30.0258 26.2998 30.1582 25.8705 29.9904C25.4412 29.8225 25.1562 29.3898 25.1562 28.9059V8.86426C25.1562 8.22568 25.6459 7.70801 26.25 7.70801Z" fill="#D6CB89"/>
<path fill-rule="evenodd" clip-rule="evenodd" d="M3.28125 28.9062C3.28125 28.2677 3.77094 27.75 4.375 27.75H21.1458C21.7499 27.75 22.2396 28.2677 22.2396 28.9062C22.2396 29.5448 21.7499 30.0625 21.1458 30.0625H4.375C3.77094 30.0625 3.28125 29.5448 3.28125 28.9062Z" fill="#D6CB89"/>
<path d="M12.0464 40.167C12.0802 40.4463 12.0972 40.6071 12.0972 40.6494L12.0718 41.2144C12.0633 41.4556 12.0527 41.61 12.04 41.6777C12.002 41.6947 11.9702 41.7031 11.9448 41.7031L11.8877 41.6904C11.7523 41.098 11.5216 40.6663 11.1958 40.3955C10.8742 40.1247 10.4806 39.9893 10.0151 39.9893C9.53271 39.9893 9.13704 40.1247 8.82812 40.3955C8.51921 40.6663 8.36475 40.9816 8.36475 41.3413C8.36475 41.6164 8.47266 41.8682 8.68848 42.0967C8.9043 42.3252 9.45654 42.668 10.3452 43.125C11.0223 43.4762 11.5068 43.764 11.7988 43.9883C12.0908 44.2083 12.3109 44.4644 12.459 44.7563C12.6071 45.0483 12.6812 45.3742 12.6812 45.7339C12.6812 46.1867 12.5627 46.612 12.3257 47.0098C12.0929 47.4076 11.7777 47.708 11.3799 47.9111C10.9821 48.11 10.4552 48.2095 9.79932 48.2095C9.22803 48.2095 8.68001 48.1185 8.15527 47.9365C7.84635 47.8265 7.65804 47.7376 7.59033 47.6699C7.52262 47.6022 7.48877 47.5303 7.48877 47.4541C7.48877 47.4076 7.493 47.3483 7.50146 47.2764C7.56071 46.777 7.59245 46.3665 7.59668 46.0449C7.60514 45.846 7.61995 45.7297 7.64111 45.6958C7.65804 45.6662 7.68978 45.6514 7.73633 45.6514C7.77441 45.6514 7.80404 45.6662 7.8252 45.6958C7.85059 45.7212 7.86751 45.772 7.87598 45.8481C7.92253 46.3687 8.16374 46.8341 8.59961 47.2446C9.03125 47.6551 9.52002 47.8604 10.0659 47.8604C10.4002 47.8604 10.707 47.7905 10.9863 47.6509C11.2699 47.5112 11.4899 47.3102 11.6465 47.0479C11.8073 46.7812 11.8877 46.5231 11.8877 46.2734C11.8877 45.9307 11.7671 45.6175 11.5259 45.334C11.2847 45.0505 10.8001 44.7204 10.0723 44.3438C9.3444 43.9629 8.87044 43.6857 8.65039 43.5122C8.29492 43.2287 8.02832 42.9282 7.85059 42.6108C7.7194 42.3654 7.65381 42.0798 7.65381 41.7539C7.65381 41.1657 7.88656 40.6685 8.35205 40.2622C8.81755 39.8517 9.44173 39.6465 10.2246 39.6465C10.6562 39.6465 11.0286 39.6951 11.3418 39.7925C11.5703 39.8687 11.8052 39.9935 12.0464 40.167ZM13.6968 45.4482C13.6968 45.1605 13.756 44.8537 13.8745 44.5278C13.9972 44.1978 14.1813 43.9036 14.4268 43.6455C14.6722 43.3831 14.9325 43.1885 15.2075 43.0615C15.5926 42.8838 16.0623 42.7949 16.6167 42.7949C17.408 42.7949 18.0682 43.0658 18.5972 43.6074C19.1304 44.1491 19.397 44.8008 19.397 45.5625C19.397 46.2396 19.1177 46.8447 18.5591 47.3779C18.0047 47.9069 17.3022 48.1714 16.4517 48.1714C15.9269 48.1714 15.4318 48.0339 14.9663 47.7588C14.6193 47.5514 14.321 47.2446 14.0713 46.8384C13.8216 46.4321 13.6968 45.9688 13.6968 45.4482ZM16.5024 47.9238C16.8241 47.9238 17.133 47.8371 17.4292 47.6636C17.7297 47.4901 17.9688 47.2129 18.1465 46.832C18.3242 46.4469 18.4131 46.0026 18.4131 45.499C18.4131 45.1689 18.3433 44.786 18.2036 44.3501C18.0682 43.9142 17.8566 43.5884 17.5688 43.3726C17.2853 43.1525 16.951 43.0425 16.5659 43.0425C16.2866 43.0425 16.001 43.1081 15.709 43.2393C15.4212 43.3704 15.1758 43.6222 14.9727 43.9946C14.7738 44.367 14.6743 44.896 14.6743 45.5815C14.6743 46.3517 14.8478 46.9357 15.1948 47.3335C15.5461 47.7271 15.9819 47.9238 16.5024 47.9238ZM20.1333 48.019L20.1079 47.9365C20.1079 47.9069 20.127 47.8625 20.165 47.8032L20.5396 47.7271L21.0664 47.6318C21.1087 47.6107 21.1383 47.5811 21.1553 47.543C21.1807 47.488 21.1934 47.325 21.1934 47.0542C21.1934 45.6154 21.1849 44.786 21.168 44.5659C21.151 44.3416 21.113 44.1999 21.0537 44.1406C20.9945 44.0814 20.8421 44.0348 20.5967 44.001C20.4528 43.9798 20.3385 43.9523 20.2539 43.9185L20.2793 43.728C20.7236 43.5461 21.022 43.3895 21.1743 43.2583C21.3859 43.0679 21.5658 42.8182 21.7139 42.5093L21.9297 42.5156C21.9551 42.7272 21.9678 43.1969 21.9678 43.9248L21.9614 44.0327C21.9614 44.0581 21.9657 44.0983 21.9741 44.1533C22.1349 43.8613 22.3359 43.5926 22.5771 43.3472L22.7231 43.2012C22.7824 43.1335 22.8395 43.0806 22.8945 43.0425C23.1908 42.8647 23.4108 42.7759 23.5547 42.7759C23.7409 42.7759 23.8932 42.8394 24.0117 42.9663C24.1302 43.089 24.1895 43.2414 24.1895 43.4233C24.1895 43.5672 24.1471 43.6794 24.0625 43.7598C23.9482 43.8656 23.8171 43.9185 23.6689 43.9185C23.6012 43.9185 23.4679 43.8825 23.269 43.8105C23.0701 43.7386 22.939 43.7026 22.8755 43.7026C22.757 43.7026 22.6745 43.7217 22.6279 43.7598C22.5094 43.8529 22.3656 44.0433 22.1963 44.3311C22.0651 44.5469 21.9995 44.7458 21.9995 44.9277L22.0312 45.9751L22.0439 47.2319C22.0566 47.3758 22.0736 47.4689 22.0947 47.5112C22.1117 47.5409 22.154 47.5768 22.2217 47.6191C22.6787 47.6572 22.9495 47.6847 23.0342 47.7017C23.0934 47.7059 23.1379 47.7101 23.1675 47.7144C23.3494 47.7186 23.4764 47.744 23.5483 47.7905C23.5864 47.8117 23.6055 47.8434 23.6055 47.8857C23.6055 47.9111 23.5885 47.945 23.5547 47.9873L22.8501 47.981L22.5835 47.9746L22.1963 47.981H21.5488L21.1997 48L20.1333 48.019ZM26.2969 41.7285L26.4937 41.7349L26.519 42.3379L26.5063 43.1187C26.5868 43.1229 26.6375 43.125 26.6587 43.125C26.7687 43.125 26.9782 43.1165 27.2871 43.0996C27.486 43.0869 27.6764 43.0806 27.8584 43.0806C27.943 43.0806 28.07 43.0827 28.2393 43.0869C28.2477 43.1715 28.252 43.2393 28.252 43.29C28.252 43.3451 28.2393 43.4318 28.2139 43.5503H28.106L27.1221 43.582L26.6333 43.5947L26.519 43.6074C26.4852 43.7132 26.4683 43.8359 26.4683 43.9756L26.4873 44.9277L26.4746 46.6035C26.4746 47.0436 26.5317 47.3356 26.646 47.4795C26.756 47.6276 26.9211 47.7017 27.1411 47.7017C27.2511 47.7017 27.4585 47.6678 27.7632 47.6001C27.8563 47.5789 27.9811 47.5091 28.1377 47.3906H28.1948C28.2329 47.3906 28.2625 47.4033 28.2837 47.4287C28.3091 47.4499 28.3218 47.4795 28.3218 47.5176L28.3154 47.562C28.1335 47.7609 27.924 47.9069 27.687 48C27.4543 48.0889 27.1432 48.1333 26.7539 48.1333C26.4788 48.1333 26.2503 48.0698 26.0684 47.9429C25.8906 47.8159 25.7764 47.6657 25.7256 47.4922C25.6748 47.3187 25.6494 46.9399 25.6494 46.356L25.6748 44.9277L25.6685 44.2422V43.9883C25.6685 43.8698 25.6642 43.7513 25.6558 43.6328L25.5479 43.6265L25.0273 43.6455L24.9766 43.6519C24.93 43.6519 24.894 43.6413 24.8687 43.6201C24.8475 43.599 24.8369 43.5736 24.8369 43.5439C24.8369 43.4932 24.8517 43.453 24.8813 43.4233C24.9152 43.3895 25.0125 43.3387 25.1733 43.271C25.2834 43.2244 25.4103 43.1377 25.5542 43.0107C25.7023 42.8796 25.8271 42.7357 25.9287 42.5791C25.9795 42.4945 26.0514 42.3337 26.1445 42.0967C26.2122 41.9232 26.263 41.8005 26.2969 41.7285Z" fill="#D6CB89"/>
</svg>
