<svg width="245" height="132" viewBox="0 0 245 132" fill="none" xmlns="http://www.w3.org/2000/svg">
<path d="M38.0724 42.1053C32.8774 42.0398 34.6194 42.1246 38.2144 40.8469C43.436 39.0911 49.2645 38.3208 53.688 35.0343C60.045 29.6621 57.1082 22.4557 49.9836 19.2354C45.3908 17.1325 40.1354 16.4892 35.0444 16.4631C23.5391 16.5846 12.163 21.3848 4.79658 29.4728C2.91775 31.5468 1.17295 33.7834 0 36.2589C0.945367 31.4656 4.61781 27.4614 8.52597 24.29C15.5067 18.6857 24.3612 15.0688 33.5397 13.7959C36.8961 13.3285 40.3196 13.048 43.705 13.4106C48.3764 13.9849 53.0528 15.5353 56.6672 18.3477C60.234 21.1031 62.5488 25.3403 62.0623 29.6531C61.8518 33.3652 59.861 36.3493 56.6992 38.619C54.3056 40.4501 51.2635 41.4607 48.1682 41.7073C44.8103 41.9487 41.4413 42.1168 38.0724 42.1053Z" fill="#D6CB89"/>
<path d="M43.3344 67.0585C39.9448 66.8476 36.6102 65.9934 33.5759 64.6036C30.1126 63.078 27.1578 60.5432 25.5181 57.3497C24.1127 54.5961 24.1469 51.4572 24.5037 48.4964C24.6041 47.8297 24.7825 47.1713 24.9376 46.5135C25.198 45.1969 25.5873 43.9103 26.0447 42.6406C26.4138 41.3759 26.8615 40.1342 27.3614 38.9073C27.6283 38.2063 27.8908 37.5039 28.2135 36.8222C28.5232 36.1732 28.8542 35.5325 29.1041 34.8615C29.6621 33.283 30.3628 31.7251 30.4984 30.055C30.6044 28.2359 29.6036 26.3432 27.7698 25.5261C26.0663 24.7897 24.0956 25.0095 22.2992 25.3047C19.0752 25.8864 16.1037 27.2916 13.403 28.9583C10.8721 30.5189 8.44289 32.2183 6.12823 34.0368C4.9928 34.9563 3.87241 35.9048 2.97852 37.0256C6.11561 32.1693 10.4989 28.5449 15.8767 25.802C18.6283 24.3802 21.585 23.0639 24.783 22.8421C27.7473 22.5906 30.7863 24.0132 32.1787 26.4342C32.5449 27.1366 32.8353 27.8807 32.996 28.6457C33.1133 29.3768 33.2117 30.1181 33.2356 30.8568C33.2252 32.0329 32.9676 33.2012 32.6469 34.3366C32.2344 35.5657 31.6421 36.7287 31.2752 37.98C30.3974 40.3279 29.4507 42.6857 29.1716 45.1701C29.0041 46.3015 28.8879 47.4397 28.9836 48.581C29.11 49.8127 29.207 51.0642 29.6388 52.2439C31.1786 56.3198 34.4351 58.756 38.8023 60.1785C41.6837 61.0158 44.6976 61.5464 47.7302 61.5282C51.7607 61.4672 55.7582 60.8335 59.6184 59.7887C61.8391 59.1772 64.0726 58.5821 66.2347 57.812C68.462 56.988 70.6232 56.026 72.7874 55.0749C74.2468 54.4365 75.7162 53.7893 77.1755 53.1662C73.128 55.7597 68.7632 57.9483 64.9487 60.8361C62.4564 62.8616 59.6079 64.5206 56.4454 65.527C52.2885 66.991 47.7534 67.3176 43.3344 67.0585Z" fill="#D6CB89"/>
<path d="M10.3446 54.5397C12.1817 50.5055 14.4544 46.6077 15.5827 42.3317C16.2223 40.0684 16.909 37.647 16.3768 35.3166C13.8168 35.4768 10.5941 36.4985 8.97461 38.3783C10.2476 36.0141 12.1331 33.5941 14.7848 32.3626C17.2838 31.2694 20.4381 32.8064 20.9027 35.2843C21.4527 37.1004 20.9964 39.0031 20.3899 40.7587C18.6214 46.1118 14.5011 50.5605 10.3446 54.5397Z" fill="#D6CB89"/>
<path d="M69.6008 56.6951C67.0341 56.6951 65.0841 56.0618 63.7508 54.7951C62.4174 53.4951 61.7508 51.8785 61.7508 49.9451C61.7508 47.9785 61.9174 46.3118 62.2508 44.9451C62.6174 43.5451 63.2008 42.2118 64.0008 40.9451C64.8008 39.6451 66.0008 38.6284 67.6008 37.8951C69.2341 37.1618 71.2508 36.7951 73.6508 36.7951C76.0841 36.7951 77.9674 37.4451 79.3008 38.7451C80.6674 40.0118 81.3508 41.7618 81.3508 43.9951C81.3508 47.7951 80.3341 50.8618 78.3008 53.1951C76.3008 55.5285 73.4008 56.6951 69.6008 56.6951ZM67.4008 51.5451C67.4008 54.2118 68.1674 55.5451 69.7008 55.5451C71.2674 55.5451 72.6508 54.2118 73.8508 51.5451C75.0841 48.8451 75.7008 45.6451 75.7008 41.9451C75.7008 39.1451 74.9341 37.7451 73.4008 37.7451C71.9008 37.7451 70.5174 39.0285 69.2508 41.5951C68.0174 44.1285 67.4008 47.4451 67.4008 51.5451ZM86.9211 37.7951C86.1211 37.7951 85.2878 38.2618 84.4211 39.1951L83.6711 38.5951C83.9044 38.1284 84.4211 37.7118 85.2211 37.3451C86.0211 36.9784 86.9044 36.7951 87.8711 36.7951C90.9044 36.7951 92.4211 38.1618 92.4211 40.8951C92.4211 42.0618 92.1044 43.9785 91.4711 46.6451C90.8378 49.2785 90.5211 51.0618 90.5211 51.9951C90.5211 53.5951 91.1878 54.3951 92.5211 54.3951C93.6211 54.3951 94.6878 53.6451 95.7211 52.1451C96.7878 50.6451 97.6544 48.6285 98.3211 46.0951L99.9711 37.2451C102.438 37.2451 104.238 37.1451 105.371 36.9451L106.021 36.7951L102.871 54.4951C102.271 57.9285 100.871 60.6118 98.6711 62.5451C96.5044 64.4785 93.6878 65.4451 90.2211 65.4451C88.1211 65.4451 86.4878 65.0785 85.3211 64.3451C84.1878 63.6451 83.6211 62.7118 83.6211 61.5451C83.6211 60.4118 83.9711 59.4951 84.6711 58.7951C85.3711 58.1285 86.3544 57.7951 87.6211 57.7951C88.9211 57.7951 90.1211 57.9951 91.2211 58.3951C92.3211 58.8285 93.1211 59.0785 93.6211 59.1451L93.5211 60.0451C92.9544 59.9785 92.1378 59.7451 91.0711 59.3451C90.0044 58.9451 88.9378 58.7451 87.8711 58.7451C86.8378 58.7451 86.0378 58.9785 85.4711 59.4451C84.9378 59.9118 84.6711 60.5785 84.6711 61.4451C84.6711 62.3451 85.1544 63.0618 86.1211 63.5951C87.0878 64.1618 88.2878 64.4451 89.7211 64.4451C93.1878 64.4451 95.3211 62.3618 96.1211 58.1951L97.3711 51.2951C95.9711 54.3618 93.8544 55.8951 91.0211 55.8951C89.0878 55.8951 87.5878 55.3451 86.5211 54.2451C85.4878 53.1451 84.9711 51.5951 84.9711 49.5951C84.9711 48.5618 85.2711 46.7118 85.8711 44.0451C86.5044 41.3451 86.8544 39.2618 86.9211 37.7951ZM125.641 56.6951C122.708 56.6951 121.108 55.4118 120.841 52.8451C119.374 55.4118 117.524 56.6951 115.291 56.6951C113.058 56.6951 111.274 56.0285 109.941 54.6951C108.641 53.3285 107.991 51.4285 107.991 48.9951C107.991 45.1951 108.924 42.2118 110.791 40.0451C112.658 37.8784 115.074 36.7951 118.041 36.7951C120.474 36.7951 122.091 37.9451 122.891 40.2451C123.058 39.2451 123.241 38.2451 123.441 37.2451C125.908 37.2451 127.741 37.1451 128.941 36.9451L129.591 36.7951L126.141 55.6951C127.141 55.5951 127.974 55.1285 128.641 54.2951L129.391 54.8951C128.391 56.0951 127.141 56.6951 125.641 56.6951ZM113.641 51.5451C113.641 53.0451 113.824 54.0951 114.191 54.6951C114.591 55.2618 115.191 55.5451 115.991 55.5451C116.791 55.5451 117.608 55.1118 118.441 54.2451C119.541 53.1118 120.424 51.6785 121.091 49.9451C121.191 49.5118 121.374 48.4784 121.641 46.8451C121.941 45.1785 122.191 43.8118 122.391 42.7451C122.291 41.4784 121.941 40.3784 121.341 39.4451C120.741 38.5118 119.991 38.0451 119.091 38.0451C117.458 38.0451 116.141 39.5118 115.141 42.4451C114.141 45.3451 113.641 48.3785 113.641 51.5451ZM141.36 54.4451C140.926 55.0118 140.326 55.5285 139.56 55.9951C138.826 56.4618 137.86 56.6951 136.66 56.6951C135.46 56.6951 134.443 56.3118 133.61 55.5451C132.776 54.7785 132.36 53.6951 132.36 52.2951C132.36 52.0285 132.393 51.5951 132.46 50.9951L135.71 32.9951C136.31 29.6951 137.126 27.3451 138.16 25.9451C139.226 24.5451 140.626 23.8451 142.36 23.8451C143.56 23.8451 144.543 24.2951 145.31 25.1951C146.11 26.0951 146.51 27.4618 146.51 29.2951C146.51 31.1284 145.793 33.7451 144.36 37.1451C142.96 40.5451 142.26 43.0285 142.26 44.5951H141.36C141.36 42.8284 142.06 40.3118 143.46 37.0451C144.86 33.7451 145.56 31.1118 145.56 29.1451C145.56 27.9451 145.276 26.9118 144.71 26.0451C144.176 25.1784 143.51 24.7451 142.71 24.7451C142.676 25.6118 142.093 29.5118 140.96 36.4451C139.86 43.3451 138.76 49.7618 137.66 55.6951C138.593 55.6951 139.46 55.2118 140.26 54.2451C141.06 53.2785 141.626 52.3118 141.96 51.3451L142.51 49.8451L143.41 50.2451C143.31 50.7118 143.043 51.3951 142.61 52.2951C142.21 53.1618 141.793 53.8785 141.36 54.4451Z" fill="#D6CB89"/>
<path d="M166.797 32.625H158.75L157.844 34.5312C157.625 34.9896 157.516 35.349 157.516 35.6094C157.516 36.1094 157.849 36.4271 158.516 36.5625V37H152.078V36.5625C152.474 36.5 152.766 36.3802 152.953 36.2031C153.151 36.026 153.38 35.6771 153.641 35.1562L160.031 22.2188C160.271 21.7292 160.391 21.3021 160.391 20.9375C160.391 20.5104 160.099 20.1771 159.516 19.9375V19.5H166.312V19.9375C165.74 20.1667 165.453 20.5208 165.453 21C165.453 21.3438 165.583 21.7656 165.844 22.2656L172.469 34.8125C172.833 35.5 173.12 35.9479 173.328 36.1562C173.536 36.3542 173.854 36.4948 174.281 36.5781V37H167.141V36.5781C167.818 36.4635 168.156 36.1458 168.156 35.625C168.156 35.3021 168.026 34.901 167.766 34.4219L166.797 32.625ZM165.531 30.1719L162.672 24.5625L159.953 30.1719H165.531ZM186.65 27.0586V32.8496C186.65 34.1712 186.39 35.1413 185.869 35.7598C185.029 36.7428 183.447 37.2344 181.123 37.2344C179.567 37.2344 178.311 36.9967 177.354 36.5215C176.663 36.1764 176.191 35.6849 175.938 35.0469C175.703 34.4609 175.586 33.7285 175.586 32.8496V27.0586C175.586 26.8568 175.54 26.7038 175.449 26.5996C175.358 26.4954 175.195 26.4076 174.961 26.3359V26.0625H178.838V26.3359C178.597 26.401 178.431 26.4889 178.34 26.5996C178.249 26.7038 178.203 26.8568 178.203 27.0586V32.3223C178.203 32.9342 178.255 33.403 178.359 33.7285C178.47 34.054 178.659 34.321 178.926 34.5293C179.46 34.9525 180.231 35.1641 181.24 35.1641C182.249 35.1641 183.021 34.9525 183.555 34.5293C183.815 34.321 183.997 34.054 184.102 33.7285C184.206 33.403 184.258 32.9342 184.258 32.3223V27.0586C184.258 26.8568 184.212 26.7038 184.121 26.5996C184.036 26.4954 183.874 26.4076 183.633 26.3359V26.0625H187.275V26.3359C187.041 26.401 186.878 26.4889 186.787 26.5996C186.696 26.7038 186.65 26.8568 186.65 27.0586ZM195.02 28.0449V36.0039C195.02 36.2057 195.065 36.362 195.156 36.4727C195.247 36.5768 195.41 36.6647 195.645 36.7363V37H191.777V36.7266C192.005 36.668 192.165 36.5833 192.256 36.4727C192.354 36.362 192.402 36.2057 192.402 36.0039V28.0449H189.18C188.971 28.0449 188.812 28.0938 188.701 28.1914C188.597 28.2826 188.512 28.4453 188.447 28.6797H188.184V25.4375H188.457C188.516 25.6654 188.597 25.8281 188.701 25.9258C188.812 26.0169 188.971 26.0625 189.18 26.0625H198.242C198.451 26.0625 198.607 26.0169 198.711 25.9258C198.822 25.8346 198.91 25.6719 198.975 25.4375H199.238V28.6797H198.975C198.91 28.4453 198.822 28.2826 198.711 28.1914C198.607 28.0938 198.451 28.0449 198.242 28.0449H195.02ZM206.484 25.8281C208.223 25.8281 209.671 26.2708 210.83 27.1562C212.217 28.224 212.91 29.7116 212.91 31.6191C212.91 33.4095 212.217 34.8385 210.83 35.9062C209.684 36.7917 208.242 37.2344 206.504 37.2344C204.766 37.2344 203.324 36.7917 202.178 35.9062C200.785 34.8385 200.088 33.3802 200.088 31.5312C200.088 29.6628 200.785 28.2044 202.178 27.1562C203.33 26.2904 204.766 25.8477 206.484 25.8281ZM206.494 27.8984C205.368 27.8984 204.45 28.2598 203.74 28.9824C203.083 29.6595 202.754 30.5091 202.754 31.5312C202.754 32.5469 203.083 33.3932 203.74 34.0703C204.45 34.7995 205.371 35.1641 206.504 35.1641C207.63 35.1641 208.548 34.7995 209.258 34.0703C209.915 33.3997 210.244 32.5697 210.244 31.5801C210.244 30.5059 209.915 29.64 209.258 28.9824C208.542 28.2728 207.62 27.9115 206.494 27.8984ZM154.531 55.4062V41.0938C154.531 40.7708 154.458 40.526 154.312 40.3594C154.167 40.1927 153.906 40.0521 153.531 39.9375V39.5H163.797C165.932 39.5 167.615 39.7656 168.844 40.2969C170.573 41.0469 171.818 42.2865 172.578 44.0156C173.109 45.224 173.375 46.6354 173.375 48.25C173.375 51.2396 172.484 53.5052 170.703 55.0469C169.901 55.7344 168.953 56.2344 167.859 56.5469C166.776 56.849 165.422 57 163.797 57H153.531V56.5625C153.896 56.4688 154.151 56.3333 154.297 56.1562C154.453 55.9792 154.531 55.7292 154.531 55.4062ZM158.719 53.8281H163.188C165.24 53.8281 166.729 53.3594 167.656 52.4219C168.625 51.4427 169.109 50.0521 169.109 48.25C169.109 46.4479 168.625 45.0573 167.656 44.0781C167.177 43.5885 166.583 43.2344 165.875 43.0156C165.167 42.7865 164.271 42.6719 163.188 42.6719H158.719V53.8281ZM178.73 52.3516V55.0176H185.674C185.876 55.0176 186.029 54.972 186.133 54.8809C186.243 54.7897 186.331 54.6237 186.396 54.3828H186.67V57.625H186.396C186.338 57.3971 186.253 57.2344 186.143 57.1367C186.032 57.0456 185.876 57 185.674 57H175.488V56.7266C175.716 56.668 175.876 56.5833 175.967 56.4727C176.064 56.362 176.113 56.2057 176.113 56.0039V47.0586C176.113 46.8568 176.068 46.7038 175.977 46.5996C175.885 46.4954 175.723 46.4076 175.488 46.3359V46.0625H185.371C185.579 46.0625 185.736 46.0169 185.84 45.9258C185.951 45.8346 186.038 45.6719 186.104 45.4375H186.367V48.6797H186.104C186.038 48.4388 185.951 48.2728 185.84 48.1816C185.736 48.0905 185.579 48.0449 185.371 48.0449H178.73V50.4473H182.852C183.053 50.4473 183.206 50.4017 183.311 50.3105C183.421 50.2194 183.512 50.0566 183.584 49.8223H183.848V52.9863H183.584C183.519 52.752 183.431 52.5892 183.32 52.498C183.216 52.4004 183.06 52.3516 182.852 52.3516H178.73ZM196.611 54.2656H191.582L191.016 55.457C190.879 55.7435 190.811 55.9681 190.811 56.1309C190.811 56.4434 191.019 56.6419 191.436 56.7266V57H187.412V56.7266C187.66 56.6875 187.842 56.6126 187.959 56.502C188.083 56.3913 188.226 56.1732 188.389 55.8477L192.383 47.7617C192.533 47.4557 192.607 47.1888 192.607 46.9609C192.607 46.694 192.425 46.4857 192.061 46.3359V46.0625H196.309V46.3359C195.951 46.4792 195.771 46.7005 195.771 47C195.771 47.2148 195.853 47.4785 196.016 47.791L200.156 55.6328C200.384 56.0625 200.563 56.3424 200.693 56.4727C200.824 56.5964 201.022 56.6842 201.289 56.7363V57H196.826V56.7363C197.249 56.6647 197.461 56.4661 197.461 56.1406C197.461 55.9388 197.38 55.6882 197.217 55.3887L196.611 54.2656ZM195.82 52.7324L194.033 49.2266L192.334 52.7324H195.82ZM205.449 55.0176H211.572C211.781 55.0176 211.937 54.972 212.041 54.8809C212.145 54.7897 212.233 54.6237 212.305 54.3828H212.568V57.625H212.305C212.24 57.3906 212.152 57.2279 212.041 57.1367C211.937 57.0456 211.781 57 211.572 57H202.207V56.7266C202.435 56.668 202.594 56.5833 202.686 56.4727C202.783 56.362 202.832 56.2057 202.832 56.0039V47.0586C202.832 46.8568 202.786 46.7038 202.695 46.5996C202.604 46.4954 202.441 46.4076 202.207 46.3359V46.0625H206.074V46.3359C205.84 46.401 205.677 46.4889 205.586 46.5996C205.495 46.7038 205.449 46.8568 205.449 47.0586V55.0176ZM216.934 52.3516V55.0176H223.877C224.079 55.0176 224.232 54.972 224.336 54.8809C224.447 54.7897 224.535 54.6237 224.6 54.3828H224.873V57.625H224.6C224.541 57.3971 224.456 57.2344 224.346 57.1367C224.235 57.0456 224.079 57 223.877 57H213.691V56.7266C213.919 56.668 214.079 56.5833 214.17 56.4727C214.268 56.362 214.316 56.2057 214.316 56.0039V47.0586C214.316 46.8568 214.271 46.7038 214.18 46.5996C214.089 46.4954 213.926 46.4076 213.691 46.3359V46.0625H223.574C223.783 46.0625 223.939 46.0169 224.043 45.9258C224.154 45.8346 224.242 45.6719 224.307 45.4375H224.57V48.6797H224.307C224.242 48.4388 224.154 48.2728 224.043 48.1816C223.939 48.0905 223.783 48.0449 223.574 48.0449H216.934V50.4473H221.055C221.257 50.4473 221.41 50.4017 221.514 50.3105C221.624 50.2194 221.715 50.0566 221.787 49.8223H222.051V52.9863H221.787C221.722 52.752 221.634 52.5892 221.523 52.498C221.419 52.4004 221.263 52.3516 221.055 52.3516H216.934ZM229.766 52.5078V56.0039C229.766 56.2057 229.811 56.362 229.902 56.4727C229.993 56.5768 230.156 56.6647 230.391 56.7363V57H226.523V56.7266C226.751 56.668 226.911 56.5833 227.002 56.4727C227.1 56.362 227.148 56.2057 227.148 56.0039V47.0586C227.148 46.8568 227.103 46.7038 227.012 46.5996C226.921 46.4954 226.758 46.4076 226.523 46.3359V46.0625H233.691C234.622 46.0625 235.332 46.1113 235.82 46.209C236.309 46.3001 236.745 46.4694 237.129 46.7168C237.917 47.2311 238.311 48.071 238.311 49.2363C238.311 50.1217 238.066 50.8151 237.578 51.3164C237.096 51.8112 236.315 52.1693 235.234 52.3906L237.305 55.2812C237.682 55.8151 237.982 56.1797 238.203 56.375C238.431 56.5638 238.688 56.6842 238.975 56.7363V57H234.385V56.7363C234.723 56.6452 234.893 56.4987 234.893 56.2969C234.893 56.1536 234.788 55.9355 234.58 55.6426L232.393 52.5078H229.766ZM229.766 50.5254H233.711C234.31 50.5254 234.753 50.4603 235.039 50.3301C235.443 50.1543 235.645 49.806 235.645 49.2852C235.645 48.8229 235.501 48.5007 235.215 48.3184C234.935 48.1361 234.434 48.0449 233.711 48.0449H229.766V50.5254Z" fill="#D6CB89"/>
</svg>
