<svg width="37" height="37" viewBox="0 0 37 37" fill="none" xmlns="http://www.w3.org/2000/svg">
<path fill-rule="evenodd" clip-rule="evenodd" d="M29.5506 7.223C28.8136 6.21229 27.9283 5.42778 26.8835 4.91569C25.7046 4.33785 24.3945 4.14225 22.9931 4.28304C20.7308 4.5103 19.1507 5.77179 18.2481 7.62358C17.4772 9.20529 17.2083 11.1866 17.3004 13.3074C15.1967 14.1222 13.3405 13.6809 11.6953 12.6307C9.81322 11.4292 8.24814 9.44012 7.14725 7.64568C6.90484 7.25056 6.44989 7.03841 5.99139 7.10668C5.53289 7.17496 5.15949 7.51047 5.04272 7.95908C4.27231 10.919 3.44699 14.7427 5.08263 18.9917C6.0194 21.4251 7.98872 23.4486 10.8181 25.1178C8.00598 26.379 5.77726 26.7559 4.07014 26.4305C3.512 26.3241 2.95928 26.6391 2.76622 27.1735C2.57316 27.7078 2.79698 28.3033 3.29423 28.5782C3.32937 28.5977 3.36992 28.6202 3.41572 28.6457C4.33911 29.1596 7.39468 30.8603 11.1856 31.9047C15.1344 32.9926 20.1334 33.4379 24.3692 30.7914C32.224 25.8837 32.1714 17.5664 32.1463 13.606C32.1456 13.5005 32.145 13.398 32.1445 13.2988C32.2537 13.1091 32.3891 12.9125 32.5639 12.6632C32.5721 12.6514 32.5805 12.6395 32.5889 12.6275C32.8147 12.3057 33.093 11.9089 33.3489 11.4243C33.9017 10.3772 34.3016 9.0196 34.3016 6.89381C34.3016 6.43448 34.0297 6.0187 33.6089 5.83455C33.1881 5.6504 32.6982 5.7328 32.3608 6.04448C31.2772 7.04539 30.365 7.3399 29.5506 7.223ZM25.8657 6.99218C25.129 6.63108 24.2618 6.47972 23.2242 6.58396C21.828 6.72422 20.9096 7.44114 20.3268 8.63679C19.7115 9.89917 19.4699 11.7216 19.6577 13.9362C19.6976 14.4061 19.4481 14.853 19.0274 15.0658C15.7742 16.7109 12.8217 16.0933 10.451 14.5799C8.98704 13.6453 7.73335 12.3674 6.71136 11.0677C6.32376 13.2695 6.26744 15.6325 7.24075 18.1609C8.08752 20.3606 10.1839 22.3751 13.8475 24.1019C14.2418 24.2877 14.498 24.6795 14.5103 25.1153C14.5225 25.551 14.2887 25.9566 13.9055 26.1643C11.9098 27.2459 10.0349 28.0251 8.29559 28.4581C9.33512 28.8909 10.5237 29.3237 11.7998 29.6753C15.5174 30.6995 19.7264 30.9655 23.1438 28.8303C29.8742 24.6251 29.8476 17.5531 29.8326 13.5435C29.8319 13.3611 29.8312 13.1851 29.8312 13.0159C29.8312 12.8436 29.8698 12.6734 29.944 12.5178C30.1626 12.0599 30.4361 11.6699 30.6633 11.3458L30.6716 11.3339C30.9107 10.9929 31.1168 10.6989 31.3039 10.3446C31.465 10.0394 31.6219 9.6698 31.7448 9.18616C30.7179 9.60479 29.6374 9.69061 28.5247 9.35819C28.2635 9.28017 28.0383 9.11238 27.8888 8.88445C27.2846 7.9632 26.6049 7.35445 25.8657 6.99218Z" fill="#D6CB89"/>
</svg>
