<svg width="331" height="104" viewBox="0 0 331 104" fill="none" xmlns="http://www.w3.org/2000/svg">
<rect x="3.5" y="0.5" width="127" height="29" rx="14.5" stroke="#D6CB89"/>
<rect x="203.5" y="0.5" width="127" height="29" rx="14.5" stroke="#D6CB89"/>
<line x1="155" y1="14.5" x2="178" y2="14.5" stroke="#D6CB89"/>
<path d="M15.8911 10.6338C15.9123 10.6338 16.0562 10.6296 16.3228 10.6211L16.5259 10.6274L16.9258 10.6338C16.9427 10.7692 16.9512 10.8687 16.9512 10.9321C16.9512 10.9533 16.9491 11.0189 16.9448 11.1289C16.9406 11.1882 16.9364 11.4146 16.9321 11.8081L16.9194 12.7666L16.9258 13.3696L16.8813 17.6543V18.0161C16.8813 18.1431 16.911 18.234 16.9702 18.2891C17.0295 18.3441 17.1882 18.3906 17.4463 18.4287C17.5479 18.4414 17.751 18.4753 18.0557 18.5303C18.0641 18.5726 18.0684 18.6128 18.0684 18.6509C18.0684 18.6974 18.0641 18.799 18.0557 18.9556H17.7827C17.5965 18.9556 17.3257 18.9471 16.9702 18.9302C16.7544 18.9175 16.6063 18.9111 16.5259 18.9111C16.4243 18.9111 16.0498 18.9217 15.4023 18.9429C15.3304 18.9471 15.2712 18.9492 15.2246 18.9492H15.1104L14.9263 18.9365L14.7549 18.9492L14.4375 18.9365C14.3952 18.9365 14.3084 18.9429 14.1772 18.9556C14.1688 18.8625 14.1646 18.7905 14.1646 18.7397C14.1646 18.6932 14.1688 18.6234 14.1772 18.5303C14.3465 18.4837 14.5433 18.4372 14.7676 18.3906C15.0765 18.3271 15.2648 18.2658 15.3325 18.2065C15.4045 18.1431 15.4404 18.0605 15.4404 17.959L15.4341 17.5273L15.4595 17.0576L15.4531 16.0928L15.4468 15.8452C15.4468 15.8114 15.451 15.6844 15.4595 15.4644C15.4679 15.3501 15.4722 15.2485 15.4722 15.1597C15.4722 15.1047 15.4658 14.9333 15.4531 14.6455L15.4785 14.2837C15.4616 14.0086 15.4531 13.8457 15.4531 13.7949C15.4531 13.7314 15.4552 13.668 15.4595 13.6045L15.4722 13.4458L15.4531 13.0142L15.4722 12.8174C15.4764 12.7285 15.4785 12.61 15.4785 12.4619C15.4785 12.318 15.4764 12.1424 15.4722 11.9351C15.1717 12.1593 14.8289 12.3836 14.4438 12.6079C14.4015 12.6333 14.2111 12.7201 13.8726 12.8682C13.7371 12.665 13.6504 12.5127 13.6123 12.4111C14.0609 12.1784 14.3656 12.007 14.5264 11.897C14.793 11.7108 15.0807 11.478 15.3896 11.1987C15.5208 11.076 15.688 10.8877 15.8911 10.6338ZM21.5854 19.1777C21.5177 19.0973 21.4839 19.019 21.4839 18.9429C21.4839 18.8709 21.505 18.8138 21.5474 18.7715C21.5685 18.7419 21.6912 18.6847 21.9155 18.6001C22.3556 18.4308 22.7344 18.2277 23.0518 17.9907C23.3691 17.7495 23.6357 17.4596 23.8516 17.1211C24.0674 16.7783 24.2197 16.4102 24.3086 16.0166C24.4017 15.6188 24.4525 15.3057 24.4609 15.0771C24.4652 15.001 24.4842 14.8169 24.5181 14.5249C24.5435 14.3091 24.5562 14.0488 24.5562 13.7441C24.5562 12.665 24.425 11.9245 24.1626 11.5225C23.9637 11.222 23.7183 11.0718 23.4263 11.0718C23.1554 11.0718 22.9248 11.2008 22.7344 11.459C22.4762 11.8102 22.3472 12.3117 22.3472 12.9634C22.3472 13.3654 22.3726 13.742 22.4233 14.0933C22.4572 14.326 22.5334 14.5397 22.6519 14.7344C22.728 14.8613 22.8 14.9438 22.8677 14.9819C23.0327 15.0623 23.1978 15.1025 23.3628 15.1025C23.4686 15.1025 23.5786 15.0856 23.6929 15.0518L23.7881 15.0327C23.8389 15.0327 23.8854 15.0581 23.9277 15.1089C23.9701 15.1554 23.9912 15.2253 23.9912 15.3184C23.9912 15.4792 23.9277 15.5828 23.8008 15.6294C23.5299 15.731 23.2358 15.7817 22.9185 15.7817C22.7196 15.7817 22.5947 15.7733 22.5439 15.7563C22.1462 15.6125 21.8986 15.5046 21.8013 15.4326C21.5558 15.2549 21.3675 15.075 21.2363 14.8931C21.1094 14.7069 21.0142 14.4953 20.9507 14.2583C20.8703 13.9451 20.8301 13.6299 20.8301 13.3125C20.8301 12.8089 20.9422 12.3434 21.1665 11.916C21.395 11.4844 21.7061 11.1606 22.0996 10.9448C22.4974 10.729 22.9227 10.6211 23.3755 10.6211C24.1795 10.6211 24.8481 10.9279 25.3813 11.5415C25.9188 12.1551 26.1875 13.0417 26.1875 14.2012C26.1875 14.7725 26.0775 15.3818 25.8574 16.0293C25.8024 16.1901 25.6479 16.4927 25.394 16.937C25.1401 17.3771 24.7974 17.7791 24.3657 18.1431C23.9341 18.5028 23.4792 18.7673 23.001 18.9365C22.5228 19.1058 22.1313 19.1904 21.8267 19.1904C21.7716 19.1904 21.6912 19.1862 21.5854 19.1777ZM30.6567 15.1406C30.5298 14.9798 30.4261 14.8529 30.3457 14.7598C31.1159 14.2012 31.63 13.7463 31.8882 13.395C32.0575 13.1707 32.1421 12.9274 32.1421 12.665C32.1421 12.3942 32.0448 12.1593 31.8501 11.9604C31.6554 11.7616 31.4333 11.6621 31.1836 11.6621C30.6673 11.6621 30.1976 11.9774 29.7744 12.6079L29.3745 12.3921C29.5776 11.9478 29.7765 11.6156 29.9712 11.3955C30.1701 11.1712 30.4515 10.9808 30.8154 10.8242C31.0905 10.7057 31.4333 10.6465 31.8438 10.6465C32.3981 10.6465 32.8255 10.7861 33.126 11.0654C33.4264 11.3405 33.5767 11.6875 33.5767 12.1064C33.5767 12.4365 33.473 12.7539 33.2656 13.0586C33.0583 13.359 32.6901 13.6891 32.1611 14.0488H32.2944C32.8615 14.0488 33.3228 14.2668 33.6782 14.7026C34.0379 15.1385 34.2178 15.6146 34.2178 16.1309C34.2178 16.5667 34.1162 17.0216 33.9131 17.4956C33.7142 17.9696 33.346 18.3695 32.8086 18.6953C32.2712 19.0169 31.611 19.1777 30.8281 19.1777C30.0706 19.1777 29.493 19.0444 29.0952 18.7778C28.8413 18.6086 28.7144 18.4097 28.7144 18.1812C28.7144 18.0203 28.7757 17.8807 28.8984 17.7622C29.0212 17.6437 29.1777 17.5845 29.3682 17.5845C29.529 17.5845 29.6771 17.6268 29.8125 17.7114C29.9479 17.7961 30.132 17.9865 30.3647 18.2827C30.4832 18.4351 30.5975 18.5324 30.7075 18.5747C30.9022 18.6551 31.0439 18.6953 31.1328 18.6953C31.3571 18.6953 31.5898 18.6191 31.8311 18.4668C32.0765 18.3145 32.2712 18.0627 32.415 17.7114C32.5589 17.356 32.6309 16.9434 32.6309 16.4736C32.6309 15.9701 32.5039 15.5744 32.25 15.2866C32.0003 14.9946 31.7253 14.8486 31.4248 14.8486C31.2048 14.8486 30.9487 14.946 30.6567 15.1406ZM36.9858 14.8804C36.9858 14.4149 37.0133 14.0509 37.0684 13.7886C37.1953 13.158 37.318 12.701 37.4365 12.4175C37.6227 11.9774 37.8407 11.6219 38.0903 11.3511C38.3442 11.076 38.6362 10.8687 38.9663 10.729C39.161 10.6444 39.4191 10.6021 39.7407 10.6021C40.1343 10.6021 40.5173 10.7396 40.8896 11.0146C41.262 11.2897 41.5942 11.7446 41.8862 12.3794C42.1782 13.0099 42.3242 13.8034 42.3242 14.7598C42.3242 15.4665 42.2438 16.1309 42.083 16.7529C41.9814 17.1296 41.8354 17.4787 41.645 17.8003C41.4588 18.1177 41.3044 18.3377 41.1816 18.4604C40.9701 18.6678 40.7373 18.8328 40.4834 18.9556C40.2295 19.0783 40.0243 19.1396 39.8677 19.1396C39.4064 19.1396 39.0552 19.0931 38.814 19C38.5728 18.9111 38.34 18.7482 38.1157 18.5112C37.8957 18.2743 37.6968 17.9717 37.519 17.6035C37.3455 17.2354 37.2207 16.8799 37.1445 16.5371C37.0387 16.0589 36.9858 15.5067 36.9858 14.8804ZM38.6299 15.7183C38.6299 16.6493 38.6595 17.2798 38.7188 17.6099C38.778 17.9357 38.8901 18.1812 39.0552 18.3462C39.2244 18.507 39.4022 18.5874 39.5884 18.5874C39.7788 18.5874 39.9417 18.5366 40.0771 18.4351C40.2126 18.3335 40.3268 18.1748 40.4199 17.959C40.5173 17.7389 40.585 17.394 40.623 16.9243C40.6865 16.1584 40.7183 15.6104 40.7183 15.2803L40.6992 14.4424V13.5474C40.6992 13.1242 40.6696 12.7306 40.6104 12.3667C40.5511 12.0028 40.4707 11.7425 40.3691 11.5859C40.2718 11.4251 40.1533 11.3151 40.0137 11.2559C39.8783 11.1924 39.7471 11.1606 39.6201 11.1606C39.4635 11.1606 39.2943 11.2389 39.1123 11.3955C38.9303 11.5479 38.7992 11.8293 38.7188 12.2397C38.6383 12.6502 38.5981 13.3506 38.5981 14.3408L38.6108 14.7915C38.6235 15.2274 38.6299 15.5363 38.6299 15.7183Z" fill="white"/>
<path d="M10.9209 97.9873H8.01367C8.00944 97.9492 8.00732 97.9175 8.00732 97.8921C8.00732 97.8201 8.02214 97.7715 8.05176 97.7461C8.08138 97.7165 8.17448 97.6868 8.33105 97.6572C8.5765 97.6064 8.77539 97.5451 8.92773 97.4731C8.97005 97.38 8.99121 97.2933 8.99121 97.2129V96.8193C8.99121 96.7728 8.99756 96.5591 9.01025 96.1782C9.01449 96.0343 9.01872 95.4123 9.02295 94.312L9.03564 92.8203L9.02295 91.9507C9.02295 91.8237 9.02718 91.4238 9.03564 90.751C8.07503 91.4365 7.54818 91.7793 7.45508 91.7793C7.42122 91.7793 7.38525 91.7624 7.34717 91.7285C7.30908 91.6904 7.29004 91.6545 7.29004 91.6206C7.29004 91.5783 7.30485 91.5444 7.33447 91.519C7.39372 91.464 7.53548 91.373 7.75977 91.2461C7.79362 91.2292 7.93962 91.1149 8.19775 90.9033C8.60824 90.5605 8.90869 90.2918 9.09912 90.0972C9.28955 89.9025 9.40592 89.7925 9.44824 89.7671C9.53288 89.7629 9.59847 89.7607 9.64502 89.7607C9.75505 89.7607 9.82275 89.7798 9.84814 89.8179C9.87777 89.8517 9.89258 89.9808 9.89258 90.2051L9.84814 95.8608V96.4194C9.84814 96.5549 9.84603 96.6924 9.8418 96.832C9.83757 96.9674 9.83545 97.0669 9.83545 97.1304C9.83545 97.2827 9.85449 97.3822 9.89258 97.4287C9.91797 97.4583 9.99626 97.4964 10.1274 97.543L10.5591 97.6318C10.7453 97.6784 10.8468 97.7101 10.8638 97.7271C10.9061 97.7651 10.9272 97.8244 10.9272 97.9048L10.9209 97.9873ZM18.9448 90.313C19.258 90.6515 19.4823 90.9858 19.6177 91.3159C19.7996 91.7814 19.8906 92.321 19.8906 92.9346C19.8906 93.6286 19.7891 94.2464 19.5859 94.7881C19.3828 95.3298 19.1353 95.7995 18.8433 96.1973C18.5555 96.5908 18.2529 96.9167 17.9355 97.1748C17.6182 97.4287 17.2267 97.6615 16.7612 97.873C16.2957 98.0846 15.9064 98.1904 15.5933 98.1904H15.5425C15.4917 98.1523 15.4663 98.1058 15.4663 98.0508C15.4663 97.9873 15.4769 97.945 15.498 97.9238C15.5192 97.9027 15.5742 97.89 15.6631 97.8857C15.8197 97.873 16.0841 97.7757 16.4565 97.5938C16.9644 97.3398 17.3516 97.0605 17.6182 96.7559C18.071 96.2396 18.4074 95.6556 18.6274 95.0039C18.8517 94.3522 18.9639 93.6222 18.9639 92.814C18.9639 92.1411 18.8877 91.5952 18.7354 91.1763C18.583 90.7573 18.3672 90.4548 18.0879 90.2686C17.8086 90.0824 17.5399 89.9893 17.2817 89.9893C16.9432 89.9893 16.6554 90.1501 16.4185 90.4717C16.0926 90.9202 15.9297 91.5677 15.9297 92.4141C15.9297 93.0827 16.082 93.6095 16.3867 93.9946C16.6025 94.2655 16.8988 94.4009 17.2754 94.4009C17.4108 94.4009 17.5081 94.3882 17.5674 94.3628L17.6182 94.3438C17.6605 94.3438 17.6986 94.3649 17.7324 94.4072C17.7832 94.4707 17.8086 94.5363 17.8086 94.604L17.7388 94.6611C17.6457 94.7035 17.5378 94.7352 17.415 94.7563C17.2965 94.7775 17.1632 94.7881 17.0151 94.7881C16.4946 94.7881 16.0249 94.5511 15.606 94.0771C15.187 93.6032 14.9775 93.0065 14.9775 92.2871C14.9775 91.5508 15.2124 90.9372 15.6821 90.4463C16.1561 89.9512 16.721 89.7036 17.377 89.7036C17.6605 89.7036 17.9102 89.7438 18.126 89.8242C18.3418 89.9046 18.6147 90.0675 18.9448 90.313ZM23.5854 91.6016L23.376 91.4873C23.6426 90.8398 23.96 90.3849 24.3281 90.1226C24.6963 89.856 25.1258 89.7227 25.6167 89.7227C26.0737 89.7227 26.4398 89.8242 26.7148 90.0273C27.1253 90.332 27.3306 90.6748 27.3306 91.0557C27.3306 91.3646 27.2248 91.6756 27.0132 91.9888C26.8058 92.3019 26.4398 92.6532 25.915 93.0425L26.0674 93.0361C26.3975 93.0361 26.7148 93.1208 27.0195 93.29C27.3285 93.4551 27.5718 93.7153 27.7495 94.0708C27.9272 94.422 28.0161 94.8008 28.0161 95.207C28.0161 96.0238 27.7157 96.7241 27.1147 97.3081C26.5181 97.8879 25.7563 98.1777 24.8296 98.1777C24.1271 98.1777 23.6087 98.0762 23.2744 97.873C23.0924 97.7673 23.0015 97.634 23.0015 97.4731C23.0015 97.3843 23.0374 97.3039 23.1094 97.2319C23.1855 97.16 23.2786 97.124 23.3887 97.124C23.5283 97.124 23.6976 97.2002 23.8965 97.3525C24.3662 97.7122 24.7746 97.8921 25.1216 97.8921C25.6463 97.8921 26.1118 97.672 26.5181 97.2319C26.9243 96.7876 27.1274 96.229 27.1274 95.5562C27.1274 94.9976 26.9899 94.5405 26.7148 94.1851C26.444 93.8254 26.0991 93.6455 25.6802 93.6455C25.367 93.6455 25.0412 93.7936 24.7026 94.0898L24.5503 93.8359C24.7619 93.654 24.9523 93.4995 25.1216 93.3726C25.6379 92.9959 26.0229 92.6257 26.2769 92.2617C26.4588 91.9993 26.5498 91.7687 26.5498 91.5698C26.5498 91.2355 26.4313 90.9541 26.1943 90.7256C25.9574 90.4928 25.6463 90.3765 25.2612 90.3765C24.6265 90.3765 24.0679 90.7848 23.5854 91.6016ZM36.2812 93.9946C36.2812 94.4305 36.2495 94.8177 36.186 95.1562C36.0718 95.7402 35.9131 96.229 35.71 96.6226C35.5068 97.0161 35.2656 97.3483 34.9863 97.6191C34.7832 97.818 34.5674 97.9619 34.3389 98.0508C34.1104 98.1439 33.8776 98.1904 33.6406 98.1904C33.2217 98.1904 32.8239 98.0508 32.4473 97.7715C32.0749 97.4922 31.749 97.0309 31.4697 96.3877C31.1904 95.7445 31.0508 94.987 31.0508 94.1152C31.0508 93.4339 31.1354 92.7801 31.3047 92.1538C31.474 91.5275 31.6961 91.043 31.9712 90.7002C32.2505 90.3532 32.5256 90.1035 32.7964 89.9512C33.0715 89.7988 33.3698 89.7227 33.6914 89.7227C34.1442 89.7227 34.5822 89.9004 35.0054 90.2559C35.4328 90.6113 35.7734 91.1636 36.0273 91.9126C36.1966 92.4162 36.2812 93.1102 36.2812 93.9946ZM35.3291 93.7852C35.3249 92.7441 35.2868 92.0374 35.2148 91.665C35.0964 91.0514 34.9017 90.6219 34.6309 90.3765C34.3643 90.131 34.0511 90.0083 33.6914 90.0083C33.391 90.0083 33.1053 90.1056 32.8345 90.3003C32.5679 90.495 32.3838 90.7996 32.2822 91.2144C32.1087 91.8872 32.022 92.9071 32.022 94.2739C32.022 95.6281 32.1553 96.576 32.4219 97.1177C32.6927 97.6551 33.0968 97.9238 33.6343 97.9238C34.0024 97.9238 34.3198 97.8096 34.5864 97.5811C34.8573 97.3525 35.0498 96.9294 35.1641 96.3115C35.2826 95.6895 35.3397 94.9933 35.3354 94.2231L35.3291 93.7852Z" fill="#D6CB89"/>
<path d="M219.848 18.9746H219.188C219.031 18.9746 218.908 18.9725 218.819 18.9683C218.68 18.964 218.595 18.9619 218.565 18.9619L218.134 18.981L218.02 18.9683C217.918 18.9556 217.793 18.9492 217.645 18.9492C217.505 18.9492 217.266 18.9556 216.928 18.9683C216.767 18.9725 216.67 18.9746 216.636 18.9746L215.995 18.9619L214.966 18.9746H214.56V18.543C215.161 17.7812 215.612 17.2502 215.912 16.9497C216.217 16.645 216.648 16.1414 217.207 15.439C217.596 14.9565 217.863 14.5249 218.007 14.144C218.155 13.7632 218.229 13.4331 218.229 13.1538C218.229 12.8407 218.182 12.5592 218.089 12.3096C218 12.0599 217.84 11.8631 217.607 11.7192C217.378 11.5754 217.129 11.5034 216.858 11.5034C216.583 11.5034 216.335 11.5711 216.115 11.7065C215.895 11.842 215.734 12.0133 215.633 12.2207C215.476 12.5212 215.381 12.8343 215.347 13.1602H214.884C214.871 12.9782 214.865 12.8258 214.865 12.7031C214.865 12.2926 215.023 11.8991 215.341 11.5225C215.832 10.9385 216.524 10.6465 217.417 10.6465C218.161 10.6465 218.747 10.8581 219.175 11.2812C219.602 11.7002 219.816 12.2292 219.816 12.8682C219.816 13.1221 219.776 13.3612 219.695 13.5854C219.581 13.8901 219.441 14.1546 219.276 14.3789C219.116 14.6032 218.669 15.0814 217.937 15.8135C217.408 16.3424 216.746 16.9688 215.95 17.6924L216.655 17.7051L217.81 17.6797L218.483 17.6924C218.838 17.6924 219.073 17.6543 219.188 17.5781C219.306 17.502 219.414 17.3221 219.511 17.0386C219.532 16.9709 219.57 16.8693 219.625 16.7339L220.044 16.7085L220.127 16.7339C220.148 16.7677 220.159 16.7995 220.159 16.8291C220.159 16.8968 220.148 16.9814 220.127 17.083C220.106 17.1846 220.08 17.3517 220.051 17.5845C220.025 17.8172 219.958 18.2806 219.848 18.9746ZM222.768 14.8804C222.768 14.4149 222.796 14.0509 222.851 13.7886C222.978 13.158 223.1 12.701 223.219 12.4175C223.405 11.9774 223.623 11.6219 223.873 11.3511C224.126 11.076 224.418 10.8687 224.749 10.729C224.943 10.6444 225.201 10.6021 225.523 10.6021C225.917 10.6021 226.299 10.7396 226.672 11.0146C227.044 11.2897 227.376 11.7446 227.668 12.3794C227.96 13.0099 228.106 13.8034 228.106 14.7598C228.106 15.4665 228.026 16.1309 227.865 16.7529C227.764 17.1296 227.618 17.4787 227.427 17.8003C227.241 18.1177 227.087 18.3377 226.964 18.4604C226.752 18.6678 226.52 18.8328 226.266 18.9556C226.012 19.0783 225.806 19.1396 225.65 19.1396C225.189 19.1396 224.837 19.0931 224.596 19C224.355 18.9111 224.122 18.7482 223.898 18.5112C223.678 18.2743 223.479 17.9717 223.301 17.6035C223.128 17.2354 223.003 16.8799 222.927 16.5371C222.821 16.0589 222.768 15.5067 222.768 14.8804ZM224.412 15.7183C224.412 16.6493 224.442 17.2798 224.501 17.6099C224.56 17.9357 224.672 18.1812 224.837 18.3462C225.007 18.507 225.184 18.5874 225.371 18.5874C225.561 18.5874 225.724 18.5366 225.859 18.4351C225.995 18.3335 226.109 18.1748 226.202 17.959C226.299 17.7389 226.367 17.394 226.405 16.9243C226.469 16.1584 226.5 15.6104 226.5 15.2803L226.481 14.4424V13.5474C226.481 13.1242 226.452 12.7306 226.393 12.3667C226.333 12.0028 226.253 11.7425 226.151 11.5859C226.054 11.4251 225.936 11.3151 225.796 11.2559C225.66 11.1924 225.529 11.1606 225.402 11.1606C225.246 11.1606 225.076 11.2389 224.895 11.3955C224.713 11.5479 224.581 11.8293 224.501 12.2397C224.421 12.6502 224.38 13.3506 224.38 14.3408L224.393 14.7915C224.406 15.2274 224.412 15.5363 224.412 15.7183ZM236.035 18.9746H235.375C235.218 18.9746 235.096 18.9725 235.007 18.9683C234.867 18.964 234.783 18.9619 234.753 18.9619L234.321 18.981L234.207 18.9683C234.105 18.9556 233.981 18.9492 233.833 18.9492C233.693 18.9492 233.454 18.9556 233.115 18.9683C232.954 18.9725 232.857 18.9746 232.823 18.9746L232.182 18.9619L231.154 18.9746H230.748V18.543C231.348 17.7812 231.799 17.2502 232.1 16.9497C232.404 16.645 232.836 16.1414 233.395 15.439C233.784 14.9565 234.05 14.5249 234.194 14.144C234.342 13.7632 234.417 13.4331 234.417 13.1538C234.417 12.8407 234.37 12.5592 234.277 12.3096C234.188 12.0599 234.027 11.8631 233.794 11.7192C233.566 11.5754 233.316 11.5034 233.045 11.5034C232.77 11.5034 232.523 11.5711 232.303 11.7065C232.083 11.842 231.922 12.0133 231.82 12.2207C231.664 12.5212 231.569 12.8343 231.535 13.1602H231.071C231.059 12.9782 231.052 12.8258 231.052 12.7031C231.052 12.2926 231.211 11.8991 231.528 11.5225C232.019 10.9385 232.711 10.6465 233.604 10.6465C234.349 10.6465 234.935 10.8581 235.362 11.2812C235.79 11.7002 236.003 12.2292 236.003 12.8682C236.003 13.1221 235.963 13.3612 235.883 13.5854C235.769 13.8901 235.629 14.1546 235.464 14.3789C235.303 14.6032 234.857 15.0814 234.125 15.8135C233.596 16.3424 232.933 16.9688 232.138 17.6924L232.842 17.7051L233.998 17.6797L234.67 17.6924C235.026 17.6924 235.261 17.6543 235.375 17.5781C235.493 17.502 235.601 17.3221 235.699 17.0386C235.72 16.9709 235.758 16.8693 235.813 16.7339L236.232 16.7085L236.314 16.7339C236.336 16.7677 236.346 16.7995 236.346 16.8291C236.346 16.8968 236.336 16.9814 236.314 17.083C236.293 17.1846 236.268 17.3517 236.238 17.5845C236.213 17.8172 236.145 18.2806 236.035 18.9746ZM244.129 18.9746H243.469C243.312 18.9746 243.189 18.9725 243.101 18.9683C242.961 18.964 242.876 18.9619 242.847 18.9619L242.415 18.981L242.301 18.9683C242.199 18.9556 242.074 18.9492 241.926 18.9492C241.787 18.9492 241.548 18.9556 241.209 18.9683C241.048 18.9725 240.951 18.9746 240.917 18.9746L240.276 18.9619L239.248 18.9746H238.841V18.543C239.442 17.7812 239.893 17.2502 240.193 16.9497C240.498 16.645 240.93 16.1414 241.488 15.439C241.878 14.9565 242.144 14.5249 242.288 14.144C242.436 13.7632 242.51 13.4331 242.51 13.1538C242.51 12.8407 242.464 12.5592 242.371 12.3096C242.282 12.0599 242.121 11.8631 241.888 11.7192C241.66 11.5754 241.41 11.5034 241.139 11.5034C240.864 11.5034 240.617 11.5711 240.396 11.7065C240.176 11.842 240.016 12.0133 239.914 12.2207C239.757 12.5212 239.662 12.8343 239.628 13.1602H239.165C239.152 12.9782 239.146 12.8258 239.146 12.7031C239.146 12.2926 239.305 11.8991 239.622 11.5225C240.113 10.9385 240.805 10.6465 241.698 10.6465C242.443 10.6465 243.029 10.8581 243.456 11.2812C243.883 11.7002 244.097 12.2292 244.097 12.8682C244.097 13.1221 244.057 13.3612 243.977 13.5854C243.862 13.8901 243.723 14.1546 243.558 14.3789C243.397 14.6032 242.95 15.0814 242.218 15.8135C241.689 16.3424 241.027 16.9688 240.231 17.6924L240.936 17.7051L242.091 17.6797L242.764 17.6924C243.12 17.6924 243.354 17.6543 243.469 17.5781C243.587 17.502 243.695 17.3221 243.792 17.0386C243.814 16.9709 243.852 16.8693 243.907 16.7339L244.326 16.7085L244.408 16.7339C244.429 16.7677 244.44 16.7995 244.44 16.8291C244.44 16.8968 244.429 16.9814 244.408 17.083C244.387 17.1846 244.362 17.3517 244.332 17.5845C244.307 17.8172 244.239 18.2806 244.129 18.9746Z" fill="white"/>
<path d="M296.854 97.9873C296.219 97.9619 295.369 97.9492 294.302 97.9492L292.925 97.9873L292.309 97.9683L291.82 97.9873C291.77 97.9831 291.695 97.9725 291.598 97.9556C291.674 97.7778 291.772 97.6149 291.89 97.4668C292.241 97.0352 292.756 96.4787 293.433 95.7974C294.381 94.8452 295.005 94.0983 295.305 93.5566C295.606 93.0107 295.756 92.4987 295.756 92.0205C295.756 91.5719 295.604 91.1953 295.299 90.8906C294.994 90.5859 294.62 90.4336 294.175 90.4336C293.909 90.4336 293.651 90.4971 293.401 90.624C293.151 90.7467 292.95 90.9033 292.798 91.0938C292.701 91.2165 292.571 91.4619 292.411 91.8301C292.322 92.0332 292.269 92.1432 292.252 92.1602C292.227 92.1898 292.197 92.2046 292.163 92.2046C292.129 92.2046 292.095 92.1877 292.062 92.1538C292.032 92.1157 292.017 92.0692 292.017 92.0142C292.017 91.8237 292.112 91.519 292.303 91.1001C292.497 90.6812 292.781 90.3532 293.153 90.1162C293.53 89.8792 293.966 89.7607 294.461 89.7607C295.108 89.7607 295.648 89.9723 296.08 90.3955C296.515 90.8145 296.733 91.3159 296.733 91.8999C296.733 92.3612 296.585 92.8309 296.289 93.3091C295.993 93.783 295.312 94.5109 294.245 95.4927C293.894 95.8143 293.644 96.0513 293.496 96.2036C293.348 96.356 293.05 96.686 292.601 97.1938C293.249 97.2192 293.837 97.2319 294.366 97.2319C294.48 97.2319 294.605 97.2277 294.74 97.2192C294.99 97.2108 295.136 97.2065 295.178 97.2065L296.061 97.2256C296.158 97.2256 296.257 97.179 296.359 97.0859C296.46 96.9928 296.598 96.7305 296.771 96.2988L296.924 96.2925C296.945 96.2925 296.977 96.2946 297.019 96.2988C297.04 96.3411 297.051 96.3729 297.051 96.394L297.038 96.4448C297.004 96.5675 296.975 96.7918 296.949 97.1177C296.932 97.3081 296.901 97.598 296.854 97.9873ZM305.094 93.9946C305.094 94.4305 305.062 94.8177 304.999 95.1562C304.884 95.7402 304.726 96.229 304.522 96.6226C304.319 97.0161 304.078 97.3483 303.799 97.6191C303.596 97.818 303.38 97.9619 303.151 98.0508C302.923 98.1439 302.69 98.1904 302.453 98.1904C302.034 98.1904 301.636 98.0508 301.26 97.7715C300.887 97.4922 300.562 97.0309 300.282 96.3877C300.003 95.7445 299.863 94.987 299.863 94.1152C299.863 93.4339 299.948 92.7801 300.117 92.1538C300.286 91.5275 300.509 91.043 300.784 90.7002C301.063 90.3532 301.338 90.1035 301.609 89.9512C301.884 89.7988 302.182 89.7227 302.504 89.7227C302.957 89.7227 303.395 89.9004 303.818 90.2559C304.245 90.6113 304.586 91.1636 304.84 91.9126C305.009 92.4162 305.094 93.1102 305.094 93.9946ZM304.142 93.7852C304.137 92.7441 304.099 92.0374 304.027 91.665C303.909 91.0514 303.714 90.6219 303.443 90.3765C303.177 90.131 302.864 90.0083 302.504 90.0083C302.203 90.0083 301.918 90.1056 301.647 90.3003C301.38 90.495 301.196 90.7996 301.095 91.2144C300.921 91.8872 300.834 92.9071 300.834 94.2739C300.834 95.6281 300.968 96.576 301.234 97.1177C301.505 97.6551 301.909 97.9238 302.447 97.9238C302.815 97.9238 303.132 97.8096 303.399 97.5811C303.67 97.3525 303.862 96.9294 303.977 96.3115C304.095 95.6895 304.152 94.9933 304.148 94.2231L304.142 93.7852ZM313.042 97.9873C312.407 97.9619 311.556 97.9492 310.49 97.9492L309.112 97.9873L308.497 97.9683L308.008 97.9873C307.957 97.9831 307.883 97.9725 307.786 97.9556C307.862 97.7778 307.959 97.6149 308.078 97.4668C308.429 97.0352 308.943 96.4787 309.62 95.7974C310.568 94.8452 311.192 94.0983 311.493 93.5566C311.793 93.0107 311.943 92.4987 311.943 92.0205C311.943 91.5719 311.791 91.1953 311.486 90.8906C311.182 90.5859 310.807 90.4336 310.363 90.4336C310.096 90.4336 309.838 90.4971 309.588 90.624C309.339 90.7467 309.138 90.9033 308.985 91.0938C308.888 91.2165 308.759 91.4619 308.598 91.8301C308.509 92.0332 308.456 92.1432 308.439 92.1602C308.414 92.1898 308.384 92.2046 308.351 92.2046C308.317 92.2046 308.283 92.1877 308.249 92.1538C308.219 92.1157 308.205 92.0692 308.205 92.0142C308.205 91.8237 308.3 91.519 308.49 91.1001C308.685 90.6812 308.968 90.3532 309.341 90.1162C309.717 89.8792 310.153 89.7607 310.648 89.7607C311.296 89.7607 311.835 89.9723 312.267 90.3955C312.703 90.8145 312.921 91.3159 312.921 91.8999C312.921 92.3612 312.773 92.8309 312.477 93.3091C312.18 93.783 311.499 94.5109 310.433 95.4927C310.081 95.8143 309.832 96.0513 309.684 96.2036C309.535 96.356 309.237 96.686 308.789 97.1938C309.436 97.2192 310.024 97.2319 310.553 97.2319C310.667 97.2319 310.792 97.2277 310.928 97.2192C311.177 97.2108 311.323 97.2065 311.366 97.2065L312.248 97.2256C312.345 97.2256 312.445 97.179 312.546 97.0859C312.648 96.9928 312.785 96.7305 312.959 96.2988L313.111 96.2925C313.132 96.2925 313.164 96.2946 313.207 96.2988C313.228 96.3411 313.238 96.3729 313.238 96.394L313.226 96.4448C313.192 96.5675 313.162 96.7918 313.137 97.1177C313.12 97.3081 313.088 97.598 313.042 97.9873ZM321.135 97.9873C320.5 97.9619 319.65 97.9492 318.583 97.9492L317.206 97.9873L316.59 97.9683L316.102 97.9873C316.051 97.9831 315.977 97.9725 315.879 97.9556C315.956 97.7778 316.053 97.6149 316.171 97.4668C316.523 97.0352 317.037 96.4787 317.714 95.7974C318.662 94.8452 319.286 94.0983 319.586 93.5566C319.887 93.0107 320.037 92.4987 320.037 92.0205C320.037 91.5719 319.885 91.1953 319.58 90.8906C319.275 90.5859 318.901 90.4336 318.457 90.4336C318.19 90.4336 317.932 90.4971 317.682 90.624C317.432 90.7467 317.231 90.9033 317.079 91.0938C316.982 91.2165 316.853 91.4619 316.692 91.8301C316.603 92.0332 316.55 92.1432 316.533 92.1602C316.508 92.1898 316.478 92.2046 316.444 92.2046C316.41 92.2046 316.377 92.1877 316.343 92.1538C316.313 92.1157 316.298 92.0692 316.298 92.0142C316.298 91.8237 316.394 91.519 316.584 91.1001C316.779 90.6812 317.062 90.3532 317.435 90.1162C317.811 89.8792 318.247 89.7607 318.742 89.7607C319.39 89.7607 319.929 89.9723 320.361 90.3955C320.797 90.8145 321.015 91.3159 321.015 91.8999C321.015 92.3612 320.867 92.8309 320.57 93.3091C320.274 93.783 319.593 94.5109 318.526 95.4927C318.175 95.8143 317.925 96.0513 317.777 96.2036C317.629 96.356 317.331 96.686 316.882 97.1938C317.53 97.2192 318.118 97.2319 318.647 97.2319C318.761 97.2319 318.886 97.2277 319.021 97.2192C319.271 97.2108 319.417 97.2065 319.459 97.2065L320.342 97.2256C320.439 97.2256 320.539 97.179 320.64 97.0859C320.742 96.9928 320.879 96.7305 321.053 96.2988L321.205 96.2925C321.226 96.2925 321.258 96.2946 321.3 96.2988C321.321 96.3411 321.332 96.3729 321.332 96.394L321.319 96.4448C321.285 96.5675 321.256 96.7918 321.23 97.1177C321.214 97.3081 321.182 97.598 321.135 97.9873Z" fill="#D6CB89"/>
<line x1="7.5" y1="71.5" x2="321.5" y2="71.5" stroke="#D6CB89" stroke-linecap="round"/>
<circle cx="6.5" cy="71.5" r="6.5" fill="#D6CB89"/>
<circle cx="321.5" cy="71.5" r="6.5" fill="#D6CB89"/>
</svg>
